  0
SECTION
  2
HEADER
  9
$ACADVER
  1
AC1024
  9
$ACADMAINTVER
 70
   226
  9
$DWGCODEPAGE
  3
ANSI_1252
  9
$INSBASE
 10
0.0
 20
0.0
 30
0.0
  9
$EXTMIN
 10
1.000000000000000E+20
 20
1.000000000000000E+20
 30
1.000000000000000E+20
  9
$EXTMAX
 10
-1.000000000000000E+20
 20
-1.000000000000000E+20
 30
-1.000000000000000E+20
  9
$LIMMIN
 10
0.0
 20
0.0
  9
$LIMMAX
 10
12.0
 20
9.0
  9
$ORTHOMODE
 70
     0
  9
$REGENMODE
 70
     1
  9
$FILLMODE
 70
     1
  9
$QTEXTMODE
 70
     0
  9
$MIRRTEXT
 70
     0
  9
$LTSCALE
 40
1.0
  9
$ATTMODE
 70
     1
  9
$TEXTSIZE
 40
0.2
  9
$TRACEWID
 40
0.05
  9
$TEXTSTYLE
  7
Standard
  9
$CLAYER
  8
0
  9
$CELTYPE
  6
ByLayer
  9
$CECOLOR
 62
   256
  9
$CELTSCALE
 40
1.0
  9
$DISPSILH
 70
     0
  9
$DIMSCALE
 40
1.0
  9
$DIMASZ
 40
0.18
  9
$DIMEXO
 40
0.0625
  9
$DIMDLI
 40
0.38
  9
$DIMRND
 40
0.0
  9
$DIMDLE
 40
0.0
  9
$DIMEXE
 40
0.18
  9
$DIMTP
 40
0.0
  9
$DIMTM
 40
0.0
  9
$DIMTXT
 40
0.18
  9
$DIMCEN
 40
0.09
  9
$DIMTSZ
 40
0.0
  9
$DIMTOL
 70
     0
  9
$DIMLIM
 70
     0
  9
$DIMTIH
 70
     1
  9
$DIMTOH
 70
     1
  9
$DIMSE1
 70
     0
  9
$DIMSE2
 70
     0
  9
$DIMTAD
 70
     0
  9
$DIMZIN
 70
     0
  9
$DIMBLK
  1

  9
$DIMASO
 70
     1
  9
$DIMSHO
 70
     1
  9
$DIMPOST
  1

  9
$DIMAPOST
  1

  9
$DIMALT
 70
     0
  9
$DIMALTD
 70
     2
  9
$DIMALTF
 40
25.4
  9
$DIMLFAC
 40
1.0
  9
$DIMTOFL
 70
     0
  9
$DIMTVP
 40
0.0
  9
$DIMTIX
 70
     0
  9
$DIMSOXD
 70
     0
  9
$DIMSAH
 70
     0
  9
$DIMBLK1
  1

  9
$DIMBLK2
  1

  9
$DIMSTYLE
  2
Standard
  9
$DIMCLRD
 70
     0
  9
$DIMCLRE
 70
     0
  9
$DIMCLRT
 70
     0
  9
$DIMTFAC
 40
1.0
  9
$DIMGAP
 40
0.09
  9
$DIMJUST
 70
     0
  9
$DIMSD1
 70
     0
  9
$DIMSD2
 70
     0
  9
$DIMTOLJ
 70
     1
  9
$DIMTZIN
 70
     0
  9
$DIMALTZ
 70
     0
  9
$DIMALTTZ
 70
     0
  9
$DIMUPT
 70
     0
  9
$DIMDEC
 70
     4
  9
$DIMTDEC
 70
     4
  9
$DIMALTU
 70
     2
  9
$DIMALTTD
 70
     2
  9
$DIMTXSTY
  7
Standard
  9
$DIMAUNIT
 70
     0
  9
$DIMADEC
 70
     0
  9
$DIMALTRND
 40
0.0
  9
$DIMAZIN
 70
     0
  9
$DIMDSEP
 70
    46
  9
$DIMATFIT
 70
     3
  9
$DIMFRAC
 70
     0
  9
$DIMLDRBLK
  1

  9
$DIMLUNIT
 70
     2
  9
$DIMLWD
 70
    -2
  9
$DIMLWE
 70
    -2
  9
$DIMTMOVE
 70
     0
  9
$DIMFXL
 40
1.0
  9
$DIMFXLON
 70
     0
  9
$DIMJOGANG
 40
0.7853981633974483
  9
$DIMTFILL
 70
     0
  9
$DIMTFILLCLR
 70
     0
  9
$DIMARCSYM
 70
     0
  9
$DIMLTYPE
  6

  9
$DIMLTEX1
  6

  9
$DIMLTEX2
  6

  9
$DIMTXTDIRECTION
 70
     0
  9
$LUNITS
 70
     2
  9
$LUPREC
 70
     4
  9
$SKETCHINC
 40
0.1
  9
$FILLETRAD
 40
0.0
  9
$AUNITS
 70
     0
  9
$AUPREC
 70
     0
  9
$MENU
  1
.
  9
$ELEVATION
 40
0.0
  9
$PELEVATION
 40
0.0
  9
$THICKNESS
 40
0.0
  9
$LIMCHECK
 70
     0
  9
$CHAMFERA
 40
0.0
  9
$CHAMFERB
 40
0.0
  9
$CHAMFERC
 40
0.0
  9
$CHAMFERD
 40
0.0
  9
$SKPOLY
 70
     0
  9
$TDCREATE
 40
2460591.618506944
  9
$TDUCREATE
 40
2460591.493506945
  9
$TDUPDATE
 40
2460591.618506944
  9
$TDUUPDATE
 40
2460591.493506945
  9
$TDINDWG
 40
0.0000000000
  9
$TDUSRTIMER
 40
0.0000000000
  9
$USRTIMER
 70
     1
  9
$ANGBASE
 50
0.0
  9
$ANGDIR
 70
     0
  9
$PDMODE
 70
     0
  9
$PDSIZE
 40
0.0
  9
$PLINEWID
 40
0.0
  9
$SPLFRAME
 70
     0
  9
$SPLINETYPE
 70
     6
  9
$SPLINESEGS
 70
     8
  9
$HANDSEED
  5
123
  9
$SURFTAB1
 70
     6
  9
$SURFTAB2
 70
     6
  9
$SURFTYPE
 70
     6
  9
$SURFU
 70
     6
  9
$SURFV
 70
     6
  9
$UCSBASE
  2

  9
$UCSNAME
  2

  9
$UCSORG
 10
0.0
 20
0.0
 30
0.0
  9
$UCSXDIR
 10
1.0
 20
0.0
 30
0.0
  9
$UCSYDIR
 10
0.0
 20
1.0
 30
0.0
  9
$UCSORTHOREF
  2

  9
$UCSORTHOVIEW
 70
     0
  9
$UCSORGTOP
 10
0.0
 20
0.0
 30
0.0
  9
$UCSORGBOTTOM
 10
0.0
 20
0.0
 30
0.0
  9
$UCSORGLEFT
 10
0.0
 20
0.0
 30
0.0
  9
$UCSORGRIGHT
 10
0.0
 20
0.0
 30
0.0
  9
$UCSORGFRONT
 10
0.0
 20
0.0
 30
0.0
  9
$UCSORGBACK
 10
0.0
 20
0.0
 30
0.0
  9
$PUCSBASE
  2

  9
$PUCSNAME
  2

  9
$PUCSORG
 10
0.0
 20
0.0
 30
0.0
  9
$PUCSXDIR
 10
1.0
 20
0.0
 30
0.0
  9
$PUCSYDIR
 10
0.0
 20
1.0
 30
0.0
  9
$PUCSORTHOREF
  2

  9
$PUCSORTHOVIEW
 70
     0
  9
$PUCSORGTOP
 10
0.0
 20
0.0
 30
0.0
  9
$PUCSORGBOTTOM
 10
0.0
 20
0.0
 30
0.0
  9
$PUCSORGLEFT
 10
0.0
 20
0.0
 30
0.0
  9
$PUCSORGRIGHT
 10
0.0
 20
0.0
 30
0.0
  9
$PUCSORGFRONT
 10
0.0
 20
0.0
 30
0.0
  9
$PUCSORGBACK
 10
0.0
 20
0.0
 30
0.0
  9
$USERI1
 70
     0
  9
$USERI2
 70
     0
  9
$USERI3
 70
     0
  9
$USERI4
 70
     0
  9
$USERI5
 70
     0
  9
$USERR1
 40
0.0
  9
$USERR2
 40
0.0
  9
$USERR3
 40
0.0
  9
$USERR4
 40
0.0
  9
$USERR5
 40
0.0
  9
$WORLDVIEW
 70
     1
  9
$SHADEDGE
 70
     3
  9
$SHADEDIF
 70
    70
  9
$TILEMODE
 70
     1
  9
$MAXACTVP
 70
    64
  9
$PINSBASE
 10
0.0
 20
0.0
 30
0.0
  9
$PLIMCHECK
 70
     0
  9
$PEXTMIN
 10
1.000000000000000E+20
 20
1.000000000000000E+20
 30
1.000000000000000E+20
  9
$PEXTMAX
 10
-1.000000000000000E+20
 20
-1.000000000000000E+20
 30
-1.000000000000000E+20
  9
$PLIMMIN
 10
0.0
 20
0.0
  9
$PLIMMAX
 10
12.0
 20
9.0
  9
$UNITMODE
 70
     0
  9
$VISRETAIN
 70
     1
  9
$PLINEGEN
 70
     0
  9
$PSLTSCALE
 70
     1
  9
$TREEDEPTH
 70
  3020
  9
$CMLSTYLE
  2
Standard
  9
$CMLJUST
 70
     0
  9
$CMLSCALE
 40
1.0
  9
$PROXYGRAPHICS
 70
     1
  9
$MEASUREMENT
 70
     0
  9
$CELWEIGHT
370
    -1
  9
$ENDCAPS
280
     0
  9
$JOINSTYLE
280
     0
  9
$LWDISPLAY
290
     1
  9
$INSUNITS
 70
     4
  9
$HYPERLINKBASE
  1

  9
$STYLESHEET
  1

  9
$XEDIT
290
     1
  9
$CEPSNTYPE
380
     0
  9
$PSTYLEMODE
290
     1
  9
$FINGERPRINTGUID
  2
{BB11AF7D-026B-C049-8BC0-18E4E93005EF}
  9
$VERSIONGUID
  2
{3CB320DC-546E-6242-98F4-439A00A4C2BF}
  9
$EXTNAMES
290
     1
  9
$PSVPSCALE
 40
0.0
  9
$OLESTARTUP
290
     0
  9
$SORTENTS
280
   127
  9
$INDEXCTL
280
     0
  9
$HIDETEXT
280
     1
  9
$XCLIPFRAME
280
     2
  9
$HALOGAP
280
     0
  9
$OBSCOLOR
 70
   257
  9
$OBSLTYPE
280
     0
  9
$INTERSECTIONDISPLAY
280
     0
  9
$INTERSECTIONCOLOR
 70
   257
  9
$DIMASSOC
280
     2
  9
$PROJECTNAME
  1

  9
$CAMERADISPLAY
290
     0
  9
$LENSLENGTH
 40
50.0
  9
$CAMERAHEIGHT
 40
0.0
  9
$STEPSPERSEC
 40
2.0
  9
$STEPSIZE
 40
6.0
  9
$3DDWFPREC
 40
2.0
  9
$PSOLWIDTH
 40
0.25
  9
$PSOLHEIGHT
 40
4.0
  9
$LOFTANG1
 40
1.570796326794896
  9
$LOFTANG2
 40
1.570796326794896
  9
$LOFTMAG1
 40
0.0
  9
$LOFTMAG2
 40
0.0
  9
$LOFTPARAM
 70
     7
  9
$LOFTNORMALS
280
     1
  9
$LATITUDE
 40
37.795
  9
$LONGITUDE
 40
-122.394
  9
$NORTHDIRECTION
 40
0.0
  9
$TIMEZONE
 70
 -8000
  9
$LIGHTGLYPHDISPLAY
280
     1
  9
$TILEMODELIGHTSYNCH
280
     1
  9
$CMATERIAL
347
11
  9
$SOLIDHIST
280
     0
  9
$SHOWHIST
280
     1
  9
$DWFFRAME
280
     2
  9
$DGNFRAME
280
     0
  9
$REALWORLDSCALE
290
     1
  9
$INTERFERECOLOR
 62
     1
  9
$INTERFEREOBJVS
345
33
  9
$INTERFEREVPVS
346
30
  9
$CSHADOW
280
     0
  9
$SHADOWPLANELOCATION
 40
0.0
  0
ENDSEC
  0
SECTION
  2
CLASSES
  0
CLASS
  1
ACDBDICTIONARYWDFLT
  2
AcDbDictionaryWithDefault
  3
ObjectDBX Classes
 90
        0
 91
        1
280
     0
281
     0
  0
CLASS
  1
MATERIAL
  2
AcDbMaterial
  3
ObjectDBX Classes
 90
     1153
 91
        3
280
     0
281
     0
  0
CLASS
  1
VISUALSTYLE
  2
AcDbVisualStyle
  3
ObjectDBX Classes
 90
     4095
 91
       24
280
     0
281
     0
  0
CLASS
  1
SCALE
  2
AcDbScale
  3
ObjectDBX Classes
 90
     1153
 91
       17
280
     0
281
     0
  0
CLASS
  1
TABLESTYLE
  2
AcDbTableStyle
  3
ObjectDBX Classes
 90
     4095
 91
        1
280
     0
281
     0
  0
CLASS
  1
MLEADERSTYLE
  2
AcDbMLeaderStyle
  3
ACDB_MLEADERSTYLE_CLASS
 90
     4095
 91
        1
280
     0
281
     0
  0
CLASS
  1
ACDBSECTIONVIEWSTYLE
  2
AcDbSectionViewStyle
  3
ObjectDBX Classes
 90
     1025
 91
        1
280
     0
281
     0
  0
CLASS
  1
ACDBDETAILVIEWSTYLE
  2
AcDbDetailViewStyle
  3
ObjectDBX Classes
 90
     1025
 91
        1
280
     0
281
     0
  0
CLASS
  1
DICTIONARYVAR
  2
AcDbDictionaryVar
  3
ObjectDBX Classes
 90
        0
 91
        5
280
     0
281
     0
  0
CLASS
  1
CELLSTYLEMAP
  2
AcDbCellStyleMap
  3
ObjectDBX Classes
 90
     1152
 91
        1
280
     0
281
     0
  0
ENDSEC
  0
SECTION
  2
TABLES
  0
TABLE
  2
VPORT
  5
8
330
0
100
AcDbSymbolTable
 70
     1
  0
VPORT
  5
57
330
8
100
AcDbSymbolTableRecord
100
AcDbViewportTableRecord
  2
*Active
 70
     0
 10
0.0
 20
0.0
 11
1.0
 21
1.0
 12
0.0
 22
0.0
 13
0.0
 23
0.0
 14
1.0
 24
1.0
 15
0.0
 25
0.0
 16
0.0
 26
0.0
 36
1.0
 17
299.9999999249995
 27
-149.9999999624995
 37
0.0
 40
509.9999998724999
 41
1.209999999999999
 42
50.0
 43
0.0
 44
0.0
 50
0.0
 51
0.0
 71
     0
 72
   100
 73
     1
 74
     1
 75
     0
 76
     0
 77
     0
 78
     0
281
     0
 65
     1
110
0.0
120
0.0
130
0.0
111
1.0
121
0.0
131
0.0
112
0.0
122
1.0
132
0.0
 79
     0
146
0.0
 60
     3
 61
     5
292
     1
282
     1
141
0.0
142
0.0
 63
   250
421
  3355443
  0
ENDTAB
  0
TABLE
  2
LTYPE
  5
5
330
0
100
AcDbSymbolTable
 70
     1
  0
LTYPE
  5
5B
330
5
100
AcDbSymbolTableRecord
100
AcDbLinetypeTableRecord
  2
ByBlock
 70
     0
  3

 72
    65
 73
     0
 40
0.0
  0
LTYPE
  5
5C
330
5
100
AcDbSymbolTableRecord
100
AcDbLinetypeTableRecord
  2
ByLayer
 70
     0
  3

 72
    65
 73
     0
 40
0.0
  0
LTYPE
  5
5D
330
5
100
AcDbSymbolTableRecord
100
AcDbLinetypeTableRecord
  2
Continuous
 70
     0
  3
Solid line
 72
    65
 73
     0
 40
0.0
  0
ENDTAB
  0
TABLE
  2
LAYER
  5
2
330
0
100
AcDbSymbolTable
 70
     2
  0
LAYER
  5
54
330
2
100
AcDbSymbolTableRecord
100
AcDbLayerTableRecord
  2
0
 70
     0
 62
     7
  6
Continuous
370
    -3
390
F
347
21
  0
LAYER
  5
78
330
2
100
AcDbSymbolTableRecord
100
AcDbLayerTableRecord
  2
Layer 1
 70
     0
 62
     7
  6
Continuous
370
     0
390
F
347
21
  0
ENDTAB
  0
TABLE
  2
STYLE
  5
3
330
0
100
AcDbSymbolTable
 70
     2
  0
STYLE
  5
55
330
3
100
AcDbSymbolTableRecord
100
AcDbTextStyleTableRecord
  2
Standard
 70
     0
 40
0.0
 41
1.0
 50
0.0
 71
     0
 42
0.2
  3
txt
  4

  0
STYLE
  5
5A
330
3
100
AcDbSymbolTableRecord
100
AcDbTextStyleTableRecord
  2
Annotative
 70
     0
 40
0.0
 41
1.0
 50
0.0
 71
     0
 42
0.2
  3
txt
  4

1001
AcadAnnotative
1000
AnnotativeData
1002
{
1070
     1
1070
     1
1002
}
  0
ENDTAB
  0
TABLE
  2
VIEW
  5
6
330
0
100
AcDbSymbolTable
 70
     0
  0
ENDTAB
  0
TABLE
  2
UCS
  5
7
330
0
100
AcDbSymbolTable
 70
     0
  0
ENDTAB
  0
TABLE
  2
APPID
  5
9
330
0
100
AcDbSymbolTable
 70
     2
  0
APPID
  5
56
330
9
100
AcDbSymbolTableRecord
100
AcDbRegAppTableRecord
  2
ACAD
 70
     0
  0
APPID
  5
5E
330
9
100
AcDbSymbolTableRecord
100
AcDbRegAppTableRecord
  2
AcadAnnotative
 70
     0
  0
ENDTAB
  0
TABLE
  2
DIMSTYLE
  5
A
330
0
100
AcDbSymbolTable
 70
     2
100
AcDbDimStyleTable
 71
     0
  0
DIMSTYLE
105
58
330
A
100
AcDbSymbolTableRecord
100
AcDbDimStyleTableRecord
  2
Standard
 70
     0
340
55
  0
DIMSTYLE
105
59
330
A
100
AcDbSymbolTableRecord
100
AcDbDimStyleTableRecord
  2
Annotative
 70
     0
340
55
1001
AcadAnnotative
1000
AnnotativeData
1002
{
1070
     1
1070
     1
1002
}
  0
ENDTAB
  0
TABLE
  2
BLOCK_RECORD
  5
1
330
0
100
AcDbSymbolTable
 70
     1
  0
BLOCK_RECORD
  5
70
330
1
100
AcDbSymbolTableRecord
100
AcDbBlockTableRecord
  2
*Model_Space
340
73
 70
     0
280
     1
281
     0
  0
BLOCK_RECORD
  5
6C
330
1
100
AcDbSymbolTableRecord
100
AcDbBlockTableRecord
  2
*Paper_Space
340
6F
 70
     0
280
     1
281
     0
  0
BLOCK_RECORD
  5
74
330
1
100
AcDbSymbolTableRecord
100
AcDbBlockTableRecord
  2
*Paper_Space0
340
77
 70
     0
280
     1
281
     0
  0
ENDTAB
  0
ENDSEC
  0
SECTION
  2
BLOCKS
  0
BLOCK
  5
71
330
70
100
AcDbEntity
  8
0
100
AcDbBlockBegin
  2
*Model_Space
 70
     0
 10
0.0
 20
0.0
 30
0.0
  3
*Model_Space
  1

  0
ENDBLK
  5
72
330
70
100
AcDbEntity
  8
0
100
AcDbBlockEnd
  0
BLOCK
  5
6D
330
6C
100
AcDbEntity
 67
     1
  8
0
100
AcDbBlockBegin
  2
*Paper_Space
 70
     0
 10
0.0
 20
0.0
 30
0.0
  3
*Paper_Space
  1

  0
ENDBLK
  5
6E
330
6C
100
AcDbEntity
 67
     1
  8
0
100
AcDbBlockEnd
  0
BLOCK
  5
75
330
74
100
AcDbEntity
 67
     1
  8
0
100
AcDbBlockBegin
  2
*Paper_Space0
 70
     0
 10
0.0
 20
0.0
 30
0.0
  3
*Paper_Space0
  1

  0
ENDBLK
  5
76
330
74
100
AcDbEntity
 67
     1
  8
0
100
AcDbBlockEnd
  0
ENDSEC
  0
SECTION
  2
ENTITIES
  0
SPLINE
  5
79
330
70
100
AcDbEntity
  8
Layer 1
 62
    18
420
        0
370
    25
100
AcDbSpline
210
0.0
220
0.0
230
1.0
 70
     9
 71
     3
 72
    29
 73
    25
 74
     0
 42
0.0000000001
 43
0.0000000001
 40
0.0
 40
0.0
 40
0.0
 40
0.0
 40
1.0
 40
1.0
 40
1.0
 40
2.0
 40
2.0
 40
2.0
 40
3.0
 40
3.0
 40
3.0
 40
4.0
 40
4.0
 40
4.0
 40
5.0
 40
5.0
 40
5.0
 40
6.0
 40
6.0
 40
6.0
 40
7.0
 40
7.0
 40
7.0
 40
8.0
 40
8.0
 40
8.0
 40
8.0
 10
237.718834285485
 20
32.16806368420766
 30
0.0
 10
237.718834285485
 20
32.16806368420766
 30
0.0
 10
197.7188466017637
 20
32.13667416063604
 30
0.0
 10
197.7188466017637
 20
32.13667416063604
 30
0.0
 10
197.718846579412
 20
32.13667416061839
 30
0.0
 10
197.718846579412
 20
32.13667416061839
 30
0.0
 10
197.7188465570604
 20
32.13667416060106
 30
0.0
 10
196.0619928177156
 20
32.13537397630774
 30
0.0
 10
194.7177934731411
 20
33.47746530563647
 30
0.0
 10
194.7164932888478
 20
35.13431904498148
 30
0.0
 10
194.7151931045545
 20
36.79117278432682
 30
0.0
 10
196.0572844338829
 20
38.13537212890069
 30
0.0
 10
197.7141381732279
 20
38.13667231319402
 30
0.0
 10
197.7141381732279
 20
38.13667231319402
 30
0.0
 10
237.7141258569489
 20
38.16806183676564
 30
0.0
 10
237.7141258569489
 20
38.16806183676564
 30
0.0
 10
237.7141258793009
 20
38.16806183678296
 30
0.0
 10
237.7141258793009
 20
38.16806183678296
 30
0.0
 10
237.7141259016525
 20
38.16806183680061
 30
0.0
 10
239.3709796409976
 20
38.16936202109394
 30
0.0
 10
240.7151789855717
 20
36.82727069176521
 30
0.0
 10
240.7164791698654
 20
35.17041695242019
 30
0.0
 10
240.7177793541587
 20
33.51356321307485
 30
0.0
 10
239.3756880248297
 20
32.16936386850098
 30
0.0
 10
237.718834285485
 20
32.16806368420766
 30
0.0
  0
SPLINE
  5
7A
330
70
100
AcDbEntity
  8
Layer 1
 62
    18
420
        0
370
    25
100
AcDbSpline
210
0.0
220
0.0
230
1.0
 70
     9
 71
     3
 72
    23
 73
    19
 74
     0
 42
0.0000000001
 43
0.0000000001
 40
0.0
 40
0.0
 40
0.0
 40
0.0
 40
1.0
 40
1.0
 40
1.0
 40
2.0
 40
2.0
 40
2.0
 40
3.0
 40
3.0
 40
3.0
 40
4.0
 40
4.0
 40
4.0
 40
5.0
 40
5.0
 40
5.0
 40
6.0
 40
6.0
 40
6.0
 40
6.0
 10
185.777876517763
 20
20.62730008277164
 30
0.0
 10
185.777876517763
 20
20.62730008277164
 30
0.0
 10
249.6778568424609
 20
20.67744484667665
 30
0.0
 10
249.6778568424609
 20
20.67744484667665
 30
0.0
 10
252.7154220312423
 20
20.6798285405129
 30
0.0
 10
255.179787514627
 20
18.21932778843762
 30
0.0
 10
255.1821712084632
 20
15.18176259965623
 30
0.0
 10
255.1845549022995
 20
12.14419741087484
 30
0.0
 10
252.7240541502242
 20
9.679831927489878
 30
0.0
 10
249.6864889614428
 20
9.677448233653635
 30
0.0
 10
249.6864889614428
 20
9.677448233653635
 30
0.0
 10
185.7865086367455
 20
9.627303469748294
 30
0.0
 10
185.7865086367455
 20
9.627303469748294
 30
0.0
 10
182.7489434479641
 20
9.624919775912051
 30
0.0
 10
180.2845779645791
 20
12.08542052798733
 30
0.0
 10
180.2821942707425
 20
15.12298571676872
 30
0.0
 10
180.2798105769063
 20
18.16055090555043
 30
0.0
 10
182.7403113289816
 20
20.62491638893539
 30
0.0
 10
185.777876517763
 20
20.62730008277164
 30
0.0
  0
SPLINE
  5
7B
330
70
100
AcDbEntity
  8
Layer 1
 62
    18
420
        0
370
    25
100
AcDbSpline
210
0.0
220
0.0
230
1.0
 70
     9
 71
     3
 72
    23
 73
    19
 74
     0
 42
0.0000000001
 43
0.0000000001
 40
0.0
 40
0.0
 40
0.0
 40
0.0
 40
1.0
 40
1.0
 40
1.0
 40
2.0
 40
2.0
 40
2.0
 40
3.0
 40
3.0
 40
3.0
 40
4.0
 40
4.0
 40
4.0
 40
5.0
 40
5.0
 40
5.0
 40
6.0
 40
6.0
 40
6.0
 40
6.0
 10
249.6970843244168
 20
-3.822547608504438
 30
0.0
 10
249.6970843244168
 20
-3.822547608504438
 30
0.0
 10
185.7971039997192
 20
-3.872692372410099
 30
0.0
 10
185.7971039997192
 20
-3.872692372410099
 30
0.0
 10
184.1402502603841
 20
-3.873992569047787
 30
0.0
 10
182.7960509058103
 20
-2.531901249734058
 30
0.0
 10
182.7947507091726
 20
-0.8750475103986667
 30
0.0
 10
182.7934505125343
 20
0.7818062289367253
 30
0.0
 10
184.1355418318483
 20
2.126005583510194
 30
0.0
 10
185.7923955711834
 20
2.127305780148524
 30
0.0
 10
185.7923955711834
 20
2.127305780148524
 30
0.0
 10
249.6923758958811
 20
2.177450544053542
 30
0.0
 10
249.6923758958811
 20
2.177450544053542
 30
0.0
 10
251.3492296177687
 20
2.178750728333391
 30
0.0
 10
252.6934289550898
 20
0.8366594262444689
 30
0.0
 10
252.694729164059
 20
-0.8201942956235543
 30
0.0
 10
252.6960293730414
 20
-2.47704803494932
 30
0.0
 10
251.3539380637423
 20
-3.821247399522064
 30
0.0
 10
249.6970843244168
 20
-3.822547608504438
 30
0.0
  0
LWPOLYLINE
  5
7C
330
70
100
AcDbEntity
  8
Layer 1
 62
    18
420
        0
370
    25
100
AcDbPolyline
 90
        4
 70
     1
 43
0.0
 10
249.7378900056401
 20
-55.82253159791984
 10
185.8379096809425
 20
-55.87267636175202
 10
185.8057354193168
 20
-14.87268898598177
 10
249.7057157440147
 20
-14.82254422207675
  0
SPLINE
  5
7D
330
70
100
AcDbEntity
  8
Layer 1
 62
    18
420
        0
370
    25
100
AcDbSpline
210
0.0
220
0.0
230
1.0
 70
     9
 71
     3
 72
    41
 73
    37
 74
     0
 42
0.0000000001
 43
0.0000000001
 40
0.0
 40
0.0
 40
0.0
 40
0.0
 40
1.0
 40
1.0
 40
1.0
 40
2.0
 40
2.0
 40
2.0
 40
3.0
 40
3.0
 40
3.0
 40
4.0
 40
4.0
 40
4.0
 40
5.0
 40
5.0
 40
5.0
 40
6.0
 40
6.0
 40
6.0
 40
7.0
 40
7.0
 40
7.0
 40
8.0
 40
8.0
 40
8.0
 40
9.0
 40
9.0
 40
9.0
 40
10.0
 40
10.0
 40
10.0
 40
11.0
 40
11.0
 40
11.0
 40
12.0
 40
12.0
 40
12.0
 40
12.0
 10
81.05284762381165
 20
-96.85096040597775
 30
0.0
 10
81.68676414722748
 20
-90.73464758905378
 30
0.0
 10
81.68192514313348
 20
-84.56894256606245
 30
0.0
 10
81.03840892691726
 20
-78.45363231125223
 30
0.0
 10
81.02846855192835
 20
-78.35916930383011
 30
0.0
 10
81.02527019067284
 20
-78.26411816017861
 30
0.0
 10
81.02883812864355
 20
-78.16920061361961
 30
0.0
 10
81.07032944622558
 20
-77.06541066523768
 30
0.0
 10
81.99876335402828
 20
-76.20424747471296
 30
0.0
 10
83.10255330240959
 20
-76.24573879229529
 30
0.0
 10
96.32544765673817
 20
-76.74278563514715
 30
0.0
 10
109.4888696077609
 20
-74.2343845787841
 30
0.0
 10
121.6023051358977
 20
-68.9092864223757
 30
0.0
 10
121.8554983068449
 20
-68.79798203769498
 30
0.0
 10
122.1290251169999
 20
-68.74040226154058
 30
0.0
 10
122.4056031362744
 20
-68.74018519598807
 30
0.0
 10
123.5101722957559
 20
-68.73931830166482
 30
0.0
 10
124.4063052770244
 20
-69.6340457695314
 30
0.0
 10
124.407172171348
 20
-70.73861492901198
 30
0.0
 10
124.407172171348
 20
-70.73861492901198
 30
0.0
 10
124.4336673233781
 20
-104.4978944813721
 30
0.0
 10
124.4336673233781
 20
-104.4978944813721
 30
0.0
 10
124.4338843889307
 20
-104.7744725006465
 30
0.0
 10
124.3767340252144
 20
-105.0480893539698
 30
0.0
 10
124.2658272024483
 20
-105.3014569219954
 30
0.0
 10
123.8228988152779
 20
-106.3133305422773
 30
0.0
 10
122.6435487700119
 20
-106.7745517826852
 30
0.0
 10
121.6316751497303
 20
-106.3316233955148
 30
0.0
 10
109.5098960009574
 20
-101.0255456597393
 30
0.0
 10
96.34255295290689
 20
-98.53780966587086
 30
0.0
 10
83.1204550777368
 20
-99.0556112196895
 30
0.0
 10
83.02554324852245
 20
-99.05932814064321
 30
0.0
 10
82.93048720165534
 20
-99.05627898040624
 30
0.0
 10
82.83600870768774
 20
-99.04648689157326
 30
0.0
 10
81.73732447320727
 20
-98.93261533020954
 30
0.0
 10
80.93897606244793
 20
-97.9496446404579
 30
0.0
 10
81.05284762381165
 20
-96.85096040597775
 30
0.0
  0
SPLINE
  5
7E
330
70
100
AcDbEntity
  8
Layer 1
 62
    18
420
        0
370
    25
100
AcDbSpline
210
0.0
220
0.0
230
1.0
 70
     9
 71
     3
 72
    32
 73
    28
 74
     0
 42
0.0000000001
 43
0.0000000001
 40
0.0
 40
0.0
 40
0.0
 40
0.0
 40
1.0
 40
1.0
 40
1.0
 40
2.0
 40
2.0
 40
2.0
 40
3.0
 40
3.0
 40
3.0
 40
4.0
 40
4.0
 40
4.0
 40
5.0
 40
5.0
 40
5.0
 40
6.0
 40
6.0
 40
6.0
 40
7.0
 40
7.0
 40
7.0
 40
8.0
 40
8.0
 40
8.0
 40
9.0
 40
9.0
 40
9.0
 40
9.0
 10
164.4007868971374
 20
-62.5870052180499
 30
0.0
 10
164.4007868971374
 20
-62.5870052180499
 30
0.0
 10
164.4282375500421
 20
-97.56375357741243
 30
0.0
 10
164.4282375500421
 20
-97.56375357741243
 30
0.0
 10
161.421347630688
 20
-99.52478450774634
 30
0.0
 10
160.5735114029908
 20
-103.5520800771429
 30
0.0
 10
162.5345423333254
 20
-106.5589699964977
 30
0.0
 10
163.0293611036287
 20
-107.3176860112821
 30
0.0
 10
163.6772960445814
 20
-107.9646047177452
 30
0.0
 10
164.4367878172532
 20
-108.4582319594771
 30
0.0
 10
164.4367878172532
 20
-108.4582319594771
 30
0.0
 10
164.4400281727537
 20
-112.5869898192701
 30
0.0
 10
164.4400281727537
 20
-112.5869898192701
 30
0.0
 10
164.4443626443709
 20
-118.1098356166761
 30
0.0
 10
159.9707253050384
 20
-122.59050052302
 30
0.0
 10
154.4478795076323
 20
-122.5948349946369
 30
0.0
 10
148.9250337102269
 20
-122.5991694662545
 30
0.0
 10
144.4443688038827
 20
-118.1255321269225
 30
0.0
 10
144.4400343322655
 20
-112.6026863295165
 30
0.0
 10
144.4400343322655
 20
-112.6026863295165
 30
0.0
 10
144.4007930566492
 20
-62.60270172829635
 30
0.0
 10
144.4007930566492
 20
-62.60270172829635
 30
0.0
 10
144.396458585032
 20
-57.07985593089063
 30
0.0
 10
148.8700959243642
 20
-52.59919102454611
 30
0.0
 10
154.39294172177
 20
-52.59485655292887
 30
0.0
 10
159.915787519176
 20
-52.59052208131162
 30
0.0
 10
164.3964524255202
 20
-57.06415942064419
 30
0.0
 10
164.4007868971374
 20
-62.5870052180499
 30
0.0
  0
SPLINE
  5
7F
330
70
100
AcDbEntity
  8
Layer 1
 62
    18
420
        0
370
    25
100
AcDbSpline
210
0.0
220
0.0
230
1.0
 70
     9
 71
     3
 72
    41
 73
    37
 74
     0
 42
0.0000000001
 43
0.0000000001
 40
0.0
 40
0.0
 40
0.0
 40
0.0
 40
1.0
 40
1.0
 40
1.0
 40
2.0
 40
2.0
 40
2.0
 40
3.0
 40
3.0
 40
3.0
 40
4.0
 40
4.0
 40
4.0
 40
5.0
 40
5.0
 40
5.0
 40
6.0
 40
6.0
 40
6.0
 40
7.0
 40
7.0
 40
7.0
 40
8.0
 40
8.0
 40
8.0
 40
9.0
 40
9.0
 40
9.0
 40
10.0
 40
10.0
 40
10.0
 40
11.0
 40
11.0
 40
11.0
 40
12.0
 40
12.0
 40
12.0
 40
12.0
 10
354.8809073704668
 20
-78.2387136659257
 30
0.0
 10
354.2469908470506
 20
-84.35502648284904
 30
0.0
 10
354.2518298511446
 20
-90.52073150584034
 30
0.0
 10
354.8953460673609
 20
-96.63604176065121
 30
0.0
 10
354.9052864423495
 20
-96.73050476807334
 30
0.0
 10
354.9084848036056
 20
-96.82555591172484
 30
0.0
 10
354.9049168656352
 20
-96.92047345828385
 30
0.0
 10
354.8634255480529
 20
-98.02426340666578
 30
0.0
 10
353.9349916402505
 20
-98.88542659719018
 30
0.0
 10
352.8312016918682
 20
-98.84393527960817
 30
0.0
 10
339.6083073375412
 20
-98.3468884367563
 30
0.0
 10
326.4448853865178
 20
-100.8552894931193
 30
0.0
 10
314.3314498583807
 20
-106.1803876495277
 30
0.0
 10
314.0782566874332
 20
-106.2916920342084
 30
0.0
 10
313.8047298772792
 20
-106.3492718103628
 30
0.0
 10
313.5281518580043
 20
-106.3494888759153
 30
0.0
 10
312.4235826985225
 20
-106.3503557702389
 30
0.0
 10
311.527449717254
 20
-105.455628302372
 30
0.0
 10
311.5265828229308
 20
-104.3510591428911
 30
0.0
 10
311.5265828229308
 20
-104.3510591428911
 30
0.0
 10
311.5000876709002
 20
-70.59177959053137
 30
0.0
 10
311.5000876709002
 20
-70.59177959053137
 30
0.0
 10
311.4998706053477
 20
-70.31520157125654
 30
0.0
 10
311.5570209690639
 20
-70.04158471793367
 30
0.0
 10
311.6679277918301
 20
-69.78821714990774
 30
0.0
 10
312.1108561790002
 20
-68.77634352962613
 30
0.0
 10
313.2902062242665
 20
-68.31512228921855
 30
0.0
 10
314.3020798445478
 20
-68.75805067638864
 30
0.0
 10
326.4238589933203
 20
-74.06412841216414
 30
0.0
 10
339.5912020413716
 20
-76.55186440603261
 30
0.0
 10
352.813299916542
 20
-76.03406285221395
 30
0.0
 10
352.9082117457563
 20
-76.03034593126023
 30
0.0
 10
353.0032677926227
 20
-76.0333950914969
 30
0.0
 10
353.0977462865916
 20
-76.0431871803302
 30
0.0
 10
354.1964305210718
 20
-76.15705874169392
 30
0.0
 10
354.9947789318302
 20
-77.14002943144556
 30
0.0
 10
354.8809073704668
 20
-78.2387136659257
 30
0.0
  0
SPLINE
  5
80
330
70
100
AcDbEntity
  8
Layer 1
 62
    18
420
        0
370
    25
100
AcDbSpline
210
0.0
220
0.0
230
1.0
 70
     9
 71
     3
 72
    32
 73
    28
 74
     0
 42
0.0000000001
 43
0.0000000001
 40
0.0
 40
0.0
 40
0.0
 40
0.0
 40
1.0
 40
1.0
 40
1.0
 40
2.0
 40
2.0
 40
2.0
 40
3.0
 40
3.0
 40
3.0
 40
4.0
 40
4.0
 40
4.0
 40
5.0
 40
5.0
 40
5.0
 40
6.0
 40
6.0
 40
6.0
 40
7.0
 40
7.0
 40
7.0
 40
8.0
 40
8.0
 40
8.0
 40
9.0
 40
9.0
 40
9.0
 40
9.0
 10
271.5211776876413
 20
-97.47970427991761
 30
0.0
 10
271.5211776876413
 20
-97.47970427991761
 30
0.0
 10
271.4937270347366
 20
-62.50295592055508
 30
0.0
 10
271.4937270347366
 20
-62.50295592055508
 30
0.0
 10
271.4893925631193
 20
-56.98011012314937
 30
0.0
 10
275.9630299024519
 20
-52.49944521680485
 30
0.0
 10
281.4858756998576
 20
-52.4951107451876
 30
0.0
 10
287.0087214972634
 20
-52.49077627357037
 30
0.0
 10
291.4893864036076
 20
-56.96441361290293
 30
0.0
 10
291.4937208752247
 20
-62.48725941030865
 30
0.0
 10
291.4937208752247
 20
-62.48725941030865
 30
0.0
 10
291.5329621508411
 20
-112.4872440115288
 30
0.0
 10
291.5329621508411
 20
-112.4872440115288
 30
0.0
 10
291.5372966224583
 20
-118.0100898089348
 30
0.0
 10
287.0636592831257
 20
-122.4907547152784
 30
0.0
 10
281.5408134857203
 20
-122.495089186896
 30
0.0
 10
276.0179676883143
 20
-122.4994236585135
 30
0.0
 10
271.5373027819701
 20
-118.0257863191813
 30
0.0
 10
271.5329683103529
 20
-112.5029405217752
 30
0.0
 10
271.5329683103529
 20
-112.5029405217752
 30
0.0
 10
271.5297279548523
 20
-108.3741826619822
 30
0.0
 10
271.5297279548523
 20
-108.3741826619822
 30
0.0
 10
274.5366178742065
 20
-106.4131517316477
 30
0.0
 10
275.3844541019033
 20
-102.3858561622511
 30
0.0
 10
273.4234231715691
 20
-99.37896624289697
 30
0.0
 10
272.9286044012658
 20
-98.62025022811257
 30
0.0
 10
272.2806694603127
 20
-97.9733315216492
 30
0.0
 10
271.5211776876413
 20
-97.47970427991761
 30
0.0
  0
SPLINE
  5
81
330
70
100
AcDbEntity
  8
Layer 1
 62
    18
420
        0
370
    25
100
AcDbSpline
210
0.0
220
0.0
230
1.0
 70
     9
 71
     3
 72
   173
 73
   169
 74
     0
 42
0.0000000001
 43
0.0000000001
 40
0.0
 40
0.0
 40
0.0
 40
0.0
 40
1.0
 40
1.0
 40
1.0
 40
2.0
 40
2.0
 40
2.0
 40
3.0
 40
3.0
 40
3.0
 40
4.0
 40
4.0
 40
4.0
 40
5.0
 40
5.0
 40
5.0
 40
6.0
 40
6.0
 40
6.0
 40
7.0
 40
7.0
 40
7.0
 40
8.0
 40
8.0
 40
8.0
 40
9.0
 40
9.0
 40
9.0
 40
10.0
 40
10.0
 40
10.0
 40
11.0
 40
11.0
 40
11.0
 40
12.0
 40
12.0
 40
12.0
 40
13.0
 40
13.0
 40
13.0
 40
14.0
 40
14.0
 40
14.0
 40
15.0
 40
15.0
 40
15.0
 40
16.0
 40
16.0
 40
16.0
 40
17.0
 40
17.0
 40
17.0
 40
18.0
 40
18.0
 40
18.0
 40
19.0
 40
19.0
 40
19.0
 40
20.0
 40
20.0
 40
20.0
 40
21.0
 40
21.0
 40
21.0
 40
22.0
 40
22.0
 40
22.0
 40
23.0
 40
23.0
 40
23.0
 40
24.0
 40
24.0
 40
24.0
 40
25.0
 40
25.0
 40
25.0
 40
26.0
 40
26.0
 40
26.0
 40
27.0
 40
27.0
 40
27.0
 40
28.0
 40
28.0
 40
28.0
 40
29.0
 40
29.0
 40
29.0
 40
30.0
 40
30.0
 40
30.0
 40
31.0
 40
31.0
 40
31.0
 40
32.0
 40
32.0
 40
32.0
 40
33.0
 40
33.0
 40
33.0
 40
34.0
 40
34.0
 40
34.0
 40
35.0
 40
35.0
 40
35.0
 40
36.0
 40
36.0
 40
36.0
 40
37.0
 40
37.0
 40
37.0
 40
38.0
 40
38.0
 40
38.0
 40
39.0
 40
39.0
 40
39.0
 40
40.0
 40
40.0
 40
40.0
 40
41.0
 40
41.0
 40
41.0
 40
42.0
 40
42.0
 40
42.0
 40
43.0
 40
43.0
 40
43.0
 40
44.0
 40
44.0
 40
44.0
 40
45.0
 40
45.0
 40
45.0
 40
46.0
 40
46.0
 40
46.0
 40
47.0
 40
47.0
 40
47.0
 40
48.0
 40
48.0
 40
48.0
 40
49.0
 40
49.0
 40
49.0
 40
50.0
 40
50.0
 40
50.0
 40
51.0
 40
51.0
 40
51.0
 40
52.0
 40
52.0
 40
52.0
 40
53.0
 40
53.0
 40
53.0
 40
54.0
 40
54.0
 40
54.0
 40
55.0
 40
55.0
 40
55.0
 40
56.0
 40
56.0
 40
56.0
 40
56.0
 10
13.61410898130605
 20
60.90244720329798
 30
0.0
 10
13.61410898130605
 20
60.90244720329798
 30
0.0
 10
16.93284979817089
 20
58.74433727093044
 30
0.0
 10
16.93284979817089
 20
58.74433727093044
 30
0.0
 10
16.93284979817089
 20
58.74433727093044
 30
0.0
 10
14.75223697785022
 20
55.39099151961615
 30
0.0
 10
14.75223697785022
 20
55.39099151961615
 30
0.0
 10
14.75223697785022
 20
55.39099151961615
 30
0.0
 10
11.64948847221531
 20
57.40864602689934
 30
0.0
 10
11.64948847221531
 20
57.40864602689934
 30
0.0
 10
10.91432593748053
 20
56.00603936038758
 30
0.0
 10
10.22838389902547
 20
54.57817985575116
 30
0.0
 10
9.592917132485245
 20
53.1276794586321
 30
0.0
 10
-9.461344243189152
 20
18.23336127840855
 30
0.0
 10
-2.595332835749087
 20
-25.12078655181734
 30
0.0
 10
26.30853326620991
 20
-52.4199594732671
 30
0.0
 10
26.96186728278179
 20
-53.03702150334174
 30
0.0
 10
27.59794519139211
 20
-53.67210177427524
 30
0.0
 10
28.21603196739927
 20
-54.32446641425407
 30
0.0
 10
46.66066165687987
 20
-73.79199860230905
 30
0.0
 10
45.83143534167201
 20
-104.5258782624962
 30
0.0
 10
26.36390315361672
 20
-122.9705079519768
 30
0.0
 10
-2.497077180055066
 20
-150.3150162125871
 30
0.0
 10
-9.295029267634575
 20
-193.6798878732663
 30
0.0
 10
9.813980520471668
 20
-228.5442545354225
 30
0.0
 10
10.45172328291271
 20
-229.9937556849128
 30
0.0
 10
11.13990571679859
 20
-231.4205367412736
 30
0.0
 10
11.87726894819761
 20
-232.8219877316404
 30
0.0
 10
11.87726894819761
 20
-232.8219877316404
 30
0.0
 10
14.97684661906039
 20
-230.79946547904
 30
0.0
 10
14.97684661906039
 20
-230.79946547904
 30
0.0
 10
14.97684661906039
 20
-230.79946547904
 30
0.0
 10
17.16272033405282
 20
-234.1493842992667
 30
0.0
 10
17.16272033405282
 20
-234.1493842992667
 30
0.0
 10
17.16272033405282
 20
-234.1493842992667
 30
0.0
 10
13.84737108397525
 20
-236.3127008363736
 30
0.0
 10
13.84737108397525
 20
-236.3127008363736
 30
0.0
 10
21.23739626594693
 20
-248.5494769148515
 30
0.0
 10
32.2958759564595
 20
-258.1460840403159
 30
0.0
 10
45.45152166686774
 20
-263.7389497572103
 30
0.0
 10
88.11571664075076
 20
-286.4339698268846
 30
0.0
 10
141.0998291353549
 20
-270.2457550687364
 30
0.0
 10
163.7948492050293
 20
-227.5815600948541
 30
0.0
 10
170.5357618157154
 20
-214.9093699385419
 30
0.0
 10
174.0557286866394
 20
-200.7734613195074
 30
0.0
 10
174.0444636569061
 20
-186.419918924623
 30
0.0
 10
174.0444636569061
 20
-186.419918924623
 30
0.0
 10
174.0126722124501
 20
-145.9122721089167
 30
0.0
 10
174.0126722124501
 20
-145.9122721089167
 30
0.0
 10
174.0116107280749
 20
-144.5597624978993
 30
0.0
 10
174.6940975665904
 20
-143.2983180162665
 30
0.0
 10
175.8267972655561
 20
-142.5592139866407
 30
0.0
 10
175.8267972655561
 20
-142.5592139866407
 30
0.0
 10
182.1900284262384
 20
-138.4071074780982
 30
0.0
 10
182.1900284262384
 20
-138.4071074780982
 30
0.0
 10
183.3227281252035
 20
-137.6680034484731
 30
0.0
 10
184.005214963719
 20
-136.4065589668403
 30
0.0
 10
184.0041534793438
 20
-135.0540493558228
 30
0.0
 10
184.0041534793438
 20
-135.0540493558228
 30
0.0
 10
183.990502320792
 20
-117.6601775549476
 30
0.0
 10
183.990502320792
 20
-117.6601775549476
 30
0.0
 10
183.990502320792
 20
-117.6601775549476
 30
0.0
 10
197.9904980091342
 20
-117.6491899977749
 30
0.0
 10
197.9904980091342
 20
-117.6491899977749
 30
0.0
 10
197.9904980091342
 20
-117.6491899977749
 30
0.0
 10
197.9872017419825
 20
-113.4491912912722
 30
0.0
 10
197.9872017419825
 20
-113.4491912912722
 30
0.0
 10
197.9872017419825
 20
-113.4491912912722
 30
0.0
 10
201.9872005100797
 20
-113.4460519892229
 30
0.0
 10
201.9872005100797
 20
-113.4460519892229
 30
0.0
 10
201.9872005100797
 20
-113.4460519892229
 30
0.0
 10
201.9904967772314
 20
-117.6460506957255
 30
0.0
 10
201.9904967772314
 20
-117.6460506957255
 30
0.0
 10
201.9904967772314
 20
-117.6460506957255
 30
0.0
 10
233.9904869220126
 20
-117.6209362793313
 30
0.0
 10
233.9904869220126
 20
-117.6209362793313
 30
0.0
 10
233.9904869220126
 20
-117.6209362793313
 30
0.0
 10
233.9871906548609
 20
-113.4209375728287
 30
0.0
 10
233.9871906548609
 20
-113.4209375728287
 30
0.0
 10
233.9871906548609
 20
-113.4209375728287
 30
0.0
 10
237.9871894229586
 20
-113.4177982707793
 30
0.0
 10
237.9871894229586
 20
-113.4177982707793
 30
0.0
 10
237.9871894229586
 20
-113.4177982707793
 30
0.0
 10
237.9904856901104
 20
-117.617796977282
 30
0.0
 10
237.9904856901104
 20
-117.617796977282
 30
0.0
 10
237.9904856901104
 20
-117.617796977282
 30
0.0
 10
251.9904813784522
 20
-117.6068094201096
 30
0.0
 10
251.9904813784522
 20
-117.6068094201096
 30
0.0
 10
251.9904813784522
 20
-117.6068094201096
 30
0.0
 10
252.004132537004
 20
-135.0006812209845
 30
0.0
 10
252.004132537004
 20
-135.0006812209845
 30
0.0
 10
252.0051940213792
 20
-136.3531908320025
 30
0.0
 10
252.6896600461514
 20
-137.6135624938237
 30
0.0
 10
253.8235184847814
 20
-138.3508876702494
 30
0.0
 10
253.8235184847814
 20
-138.3508876702494
 30
0.0
 10
260.1932591628137
 20
-142.4930010145673
 30
0.0
 10
260.1932591628137
 20
-142.4930010145673
 30
0.0
 10
261.3271176014436
 20
-143.2303261909936
 30
0.0
 10
262.0115836262162
 20
-144.4906978528148
 30
0.0
 10
262.0126451105914
 20
-145.8432074638322
 30
0.0
 10
262.0126451105914
 20
-145.8432074638322
 30
0.0
 10
262.0444365550474
 20
-186.3508542795385
 30
0.0
 10
262.0444365550474
 20
-186.3508542795385
 30
0.0
 10
262.0823631816992
 20
-234.6757550068389
 30
0.0
 10
301.2881811122134
 20
-273.8200817259992
 30
0.0
 10
349.6130818395151
 20
-273.7821550993478
 30
0.0
 10
363.966624234404
 20
-273.7708900696145
 30
0.0
 10
378.0969903214777
 20
-270.2287390983301
 30
0.0
 10
390.7585839897628
 20
-263.4679438816509
 30
0.0
 10
403.905434649004
 20
-257.8544352882102
 30
0.0
 10
414.948837396983
 20
-248.2404820361951
 30
0.0
 10
422.3196460129718
 20
-235.9921212752008
 30
0.0
 10
422.3196460129718
 20
-235.9921212752008
 30
0.0
 10
419.0009051961082
 20
-233.8340113428342
 30
0.0
 10
419.0009051961082
 20
-233.8340113428342
 30
0.0
 10
419.0009051961082
 20
-233.8340113428342
 30
0.0
 10
421.1815180164276
 20
-230.4806655915199
 30
0.0
 10
421.1815180164276
 20
-230.4806655915199
 30
0.0
 10
421.1815180164276
 20
-230.4806655915199
 30
0.0
 10
424.2842665220631
 20
-232.4983200988025
 30
0.0
 10
424.2842665220631
 20
-232.4983200988025
 30
0.0
 10
425.0194290567965
 20
-231.095713432292
 30
0.0
 10
425.7053710952519
 20
-229.6678539276559
 30
0.0
 10
426.3408378617919
 20
-228.2173535305368
 30
0.0
 10
445.3950992374669
 20
-193.3230353503139
 30
0.0
 10
438.5290878300278
 20
-149.9688875200864
 30
0.0
 10
409.6252217280682
 20
-122.669714598636
 30
0.0
 10
408.9718877114957
 20
-122.0526525685614
 30
0.0
 10
408.3358098028853
 20
-121.4175722976282
 30
0.0
 10
407.7177230268791
 20
-120.7652076576493
 30
0.0
 10
389.273093337398
 20
-101.2976754695941
 30
0.0
 10
390.1023196526068
 20
-70.56379580940725
 30
0.0
 10
409.5698518406617
 20
-52.11916611992665
 30
0.0
 10
438.4308321743331
 20
-24.77465785931636
 30
0.0
 10
445.2287842619123
 20
18.59021380136198
 30
0.0
 10
426.1197744738074
 20
53.4545804635181
 30
0.0
 10
425.4820317113663
 20
54.90408161300901
 30
0.0
 10
424.7938492774805
 20
56.3308626693702
 30
0.0
 10
424.0564860460802
 20
57.7323136597376
 30
0.0
 10
424.0564860460802
 20
57.7323136597376
 30
0.0
 10
420.956908375217
 20
55.70979140713625
 30
0.0
 10
420.956908375217
 20
55.70979140713625
 30
0.0
 10
420.956908375217
 20
55.70979140713625
 30
0.0
 10
418.7710346602259
 20
59.05971022736288
 30
0.0
 10
418.7710346602259
 20
59.05971022736288
 30
0.0
 10
418.7710346602259
 20
59.05971022736288
 30
0.0
 10
422.0863839103028
 20
61.22302676446948
 30
0.0
 10
422.0863839103028
 20
61.22302676446948
 30
0.0
 10
414.6963587283312
 20
73.45980284294833
 30
0.0
 10
403.6378790378182
 20
83.05640996841244
 30
0.0
 10
390.4822333274107
 20
88.64927568530649
 30
0.0
 10
355.5554530822592
 20
107.2284139795614
 30
0.0
 10
312.5073198440222
 20
100.0614036540239
 30
0.0
 10
285.4841094108336
 20
71.16831700801508
 30
0.0
 10
272.9664679927586
 20
57.78451499861665
 30
0.0
 10
255.4652732571731
 20
50.18199553743517
 30
0.0
 10
237.1399548125398
 20
50.16761495762462
 30
0.0
 10
237.1399548125398
 20
50.16761495762462
 30
0.0
 10
198.5565144250704
 20
50.13733705301188
 30
0.0
 10
198.5565144250704
 20
50.13733705301188
 30
0.0
 10
180.2385451235498
 20
50.1288053685538
 30
0.0
 10
162.7342074952251
 20
57.70336801691873
 30
0.0
 10
150.2006045699234
 20
71.06214302932042
 30
0.0
 10
123.1320753775952
 20
99.9127770849904
 30
0.0
 10
80.07274546881061
 20
107.0122080558359
 30
0.0
 10
45.17517100451471
 20
88.37826980974744
 30
0.0
 10
32.02832034527467
 20
82.76476121630706
 30
0.0
 10
20.98491759729499
 20
73.15080796429224
 30
0.0
 10
13.61410898130605
 20
60.90244720329798
 30
0.0
  0
SPLINE
  5
82
330
70
100
AcDbEntity
  8
Layer 1
 62
    18
420
        0
370
    25
100
AcDbSpline
210
0.0
220
0.0
230
1.0
 70
     9
 71
     3
 72
   137
 73
   133
 74
     0
 42
0.0000000001
 43
0.0000000001
 40
0.0
 40
0.0
 40
0.0
 40
0.0
 40
1.0
 40
1.0
 40
1.0
 40
2.0
 40
2.0
 40
2.0
 40
3.0
 40
3.0
 40
3.0
 40
4.0
 40
4.0
 40
4.0
 40
5.0
 40
5.0
 40
5.0
 40
6.0
 40
6.0
 40
6.0
 40
7.0
 40
7.0
 40
7.0
 40
8.0
 40
8.0
 40
8.0
 40
9.0
 40
9.0
 40
9.0
 40
10.0
 40
10.0
 40
10.0
 40
11.0
 40
11.0
 40
11.0
 40
12.0
 40
12.0
 40
12.0
 40
13.0
 40
13.0
 40
13.0
 40
14.0
 40
14.0
 40
14.0
 40
15.0
 40
15.0
 40
15.0
 40
16.0
 40
16.0
 40
16.0
 40
17.0
 40
17.0
 40
17.0
 40
18.0
 40
18.0
 40
18.0
 40
19.0
 40
19.0
 40
19.0
 40
20.0
 40
20.0
 40
20.0
 40
21.0
 40
21.0
 40
21.0
 40
22.0
 40
22.0
 40
22.0
 40
23.0
 40
23.0
 40
23.0
 40
24.0
 40
24.0
 40
24.0
 40
25.0
 40
25.0
 40
25.0
 40
26.0
 40
26.0
 40
26.0
 40
27.0
 40
27.0
 40
27.0
 40
28.0
 40
28.0
 40
28.0
 40
29.0
 40
29.0
 40
29.0
 40
30.0
 40
30.0
 40
30.0
 40
31.0
 40
31.0
 40
31.0
 40
32.0
 40
32.0
 40
32.0
 40
33.0
 40
33.0
 40
33.0
 40
34.0
 40
34.0
 40
34.0
 40
35.0
 40
35.0
 40
35.0
 40
36.0
 40
36.0
 40
36.0
 40
37.0
 40
37.0
 40
37.0
 40
38.0
 40
38.0
 40
38.0
 40
39.0
 40
39.0
 40
39.0
 40
40.0
 40
40.0
 40
40.0
 40
41.0
 40
41.0
 40
41.0
 40
42.0
 40
42.0
 40
42.0
 40
43.0
 40
43.0
 40
43.0
 40
44.0
 40
44.0
 40
44.0
 40
44.0
 10
239.2715798900252
 20
-93.5281184046862
 30
0.0
 10
238.4431530204145
 20
-93.52876857542865
 30
0.0
 10
237.7721074195142
 20
-94.2008683113803
 30
0.0
 10
237.7727575902569
 20
-95.02929518099104
 30
0.0
 10
237.7727575902569
 20
-95.02929518099104
 30
0.0
 10
237.7779374387058
 20
-101.6292931483868
 30
0.0
 10
237.7779374387058
 20
-101.6292931483868
 30
0.0
 10
237.7804080875846
 20
-104.7773152528189
 30
0.0
 10
235.2304348042939
 20
-107.3312942494137
 30
0.0
 10
232.0824126998621
 20
-107.3337648983114
 30
0.0
 10
232.0824126998621
 20
-107.3337648983114
 30
0.0
 10
203.8824213847038
 20
-107.3558969775183
 30
0.0
 10
203.8824213847038
 20
-107.3558969775183
 30
0.0
 10
203.0276476184853
 20
-107.3565678260577
 30
0.0
 10
202.1836671783388
 20
-107.1649868199029
 30
0.0
 10
201.4129553856869
 20
-106.7953356679765
 30
0.0
 10
201.4129553856869
 20
-106.7953356679765
 30
0.0
 10
190.8514856430467
 20
-106.8036245814308
 30
0.0
 10
190.8514856430467
 20
-106.8036245814308
 30
0.0
 10
190.2992010633058
 20
-106.8040580285924
 30
0.0
 10
189.8511345726715
 20
-106.3566942946593
 30
0.0
 10
189.8507011255099
 20
-105.8044097149187
 30
0.0
 10
189.8507011255099
 20
-105.8044097149187
 30
0.0
 10
189.8501500754225
 20
-105.1022792300208
 30
0.0
 10
189.8501500754225
 20
-105.1022792300208
 30
0.0
 10
189.8497166282608
 20
-104.5499946502805
 30
0.0
 10
189.4016501376266
 20
-104.1026309163468
 30
0.0
 10
188.8493655578857
 20
-104.1030643635087
 30
0.0
 10
188.7851585562203
 20
-104.1031147548172
 30
0.0
 10
188.7211056421393
 20
-104.109348806402
 30
0.0
 10
188.658093906649
 20
-104.1216801807226
 30
0.0
 10
188.500564567923
 20
-104.1525086165232
 30
0.0
 10
188.3404322827201
 20
-104.1680937454853
 30
0.0
 10
188.1799147785564
 20
-104.1682197237563
 30
0.0
 10
186.799203329205
 20
-104.1693033416607
 30
0.0
 10
185.6790371026191
 20
-103.0508940068279
 30
0.0
 10
185.677953484715
 20
-101.6701825574765
 30
0.0
 10
185.677953484715
 20
-101.6701825574765
 30
0.0
 10
185.659117672665
 20
-77.67018994886462
 30
0.0
 10
185.659117672665
 20
-77.67018994886462
 30
0.0
 10
185.6589916943943
 20
-77.5096724447621
 30
0.0
 10
185.6743254524179
 20
-77.34951589367991
 30
0.0
 10
185.7049065842072
 20
-77.19193835920068
 30
0.0
 10
185.967954025864
 20
-75.83651542741179
 30
0.0
 10
187.2799834968214
 20
-74.95097012493276
 30
0.0
 10
188.6354064286106
 20
-75.21401756658923
 30
0.0
 10
189.1775756013297
 20
-75.31923654324952
 30
0.0
 10
189.702387389713
 20
-74.96501842225342
 30
0.0
 10
189.807606366373
 20
-74.42284924953497
 30
0.0
 10
189.8198388190883
 20
-74.35981823574289
 30
0.0
 10
189.8259723222978
 20
-74.29575561531001
 30
0.0
 10
189.8259219309893
 20
-74.23154861366874
 30
0.0
 10
189.8259219309893
 20
-74.23154861366874
 30
0.0
 10
189.8220549913163
 20
-69.30441714133218
 30
0.0
 10
189.8220549913163
 20
-69.30441714133218
 30
0.0
 10
189.8216215441544
 20
-68.75213256159125
 30
0.0
 10
190.2689852780875
 20
-68.30406607095703
 30
0.0
 10
190.8212698578284
 20
-68.30363262379541
 30
0.0
 10
190.8212698578284
 20
-68.30363262379541
 30
0.0
 10
201.4354531780642
 20
-68.29530233936776
 30
0.0
 10
201.4354531780642
 20
-68.29530233936776
 30
0.0
 10
202.1915144995745
 20
-67.94070388929313
 30
0.0
 10
203.016256458628
 20
-67.75656457046783
 30
0.0
 10
203.8513422944163
 20
-67.75590917359204
 30
0.0
 10
203.8513422944163
 20
-67.75590917359204
 30
0.0
 10
232.0513336095743
 20
-67.73377709438452
 30
0.0
 10
232.0513336095743
 20
-67.73377709438452
 30
0.0
 10
235.199355714016
 20
-67.73130644551568
 30
0.0
 10
237.7533347106111
 20
-70.28127972882209
 30
0.0
 10
237.7558053594992
 20
-73.4293018332638
 30
0.0
 10
237.7558053594992
 20
-73.4293018332638
 30
0.0
 10
237.7609852074186
 20
-80.02929980064029
 30
0.0
 10
237.7609852074186
 20
-80.02929980064029
 30
0.0
 10
237.7616353781614
 20
-80.85772667023885
 30
0.0
 10
238.4337351141095
 20
-81.52877227113533
 30
0.0
 10
239.2621619837161
 20
-81.52812210039289
 30
0.0
 10
239.2621619837161
 20
-81.52812210039289
 30
0.0
 10
243.7621605978337
 20
-81.52459038558761
 30
0.0
 10
243.7621605978337
 20
-81.52459038558761
 30
0.0
 10
244.5905874674445
 20
-81.52394021484484
 30
0.0
 10
245.2616330683445
 20
-80.85184047889351
 30
0.0
 10
245.2609828976017
 20
-80.02341360928244
 30
0.0
 10
245.2609828976017
 20
-80.02341360928244
 30
0.0
 10
245.2590993163479
 20
-77.62341434838233
 30
0.0
 10
245.2590993163479
 20
-77.62341434838233
 30
0.0
 10
245.2580156984362
 20
-76.24270289903066
 30
0.0
 10
246.3764250332638
 20
-75.12253667243898
 30
0.0
 10
247.7571364826149
 20
-75.12145305452754
 30
0.0
 10
249.1378479319794
 20
-75.12036943662315
 30
0.0
 10
250.2580141585653
 20
-76.2387787714563
 30
0.0
 10
250.2590977764696
 20
-77.61949022080763
 30
0.0
 10
250.2590977764696
 20
-77.61949022080763
 30
0.0
 10
250.2609813577238
 20
-80.01948948173632
 30
0.0
 10
250.2609813577238
 20
-80.01948948173632
 30
0.0
 10
250.2616315284666
 20
-80.84791635133486
 30
0.0
 10
250.9337312644143
 20
-81.51896195223136
 30
0.0
 10
251.7621581340212
 20
-81.5183117814889
 30
0.0
 10
251.7621581340212
 20
-81.5183117814889
 30
0.0
 10
256.2621567482155
 20
-81.5147800666833
 30
0.0
 10
256.2621567482155
 20
-81.5147800666833
 30
0.0
 10
257.0905836178263
 20
-81.51412989594085
 30
0.0
 10
257.762683353778
 20
-82.1851754968412
 30
0.0
 10
257.7633335245207
 20
-83.01360236645193
 30
0.0
 10
257.7633335245207
 20
-83.01360236645193
 30
0.0
 10
257.7703969541316
 20
-92.01359959467112
 30
0.0
 10
257.7703969541316
 20
-92.01359959467112
 30
0.0
 10
257.771047124874
 20
-92.84202646428186
 30
0.0
 10
257.1000015239743
 20
-93.51412620023415
 30
0.0
 10
256.2715746543633
 20
-93.5147763709766
 30
0.0
 10
256.2715746543633
 20
-93.5147763709766
 30
0.0
 10
251.7715760403304
 20
-93.5183080857822
 30
0.0
 10
251.7715760403304
 20
-93.5183080857822
 30
0.0
 10
250.9431491707193
 20
-93.51895825652466
 30
0.0
 10
250.2721035698196
 20
-94.19105799247631
 30
0.0
 10
250.2727537405624
 20
-95.01948486208673
 30
0.0
 10
250.2727537405624
 20
-95.01948486208673
 30
0.0
 10
250.2779335890109
 20
-101.6194828293551
 30
0.0
 10
250.2779335890109
 20
-101.6194828293551
 30
0.0
 10
250.2790172069224
 20
-103.0001942787067
 30
0.0
 10
249.160607872095
 20
-104.1203605052981
 30
0.0
 10
247.7798964227433
 20
-104.1214441232096
 30
0.0
 10
246.3991849733794
 20
-104.1225277411139
 30
0.0
 10
245.2790187467932
 20
-103.0041184062811
 30
0.0
 10
245.2779351288889
 20
-101.6234069569298
 30
0.0
 10
245.2779351288889
 20
-101.6234069569298
 30
0.0
 10
245.27275528044
 20
-95.0234089896332
 30
0.0
 10
245.27275528044
 20
-95.0234089896332
 30
0.0
 10
245.2721051096972
 20
-94.19498212003464
 30
0.0
 10
244.6000053737491
 20
-93.52393651913814
 30
0.0
 10
243.7715785041425
 20
-93.52458668988059
 30
0.0
 10
243.7715785041425
 20
-93.52458668988059
 30
0.0
 10
239.2715798900252
 20
-93.5281184046862
 30
0.0
 10
239.2715798900252
 20
-93.5281184046862
 30
0.0
  0
CIRCLE
  5
83
330
70
100
AcDbEntity
  8
Layer 1
 62
    18
420
        0
370
    25
100
AcDbCircle
 10
61.5246717122384
 20
-87.66761690806898
 30
0.0
 40
3.149999999999923
  0
CIRCLE
  5
84
330
70
100
AcDbEntity
  8
Layer 1
 62
    18
420
        0
370
    25
100
AcDbCircle
 10
374.4090832820401
 20
-87.42205716383438
 30
0.0
 40
3.149999999999803
  0
CIRCLE
  5
85
330
70
100
AcDbEntity
  8
Layer 1
 62
    18
420
        0
370
    25
100
AcDbCircle
 10
411.5813060065018
 20
-226.6235192231305
 30
0.0
 40
1.000000000000031
  0
CIRCLE
  5
86
330
70
100
AcDbEntity
  8
Layer 1
 62
    18
420
        0
370
    25
100
AcDbCircle
 10
267.8926365473125
 20
7.070239278604355
 30
0.0
 40
1.500000000000007
  0
CIRCLE
  5
87
330
70
100
AcDbEntity
  8
Layer 1
 62
    18
420
        0
370
    25
100
AcDbCircle
 10
267.9789673536679
 20
-102.929726844081
 30
0.0
 40
1.499999999999927
  0
CIRCLE
  5
88
330
70
100
AcDbEntity
  8
Layer 1
 62
    18
420
        0
370
    25
100
AcDbCircle
 10
167.8926673448708
 20
6.991756727371969
 30
0.0
 40
1.500000000000128
  0
CIRCLE
  5
89
330
70
100
AcDbEntity
  8
Layer 1
 62
    18
420
        0
370
    25
100
AcDbCircle
 10
167.9789981512264
 20
-103.0082093953133
 30
0.0
 40
1.500000000000047
  0
CIRCLE
  5
8A
330
70
100
AcDbEntity
  8
Layer 1
 62
    18
420
        0
370
    25
100
AcDbCircle
 10
281.4705119556283
 20
-32.91911677411769
 30
0.0
 40
1.500000000000047
  0
CIRCLE
  5
8B
330
70
100
AcDbEntity
  8
Layer 1
 62
    18
420
        0
370
    25
100
AcDbCircle
 10
179.7527005969674
 20
-125.6687960582731
 30
0.0
 40
1.500000000000128
  0
CIRCLE
  5
8C
330
70
100
AcDbEntity
  8
Layer 1
 62
    18
420
        0
370
    25
100
AcDbCircle
 10
154.3775779775408
 20
-33.01886258185903
 30
0.0
 40
1.500000000000047
  0
CIRCLE
  5
8D
330
70
100
AcDbEntity
  8
Layer 1
 62
    18
420
        0
370
    25
100
AcDbCircle
 10
256.2408486140966
 20
-125.6087661898311
 30
0.0
 40
1.500000000000127
  0
CIRCLE
  5
8E
330
70
100
AcDbEntity
  8
Layer 1
 62
    18
420
        0
370
    25
100
AcDbCircle
 10
256.1810543973109
 20
-49.42087801363044
 30
0.0
 40
1.500000000000087
  0
CIRCLE
  5
8F
330
70
100
AcDbEntity
  8
Layer 1
 62
    18
420
        0
370
    25
100
AcDbCircle
 10
154.4632430386499
 20
-142.1705572977857
 30
0.0
 40
1.500000000000128
  0
CIRCLE
  5
90
330
70
100
AcDbEntity
  8
Layer 1
 62
    18
420
        0
370
    25
100
AcDbCircle
 10
179.6929063801816
 20
-49.4809078820723
 30
0.0
 40
1.500000000000168
  0
CIRCLE
  5
91
330
70
100
AcDbEntity
  8
Layer 1
 62
    18
420
        0
370
    25
100
AcDbCircle
 10
281.5561770167374
 20
-142.0708114900445
 30
0.0
 40
1.499999999999887
  0
CIRCLE
  5
92
330
70
100
AcDbEntity
  8
Layer 1
 62
    18
420
        0
370
    25
100
AcDbCircle
 10
255.720268824927
 20
-69.55241774653093
 30
0.0
 40
1.375000000000063
  0
CIRCLE
  5
93
330
70
100
AcDbEntity
  8
Layer 1
 62
    18
420
        0
370
    25
100
AcDbCircle
 10
180.1447315205603
 20
-17.93071545809043
 30
0.0
 40
1.374999999999943
  0
CIRCLE
  5
94
330
70
100
AcDbEntity
  8
Layer 1
 62
    18
420
        0
370
    25
100
AcDbCircle
 10
255.6797082576247
 20
-17.87143366301711
 30
0.0
 40
1.374999999999943
  0
CIRCLE
  5
95
330
70
100
AcDbEntity
  8
Layer 1
 62
    18
420
        0
370
    25
100
AcDbCircle
 10
180.1852920878627
 20
-69.61169954160425
 30
0.0
 40
1.375000000000023
  0
CIRCLE
  5
96
330
70
100
AcDbEntity
  8
Layer 1
 62
    18
420
        0
370
    25
100
AcDbCircle
 10
349.5444096071919
 20
-186.2821820472106
 30
0.0
 40
67.50000000000003
  0
CIRCLE
  5
97
330
70
100
AcDbEntity
  8
Layer 1
 62
    18
420
        0
370
    25
100
AcDbCircle
 10
86.54449060477066
 20
-186.4885911569517
 30
0.0
 40
67.49999999999987
  0
CIRCLE
  5
98
330
70
100
AcDbEntity
  8
Layer 1
 62
    18
420
        0
370
    25
100
AcDbCircle
 10
349.3892643895078
 20
11.39891708504787
 30
0.0
 40
67.50000000000014
  0
CIRCLE
  5
99
330
70
100
AcDbEntity
  8
Layer 1
 62
    18
420
        0
370
    25
100
AcDbCircle
 10
86.38934538708653
 20
11.19250797530699
 30
0.0
 40
67.49999999999987
  0
CIRCLE
  5
9A
330
70
100
AcDbEntity
  8
Layer 1
 62
    18
420
        0
370
    25
100
AcDbCircle
 10
411.3627625636988
 20
51.83758081239663
 30
0.0
 40
0.9999999999999516
  0
CIRCLE
  5
9B
330
70
100
AcDbEntity
  8
Layer 1
 62
    18
420
        0
370
    25
100
AcDbCircle
 10
24.57099243058009
 20
-226.9272548843002
 30
0.0
 40
0.9999999999997914
  0
CIRCLE
  5
9C
330
70
100
AcDbEntity
  8
Layer 1
 62
    18
420
        0
370
    25
100
AcDbCircle
 10
24.3524489877767
 20
51.53384515122693
 30
0.0
 40
1.000000000000031
  0
SPLINE
  5
9D
330
70
100
AcDbEntity
  8
Layer 1
 62
    18
420
        0
370
    25
100
AcDbSpline
210
0.0
220
0.0
230
1.0
 70
     9
 71
     3
 72
    47
 73
    43
 74
     0
 42
0.0000000001
 43
0.0000000001
 40
0.0
 40
0.0
 40
0.0
 40
0.0
 40
1.0
 40
1.0
 40
1.0
 40
2.0
 40
2.0
 40
2.0
 40
3.0
 40
3.0
 40
3.0
 40
4.0
 40
4.0
 40
4.0
 40
5.0
 40
5.0
 40
5.0
 40
6.0
 40
6.0
 40
6.0
 40
7.0
 40
7.0
 40
7.0
 40
8.0
 40
8.0
 40
8.0
 40
9.0
 40
9.0
 40
9.0
 40
10.0
 40
10.0
 40
10.0
 40
11.0
 40
11.0
 40
11.0
 40
12.0
 40
12.0
 40
12.0
 40
13.0
 40
13.0
 40
13.0
 40
14.0
 40
14.0
 40
14.0
 40
14.0
 10
75.21144213188292
 20
10.60383115475754
 30
0.0
 10
75.21143233815475
 20
10.6038296751125
 30
0.0
 10
75.21142254164931
 20
10.60382819505291
 30
0.0
 10
75.21141274791985
 20
10.60382671541813
 30
0.0
 10
60.23925262662276
 20
8.341835991269107
 30
0.0
 10
46.26821294177417
 20
18.64546409811212
 30
0.0
 10
44.00622221762577
 20
33.61762421940922
 30
0.0
 10
41.7442314934761
 20
48.58978434070632
 30
0.0
 10
52.04785960031976
 20
62.56082402555492
 30
0.0
 10
67.02001972161622
 20
64.82281474970362
 30
0.0
 10
67.02001972161622
 20
64.82281474970362
 30
0.0
 10
73.20488361549958
 20
65.75722265310877
 30
0.0
 10
73.20488361549958
 20
65.75722265310877
 30
0.0
 10
74.51549399844106
 20
65.95522938714809
 30
0.0
 10
75.4174374635825
 20
67.17820519834963
 30
0.0
 10
75.2194307295435
 20
68.48881558129112
 30
0.0
 10
75.02142399550385
 20
69.7994259642326
 30
0.0
 10
73.79844818430232
 20
70.70136942937468
 30
0.0
 10
72.48783780136084
 20
70.50336269533535
 30
0.0
 10
72.48783780136084
 20
70.50336269533535
 30
0.0
 10
66.30297390747812
 20
69.56895479193021
 30
0.0
 10
66.30297390747812
 20
69.56895479193021
 30
0.0
 10
48.709593020017
 20
66.91095060156571
 30
0.0
 10
36.60207798115145
 20
50.49395929559615
 30
0.0
 10
39.26008217151563
 20
32.90057840813439
 30
0.0
 10
41.91808636188045
 20
15.30719752067326
 30
0.0
 10
58.33507766785065
 20
3.199682481807703
 30
0.0
 10
75.92845855531177
 20
5.857686672172527
 30
0.0
 10
75.92847007018329
 20
5.857688411836591
 30
0.0
 10
75.92848157853065
 20
5.857690150521421
 30
0.0
 10
75.92849309340024
 20
5.857691890198318
 30
0.0
 10
75.92849309340024
 20
5.857691890198318
 30
0.0
 10
82.11338688873331
 20
6.792118091583236
 30
0.0
 10
82.11338688873331
 20
6.792118091583236
 30
0.0
 10
83.4239970570008
 20
6.990126246545405
 30
0.0
 10
84.32593919622966
 20
8.213103035605803
 30
0.0
 10
84.12793104126686
 20
9.52371320387393
 30
0.0
 10
83.9299228863047
 20
10.83432337214205
 30
0.0
 10
82.70694609724429
 20
11.73626551137029
 30
0.0
 10
81.39633592897617
 20
11.53825735640812
 30
0.0
 10
81.39633592897617
 20
11.53825735640812
 30
0.0
 10
75.21144213188292
 20
10.60383115475754
 30
0.0
 10
75.21144213188292
 20
10.60383115475754
 30
0.0
  0
CIRCLE
  5
9E
330
70
100
AcDbEntity
  8
Layer 1
 62
    18
420
        0
370
    25
100
AcDbCircle
 10
81.75486140885441
 20
9.16518772399568
 30
0.0
 40
1.000000000000035
  0
CIRCLE
  5
9F
330
70
100
AcDbEntity
  8
Layer 1
 62
    18
420
        0
370
    25
100
AcDbCircle
 10
72.84636070843021
 20
68.13029267422206
 30
0.0
 40
1.000000000000035
  0
SPLINE
  5
A0
330
70
100
AcDbEntity
  8
Layer 1
 62
    18
420
        0
370
    25
100
AcDbSpline
210
0.0
220
0.0
230
1.0
 70
     9
 71
     3
 72
    41
 73
    37
 74
     0
 42
0.0000000001
 43
0.0000000001
 40
0.0
 40
0.0
 40
0.0
 40
0.0
 40
1.0
 40
1.0
 40
1.0
 40
2.0
 40
2.0
 40
2.0
 40
3.0
 40
3.0
 40
3.0
 40
4.0
 40
4.0
 40
4.0
 40
5.0
 40
5.0
 40
5.0
 40
6.0
 40
6.0
 40
6.0
 40
7.0
 40
7.0
 40
7.0
 40
8.0
 40
8.0
 40
8.0
 40
9.0
 40
9.0
 40
9.0
 40
10.0
 40
10.0
 40
10.0
 40
11.0
 40
11.0
 40
11.0
 40
12.0
 40
12.0
 40
12.0
 40
12.0
 10
245.4640566976675
 20
-254.6722900560471
 30
0.0
 10
245.4640566976675
 20
-254.6722900560471
 30
0.0
 10
239.709568312992
 20
-254.7495451199992
 30
0.0
 10
239.709568312992
 20
-254.7495451199992
 30
0.0
 10
238.6050983412272
 20
-254.7643728323161
 30
0.0
 10
237.6977282883766
 20
-253.8810432510934
 30
0.0
 10
237.682900576059
 20
-252.7765732793292
 30
0.0
 10
237.682900576059
 20
-252.7765732793292
 30
0.0
 10
237.4949649391373
 20
-238.7778347577211
 30
0.0
 10
237.4949649391373
 20
-238.7778347577211
 30
0.0
 10
237.4801372268198
 20
-237.6733647859555
 30
0.0
 10
238.3634668080415
 20
-236.7659947331046
 30
0.0
 10
239.4679367798067
 20
-236.7511670207878
 30
0.0
 10
239.4679367798067
 20
-236.7511670207878
 30
0.0
 10
246.8378146707201
 20
-236.6522250558865
 30
0.0
 10
246.8378146707201
 20
-236.6522250558865
 30
0.0
 10
247.9422846424853
 20
-236.6373973435691
 30
0.0
 10
248.8496546953359
 20
-237.5207269247911
 30
0.0
 10
248.8644824076532
 20
-238.6251968965559
 30
0.0
 10
248.8644824076532
 20
-238.6251968965559
 30
0.0
 10
248.8977145121866
 20
-241.1005525529041
 30
0.0
 10
248.8977145121866
 20
-241.1005525529041
 30
0.0
 10
248.9064148109069
 20
-241.7486106266018
 30
0.0
 10
248.6005428566753
 20
-242.3607067469815
 30
0.0
 10
248.0770520846183
 20
-242.7428224017952
 30
0.0
 10
245.4005334436232
 20
-244.6965142865736
 30
0.0
 10
244.8145665812621
 20
-248.4500415467741
 30
0.0
 10
246.7682584660416
 20
-251.1265601877689
 30
0.0
 10
246.8366765478307
 20
-251.2202915856005
 30
0.0
 10
246.9077995120892
 20
-251.3120183504374
 30
0.0
 10
246.981537604231
 20
-251.4016247264518
 30
0.0
 10
247.2702806632524
 20
-251.7525046904806
 30
0.0
 10
247.4309285376497
 20
-252.1912523230962
 30
0.0
 10
247.4370285383369
 20
-252.6456223191144
 30
0.0
 10
247.4518562506544
 20
-253.7500922908786
 30
0.0
 10
246.5685266694324
 20
-254.6574623437296
 30
0.0
 10
245.4640566976675
 20
-254.6722900560471
 30
0.0
  0
SPLINE
  5
A1
330
70
100
AcDbEntity
  8
Layer 1
 62
    18
420
        0
370
    25
100
AcDbSpline
210
0.0
220
0.0
230
1.0
 70
     9
 71
     3
 72
    32
 73
    28
 74
     0
 42
0.0000000001
 43
0.0000000001
 40
0.0
 40
0.0
 40
0.0
 40
0.0
 40
1.0
 40
1.0
 40
1.0
 40
2.0
 40
2.0
 40
2.0
 40
3.0
 40
3.0
 40
3.0
 40
4.0
 40
4.0
 40
4.0
 40
5.0
 40
5.0
 40
5.0
 40
6.0
 40
6.0
 40
6.0
 40
7.0
 40
7.0
 40
7.0
 40
8.0
 40
8.0
 40
8.0
 40
9.0
 40
9.0
 40
9.0
 40
9.0
 10
245.9222485123321
 20
-203.355545922051
 30
0.0
 10
245.9222485123321
 20
-203.355545922051
 30
0.0
 10
239.0208383096318
 20
-203.4481986221565
 30
0.0
 10
239.0208383096318
 20
-203.4481986221565
 30
0.0
 10
237.9163683378666
 20
-203.463026334474
 30
0.0
 10
237.0089982850163
 20
-202.5796967532527
 30
0.0
 10
236.9941705726988
 20
-201.4752267814878
 30
0.0
 10
236.9941705726988
 20
-201.4752267814878
 30
0.0
 10
236.6182992988548
 20
-173.4777497382696
 30
0.0
 10
236.6182992988548
 20
-173.4777497382696
 30
0.0
 10
236.6034715865372
 20
-172.3732797665047
 30
0.0
 10
237.4868011677592
 20
-171.4659097136538
 30
0.0
 10
238.5912711395244
 20
-171.4510820013369
 30
0.0
 10
238.5912711395244
 20
-171.4510820013369
 30
0.0
 10
240.7380097340317
 20
-171.4222616412422
 30
0.0
 10
240.7380097340317
 20
-171.4222616412422
 30
0.0
 10
241.7132779812358
 20
-171.4091684858177
 30
0.0
 10
242.5557582342311
 20
-172.1014774783131
 30
0.0
 10
242.731953598072
 20
-173.0607870104687
 30
0.0
 10
242.731953598072
 20
-173.0607870104687
 30
0.0
 10
247.8624964801087
 20
-200.9944317136748
 30
0.0
 10
247.8624964801087
 20
-200.9944317136748
 30
0.0
 10
247.8827674229405
 20
-201.1047984580685
 30
0.0
 10
247.8937140102734
 20
-201.216675420791
 30
0.0
 10
247.8952203530018
 20
-201.3288781851176
 30
0.0
 10
247.910048065319
 20
-202.4333481568831
 30
0.0
 10
247.026718484097
 20
-203.3407182097334
 30
0.0
 10
245.9222485123321
 20
-203.355545922051
 30
0.0
  0
SPLINE
  5
A2
330
70
100
AcDbEntity
  8
Layer 1
 62
    18
420
        0
370
    25
100
AcDbSpline
210
0.0
220
0.0
230
1.0
 70
     9
 71
     3
 72
    35
 73
    31
 74
     0
 42
0.0000000001
 43
0.0000000001
 40
0.0
 40
0.0
 40
0.0
 40
0.0
 40
1.0
 40
1.0
 40
1.0
 40
2.0
 40
2.0
 40
2.0
 40
3.0
 40
3.0
 40
3.0
 40
4.0
 40
4.0
 40
4.0
 40
5.0
 40
5.0
 40
5.0
 40
6.0
 40
6.0
 40
6.0
 40
7.0
 40
7.0
 40
7.0
 40
8.0
 40
8.0
 40
8.0
 40
9.0
 40
9.0
 40
9.0
 40
10.0
 40
10.0
 40
10.0
 40
10.0
 10
247.7345386824141
 20
-223.986567777871
 30
0.0
 10
246.586244953813
 20
-224.7322816584087
 30
0.0
 10
245.7573818533377
 20
-225.8794861718936
 30
0.0
 10
245.4100130876364
 20
-227.2038738112904
 30
0.0
 10
245.1818897713114
 20
-228.0736229949548
 30
0.0
 10
244.4013850526371
 20
-228.6842136614504
 30
0.0
 10
243.5022976291649
 20
-228.6962840753171
 30
0.0
 10
243.5022976291649
 20
-228.6962840753171
 30
0.0
 10
239.36054498728
 20
-228.7518878655824
 30
0.0
 10
239.36054498728
 20
-228.7518878655824
 30
0.0
 10
238.2560750155148
 20
-228.7667155778999
 30
0.0
 10
237.3487049626642
 20
-227.8833859966772
 30
0.0
 10
237.3338772503466
 20
-226.7789160249124
 30
0.0
 10
237.3338772503466
 20
-226.7789160249124
 30
0.0
 10
237.1149863392915
 20
-210.4744158310928
 30
0.0
 10
237.1149863392915
 20
-210.4744158310928
 30
0.0
 10
237.1001586269739
 20
-209.3699458593286
 30
0.0
 10
237.983488208196
 20
-208.4625758064771
 30
0.0
 10
239.0879581799612
 20
-208.4477480941595
 30
0.0
 10
239.0879581799612
 20
-208.4477480941595
 30
0.0
 10
246.4578360708746
 20
-208.3488061292584
 30
0.0
 10
246.4578360708746
 20
-208.3488061292584
 30
0.0
 10
247.5623060426395
 20
-208.3339784169409
 30
0.0
 10
248.4696760954901
 20
-209.2173079981635
 30
0.0
 10
248.4845038078077
 20
-210.3217779699277
 30
0.0
 10
248.4845038078077
 20
-210.3217779699277
 30
0.0
 10
248.6450770990769
 20
-222.2823808382673
 30
0.0
 10
248.6450770990769
 20
-222.2823808382673
 30
0.0
 10
248.6542964247087
 20
-222.9690996052901
 30
0.0
 10
248.3105206636681
 20
-223.6125190935809
 30
0.0
 10
247.7345386824141
 20
-223.986567777871
 30
0.0
  0
SPLINE
  5
A3
330
70
100
AcDbEntity
  8
Layer 1
 62
    18
420
        0
370
    25
100
AcDbSpline
210
0.0
220
0.0
230
1.0
 70
     9
 71
     3
 72
    29
 73
    25
 74
     0
 42
0.0000000001
 43
0.0000000001
 40
0.0
 40
0.0
 40
0.0
 40
0.0
 40
1.0
 40
1.0
 40
1.0
 40
2.0
 40
2.0
 40
2.0
 40
3.0
 40
3.0
 40
3.0
 40
4.0
 40
4.0
 40
4.0
 40
5.0
 40
5.0
 40
5.0
 40
6.0
 40
6.0
 40
6.0
 40
7.0
 40
7.0
 40
7.0
 40
8.0
 40
8.0
 40
8.0
 40
8.0
 10
240.2903090504529
 20
-166.4278215365886
 30
0.0
 10
240.2903090504529
 20
-166.4278215365886
 30
0.0
 10
238.524151269195
 20
-166.4515325293339
 30
0.0
 10
238.524151269195
 20
-166.4515325293339
 30
0.0
 10
237.4196812974298
 20
-166.4663602416514
 30
0.0
 10
236.5123112445796
 20
-165.5830306604294
 30
0.0
 10
236.497483532262
 20
-164.4785606886645
 30
0.0
 10
236.497483532262
 20
-164.4785606886645
 30
0.0
 10
236.30954789534
 20
-150.4798221670551
 30
0.0
 10
236.30954789534
 20
-150.4798221670551
 30
0.0
 10
236.2947201830225
 20
-149.3753521952903
 30
0.0
 10
237.1780497642445
 20
-148.46798214244
 30
0.0
 10
238.2825197360097
 20
-148.4531544301224
 30
0.0
 10
238.2825197360097
 20
-148.4531544301224
 30
0.0
 10
240.0486775172673
 20
-148.4294434373772
 30
0.0
 10
240.0486775172673
 20
-148.4294434373772
 30
0.0
 10
241.1531474890318
 20
-148.4146157250603
 30
0.0
 10
242.0605175418831
 20
-149.2979453062817
 30
0.0
 10
242.0753452542003
 20
-150.4024152780472
 30
0.0
 10
242.0753452542003
 20
-150.4024152780472
 30
0.0
 10
242.2632808911223
 20
-164.4011537996553
 30
0.0
 10
242.2632808911223
 20
-164.4011537996553
 30
0.0
 10
242.2781086034395
 20
-165.5056237714208
 30
0.0
 10
241.3947790222171
 20
-166.4129938242718
 30
0.0
 10
240.2903090504529
 20
-166.4278215365886
 30
0.0
  0
SPLINE
  5
A4
330
70
100
AcDbEntity
  8
Layer 1
 62
    18
420
        0
370
    25
100
AcDbSpline
210
0.0
220
0.0
230
1.0
 70
     9
 71
     3
 72
    32
 73
    28
 74
     0
 42
0.0000000001
 43
0.0000000001
 40
0.0
 40
0.0
 40
0.0
 40
0.0
 40
1.0
 40
1.0
 40
1.0
 40
2.0
 40
2.0
 40
2.0
 40
3.0
 40
3.0
 40
3.0
 40
4.0
 40
4.0
 40
4.0
 40
5.0
 40
5.0
 40
5.0
 40
6.0
 40
6.0
 40
6.0
 40
7.0
 40
7.0
 40
7.0
 40
8.0
 40
8.0
 40
8.0
 40
9.0
 40
9.0
 40
9.0
 40
9.0
 10
236.1887321287473
 20
-141.4806331174494
 30
0.0
 10
236.1887321287473
 20
-141.4806331174494
 30
0.0
 10
236.0383270864567
 20
-130.2774313520025
 30
0.0
 10
236.0383270864567
 20
-130.2774313520025
 30
0.0
 10
236.0303500399195
 20
-129.6832460741276
 30
0.0
 10
236.2870093726396
 20
-129.1162830800423
 30
0.0
 10
236.7387432928651
 20
-128.7302050529123
 30
0.0
 10
237.5784250700728
 20
-128.012564270481
 30
0.0
 10
238.840884443786
 20
-128.111498044271
 30
0.0
 10
239.558525226217
 20
-128.9511798214785
 30
0.0
 10
239.9338971476754
 20
-129.3903869705712
 30
0.0
 10
240.3761285570738
 20
-129.767705804744
 30
0.0
 10
240.8689514175862
 20
-130.0692561776325
 30
0.0
 10
241.4547673461802
 20
-130.427707511502
 30
0.0
 10
241.8156921448399
 20
-131.0616662652898
 30
0.0
 10
241.8249114704715
 20
-131.7483850323133
 30
0.0
 10
241.8249114704715
 20
-131.7483850323133
 30
0.0
 10
241.9545294876079
 20
-141.4032262284408
 30
0.0
 10
241.9545294876079
 20
-141.4032262284408
 30
0.0
 10
241.9693571999251
 20
-142.5076962002057
 30
0.0
 10
241.0860276187024
 20
-143.4150662530566
 30
0.0
 10
239.9815576469379
 20
-143.4298939653742
 30
0.0
 10
239.9815576469379
 20
-143.4298939653742
 30
0.0
 10
238.2153998656804
 20
-143.4536049581188
 30
0.0
 10
238.2153998656804
 20
-143.4536049581188
 30
0.0
 10
237.1109298939152
 20
-143.4684326704363
 30
0.0
 10
236.2035598410649
 20
-142.5851030892143
 30
0.0
 10
236.1887321287473
 20
-141.4806331174494
 30
0.0
  0
SPLINE
  5
A5
330
70
100
AcDbEntity
  8
Layer 1
 62
    18
420
        0
370
    25
100
AcDbSpline
210
0.0
220
0.0
230
1.0
 70
     9
 71
     3
 72
    32
 73
    28
 74
     0
 42
0.0000000001
 43
0.0000000001
 40
0.0
 40
0.0
 40
0.0
 40
0.0
 40
1.0
 40
1.0
 40
1.0
 40
2.0
 40
2.0
 40
2.0
 40
3.0
 40
3.0
 40
3.0
 40
4.0
 40
4.0
 40
4.0
 40
5.0
 40
5.0
 40
5.0
 40
6.0
 40
6.0
 40
6.0
 40
7.0
 40
7.0
 40
7.0
 40
8.0
 40
8.0
 40
8.0
 40
9.0
 40
9.0
 40
9.0
 40
9.0
 10
228.0390479312517
 20
-130.3848231445299
 30
0.0
 10
228.0390479312517
 20
-130.3848231445299
 30
0.0
 10
228.189452973542
 20
-141.5880249099761
 30
0.0
 10
228.189452973542
 20
-141.5880249099761
 30
0.0
 10
228.2042806858595
 20
-142.692494881741
 30
0.0
 10
227.3209511046375
 20
-143.5998649345919
 30
0.0
 10
226.2164811328726
 20
-143.6146926469094
 30
0.0
 10
226.2164811328726
 20
-143.6146926469094
 30
0.0
 10
224.450323351615
 20
-143.6384036396546
 30
0.0
 10
224.450323351615
 20
-143.6384036396546
 30
0.0
 10
223.3458533798502
 20
-143.6532313519715
 30
0.0
 10
222.4384833269992
 20
-142.7699017707495
 30
0.0
 10
222.423655614682
 20
-141.6654317989847
 30
0.0
 10
222.423655614682
 20
-141.6654317989847
 30
0.0
 10
222.2940375975462
 20
-132.0105906028571
 30
0.0
 10
222.2940375975462
 20
-132.0105906028571
 30
0.0
 10
222.2848182719141
 20
-131.3238718358336
 30
0.0
 10
222.6285940329544
 20
-130.6804523475435
 30
0.0
 10
223.2045760142084
 20
-130.306403663254
 30
0.0
 10
223.6891259790517
 20
-129.9917318805923
 30
0.0
 10
224.1210686818285
 20
-129.6026770983337
 30
0.0
 10
224.4845145686842
 20
-129.1535511844071
 30
0.0
 10
224.8583264148683
 20
-128.6916156030018
 30
0.0
 10
225.4181949164434
 20
-128.4198283503974
 30
0.0
 10
226.0123801943187
 20
-128.4118513038605
 30
0.0
 10
227.1168501660838
 20
-128.397023591543
 30
0.0
 10
228.0242202189341
 20
-129.2803531727656
 30
0.0
 10
228.0390479312517
 20
-130.3848231445299
 30
0.0
  0
SPLINE
  5
A6
330
70
100
AcDbEntity
  8
Layer 1
 62
    18
420
        0
370
    25
100
AcDbSpline
210
0.0
220
0.0
230
1.0
 70
     9
 71
     3
 72
    32
 73
    28
 74
     0
 42
0.0000000001
 43
0.0000000001
 40
0.0
 40
0.0
 40
0.0
 40
0.0
 40
1.0
 40
1.0
 40
1.0
 40
2.0
 40
2.0
 40
2.0
 40
3.0
 40
3.0
 40
3.0
 40
4.0
 40
4.0
 40
4.0
 40
5.0
 40
5.0
 40
5.0
 40
6.0
 40
6.0
 40
6.0
 40
7.0
 40
7.0
 40
7.0
 40
8.0
 40
8.0
 40
8.0
 40
9.0
 40
9.0
 40
9.0
 40
9.0
 10
227.0219195768241
 20
-203.6092863109478
 30
0.0
 10
227.0219195768241
 20
-203.6092863109478
 30
0.0
 10
220.1205093741234
 20
-203.7019390110533
 30
0.0
 10
220.1205093741234
 20
-203.7019390110533
 30
0.0
 10
220.0083066097958
 20
-203.7034453537817
 30
0.0
 10
219.8961761012927
 20
-203.6955061079115
 30
0.0
 10
219.7853049495706
 20
-203.6782053244875
 30
0.0
 10
218.6939427309535
 20
-203.5079047450482
 30
0.0
 10
217.9472747443174
 20
-202.4851249644482
 30
0.0
 10
218.1175753237556
 20
-201.3937627458305
 30
0.0
 10
218.1175753237556
 20
-201.3937627458305
 30
0.0
 10
222.4963756581052
 20
-173.3324533626021
 30
0.0
 10
222.4963756581052
 20
-173.3324533626021
 30
0.0
 10
222.6467543482037
 20
-172.3687595137645
 30
0.0
 10
223.4703455650049
 20
-171.6540832056461
 30
0.0
 10
224.445613812209
 20
-171.6409900502217
 30
0.0
 10
224.445613812209
 20
-171.6409900502217
 30
0.0
 10
226.5923524067166
 20
-171.6121696901269
 30
0.0
 10
226.5923524067166
 20
-171.6121696901269
 30
0.0
 10
227.6968223784815
 20
-171.5973419778094
 30
0.0
 10
228.6041924313321
 20
-172.4806715590314
 30
0.0
 10
228.6190201436494
 20
-173.5851415307963
 30
0.0
 10
228.6190201436494
 20
-173.5851415307963
 30
0.0
 10
228.9948914174934
 20
-201.5826185740145
 30
0.0
 10
228.9948914174934
 20
-201.5826185740145
 30
0.0
 10
229.009719129811
 20
-202.6870885457793
 30
0.0
 10
228.1263895485889
 20
-203.5944585986303
 30
0.0
 10
227.0219195768241
 20
-203.6092863109478
 30
0.0
  0
SPLINE
  5
A7
330
70
100
AcDbEntity
  8
Layer 1
 62
    18
420
        0
370
    25
100
AcDbSpline
210
0.0
220
0.0
230
1.0
 70
     9
 71
     3
 72
    35
 73
    31
 74
     0
 42
0.0000000001
 43
0.0000000001
 40
0.0
 40
0.0
 40
0.0
 40
0.0
 40
1.0
 40
1.0
 40
1.0
 40
2.0
 40
2.0
 40
2.0
 40
3.0
 40
3.0
 40
3.0
 40
4.0
 40
4.0
 40
4.0
 40
5.0
 40
5.0
 40
5.0
 40
6.0
 40
6.0
 40
6.0
 40
7.0
 40
7.0
 40
7.0
 40
8.0
 40
8.0
 40
8.0
 40
9.0
 40
9.0
 40
9.0
 40
10.0
 40
10.0
 40
10.0
 40
10.0
 10
221.272781163522
 20
-227.5279205850896
 30
0.0
 10
220.8899837049077
 20
-226.2133355614227
 30
0.0
 10
220.0306220197843
 20
-225.0887957758959
 30
0.0
 10
218.8627230597247
 20
-224.3741772078038
 30
0.0
 10
218.2769071311301
 20
-224.0157258739349
 30
0.0
 10
217.915982332471
 20
-223.3817671201465
 30
0.0
 10
217.9067630068395
 20
-222.6950483531236
 30
0.0
 10
217.9067630068395
 20
-222.6950483531236
 30
0.0
 10
217.7461897155699
 20
-210.7344454847841
 30
0.0
 10
217.7461897155699
 20
-210.7344454847841
 30
0.0
 10
217.7313620032527
 20
-209.6299755130198
 30
0.0
 10
218.6146915844744
 20
-208.7226054601689
 30
0.0
 10
219.7191615562396
 20
-208.7077777478514
 30
0.0
 10
219.7191615562396
 20
-208.7077777478514
 30
0.0
 10
227.0890394471534
 20
-208.6088357829495
 30
0.0
 10
227.0890394471534
 20
-208.6088357829495
 30
0.0
 10
228.1935094189183
 20
-208.5940080706327
 30
0.0
 10
229.1008794717686
 20
-209.4773376518554
 30
0.0
 10
229.1157071840861
 20
-210.5818076236196
 30
0.0
 10
229.1157071840861
 20
-210.5818076236196
 30
0.0
 10
229.3345980951416
 20
-226.8863078174397
 30
0.0
 10
229.3345980951416
 20
-226.8863078174397
 30
0.0
 10
229.3494258074594
 20
-227.9907777892046
 30
0.0
 10
228.4660962262368
 20
-228.8981478420549
 30
0.0
 10
227.3616262544722
 20
-228.9129755543724
 30
0.0
 10
227.3616262544722
 20
-228.9129755543724
 30
0.0
 10
223.2198736125867
 20
-228.9685793446376
 30
0.0
 10
223.2198736125867
 20
-228.9685793446376
 30
0.0
 10
222.3207861891142
 20
-228.980649758505
 30
0.0
 10
221.5241711397155
 20
-228.3912322146924
 30
0.0
 10
221.272781163522
 20
-227.5279205850896
 30
0.0
  0
SPLINE
  5
A8
330
70
100
AcDbEntity
  8
Layer 1
 62
    18
420
        0
370
    25
100
AcDbSpline
210
0.0
220
0.0
230
1.0
 70
     9
 71
     3
 72
    29
 73
    25
 74
     0
 42
0.0000000001
 43
0.0000000001
 40
0.0
 40
0.0
 40
0.0
 40
0.0
 40
1.0
 40
1.0
 40
1.0
 40
2.0
 40
2.0
 40
2.0
 40
3.0
 40
3.0
 40
3.0
 40
4.0
 40
4.0
 40
4.0
 40
5.0
 40
5.0
 40
5.0
 40
6.0
 40
6.0
 40
6.0
 40
7.0
 40
7.0
 40
7.0
 40
8.0
 40
8.0
 40
8.0
 40
8.0
 10
226.5252325363873
 20
-166.6126202181239
 30
0.0
 10
226.5252325363873
 20
-166.6126202181239
 30
0.0
 10
224.7590747551297
 20
-166.6363312108685
 30
0.0
 10
224.7590747551297
 20
-166.6363312108685
 30
0.0
 10
223.6546047833652
 20
-166.651158923186
 30
0.0
 10
222.7472347305142
 20
-165.7678293419647
 30
0.0
 10
222.7324070181967
 20
-164.6633593701991
 30
0.0
 10
222.7324070181967
 20
-164.6633593701991
 30
0.0
 10
222.5444713812747
 20
-150.6646208485904
 30
0.0
 10
222.5444713812747
 20
-150.6646208485904
 30
0.0
 10
222.5296436689572
 20
-149.5601508768255
 30
0.0
 10
223.4129732501795
 20
-148.6527808239745
 30
0.0
 10
224.517443221944
 20
-148.6379531116577
 30
0.0
 10
224.517443221944
 20
-148.6379531116577
 30
0.0
 10
226.2836010032019
 20
-148.6142421189131
 30
0.0
 10
226.2836010032019
 20
-148.6142421189131
 30
0.0
 10
227.3880709749665
 20
-148.5994144065955
 30
0.0
 10
228.2954410278174
 20
-149.482743987817
 30
0.0
 10
228.310268740135
 20
-150.5872139595818
 30
0.0
 10
228.310268740135
 20
-150.5872139595818
 30
0.0
 10
228.4982043770567
 20
-164.5859524811912
 30
0.0
 10
228.4982043770567
 20
-164.5859524811912
 30
0.0
 10
228.5130320893742
 20
-165.6904224529561
 30
0.0
 10
227.6297025081522
 20
-166.5977925058063
 30
0.0
 10
226.5252325363873
 20
-166.6126202181239
 30
0.0
  0
SPLINE
  5
A9
330
70
100
AcDbEntity
  8
Layer 1
 62
    18
420
        0
370
    25
100
AcDbSpline
210
0.0
220
0.0
230
1.0
 70
     9
 71
     3
 72
    41
 73
    37
 74
     0
 42
0.0000000001
 43
0.0000000001
 40
0.0
 40
0.0
 40
0.0
 40
0.0
 40
1.0
 40
1.0
 40
1.0
 40
2.0
 40
2.0
 40
2.0
 40
3.0
 40
3.0
 40
3.0
 40
4.0
 40
4.0
 40
4.0
 40
5.0
 40
5.0
 40
5.0
 40
6.0
 40
6.0
 40
6.0
 40
7.0
 40
7.0
 40
7.0
 40
8.0
 40
8.0
 40
8.0
 40
9.0
 40
9.0
 40
9.0
 40
10.0
 40
10.0
 40
10.0
 40
11.0
 40
11.0
 40
11.0
 40
12.0
 40
12.0
 40
12.0
 40
12.0
 10
227.7106495801846
 20
-254.9106328087892
 30
0.0
 10
227.7106495801846
 20
-254.9106328087892
 30
0.0
 10
221.9561611955091
 20
-254.9878878727413
 30
0.0
 10
221.9561611955091
 20
-254.9878878727413
 30
0.0
 10
221.5017911994903
 20
-254.9939878734285
 30
0.0
 10
221.0588890170573
 20
-254.8451763098015
 30
0.0
 10
220.7003840521696
 20
-254.5659568738001
 30
0.0
 10
219.8289401366007
 20
-253.8872380206643
 30
0.0
 10
219.6727056043825
 20
-252.6305828043014
 30
0.0
 10
220.3514244575173
 20
-251.7591388887324
 30
0.0
 10
222.3875810169224
 20
-249.1448071420256
 30
0.0
 10
221.9188774202667
 20
-245.3748414929342
 30
0.0
 10
219.3045456735611
 20
-243.3386849335288
 30
0.0
 10
219.2129920541471
 20
-243.267378947614
 30
0.0
 10
219.1193890146024
 20
-243.1987440700342
 30
0.0
 10
219.0238546785473
 20
-243.1328669154995
 30
0.0
 10
218.4902944789035
 20
-242.7649423642146
 30
0.0
 10
218.1681007186689
 20
-242.1612781414582
 30
0.0
 10
218.1594004199489
 20
-241.5132200677605
 30
0.0
 10
218.1594004199489
 20
-241.5132200677605
 30
0.0
 10
218.1261683154158
 20
-239.0378644114123
 30
0.0
 10
218.1261683154158
 20
-239.0378644114123
 30
0.0
 10
218.1113406030982
 20
-237.9333944396474
 30
0.0
 10
218.9946701843206
 20
-237.0260243867964
 30
0.0
 10
220.0991401560851
 20
-237.0111966744789
 30
0.0
 10
220.0991401560851
 20
-237.0111966744789
 30
0.0
 10
227.4690180469989
 20
-236.9122547095778
 30
0.0
 10
227.4690180469989
 20
-236.9122547095778
 30
0.0
 10
228.5734880187638
 20
-236.8974269972602
 30
0.0
 10
229.4808580716144
 20
-237.7807565784823
 30
0.0
 10
229.495685783932
 20
-238.8852265502478
 30
0.0
 10
229.495685783932
 20
-238.8852265502478
 30
0.0
 10
229.6836214208537
 20
-252.8839650718565
 30
0.0
 10
229.6836214208537
 20
-252.8839650718565
 30
0.0
 10
229.6984491331712
 20
-253.9884350436207
 30
0.0
 10
228.8151195519492
 20
-254.8958050964717
 30
0.0
 10
227.7106495801846
 20
-254.9106328087892
 30
0.0
  0
LWPOLYLINE
  5
AA
330
70
100
AcDbEntity
  8
Layer 1
 62
    18
420
        0
370
    25
100
AcDbPolyline
 90
        8
 70
     1
 43
0.0
 10
215.1423828984946
 20
-120.7612918350328
 10
215.8135816017873
 20
-170.7567865550645
 10
210.6528526363045
 20
-203.829044042441
 10
211.4489744321918
 20
-263.1296696954878
 10
256.1860270460386
 20
-262.5290665437094
 10
255.3899052501513
 20
-203.2284408906633
 10
249.3431939963217
 20
-170.306645347598
 10
248.6719952930286
 20
-120.3111506275663
  0
CIRCLE
  5
AB
330
70
100
AcDbEntity
  8
Layer 1
 62
    18
420
        0
370
    25
100
AcDbCircle
 10
215.6177580879374
 20
-248.0723513031084
 30
0.0
 40
0.9999999999998786
  0
CIRCLE
  5
AC
330
70
100
AcDbEntity
  8
Layer 1
 62
    18
420
        0
370
    25
100
AcDbCircle
 10
251.6145142863598
 20
-247.5890882367378
 30
0.0
 40
1.000000000000203
  0
CIRCLE
  5
AD
330
70
100
AcDbEntity
  8
Layer 1
 62
    18
420
        0
370
    25
100
AcDbCircle
 10
215.9921087859558
 20
-229.0656134155371
 30
0.0
 40
1.499999999999702
  0
CIRCLE
  5
AE
330
70
100
AcDbEntity
  8
Layer 1
 62
    18
420
        0
370
    25
100
AcDbCircle
 10
243.7395656913547
 20
-125.3778199698995
 30
0.0
 40
1.499999999999898
  0
CIRCLE
  5
AF
330
70
100
AcDbEntity
  8
Layer 1
 62
    18
420
        0
370
    25
100
AcDbCircle
 10
250.7300624557959
 20
-228.5992500044179
 30
0.0
 40
1.499999999999619
  0
CIRCLE
  5
B0
330
70
100
AcDbEntity
  8
Layer 1
 62
    18
420
        0
370
    25
100
AcDbCircle
 10
220.2090522408268
 20
-125.6937214367067
 30
0.0
 40
1.500000000000061
  0
SPLINE
  5
B1
330
70
100
AcDbEntity
  8
Layer 1
 62
    18
420
        0
370
    25
100
AcDbSpline
210
0.0
220
0.0
230
1.0
 70
     9
 71
     3
 72
    47
 73
    43
 74
     0
 42
0.0000000001
 43
0.0000000001
 40
0.0
 40
0.0
 40
0.0
 40
0.0
 40
1.0
 40
1.0
 40
1.0
 40
2.0
 40
2.0
 40
2.0
 40
3.0
 40
3.0
 40
3.0
 40
4.0
 40
4.0
 40
4.0
 40
5.0
 40
5.0
 40
5.0
 40
6.0
 40
6.0
 40
6.0
 40
7.0
 40
7.0
 40
7.0
 40
8.0
 40
8.0
 40
8.0
 40
9.0
 40
9.0
 40
9.0
 40
10.0
 40
10.0
 40
10.0
 40
11.0
 40
11.0
 40
11.0
 40
12.0
 40
12.0
 40
12.0
 40
13.0
 40
13.0
 40
13.0
 40
14.0
 40
14.0
 40
14.0
 40
14.0
 10
65.66624767113795
 20
48.02421071933006
 30
0.0
 10
65.66625757369924
 20
48.02421050546236
 30
0.0
 10
65.66626747906797
 20
48.02421029152856
 30
0.0
 10
65.66627738162861
 20
48.02421007765027
 30
0.0
 10
80.80481342344741
 20
47.69724334470565
 30
0.0
 10
92.81196274370801
 20
35.15997620865469
 30
0.0
 10
92.48499601076273
 20
20.0214401668362
 30
0.0
 10
92.15802927781878
 20
4.882904125017393
 30
0.0
 10
79.62076214176716
 20
-7.124245195243189
 30
0.0
 10
64.48222609994899
 20
-6.797278462298252
 30
0.0
 10
64.48222609994899
 20
-6.797278462298252
 30
0.0
 10
58.22863381860184
 20
-6.662211462328812
 30
0.0
 10
58.22863381860184
 20
-6.662211462328812
 30
0.0
 10
56.90345947115608
 20
-6.633589941210272
 30
0.0
 10
55.80599107979183
 20
-7.684653678122277
 30
0.0
 10
55.77736955867329
 20
-9.009828025568035
 30
0.0
 10
55.74874803755507
 20
-10.33500237301347
 30
0.0
 10
56.79981177446708
 20
-11.43247076437868
 30
0.0
 10
58.12498612191252
 20
-11.4610922854969
 30
0.0
 10
58.12498612191252
 20
-11.4610922854969
 30
0.0
 10
64.37857840325934
 20
-11.59615928546634
 30
0.0
 10
64.37857840325934
 20
-11.59615928546634
 30
0.0
 10
82.16746313992796
 20
-11.98036906253143
 30
0.0
 10
96.89966706020323
 20
2.128907729992874
 30
0.0
 10
97.28387683726865
 20
19.91779246666213
 30
0.0
 10
97.66808661433339
 20
37.70667720333106
 30
0.0
 10
83.55880982180845
 20
52.43888112360633
 30
0.0
 10
65.76992508513952
 20
52.82309090067077
 30
0.0
 10
65.76991344231096
 20
52.82309115213658
 30
0.0
 10
65.76990180607748
 20
52.8230914034532
 30
0.0
 10
65.7698901632486
 20
52.82309165490586
 30
0.0
 10
65.7698901632486
 20
52.82309165490586
 30
0.0
 10
59.51626529583933
 20
52.95814572965453
 30
0.0
 10
59.51626529583933
 20
52.95814572965453
 30
0.0
 10
58.19109091736454
 20
52.98676581406026
 30
0.0
 10
57.09362366553104
 20
51.93570088730701
 30
0.0
 10
57.06500358112595
 20
50.61052650883158
 30
0.0
 10
57.03638349672054
 20
49.28535213035614
 30
0.0
 10
58.08744842347348
 20
48.18788487852328
 30
0.0
 10
59.41262280194924
 20
48.15926479411756
 30
0.0
 10
59.41262280194924
 20
48.15926479411756
 30
0.0
 10
65.66624767113795
 20
48.02421071933006
 30
0.0
 10
65.66624767113795
 20
48.02421071933006
 30
0.0
  0
CIRCLE
  5
B2
330
70
100
AcDbEntity
  8
Layer 1
 62
    18
420
        0
370
    25
100
AcDbCircle
 10
59.46444404889452
 20
50.55870526188605
 30
0.0
 40
1.000000000000018
  0
CIRCLE
  5
B3
330
70
100
AcDbEntity
  8
Layer 1
 62
    18
420
        0
370
    25
100
AcDbCircle
 10
58.17680997025726
 20
-9.061651873912778
 30
0.0
 40
1.00000000000013
  0
CIRCLE
  5
B4
330
70
100
AcDbEntity
  8
Layer 1
 62
    18
420
        0
370
    25
100
AcDbCircle
 10
131.0100152577674
 20
-21.61057593716952
 30
0.0
 40
3.000000000000105
  0
CIRCLE
  5
B5
330
70
100
AcDbEntity
  8
Layer 1
 62
    18
420
        0
370
    25
100
AcDbCircle
 10
131.0100152577674
 20
-21.61057593716952
 30
0.0
 40
1.374999999999968
  0
CIRCLE
  5
B6
330
70
100
AcDbEntity
  8
Layer 1
 62
    18
420
        0
370
    25
100
AcDbCircle
 10
322.5586390630915
 20
-82.01921506614246
 30
0.0
 40
3.000000000000105
  0
CIRCLE
  5
B7
330
70
100
AcDbEntity
  8
Layer 1
 62
    18
420
        0
370
    25
100
AcDbCircle
 10
322.5586390630915
 20
-82.01921506614246
 30
0.0
 40
1.374999999999968
  0
CIRCLE
  5
B8
330
70
100
AcDbEntity
  8
Layer 1
 62
    18
420
        0
370
    25
100
AcDbCircle
 10
121.4336679393979
 20
-31.41911676402099
 30
0.0
 40
3.000000000000105
  0
CIRCLE
  5
B9
330
70
100
AcDbEntity
  8
Layer 1
 62
    18
420
        0
370
    25
100
AcDbCircle
 10
121.4336679393979
 20
-31.41911676402099
 30
0.0
 40
1.374999999999968
  0
CIRCLE
  5
BA
330
70
100
AcDbEntity
  8
Layer 1
 62
    18
420
        0
370
    25
100
AcDbCircle
 10
139.4998470595824
 20
-10.06181555078599
 30
0.0
 40
3.000000000000105
  0
CIRCLE
  5
BB
330
70
100
AcDbEntity
  8
Layer 1
 62
    18
420
        0
370
    25
100
AcDbCircle
 10
139.4998470595824
 20
-10.06181555078599
 30
0.0
 40
1.374999999999968
  0
CIRCLE
  5
BC
330
70
100
AcDbEntity
  8
Layer 1
 62
    18
420
        0
370
    25
100
AcDbCircle
 10
114.3578132652798
 20
-38.3476102919145
 30
0.0
 40
3.000000000000105
  0
CIRCLE
  5
BD
330
70
100
AcDbEntity
  8
Layer 1
 62
    18
420
        0
370
    25
100
AcDbCircle
 10
114.3578132652798
 20
-38.3476102919145
 30
0.0
 40
1.374999999999968
  0
CIRCLE
  5
BE
330
70
100
AcDbEntity
  8
Layer 1
 62
    18
420
        0
370
    25
100
AcDbCircle
 10
120.0586679393979
 20
-20.23557593716954
 30
0.0
 40
3.000000000000105
  0
CIRCLE
  5
BF
330
70
100
AcDbEntity
  8
Layer 1
 62
    18
420
        0
370
    25
100
AcDbCircle
 10
120.0586679393979
 20
-20.23557593716954
 30
0.0
 40
1.374999999999968
  0
CIRCLE
  5
C0
330
70
100
AcDbEntity
  8
Layer 1
 62
    18
420
        0
370
    25
100
AcDbCircle
 10
98.10653852622735
 20
-23.21615092941048
 30
0.0
 40
3.000000000000105
  0
CIRCLE
  5
C1
330
70
100
AcDbEntity
  8
Layer 1
 62
    18
420
        0
370
    25
100
AcDbCircle
 10
98.10653852622735
 20
-23.21615092941048
 30
0.0
 40
1.374999999999968
  0
CIRCLE
  5
C2
330
70
100
AcDbEntity
  8
Layer 1
 62
    18
420
        0
370
    25
100
AcDbCircle
 10
88.53019120785786
 20
-33.02469175626195
 30
0.0
 40
3.000000000000266
  0
CIRCLE
  5
C3
330
70
100
AcDbEntity
  8
Layer 1
 62
    18
420
        0
370
    25
100
AcDbCircle
 10
88.53019120785818
 20
-33.02469175626195
 30
0.0
 40
1.374999999999968
  0
CIRCLE
  5
C4
330
70
100
AcDbEntity
  8
Layer 1
 62
    18
420
        0
370
    25
100
AcDbCircle
 10
87.15519120785788
 20
-21.84115092941051
 30
0.0
 40
3.000000000000266
  0
CIRCLE
  5
C5
330
70
100
AcDbEntity
  8
Layer 1
 62
    18
420
        0
370
    25
100
AcDbCircle
 10
87.1551912078582
 20
-21.84115092941051
 30
0.0
 40
1.374999999999968
  0
CIRCLE
  5
C6
330
70
100
AcDbEntity
  8
Layer 1
 62
    18
420
        0
370
    25
100
AcDbCircle
 10
88.69426026013327
 20
-45.72907430399157
 30
0.0
 40
2.999999999999987
  0
CIRCLE
  5
C7
330
70
100
AcDbEntity
  8
Layer 1
 62
    18
420
        0
370
    25
100
AcDbCircle
 10
88.69426026013327
 20
-45.72907430399165
 30
0.0
 40
1.374999999999912
  0
CIRCLE
  5
C8
330
70
100
AcDbEntity
  8
Layer 1
 62
    18
420
        0
370
    25
100
AcDbCircle
 10
96.39624227797154
 20
-34.38917244767244
 30
0.0
 40
3.000000000000242
  0
CIRCLE
  5
C9
330
70
100
AcDbEntity
  8
Layer 1
 62
    18
420
        0
370
    25
100
AcDbCircle
 10
96.39624227797121
 20
-34.38917244767252
 30
0.0
 40
1.374999999999851
  0
CIRCLE
  5
CA
330
70
100
AcDbEntity
  8
Layer 1
 62
    18
420
        0
370
    25
100
AcDbCircle
 10
99.71673080113374
 20
-45.1565568279851
 30
0.0
 40
3.000000000000205
  0
CIRCLE
  5
CB
330
70
100
AcDbEntity
  8
Layer 1
 62
    18
420
        0
370
    25
100
AcDbCircle
 10
99.71673080113358
 20
-45.1565568279851
 30
0.0
 40
1.375000000000042
  0
CIRCLE
  5
CC
330
70
100
AcDbEntity
  8
Layer 1
 62
    18
420
        0
370
    25
100
AcDbCircle
 10
116.028136024181
 20
11.66867236070888
 30
0.0
 40
3.000000000000105
  0
CIRCLE
  5
CD
330
70
100
AcDbEntity
  8
Layer 1
 62
    18
420
        0
370
    25
100
AcDbCircle
 10
116.028136024181
 20
11.66867236070888
 30
0.0
 40
1.374999999999968
  0
CIRCLE
  5
CE
330
70
100
AcDbEntity
  8
Layer 1
 62
    18
420
        0
370
    25
100
AcDbCircle
 10
106.4517887058115
 20
1.860131533857411
 30
0.0
 40
3.000000000000266
  0
CIRCLE
  5
CF
330
70
100
AcDbEntity
  8
Layer 1
 62
    18
420
        0
370
    25
100
AcDbCircle
 10
106.4517887058118
 20
1.860131533857411
 30
0.0
 40
1.374999999999968
  0
CIRCLE
  5
D0
330
70
100
AcDbEntity
  8
Layer 1
 62
    18
420
        0
370
    25
100
AcDbCircle
 10
105.0767887058115
 20
13.04367236070885
 30
0.0
 40
3.000000000000266
  0
CIRCLE
  5
D1
330
70
100
AcDbEntity
  8
Layer 1
 62
    18
420
        0
370
    25
100
AcDbCircle
 10
105.0767887058119
 20
13.04367236070885
 30
0.0
 40
1.374999999999968
  0
CIRCLE
  5
D2
330
70
100
AcDbEntity
  8
Layer 1
 62
    18
420
        0
370
    25
100
AcDbCircle
 10
106.6158577580869
 20
-10.8442510138722
 30
0.0
 40
2.999999999999987
  0
CIRCLE
  5
D3
330
70
100
AcDbEntity
  8
Layer 1
 62
    18
420
        0
370
    25
100
AcDbCircle
 10
106.6158577580869
 20
-10.84425101387228
 30
0.0
 40
1.374999999999912
  0
CIRCLE
  5
D4
330
70
100
AcDbEntity
  8
Layer 1
 62
    18
420
        0
370
    25
100
AcDbCircle
 10
114.3178397759252
 20
0.4956508424469288
 30
0.0
 40
3.000000000000242
  0
CIRCLE
  5
D5
330
70
100
AcDbEntity
  8
Layer 1
 62
    18
420
        0
370
    25
100
AcDbCircle
 10
114.3178397759249
 20
0.4956508424468486
 30
0.0
 40
1.374999999999851
  0
CIRCLE
  5
D6
330
70
100
AcDbEntity
  8
Layer 1
 62
    18
420
        0
370
    25
100
AcDbCircle
 10
117.6383282990874
 20
-10.27173353786574
 30
0.0
 40
3.000000000000205
  0
CIRCLE
  5
D7
330
70
100
AcDbEntity
  8
Layer 1
 62
    18
420
        0
370
    25
100
AcDbCircle
 10
117.6383282990872
 20
-10.27173353786574
 30
0.0
 40
1.375000000000042
  0
CIRCLE
  5
D8
330
70
100
AcDbEntity
  8
Layer 1
 62
    18
420
        0
370
    25
100
AcDbCircle
 10
138.6803380166689
 20
23.61288881082951
 30
0.0
 40
3.000000000000105
  0
CIRCLE
  5
D9
330
70
100
AcDbEntity
  8
Layer 1
 62
    18
420
        0
370
    25
100
AcDbCircle
 10
138.6803380166689
 20
23.61288881082951
 30
0.0
 40
1.374999999999968
  0
CIRCLE
  5
DA
330
70
100
AcDbEntity
  8
Layer 1
 62
    18
420
        0
370
    25
100
AcDbCircle
 10
129.1039906982994
 20
13.80434798397804
 30
0.0
 40
3.000000000000266
  0
CIRCLE
  5
DB
330
70
100
AcDbEntity
  8
Layer 1
 62
    18
420
        0
370
    25
100
AcDbCircle
 10
129.1039906982997
 20
13.80434798397804
 30
0.0
 40
1.374999999999968
  0
CIRCLE
  5
DC
330
70
100
AcDbEntity
  8
Layer 1
 62
    18
420
        0
370
    25
100
AcDbCircle
 10
127.7289906982994
 20
24.98788881082948
 30
0.0
 40
3.000000000000266
  0
CIRCLE
  5
DD
330
70
100
AcDbEntity
  8
Layer 1
 62
    18
420
        0
370
    25
100
AcDbCircle
 10
127.7289906982997
 20
24.98788881082948
 30
0.0
 40
1.374999999999968
  0
CIRCLE
  5
DE
330
70
100
AcDbEntity
  8
Layer 1
 62
    18
420
        0
370
    25
100
AcDbCircle
 10
129.2680597505748
 20
1.09996543624842
 30
0.0
 40
2.999999999999987
  0
CIRCLE
  5
DF
330
70
100
AcDbEntity
  8
Layer 1
 62
    18
420
        0
370
    25
100
AcDbCircle
 10
129.2680597505748
 20
1.099965436248339
 30
0.0
 40
1.374999999999912
  0
CIRCLE
  5
E0
330
70
100
AcDbEntity
  8
Layer 1
 62
    18
420
        0
370
    25
100
AcDbCircle
 10
136.970041768413
 20
12.43986729256755
 30
0.0
 40
3.000000000000242
  0
CIRCLE
  5
E1
330
70
100
AcDbEntity
  8
Layer 1
 62
    18
420
        0
370
    25
100
AcDbCircle
 10
136.9700417684127
 20
12.43986729256747
 30
0.0
 40
1.374999999999851
  0
CIRCLE
  5
E2
330
70
100
AcDbEntity
  8
Layer 1
 62
    18
420
        0
370
    25
100
AcDbCircle
 10
140.2905302915752
 20
1.672482912254885
 30
0.0
 40
3.000000000000205
  0
CIRCLE
  5
E3
330
70
100
AcDbEntity
  8
Layer 1
 62
    18
420
        0
370
    25
100
AcDbCircle
 10
140.2905302915751
 20
1.672482912254885
 30
0.0
 40
1.375000000000042
  0
ENDSEC
  0
SECTION
  2
OBJECTS
  0
DICTIONARY
  5
C
330
0
100
AcDbDictionary
281
     1
  3
ACAD_COLOR
350
63
  3
ACAD_DETAILVIEWSTYLE
350
6A
  3
ACAD_GROUP
350
D
  3
ACAD_LAYOUT
350
62
  3
ACAD_MATERIAL
350
10
  3
ACAD_MLEADERSTYLE
350
66
  3
ACAD_MLINESTYLE
350
5F
  3
ACAD_PLOTSETTINGS
350
61
  3
ACAD_PLOTSTYLENAME
350
E
  3
ACAD_SCALELIST
350
42
  3
ACAD_SECTIONVIEWSTYLE
350
68
  3
ACAD_TABLESTYLE
350
64
  3
ACAD_VISUALSTYLE
350
29
  3
ACDB_RECOMPOSE_DATA
350
EC
  3
AcDbVariableDictionary
350
E4
  0
DICTIONARY
  5
63
102
{ACAD_REACTORS
330
C
102
}
330
C
100
AcDbDictionary
281
     1
  0
DICTIONARY
  5
6A
102
{ACAD_REACTORS
330
C
102
}
330
C
100
AcDbDictionary
281
     1
  3
Imperial24
350
6B
  0
DICTIONARY
  5
D
102
{ACAD_REACTORS
330
C
102
}
330
C
100
AcDbDictionary
281
     1
  0
DICTIONARY
  5
62
102
{ACAD_REACTORS
330
C
102
}
330
C
100
AcDbDictionary
281
     1
  3
Layout1
350
6F
  3
Layout2
350
77
  3
Model
350
73
  0
DICTIONARY
  5
10
102
{ACAD_REACTORS
330
C
102
}
330
C
100
AcDbDictionary
281
     1
  3
ByBlock
350
19
  3
ByLayer
350
11
  3
Global
350
21
  0
DICTIONARY
  5
66
102
{ACAD_REACTORS
330
C
102
}
330
C
100
AcDbDictionary
281
     1
  3
Standard
350
67
  0
DICTIONARY
  5
5F
102
{ACAD_REACTORS
330
C
102
}
330
C
100
AcDbDictionary
281
     1
  3
Standard
350
60
  0
DICTIONARY
  5
61
102
{ACAD_REACTORS
330
C
102
}
330
C
100
AcDbDictionary
281
     1
  0
ACDBDICTIONARYWDFLT
  5
E
102
{ACAD_REACTORS
330
C
102
}
330
C
100
AcDbDictionary
281
     1
  3
Normal
350
F
100
AcDbDictionaryWithDefault
340
F
  0
DICTIONARY
  5
42
102
{ACAD_REACTORS
330
C
102
}
330
C
100
AcDbDictionary
281
     1
  3
A0
350
43
  3
A1
350
44
  3
A2
350
45
  3
A3
350
46
  3
A4
350
47
  3
A5
350
48
  3
A6
350
49
  3
A7
350
4A
  3
A8
350
4B
  3
A9
350
4C
  3
B0
350
4D
  3
B1
350
4E
  3
B2
350
4F
  3
B3
350
50
  3
B4
350
51
  3
B5
350
52
  3
B6
350
53
  0
DICTIONARY
  5
68
102
{ACAD_REACTORS
330
C
102
}
330
C
100
AcDbDictionary
281
     1
  3
Imperial24
350
69
  0
DICTIONARY
  5
64
102
{ACAD_REACTORS
330
C
102
}
330
C
100
AcDbDictionary
281
     1
  3
Standard
350
65
  0
DICTIONARY
  5
29
102
{ACAD_REACTORS
330
C
102
}
330
C
100
AcDbDictionary
281
     1
  3
2dWireframe
350
2F
  3
Basic
350
2E
  3
Brighten
350
35
  3
ColorChange
350
39
  3
Conceptual
350
32
  3
Dim
350
34
  3
EdgeColorOff
350
41
  3
Facepattern
350
38
  3
Flat
350
2A
  3
FlatWithEdges
350
2B
  3
Gouraud
350
2C
  3
GouraudWithEdges
350
2D
  3
Hidden
350
31
  3
JitterOff
350
3F
  3
Linepattern
350
37
  3
OverhangOff
350
40
  3
Realistic
350
33
  3
Shaded
350
3E
  3
Shaded with edges
350
3D
  3
Shades of Gray
350
3A
  3
Sketchy
350
3B
  3
Thicken
350
36
  3
Wireframe
350
30
  3
X-Ray
350
3C
  0
XRECORD
  5
EC
102
{ACAD_REACTORS
330
C
102
}
330
C
100
AcDbXrecord
280
     1
 90
        1
330
65
  0
DICTIONARY
  5
E4
102
{ACAD_REACTORS
330
C
102
}
330
C
100
AcDbDictionary
281
     1
  3
CANNOSCALE
350
E9
  3
CMLEADERSTYLE
350
E6
  3
CTABLESTYLE
350
E5
  3
CVIEWDETAILSTYLE
350
E7
  3
CVIEWSECTIONSTYLE
350
E8
  0
ACDBDETAILVIEWSTYLE
  5
6B
102
{ACAD_XDICTIONARY
360
121
102
}
102
{ACAD_REACTORS
330
6A
102
}
330
6A
100
AcDbModelDocViewStyle
 70
     0
  3
Imperial24
290
     0
100
AcDbDetailViewStyle
 70
     0
 71
     0
 90
        3
 71
     1
340
55
 62
   256
 40
0.24
340
0
 62
   256
 40
0.24
300

 40
0.36
280
     3
 71
     2
340
5D
 90
       25
 62
   256
 71
     3
340
55
 62
   256
 40
0.24
 90
        1
 40
0.75
 90
        1
300
%<\AcVar ViewType \f "%tc1">% %<\AcVar ViewDetailId>%\PSCALE %<\AcVar ViewScale \f "%sn">%
 71
     4
340
5D
 90
       25
 62
   256
340
5D
 90
       25
 62
   256
280
     0
  0
LAYOUT
  5
6F
102
{ACAD_REACTORS
330
62
102
}
330
62
100
AcDbPlotSettings
  1

  2

  4

  6

 40
0.0
 41
0.0
 42
0.0
 43
0.0
 44
0.0
 45
0.0
 46
0.0
 47
0.0
 48
0.0
 49
0.0
140
0.0
141
0.0
142
1.0
143
1.0
 70
   688
 72
     0
 73
     0
 74
     5
  7

 75
    16
147
1.0
 76
     0
 77
     2
 78
   300
148
0.0
149
0.0
100
AcDbLayout
  1
Layout1
 70
     1
 71
     1
 10
0.0
 20
0.0
 11
12.0
 21
9.0
 12
0.0
 22
0.0
 32
0.0
 14
0.0
 24
0.0
 34
0.0
 15
0.0
 25
0.0
 35
0.0
146
0.0
 13
0.0
 23
0.0
 33
0.0
 16
1.0
 26
0.0
 36
0.0
 17
0.0
 27
1.0
 37
0.0
 76
     0
330
6C
  0
LAYOUT
  5
77
102
{ACAD_REACTORS
330
62
102
}
330
62
100
AcDbPlotSettings
  1

  2

  4

  6

 40
0.0
 41
0.0
 42
0.0
 43
0.0
 44
0.0
 45
0.0
 46
0.0
 47
0.0
 48
0.0
 49
0.0
140
0.0
141
0.0
142
1.0
143
1.0
 70
   688
 72
     0
 73
     0
 74
     5
  7

 75
    16
147
1.0
 76
     0
 77
     2
 78
   300
148
0.0
149
0.0
100
AcDbLayout
  1
Layout2
 70
     1
 71
     2
 10
0.0
 20
0.0
 11
12.0
 21
9.0
 12
0.0
 22
0.0
 32
0.0
 14
0.0
 24
0.0
 34
0.0
 15
0.0
 25
0.0
 35
0.0
146
0.0
 13
0.0
 23
0.0
 33
0.0
 16
1.0
 26
0.0
 36
0.0
 17
0.0
 27
1.0
 37
0.0
 76
     0
330
74
  0
LAYOUT
  5
73
102
{ACAD_REACTORS
330
62
102
}
330
62
100
AcDbPlotSettings
  1

  2

  4

  6

 40
0.0
 41
0.0
 42
0.0
 43
0.0
 44
0.0
 45
0.0
 46
0.0
 47
0.0
 48
0.0
 49
0.0
140
0.0
141
0.0
142
1.0
143
1.0
 70
  1712
 72
     0
 73
     0
 74
     0
  7

 75
     0
147
1.0
 76
     0
 77
     2
 78
   300
148
0.0
149
0.0
100
AcDbLayout
  1
Model
 70
     1
 71
     0
 10
0.0
 20
0.0
 11
12.0
 21
9.0
 12
0.0
 22
0.0
 32
0.0
 14
0.0
 24
0.0
 34
0.0
 15
0.0
 25
0.0
 35
0.0
146
0.0
 13
0.0
 23
0.0
 33
0.0
 16
1.0
 26
0.0
 36
0.0
 17
0.0
 27
1.0
 37
0.0
 76
     0
330
70
  0
MATERIAL
  5
19
102
{ACAD_XDICTIONARY
360
1A
102
}
102
{ACAD_REACTORS
330
10
102
}
330
10
100
AcDbMaterial
  1
ByBlock
 72
     0
 43
0.0208333333333333
 43
0.0
 43
0.0
 43
0.0
 43
0.0
 43
0.0208333333333333
 43
0.0
 43
0.0
 43
0.0
 43
0.0
 43
1.0
 43
0.0
 43
0.0
 43
0.0
 43
0.0
 43
1.0
 77
     0
 47
0.0208333333333333
 47
0.0
 47
0.0
 47
0.0
 47
0.0
 47
0.0208333333333333
 47
0.0
 47
0.0
 47
0.0
 47
0.0
 47
1.0
 47
0.0
 47
0.0
 47
0.0
 47
0.0
 47
1.0
171
     0
 49
0.0208333333333333
 49
0.0
 49
0.0
 49
0.0
 49
0.0
 49
0.0208333333333333
 49
0.0
 49
0.0
 49
0.0
 49
0.0
 49
1.0
 49
0.0
 49
0.0
 49
0.0
 49
0.0
 49
1.0
175
     0
142
0.0208333333333333
142
0.0
142
0.0
142
0.0
142
0.0
142
0.0208333333333333
142
0.0
142
0.0
142
0.0
142
0.0
142
1.0
142
0.0
142
0.0
142
0.0
142
0.0
142
1.0
179
     0
144
0.0208333333333333
144
0.0
144
0.0
144
0.0
144
0.0
144
0.0208333333333333
144
0.0
144
0.0
144
0.0
144
0.0
144
1.0
144
0.0
144
0.0
144
0.0
144
0.0
144
1.0
147
0.0208333333333333
147
0.0
147
0.0
147
0.0
147
0.0
147
0.0208333333333333
147
0.0
147
0.0
147
0.0
147
0.0
147
1.0
147
0.0
147
0.0
147
0.0
147
0.0
147
1.0
  0
MATERIAL
  5
11
102
{ACAD_XDICTIONARY
360
12
102
}
102
{ACAD_REACTORS
330
10
102
}
330
10
100
AcDbMaterial
  1
ByLayer
 72
     0
 43
0.0208333333333333
 43
0.0
 43
0.0
 43
0.0
 43
0.0
 43
0.0208333333333333
 43
0.0
 43
0.0
 43
0.0
 43
0.0
 43
1.0
 43
0.0
 43
0.0
 43
0.0
 43
0.0
 43
1.0
 77
     0
 47
0.0208333333333333
 47
0.0
 47
0.0
 47
0.0
 47
0.0
 47
0.0208333333333333
 47
0.0
 47
0.0
 47
0.0
 47
0.0
 47
1.0
 47
0.0
 47
0.0
 47
0.0
 47
0.0
 47
1.0
171
     0
 49
0.0208333333333333
 49
0.0
 49
0.0
 49
0.0
 49
0.0
 49
0.0208333333333333
 49
0.0
 49
0.0
 49
0.0
 49
0.0
 49
1.0
 49
0.0
 49
0.0
 49
0.0
 49
0.0
 49
1.0
175
     0
142
0.0208333333333333
142
0.0
142
0.0
142
0.0
142
0.0
142
0.0208333333333333
142
0.0
142
0.0
142
0.0
142
0.0
142
1.0
142
0.0
142
0.0
142
0.0
142
0.0
142
1.0
179
     0
144
0.0208333333333333
144
0.0
144
0.0
144
0.0
144
0.0
144
0.0208333333333333
144
0.0
144
0.0
144
0.0
144
0.0
144
1.0
144
0.0
144
0.0
144
0.0
144
0.0
144
1.0
147
0.0208333333333333
147
0.0
147
0.0
147
0.0
147
0.0
147
0.0208333333333333
147
0.0
147
0.0
147
0.0
147
0.0
147
1.0
147
0.0
147
0.0
147
0.0
147
0.0
147
1.0
  0
MATERIAL
  5
21
102
{ACAD_XDICTIONARY
360
22
102
}
102
{ACAD_REACTORS
330
10
102
}
330
10
100
AcDbMaterial
  1
Global
 72
     0
 43
0.0208333333333333
 43
0.0
 43
0.0
 43
0.0
 43
0.0
 43
0.0208333333333333
 43
0.0
 43
0.0
 43
0.0
 43
0.0
 43
1.0
 43
0.0
 43
0.0
 43
0.0
 43
0.0
 43
1.0
 77
     0
 47
0.0208333333333333
 47
0.0
 47
0.0
 47
0.0
 47
0.0
 47
0.0208333333333333
 47
0.0
 47
0.0
 47
0.0
 47
0.0
 47
1.0
 47
0.0
 47
0.0
 47
0.0
 47
0.0
 47
1.0
171
     0
 49
0.0208333333333333
 49
0.0
 49
0.0
 49
0.0
 49
0.0
 49
0.0208333333333333
 49
0.0
 49
0.0
 49
0.0
 49
0.0
 49
1.0
 49
0.0
 49
0.0
 49
0.0
 49
0.0
 49
1.0
175
     0
142
0.0208333333333333
142
0.0
142
0.0
142
0.0
142
0.0
142
0.0208333333333333
142
0.0
142
0.0
142
0.0
142
0.0
142
1.0
142
0.0
142
0.0
142
0.0
142
0.0
142
1.0
179
     0
144
0.0208333333333333
144
0.0
144
0.0
144
0.0
144
0.0
144
0.0208333333333333
144
0.0
144
0.0
144
0.0
144
0.0
144
1.0
144
0.0
144
0.0
144
0.0
144
0.0
144
1.0
147
0.0208333333333333
147
0.0
147
0.0
147
0.0
147
0.0
147
0.0208333333333333
147
0.0
147
0.0
147
0.0
147
0.0
147
1.0
147
0.0
147
0.0
147
0.0
147
0.0
147
1.0
  0
MLEADERSTYLE
  5
67
102
{ACAD_XDICTIONARY
360
11D
102
}
102
{ACAD_REACTORS
330
66
102
}
330
66
100
AcDbMLeaderStyle
179
     2
170
     2
171
     1
172
     0
 90
        2
 40
0.0
 41
0.0
173
     1
 91
-1056964608
340
5B
 92
       -2
290
     1
 42
0.09
291
     1
 43
0.36
  3
Standard
 44
0.18
300

342
55
174
     1
178
     6
175
     1
176
     0
 93
-1056964608
 45
0.18
292
     0
297
     0
 46
0.18
 94
-1056964608
 47
1.0
 49
1.0
140
1.0
293
     1
141
0.0
294
     1
177
     0
142
1.0
295
     0
296
     0
143
0.125
271
     0
272
     9
273
     9
  0
MLINESTYLE
  5
60
102
{ACAD_REACTORS
330
5F
102
}
330
5F
100
AcDbMlineStyle
  2
STANDARD
 70
     0
  3

 62
   256
 51
90.0
 52
90.0
 71
     2
 49
0.5
 62
   256
  6
BYLAYER
 49
-0.5
 62
   256
  6
BYLAYER
  0
ACDBPLACEHOLDER
  5
F
102
{ACAD_REACTORS
330
E
102
}
330
E
  0
SCALE
  5
43
102
{ACAD_REACTORS
330
42
102
}
330
42
100
AcDbScale
 70
     0
300
1:1
140
1.0
141
1.0
290
     1
  0
SCALE
  5
44
102
{ACAD_REACTORS
330
42
102
}
330
42
100
AcDbScale
 70
     0
300
1/128" = 1'-0"
140
0.0078125
141
12.0
290
     0
  0
SCALE
  5
45
102
{ACAD_REACTORS
330
42
102
}
330
42
100
AcDbScale
 70
     0
300
1/64" = 1'-0"
140
0.015625
141
12.0
290
     0
  0
SCALE
  5
46
102
{ACAD_REACTORS
330
42
102
}
330
42
100
AcDbScale
 70
     0
300
1/32" = 1'-0"
140
0.03125
141
12.0
290
     0
  0
SCALE
  5
47
102
{ACAD_REACTORS
330
42
102
}
330
42
100
AcDbScale
 70
     0
300
1/16" = 1'-0"
140
0.0625
141
12.0
290
     0
  0
SCALE
  5
48
102
{ACAD_REACTORS
330
42
102
}
330
42
100
AcDbScale
 70
     0
300
3/32" = 1'-0"
140
0.09375
141
12.0
290
     0
  0
SCALE
  5
49
102
{ACAD_REACTORS
330
42
102
}
330
42
100
AcDbScale
 70
     0
300
1/8" = 1'-0"
140
0.125
141
12.0
290
     0
  0
SCALE
  5
4A
102
{ACAD_REACTORS
330
42
102
}
330
42
100
AcDbScale
 70
     0
300
3/16" = 1'-0"
140
0.1875
141
12.0
290
     0
  0
SCALE
  5
4B
102
{ACAD_REACTORS
330
42
102
}
330
42
100
AcDbScale
 70
     0
300
1/4" = 1'-0"
140
0.25
141
12.0
290
     0
  0
SCALE
  5
4C
102
{ACAD_REACTORS
330
42
102
}
330
42
100
AcDbScale
 70
     0
300
3/8" = 1'-0"
140
0.375
141
12.0
290
     0
  0
SCALE
  5
4D
102
{ACAD_REACTORS
330
42
102
}
330
42
100
AcDbScale
 70
     0
300
1/2" = 1'-0"
140
0.5
141
12.0
290
     0
  0
SCALE
  5
4E
102
{ACAD_REACTORS
330
42
102
}
330
42
100
AcDbScale
 70
     0
300
3/4" = 1'-0"
140
0.75
141
12.0
290
     0
  0
SCALE
  5
4F
102
{ACAD_REACTORS
330
42
102
}
330
42
100
AcDbScale
 70
     0
300
1" = 1'-0"
140
1.0
141
12.0
290
     0
  0
SCALE
  5
50
102
{ACAD_REACTORS
330
42
102
}
330
42
100
AcDbScale
 70
     0
300
1-1/2" = 1'-0"
140
1.5
141
12.0
290
     0
  0
SCALE
  5
51
102
{ACAD_REACTORS
330
42
102
}
330
42
100
AcDbScale
 70
     0
300
3" = 1'-0"
140
3.0
141
12.0
290
     0
  0
SCALE
  5
52
102
{ACAD_REACTORS
330
42
102
}
330
42
100
AcDbScale
 70
     0
300
6" = 1'-0"
140
6.0
141
12.0
290
     0
  0
SCALE
  5
53
102
{ACAD_REACTORS
330
42
102
}
330
42
100
AcDbScale
 70
     0
300
1'-0" = 1'-0"
140
12.0
141
12.0
290
     0
  0
ACDBSECTIONVIEWSTYLE
  5
69
102
{ACAD_XDICTIONARY
360
11F
102
}
102
{ACAD_REACTORS
330
68
102
}
330
68
100
AcDbModelDocViewStyle
 70
     0
  3
Imperial24
290
     0
100
AcDbSectionViewStyle
 70
     0
 71
     0
 90
       78
 71
     1
340
55
 62
   256
 40
0.24
340
0
340
0
 62
   256
 40
0.24
300
I, O, Q, S, X, Z
 40
0.48
 90
        3
 40
0.18
 90
        1
 71
     2
340
5D
 90
       25
 62
   256
340
5D
 90
       50
 62
   256
 40
0.24
 40
0.0
 40
0.24
 71
     3
340
55
 62
   256
 40
0.24
 90
        1
 40
0.75
 90
        1
300
%<\AcVar ViewType \f "%tc1">% %<\AcVar ViewSectionStartId>%-%<\AcVar ViewSectionEndId>%\PSCALE %<\AcVar ViewScale \f "%sn">%
 71
     4
 62
   256
 62
   257
300
ANSI31
 40
1.0
 90
        0
290
     0
290
     0
 90
        6
 40
0.0
 40
1.570796326794896
 40
0.2617993877991494
 40
1.308996938995747
 40
-0.2617993877991494
 40
1.832595714594046
  0
TABLESTYLE
  5
65
102
{ACAD_XDICTIONARY
360
EA
102
}
102
{ACAD_REACTORS
330
64
102
}
330
64
100
AcDbTableStyle
280
     0
  3
Standard
 70
     0
 71
     0
 40
0.06
 41
0.06
280
     0
281
     0
  7
Standard
140
0.18
170
     2
 62
     0
 63
     7
283
     0
 90
      512
 91
        0
  1

274
    -2
284
     1
 64
     0
275
    -2
285
     1
 65
     0
276
    -2
286
     1
 66
     0
277
    -2
287
     1
 67
     0
278
    -2
288
     1
 68
     0
279
    -2
289
     1
 69
     0
  7
Standard
140
0.25
170
     5
 62
     0
 63
     7
283
     0
 90
      512
 91
        0
  1

274
    -2
284
     1
 64
     0
275
    -2
285
     1
 65
     0
276
    -2
286
     1
 66
     0
277
    -2
287
     1
 67
     0
278
    -2
288
     1
 68
     0
279
    -2
289
     1
 69
     0
  7
Standard
140
0.18
170
     5
 62
     0
 63
     7
283
     0
 90
      512
 91
        0
  1

274
    -2
284
     1
 64
     0
275
    -2
285
     1
 65
     0
276
    -2
286
     1
 66
     0
277
    -2
287
     1
 67
     0
278
    -2
288
     1
 68
     0
279
    -2
289
     1
 69
     0
  0
VISUALSTYLE
  5
2F
102
{ACAD_XDICTIONARY
360
F7
102
}
102
{ACAD_REACTORS
330
29
102
}
330
29
100
AcDbVisualStyle
  2
2dWireframe
 70
     4
177
     2
291
     0
 71
     0
176
     1
 72
     2
176
     1
 73
     0
176
     1
 90
        0
176
     1
 40
0.6
176
     1
 41
30.0
176
     1
 63
     7
421
 16777215
176
     1
 74
     1
176
     1
 91
        4
176
     1
 64
     7
176
     1
 65
   257
176
     1
 75
     1
176
     1
175
     1
176
     1
 42
1.0
176
     1
 92
        0
176
     1
 66
   257
176
     1
 43
1.0
176
     1
 76
     1
176
     1
 77
     6
176
     1
 78
     2
176
     1
 67
     7
176
     1
 79
     5
176
     1
170
     0
176
     1
171
     0
176
     1
290
     0
176
     1
 93
        1
176
     1
 44
0.0
176
     1
173
     0
176
     1
1001
ACAD
1000
AcDbSavedByObjectVersion
1070
     0
  0
VISUALSTYLE
  5
2E
102
{ACAD_XDICTIONARY
360
F5
102
}
102
{ACAD_REACTORS
330
29
102
}
330
29
100
AcDbVisualStyle
  2
Basic
 70
     7
177
     2
291
     1
 71
     1
176
     1
 72
     0
176
     1
 73
     1
176
     1
 90
        0
176
     1
 40
0.6
176
     1
 41
30.0
176
     1
 63
     7
421
 16777215
176
     1
 74
     0
176
     1
 91
        4
176
     1
 64
     7
176
     1
 65
   257
176
     1
 75
     1
176
     1
175
     1
176
     1
 42
1.0
176
     1
 92
        8
176
     1
 66
     7
176
     1
 43
1.0
176
     1
 76
     1
176
     1
 77
     6
176
     1
 78
     2
176
     1
 67
     7
176
     1
 79
     5
176
     1
170
     0
176
     1
171
     0
176
     1
290
     0
176
     1
 93
        1
176
     1
 44
0.0
176
     1
173
     0
176
     1
1001
ACAD
1000
AcDbSavedByObjectVersion
1070
     0
  0
VISUALSTYLE
  5
35
102
{ACAD_XDICTIONARY
360
103
102
}
102
{ACAD_REACTORS
330
29
102
}
330
29
100
AcDbVisualStyle
  2
Brighten
 70
    12
177
     2
291
     1
 71
     2
176
     1
 72
     2
176
     1
 73
     0
176
     1
 90
        0
176
     1
 40
0.6
176
     1
 41
30.0
176
     1
 63
     7
421
 16777215
176
     1
 74
     1
176
     1
 91
        4
176
     1
 64
     7
176
     1
 65
   257
176
     1
 75
     1
176
     1
175
     1
176
     1
 42
1.0
176
     1
 92
        8
176
     1
 66
     7
176
     1
 43
1.0
176
     1
 76
     1
176
     1
 77
     6
176
     1
 78
     2
176
     1
 67
     7
176
     1
 79
     5
176
     1
170
     0
176
     1
171
     0
176
     1
290
     0
176
     1
 93
        1
176
     1
 44
50.0
176
     1
173
     0
176
     1
1001
ACAD
1000
AcDbSavedByObjectVersion
1070
     0
  0
VISUALSTYLE
  5
39
102
{ACAD_XDICTIONARY
360
10B
102
}
102
{ACAD_REACTORS
330
29
102
}
330
29
100
AcDbVisualStyle
  2
ColorChange
 70
    16
177
     2
291
     1
 71
     2
176
     1
 72
     2
176
     1
 73
     3
176
     1
 90
        0
176
     1
 40
0.6
176
     1
 41
30.0
176
     1
 63
     8
421
  8421504
176
     1
 74
     1
176
     1
 91
        4
176
     1
 64
     7
176
     1
 65
   257
176
     1
 75
     1
176
     1
175
     1
176
     1
 42
1.0
176
     1
 92
        8
176
     1
 66
     8
424
  8421504
176
     1
 43
1.0
176
     1
 76
     1
176
     1
 77
     6
176
     1
 78
     2
176
     1
 67
     7
176
     1
 79
     5
176
     1
170
     0
176
     1
171
     0
176
     1
290
     0
176
     1
 93
        1
176
     1
 44
0.0
176
     1
173
     0
176
     1
1001
ACAD
1000
AcDbSavedByObjectVersion
1070
     0
  0
VISUALSTYLE
  5
32
102
{ACAD_XDICTIONARY
360
FD
102
}
102
{ACAD_REACTORS
330
29
102
}
330
29
100
AcDbVisualStyle
  2
Conceptual
 70
     9
177
     2
291
     0
 71
     3
176
     1
 72
     2
176
     1
 73
     0
176
     1
 90
        0
176
     1
 40
0.6
176
     1
 41
30.0
176
     1
 63
     7
421
 16777215
176
     1
 74
     2
176
     1
 91
        2
176
     1
 64
     7
176
     1
 65
   257
176
     1
 75
     1
176
     1
175
     1
176
     1
 42
179.0
176
     1
 92
        8
176
     1
 66
     7
176
     1
 43
1.0
176
     1
 76
     1
176
     1
 77
     6
176
     1
 78
     2
176
     1
 67
     7
176
     1
 79
     3
176
     1
170
     0
176
     1
171
     0
176
     1
290
     0
176
     1
 93
        1
176
     1
 44
0.0
176
     1
173
     0
176
     1
1001
ACAD
1000
AcDbSavedByObjectVersion
1070
     0
  0
VISUALSTYLE
  5
34
102
{ACAD_XDICTIONARY
360
101
102
}
102
{ACAD_REACTORS
330
29
102
}
330
29
100
AcDbVisualStyle
  2
Dim
 70
    11
177
     2
291
     1
 71
     2
176
     1
 72
     2
176
     1
 73
     0
176
     1
 90
        0
176
     1
 40
0.6
176
     1
 41
30.0
176
     1
 63
     7
421
 16777215
176
     1
 74
     1
176
     1
 91
        4
176
     1
 64
     7
176
     1
 65
   257
176
     1
 75
     1
176
     1
175
     1
176
     1
 42
1.0
176
     1
 92
        8
176
     1
 66
     7
176
     1
 43
1.0
176
     1
 76
     1
176
     1
 77
     6
176
     1
 78
     2
176
     1
 67
     7
176
     1
 79
     5
176
     1
170
     0
176
     1
171
     0
176
     1
290
     0
176
     1
 93
        1
176
     1
 44
-50.0
176
     1
173
     0
176
     1
1001
ACAD
1000
AcDbSavedByObjectVersion
1070
     0
  0
VISUALSTYLE
  5
41
102
{ACAD_XDICTIONARY
360
11B
102
}
102
{ACAD_REACTORS
330
29
102
}
330
29
100
AcDbVisualStyle
  2
EdgeColorOff
 70
    22
177
     2
291
     1
 71
     2
176
     0
 72
     2
176
     0
 73
     0
176
     0
 90
        0
176
     0
 40
0.6
176
     0
 41
30.0
176
     0
 63
     7
421
 16777215
176
     0
 74
     1
176
     0
 91
        4
176
     0
 64
     7
176
     0
 65
   257
176
     0
 75
     1
176
     0
175
     1
176
     0
 42
1.0
176
     0
 92
        8
176
     2
 66
     7
176
     0
 43
1.0
176
     0
 76
     1
176
     0
 77
     6
176
     0
 78
     2
176
     0
 67
     7
176
     0
 79
     5
176
     0
170
     0
176
     0
171
     0
176
     0
290
     0
176
     0
 93
        1
176
     0
 44
0.0
176
     0
173
     0
176
     0
1001
ACAD
1000
AcDbSavedByObjectVersion
1070
     0
  0
VISUALSTYLE
  5
38
102
{ACAD_XDICTIONARY
360
109
102
}
102
{ACAD_REACTORS
330
29
102
}
330
29
100
AcDbVisualStyle
  2
Facepattern
 70
    15
177
     2
291
     1
 71
     2
176
     1
 72
     2
176
     1
 73
     0
176
     1
 90
        0
176
     1
 40
0.6
176
     1
 41
30.0
176
     1
 63
     7
421
 16777215
176
     1
 74
     1
176
     1
 91
        4
176
     1
 64
     7
176
     1
 65
   257
176
     1
 75
     1
176
     1
175
     1
176
     1
 42
1.0
176
     1
 92
        8
176
     1
 66
     7
176
     1
 43
1.0
176
     1
 76
     1
176
     1
 77
     6
176
     1
 78
     2
176
     1
 67
     7
176
     1
 79
     5
176
     1
170
     0
176
     1
171
     0
176
     1
290
     0
176
     1
 93
        1
176
     1
 44
0.0
176
     1
173
     0
176
     1
1001
ACAD
1000
AcDbSavedByObjectVersion
1070
     0
  0
VISUALSTYLE
  5
2A
102
{ACAD_XDICTIONARY
360
ED
102
}
102
{ACAD_REACTORS
330
29
102
}
330
29
100
AcDbVisualStyle
  2
Flat
 70
     0
177
     2
291
     1
 71
     2
176
     1
 72
     1
176
     1
 73
     1
176
     1
 90
        2
176
     1
 40
0.6
176
     1
 41
30.0
176
     1
 63
     7
421
 16777215
176
     1
 74
     0
176
     1
 91
        0
176
     1
 64
     7
176
     1
 65
   257
176
     1
 75
     1
176
     1
175
     1
176
     1
 42
1.0
176
     1
 92
        8
176
     1
 66
     7
176
     1
 43
1.0
176
     1
 76
     1
176
     1
 77
     6
176
     1
 78
     2
176
     1
 67
     7
176
     1
 79
     5
176
     1
170
     0
176
     1
171
     0
176
     1
290
     0
176
     1
 93
       13
176
     1
 44
0.0
176
     1
173
     0
176
     1
1001
ACAD
1000
AcDbSavedByObjectVersion
1070
     0
  0
VISUALSTYLE
  5
2B
102
{ACAD_XDICTIONARY
360
EF
102
}
102
{ACAD_REACTORS
330
29
102
}
330
29
100
AcDbVisualStyle
  2
FlatWithEdges
 70
     1
177
     2
291
     1
 71
     2
176
     1
 72
     1
176
     1
 73
     1
176
     1
 90
        2
176
     1
 40
0.6
176
     1
 41
30.0
176
     1
 63
     7
421
 16777215
176
     1
 74
     1
176
     1
 91
        0
176
     1
 64
     7
176
     1
 65
   257
176
     1
 75
     1
176
     1
175
     1
176
     1
 42
1.0
176
     1
 92
        0
176
     1
 66
   257
176
     1
 43
1.0
176
     1
 76
     1
176
     1
 77
     6
176
     1
 78
     2
176
     1
 67
     7
176
     1
 79
     5
176
     1
170
     0
176
     1
171
     0
176
     1
290
     0
176
     1
 93
       13
176
     1
 44
0.0
176
     1
173
     0
176
     1
1001
ACAD
1000
AcDbSavedByObjectVersion
1070
     0
  0
VISUALSTYLE
  5
2C
102
{ACAD_XDICTIONARY
360
F1
102
}
102
{ACAD_REACTORS
330
29
102
}
330
29
100
AcDbVisualStyle
  2
Gouraud
 70
     2
177
     2
291
     1
 71
     2
176
     1
 72
     2
176
     1
 73
     1
176
     1
 90
        2
176
     1
 40
0.6
176
     1
 41
30.0
176
     1
 63
     7
421
 16777215
176
     1
 74
     0
176
     1
 91
        0
176
     1
 64
     7
176
     1
 65
   257
176
     1
 75
     1
176
     1
175
     1
176
     1
 42
1.0
176
     1
 92
        0
176
     1
 66
     7
176
     1
 43
1.0
176
     1
 76
     1
176
     1
 77
     6
176
     1
 78
     2
176
     1
 67
     7
176
     1
 79
     5
176
     1
170
     0
176
     1
171
     0
176
     1
290
     0
176
     1
 93
       13
176
     1
 44
0.0
176
     1
173
     0
176
     1
1001
ACAD
1000
AcDbSavedByObjectVersion
1070
     0
  0
VISUALSTYLE
  5
2D
102
{ACAD_XDICTIONARY
360
F3
102
}
102
{ACAD_REACTORS
330
29
102
}
330
29
100
AcDbVisualStyle
  2
GouraudWithEdges
 70
     3
177
     2
291
     1
 71
     2
176
     1
 72
     2
176
     1
 73
     1
176
     1
 90
        2
176
     1
 40
0.6
176
     1
 41
30.0
176
     1
 63
     7
421
 16777215
176
     1
 74
     1
176
     1
 91
        0
176
     1
 64
     7
176
     1
 65
   257
176
     1
 75
     1
176
     1
175
     1
176
     1
 42
1.0
176
     1
 92
        0
176
     1
 66
   257
176
     1
 43
1.0
176
     1
 76
     1
176
     1
 77
     6
176
     1
 78
     2
176
     1
 67
     7
176
     1
 79
     5
176
     1
170
     0
176
     1
171
     0
176
     1
290
     0
176
     1
 93
       13
176
     1
 44
0.0
176
     1
173
     0
176
     1
1001
ACAD
1000
AcDbSavedByObjectVersion
1070
     0
  0
VISUALSTYLE
  5
31
102
{ACAD_XDICTIONARY
360
FB
102
}
102
{ACAD_REACTORS
330
29
102
}
330
29
100
AcDbVisualStyle
  2
Hidden
 70
     6
177
     2
291
     0
 71
     1
176
     1
 72
     2
176
     1
 73
     2
176
     1
 90
        0
176
     1
 40
0.6
176
     1
 41
30.0
176
     1
 63
     7
421
 16777215
176
     1
 74
     2
176
     1
 91
        2
176
     1
 64
     7
176
     1
 65
   257
176
     1
 75
     2
176
     1
175
     1
176
     1
 42
40.0
176
     1
 92
        0
176
     1
 66
   257
176
     1
 43
1.0
176
     1
 76
     1
176
     1
 77
     6
176
     1
 78
     2
176
     1
 67
     7
176
     1
 79
     3
176
     1
170
     0
176
     1
171
     0
176
     1
290
     0
176
     1
 93
        1
176
     1
 44
0.0
176
     1
173
     0
176
     1
1001
ACAD
1000
AcDbSavedByObjectVersion
1070
     0
  0
VISUALSTYLE
  5
3F
102
{ACAD_XDICTIONARY
360
117
102
}
102
{ACAD_REACTORS
330
29
102
}
330
29
100
AcDbVisualStyle
  2
JitterOff
 70
    20
177
     2
291
     1
 71
     2
176
     0
 72
     2
176
     0
 73
     0
176
     0
 90
        0
176
     0
 40
0.6
176
     0
 41
30.0
176
     0
 63
     7
421
 16777215
176
     0
 74
     1
176
     0
 91
        4
176
     0
 64
     7
176
     0
 65
   257
176
     0
 75
     1
176
     0
175
     1
176
     0
 42
1.0
176
     0
 92
       10
176
     2
 66
     7
176
     0
 43
1.0
176
     0
 76
     1
176
     0
 77
     6
176
     0
 78
     2
176
     0
 67
     7
176
     0
 79
     5
176
     0
170
     0
176
     0
171
     0
176
     0
290
     0
176
     0
 93
        1
176
     0
 44
0.0
176
     0
173
     0
176
     0
1001
ACAD
1000
AcDbSavedByObjectVersion
1070
     0
  0
VISUALSTYLE
  5
37
102
{ACAD_XDICTIONARY
360
107
102
}
102
{ACAD_REACTORS
330
29
102
}
330
29
100
AcDbVisualStyle
  2
Linepattern
 70
    14
177
     2
291
     1
 71
     2
176
     1
 72
     2
176
     1
 73
     0
176
     1
 90
        0
176
     1
 40
0.6
176
     1
 41
30.0
176
     1
 63
     7
421
 16777215
176
     1
 74
     1
176
     1
 91
        4
176
     1
 64
     7
176
     1
 65
   257
176
     1
 75
     7
176
     1
175
     7
176
     1
 42
1.0
176
     1
 92
        8
176
     1
 66
     7
176
     1
 43
1.0
176
     1
 76
     1
176
     1
 77
     6
176
     1
 78
     2
176
     1
 67
     7
176
     1
 79
     5
176
     1
170
     0
176
     1
171
     0
176
     1
290
     0
176
     1
 93
        1
176
     1
 44
0.0
176
     1
173
     0
176
     1
1001
ACAD
1000
AcDbSavedByObjectVersion
1070
     0
  0
VISUALSTYLE
  5
40
102
{ACAD_XDICTIONARY
360
119
102
}
102
{ACAD_REACTORS
330
29
102
}
330
29
100
AcDbVisualStyle
  2
OverhangOff
 70
    21
177
     2
291
     1
 71
     2
176
     0
 72
     2
176
     0
 73
     0
176
     0
 90
        0
176
     0
 40
0.6
176
     0
 41
30.0
176
     0
 63
     7
421
 16777215
176
     0
 74
     1
176
     0
 91
        4
176
     0
 64
     7
176
     0
 65
   257
176
     0
 75
     1
176
     0
175
     1
176
     0
 42
1.0
176
     0
 92
        9
176
     2
 66
     7
176
     0
 43
1.0
176
     0
 76
     1
176
     0
 77
     6
176
     0
 78
     2
176
     0
 67
     7
176
     0
 79
     5
176
     0
170
     0
176
     0
171
     0
176
     0
290
     0
176
     0
 93
        1
176
     0
 44
0.0
176
     0
173
     0
176
     0
1001
ACAD
1000
AcDbSavedByObjectVersion
1070
     0
  0
VISUALSTYLE
  5
33
102
{ACAD_XDICTIONARY
360
FF
102
}
102
{ACAD_REACTORS
330
29
102
}
330
29
100
AcDbVisualStyle
  2
Realistic
 70
     8
177
     2
291
     0
 71
     2
176
     1
 72
     3
176
     1
 73
     0
176
     1
 90
        2
176
     1
 40
0.6
176
     1
 41
30.0
176
     1
 63
     7
421
 16777215
176
     1
 74
     0
176
     1
 91
        0
176
     1
 64
     7
176
     1
 65
   257
176
     1
 75
     1
176
     1
175
     1
176
     1
 42
1.0
176
     1
 92
        8
176
     1
 66
   257
176
     1
 43
1.0
176
     1
 76
     1
176
     1
 77
     6
176
     1
 78
     2
176
     1
 67
     7
176
     1
 79
     3
176
     1
170
     0
176
     1
171
     0
176
     1
290
     0
176
     1
 93
       13
176
     1
 44
0.0
176
     1
173
     0
176
     1
1001
ACAD
1000
AcDbSavedByObjectVersion
1070
     0
  0
VISUALSTYLE
  5
3E
102
{ACAD_XDICTIONARY
360
115
102
}
102
{ACAD_REACTORS
330
29
102
}
330
29
100
AcDbVisualStyle
  2
Shaded
 70
    27
177
     2
291
     0
 71
     2
176
     1
 72
     2
176
     1
 73
     1
176
     1
 90
        2
176
     1
 40
0.6
176
     1
 41
30.0
176
     1
 63
     7
421
 16777215
176
     1
 74
     0
176
     1
 91
        4
176
     1
 64
     7
176
     1
 65
   257
176
     1
 75
     1
176
     1
175
     1
176
     1
 42
1.0
176
     1
 92
        8
176
     1
 66
   257
176
     1
 43
1.0
176
     1
 76
     1
176
     1
 77
     6
176
     1
 78
     2
176
     1
 67
     8
425
  7895160
176
     1
 79
     3
176
     1
170
     0
176
     1
171
     0
176
     1
290
     0
176
     1
 93
        5
176
     1
 44
0.0
176
     1
173
     0
176
     1
1001
ACAD
1000
AcDbSavedByObjectVersion
1070
     0
  0
VISUALSTYLE
  5
3D
102
{ACAD_XDICTIONARY
360
113
102
}
102
{ACAD_REACTORS
330
29
102
}
330
29
100
AcDbVisualStyle
  2
Shaded with edges
 70
    26
177
     2
291
     0
 71
     2
176
     1
 72
     2
176
     1
 73
     1
176
     1
 90
        2
176
     1
 40
0.6
176
     1
 41
30.0
176
     1
 63
     7
421
 16777215
176
     1
 74
     1
176
     1
 91
        2
176
     1
 64
     7
176
     1
 65
   257
176
     1
 75
     2
176
     1
175
     1
176
     1
 42
1.0
176
     1
 92
        8
176
     1
 66
   257
176
     1
 43
1.0
176
     1
 76
     1
176
     1
 77
     6
176
     1
 78
     2
176
     1
 67
     7
176
     1
 79
     3
176
     1
170
     0
176
     1
171
     0
176
     1
290
     0
176
     1
 93
        5
176
     1
 44
0.0
176
     1
173
     0
176
     1
1001
ACAD
1000
AcDbSavedByObjectVersion
1070
     0
  0
VISUALSTYLE
  5
3A
102
{ACAD_XDICTIONARY
360
10D
102
}
102
{ACAD_REACTORS
330
29
102
}
330
29
100
AcDbVisualStyle
  2
Shades of Gray
 70
    23
177
     2
291
     0
 71
     2
176
     1
 72
     2
176
     1
 73
     3
176
     1
 90
        0
176
     1
 40
0.6
176
     1
 41
30.0
176
     1
 63
     7
421
 16777215
176
     1
 74
     2
176
     1
 91
        2
176
     1
 64
     7
176
     1
 65
     7
176
     1
 75
     1
176
     1
175
     1
176
     1
 42
40.0
176
     1
 92
        8
176
     1
 66
     7
176
     1
 43
1.0
176
     1
 76
     1
176
     1
 77
     6
176
     1
 78
     2
176
     1
 67
     7
176
     1
 79
     3
176
     1
170
     0
176
     1
171
     0
176
     1
290
     0
176
     1
 93
        1
176
     1
 44
0.0
176
     1
173
     0
176
     1
1001
ACAD
1000
AcDbSavedByObjectVersion
1070
     0
  0
VISUALSTYLE
  5
3B
102
{ACAD_XDICTIONARY
360
10F
102
}
102
{ACAD_REACTORS
330
29
102
}
330
29
100
AcDbVisualStyle
  2
Sketchy
 70
    24
177
     2
291
     0
 71
     1
176
     1
 72
     2
176
     1
 73
     2
176
     1
 90
        0
176
     1
 40
0.6
176
     1
 41
30.0
176
     1
 63
     7
421
 16777215
176
     1
 74
     2
176
     1
 91
        2
176
     1
 64
     7
176
     1
 65
     7
176
     1
 75
     1
176
     1
175
     1
176
     1
 42
40.0
176
     1
 92
       11
176
     1
 66
     7
176
     1
 43
1.0
176
     1
 76
     1
176
     1
 77
     6
176
     1
 78
     2
176
     1
 67
     7
176
     1
 79
     6
176
     1
170
     0
176
     1
171
     0
176
     1
290
     0
176
     1
 93
        1
176
     1
 44
0.0
176
     1
173
     0
176
     1
1001
ACAD
1000
AcDbSavedByObjectVersion
1070
     0
  0
VISUALSTYLE
  5
36
102
{ACAD_XDICTIONARY
360
105
102
}
102
{ACAD_REACTORS
330
29
102
}
330
29
100
AcDbVisualStyle
  2
Thicken
 70
    13
177
     2
291
     1
 71
     2
176
     1
 72
     2
176
     1
 73
     0
176
     1
 90
        0
176
     1
 40
0.6
176
     1
 41
30.0
176
     1
 63
     7
421
 16777215
176
     1
 74
     1
176
     1
 91
        4
176
     1
 64
     7
176
     1
 65
   257
176
     1
 75
     1
176
     1
175
     1
176
     1
 42
1.0
176
     1
 92
       12
176
     1
 66
     7
176
     1
 43
1.0
176
     1
 76
     1
176
     1
 77
     6
176
     1
 78
     2
176
     1
 67
     7
176
     1
 79
     5
176
     1
170
     0
176
     1
171
     0
176
     1
290
     0
176
     1
 93
        1
176
     1
 44
0.0
176
     1
173
     0
176
     1
1001
ACAD
1000
AcDbSavedByObjectVersion
1070
     0
  0
VISUALSTYLE
  5
30
102
{ACAD_XDICTIONARY
360
F9
102
}
102
{ACAD_REACTORS
330
29
102
}
330
29
100
AcDbVisualStyle
  2
Wireframe
 70
     5
177
     2
291
     0
 71
     0
176
     1
 72
     2
176
     1
 73
     0
176
     1
 90
        0
176
     1
 40
0.6
176
     1
 41
30.0
176
     1
 63
     7
421
 16777215
176
     1
 74
     1
176
     1
 91
        4
176
     1
 64
     7
176
     1
 65
   257
176
     1
 75
     1
176
     1
175
     1
176
     1
 42
1.0
176
     1
 92
        0
176
     1
 66
   257
176
     1
 43
1.0
176
     1
 76
     1
176
     1
 77
     6
176
     1
 78
     2
176
     1
 67
     7
176
     1
 79
     3
176
     1
170
     0
176
     1
171
     0
176
     1
290
     0
176
     1
 93
        1
176
     1
 44
0.0
176
     1
173
     0
176
     1
1001
ACAD
1000
AcDbSavedByObjectVersion
1070
     0
  0
VISUALSTYLE
  5
3C
102
{ACAD_XDICTIONARY
360
111
102
}
102
{ACAD_REACTORS
330
29
102
}
330
29
100
AcDbVisualStyle
  2
X-Ray
 70
    25
177
     2
291
     0
 71
     2
176
     1
 72
     2
176
     1
 73
     1
176
     1
 90
        1
176
     1
 40
0.5
176
     1
 41
30.0
176
     1
 63
     7
421
 16777215
176
     1
 74
     1
176
     1
 91
        0
176
     1
 64
     7
176
     1
 65
   257
176
     1
 75
     1
176
     1
175
     1
176
     1
 42
1.0
176
     1
 92
        8
176
     1
 66
     7
176
     1
 43
1.0
176
     1
 76
     1
176
     1
 77
     6
176
     1
 78
     2
176
     1
 67
     7
176
     1
 79
     3
176
     1
170
     0
176
     1
171
     0
176
     1
290
     0
176
     1
 93
       13
176
     1
 44
0.0
176
     1
173
     0
176
     1
1001
ACAD
1000
AcDbSavedByObjectVersion
1070
     0
  0
DICTIONARYVAR
  5
E9
102
{ACAD_REACTORS
330
E4
102
}
330
E4
100
DictionaryVariables
280
     0
  1
1:1
  0
DICTIONARYVAR
  5
E6
102
{ACAD_REACTORS
330
E4
102
}
330
E4
100
DictionaryVariables
280
     0
  1
STANDARD
  0
DICTIONARYVAR
  5
E5
102
{ACAD_REACTORS
330
E4
102
}
330
E4
100
DictionaryVariables
280
     0
  1
STANDARD
  0
DICTIONARYVAR
  5
E7
102
{ACAD_REACTORS
330
E4
102
}
330
E4
100
DictionaryVariables
280
     0
  1
Imperial24
  0
DICTIONARYVAR
  5
E8
102
{ACAD_REACTORS
330
E4
102
}
330
E4
100
DictionaryVariables
280
     0
  1
Imperial24
  0
DICTIONARY
  5
121
330
6B
100
AcDbDictionary
280
     1
281
     1
  3
ACAD_XREC_ROUNDTRIP
360
122
  0
DICTIONARY
  5
1A
330
19
100
AcDbDictionary
280
     1
281
     1
  3
BUMPTILE
360
1C
  3
DIFFUSETILE
360
1B
  3
OPACITYTILE
360
1F
  3
REFLECTIONTILE
360
1E
  3
REFRACTIONTILE
360
20
  3
SPECULARTILE
360
1D
  0
DICTIONARY
  5
12
330
11
100
AcDbDictionary
280
     1
281
     1
  3
BUMPTILE
360
14
  3
DIFFUSETILE
360
13
  3
OPACITYTILE
360
17
  3
REFLECTIONTILE
360
16
  3
REFRACTIONTILE
360
18
  3
SPECULARTILE
360
15
  0
DICTIONARY
  5
22
330
21
100
AcDbDictionary
280
     1
281
     1
  3
BUMPTILE
360
24
  3
DIFFUSETILE
360
23
  3
OPACITYTILE
360
27
  3
REFLECTIONTILE
360
26
  3
REFRACTIONTILE
360
28
  3
SPECULARTILE
360
25
  0
DICTIONARY
  5
11D
330
67
100
AcDbDictionary
280
     1
281
     1
  3
ACAD_XREC_ROUNDTRIP
360
11E
  0
DICTIONARY
  5
11F
330
69
100
AcDbDictionary
280
     1
281
     1
  3
ACAD_XREC_ROUNDTRIP
360
120
  0
DICTIONARY
  5
EA
330
65
100
AcDbDictionary
280
     1
281
     1
  3
ACAD_ROUNDTRIP_2008_TABLESTYLE_CELLSTYLEMAP
360
EB
  0
DICTIONARY
  5
F7
330
2F
100
AcDbDictionary
280
     1
281
     1
  3
ACAD_XREC_ROUNDTRIP
360
F8
  0
DICTIONARY
  5
F5
330
2E
100
AcDbDictionary
280
     1
281
     1
  3
ACAD_XREC_ROUNDTRIP
360
F6
  0
DICTIONARY
  5
103
330
35
100
AcDbDictionary
280
     1
281
     1
  3
ACAD_XREC_ROUNDTRIP
360
104
  0
DICTIONARY
  5
10B
330
39
100
AcDbDictionary
280
     1
281
     1
  3
ACAD_XREC_ROUNDTRIP
360
10C
  0
DICTIONARY
  5
FD
330
32
100
AcDbDictionary
280
     1
281
     1
  3
ACAD_XREC_ROUNDTRIP
360
FE
  0
DICTIONARY
  5
101
330
34
100
AcDbDictionary
280
     1
281
     1
  3
ACAD_XREC_ROUNDTRIP
360
102
  0
DICTIONARY
  5
11B
330
41
100
AcDbDictionary
280
     1
281
     1
  3
ACAD_XREC_ROUNDTRIP
360
11C
  0
DICTIONARY
  5
109
330
38
100
AcDbDictionary
280
     1
281
     1
  3
ACAD_XREC_ROUNDTRIP
360
10A
  0
DICTIONARY
  5
ED
330
2A
100
AcDbDictionary
280
     1
281
     1
  3
ACAD_XREC_ROUNDTRIP
360
EE
  0
DICTIONARY
  5
EF
330
2B
100
AcDbDictionary
280
     1
281
     1
  3
ACAD_XREC_ROUNDTRIP
360
F0
  0
DICTIONARY
  5
F1
330
2C
100
AcDbDictionary
280
     1
281
     1
  3
ACAD_XREC_ROUNDTRIP
360
F2
  0
DICTIONARY
  5
F3
330
2D
100
AcDbDictionary
280
     1
281
     1
  3
ACAD_XREC_ROUNDTRIP
360
F4
  0
DICTIONARY
  5
FB
330
31
100
AcDbDictionary
280
     1
281
     1
  3
ACAD_XREC_ROUNDTRIP
360
FC
  0
DICTIONARY
  5
117
330
3F
100
AcDbDictionary
280
     1
281
     1
  3
ACAD_XREC_ROUNDTRIP
360
118
  0
DICTIONARY
  5
107
330
37
100
AcDbDictionary
280
     1
281
     1
  3
ACAD_XREC_ROUNDTRIP
360
108
  0
DICTIONARY
  5
119
330
40
100
AcDbDictionary
280
     1
281
     1
  3
ACAD_XREC_ROUNDTRIP
360
11A
  0
DICTIONARY
  5
FF
330
33
100
AcDbDictionary
280
     1
281
     1
  3
ACAD_XREC_ROUNDTRIP
360
100
  0
DICTIONARY
  5
115
330
3E
100
AcDbDictionary
280
     1
281
     1
  3
ACAD_XREC_ROUNDTRIP
360
116
  0
DICTIONARY
  5
113
330
3D
100
AcDbDictionary
280
     1
281
     1
  3
ACAD_XREC_ROUNDTRIP
360
114
  0
DICTIONARY
  5
10D
330
3A
100
AcDbDictionary
280
     1
281
     1
  3
ACAD_XREC_ROUNDTRIP
360
10E
  0
DICTIONARY
  5
10F
330
3B
100
AcDbDictionary
280
     1
281
     1
  3
ACAD_XREC_ROUNDTRIP
360
110
  0
DICTIONARY
  5
105
330
36
100
AcDbDictionary
280
     1
281
     1
  3
ACAD_XREC_ROUNDTRIP
360
106
  0
DICTIONARY
  5
F9
330
30
100
AcDbDictionary
280
     1
281
     1
  3
ACAD_XREC_ROUNDTRIP
360
FA
  0
DICTIONARY
  5
111
330
3C
100
AcDbDictionary
280
     1
281
     1
  3
ACAD_XREC_ROUNDTRIP
360
112
  0
XRECORD
  5
122
102
{ACAD_REACTORS
330
121
102
}
330
121
100
AcDbXrecord
280
     1
102
DISPLAYNAME
  1
Imperial24
102
FLAGS
 90
        0
  0
XRECORD
  5
1C
102
{ACAD_REACTORS
330
1A
102
}
330
1A
100
AcDbXrecord
280
     1
270
     1
271
     1
  0
XRECORD
  5
1B
102
{ACAD_REACTORS
330
1A
102
}
330
1A
100
AcDbXrecord
280
     1
270
     1
271
     1
  0
XRECORD
  5
1F
102
{ACAD_REACTORS
330
1A
102
}
330
1A
100
AcDbXrecord
280
     1
270
     1
271
     1
  0
XRECORD
  5
1E
102
{ACAD_REACTORS
330
1A
102
}
330
1A
100
AcDbXrecord
280
     1
270
     1
271
     1
  0
XRECORD
  5
20
102
{ACAD_REACTORS
330
1A
102
}
330
1A
100
AcDbXrecord
280
     1
270
     1
271
     1
  0
XRECORD
  5
1D
102
{ACAD_REACTORS
330
1A
102
}
330
1A
100
AcDbXrecord
280
     1
270
     1
271
     1
  0
XRECORD
  5
14
102
{ACAD_REACTORS
330
12
102
}
330
12
100
AcDbXrecord
280
     1
270
     1
271
     1
  0
XRECORD
  5
13
102
{ACAD_REACTORS
330
12
102
}
330
12
100
AcDbXrecord
280
     1
270
     1
271
     1
  0
XRECORD
  5
17
102
{ACAD_REACTORS
330
12
102
}
330
12
100
AcDbXrecord
280
     1
270
     1
271
     1
  0
XRECORD
  5
16
102
{ACAD_REACTORS
330
12
102
}
330
12
100
AcDbXrecord
280
     1
270
     1
271
     1
  0
XRECORD
  5
18
102
{ACAD_REACTORS
330
12
102
}
330
12
100
AcDbXrecord
280
     1
270
     1
271
     1
  0
XRECORD
  5
15
102
{ACAD_REACTORS
330
12
102
}
330
12
100
AcDbXrecord
280
     1
270
     1
271
     1
  0
XRECORD
  5
24
102
{ACAD_REACTORS
330
22
102
}
330
22
100
AcDbXrecord
280
     1
270
     1
271
     1
  0
XRECORD
  5
23
102
{ACAD_REACTORS
330
22
102
}
330
22
100
AcDbXrecord
280
     1
270
     1
271
     1
  0
XRECORD
  5
27
102
{ACAD_REACTORS
330
22
102
}
330
22
100
AcDbXrecord
280
     1
270
     1
271
     1
  0
XRECORD
  5
26
102
{ACAD_REACTORS
330
22
102
}
330
22
100
AcDbXrecord
280
     1
270
     1
271
     1
  0
XRECORD
  5
28
102
{ACAD_REACTORS
330
22
102
}
330
22
100
AcDbXrecord
280
     1
270
     1
271
     1
  0
XRECORD
  5
25
102
{ACAD_REACTORS
330
22
102
}
330
22
100
AcDbXrecord
280
     1
270
     1
271
     1
  0
XRECORD
  5
11E
102
{ACAD_REACTORS
330
11D
102
}
330
11D
100
AcDbXrecord
280
     1
102
ACAD_ROUNDTRIP_2012_MLEADER_STYLE
298
     1
  0
XRECORD
  5
120
102
{ACAD_REACTORS
330
11F
102
}
330
11F
100
AcDbXrecord
280
     1
102
DISPLAYNAME
  1
Imperial24
102
FLAGS
 90
        0
  0
CELLSTYLEMAP
  5
EB
102
{ACAD_REACTORS
330
EA
102
}
330
EA
100
AcDbCellStyleMap
 90
        3
300
CELLSTYLE
  1
TABLEFORMAT_BEGIN
 90
        5
170
     1
 91
        0
 92
    32768
 62
   257
 93
        1
300
CONTENTFORMAT
  1
CONTENTFORMAT_BEGIN
 90
        0
 91
        0
 92
      512
 93
        0
300

 40
0.0
140
1.0
 94
        5
 62
     0
340
55
144
0.25
309
CONTENTFORMAT_END
171
     0
 94
        0
309
TABLEFORMAT_END
  1
CELLSTYLE_BEGIN
 90
        1
 91
        1
300
_TITLE
309
CELLSTYLE_END
300
CELLSTYLE
  1
TABLEFORMAT_BEGIN
 90
        5
170
     1
 91
        0
 92
        0
 62
   257
 93
        1
300
CONTENTFORMAT
  1
CONTENTFORMAT_BEGIN
 90
        0
 91
        0
 92
      512
 93
        0
300

 40
0.0
140
1.0
 94
        5
 62
     0
340
55
144
0.18
309
CONTENTFORMAT_END
171
     0
 94
        0
309
TABLEFORMAT_END
  1
CELLSTYLE_BEGIN
 90
        2
 91
        1
300
_HEADER
309
CELLSTYLE_END
300
CELLSTYLE
  1
TABLEFORMAT_BEGIN
 90
        5
170
     1
 91
        0
 92
        0
 62
   257
 93
        1
300
CONTENTFORMAT
  1
CONTENTFORMAT_BEGIN
 90
        0
 91
        0
 92
      512
 93
        0
300

 40
0.0
140
1.0
 94
        2
 62
     0
340
55
144
0.18
309
CONTENTFORMAT_END
171
     0
 94
        0
309
TABLEFORMAT_END
  1
CELLSTYLE_BEGIN
 90
        3
 91
        2
300
_DATA
309
CELLSTYLE_END
  0
XRECORD
  5
F8
102
{ACAD_REACTORS
330
F7
102
}
330
F7
100
AcDbXrecord
280
     1
102
RTVSPost2010Prop28
280
     1
102
RTVSPost2010PropOp28
 70
     1
102
RTVSPost2010Prop29
280
     1
102
RTVSPost2010PropOp29
 70
     1
102
RTVSPost2010Prop30
280
     0
102
RTVSPost2010PropOp30
 70
     1
102
RTVSPost2010Prop31
280
     0
102
RTVSPost2010PropOp31
 70
     1
102
RTVSPost2010Prop32
280
     0
102
RTVSPost2010PropOp32
 70
     1
102
RTVSPost2010Prop33
280
     0
102
RTVSPost2010PropOp33
 70
     1
102
RTVSPost2010Prop34
280
     0
102
RTVSPost2010PropOp34
 70
     1
102
RTVSPost2010Prop35
280
     0
102
RTVSPost2010PropOp35
 70
     1
102
RTVSPost2010Prop36
280
     0
102
RTVSPost2010PropOp36
 70
     1
102
RTVSPost2010Prop37
 90
       50
102
RTVSPost2010PropOp37
 70
     1
102
RTVSPost2010Prop38
140
0.0
102
RTVSPost2010PropOp38
 70
     1
102
RTVSPost2010Prop39
140
1.0
102
RTVSPost2010PropOp39
 70
     1
102
RTVSPost2010Prop40
 90
        0
102
RTVSPost2010PropOp40
 70
     1
102
RTVSPost2010Prop41ColorIndex
 90
       18
102
RTVSPost2010Prop41ColorRGB
 90
        0
102
RTVSPost2010PropOp41
 70
     1
102
RTVSPost2010Prop42
 90
       50
102
RTVSPost2010PropOp42
 70
     1
102
RTVSPost2010Prop43
 90
        3
102
RTVSPost2010PropOp43
 70
     1
102
RTVSPost2010Prop44ColorIndex
 90
        5
102
RTVSPost2010Prop44ColorRGB
 90
      255
102
RTVSPost2010PropOp44
 70
     1
102
RTVSPost2010Prop45
280
     0
102
RTVSPost2010PropOp45
 70
     1
102
RTVSPost2010Prop46
 90
       50
102
RTVSPost2010PropOp46
 70
     1
102
RTVSPost2010Prop47
 90
       50
102
RTVSPost2010PropOp47
 70
     1
102
RTVSPost2010Prop48
 90
       50
102
RTVSPost2010PropOp48
 70
     1
102
RTVSPost2010Prop49
280
     0
102
RTVSPost2010PropOp49
 70
     1
102
RTVSPost2010Prop50
 90
       50
102
RTVSPost2010PropOp50
 70
     1
102
RTVSPost2010Prop51ColorIndex
 90
      256
102
RTVSPost2010Prop51ColorRGB
 90
-16777216
102
RTVSPost2010PropOp51
 70
     0
102
RTVSPost2010Prop52
140
1.0
102
RTVSPost2010PropOp52
 70
     0
102
RTVSPost2010Prop53
 90
        2
102
RTVSPost2010PropOp53
 70
     1
102
RTVSPost2010Prop54
  1
strokes_ogs.tif
102
RTVSPost2010PropOp54
 70
     1
102
RTVSPost2010Prop55
280
     0
102
RTVSPost2010PropOp55
 70
     1
102
RTVSPost2010Prop56
140
1.0
102
RTVSPost2010PropOp56
 70
     1
102
RTVSPost2010Prop57
140
1.0
102
RTVSPost2010PropOp57
 70
     1
  0
XRECORD
  5
F6
102
{ACAD_REACTORS
330
F5
102
}
330
F5
100
AcDbXrecord
280
     1
102
RTVSPost2010Prop28
280
     0
102
RTVSPost2010PropOp28
 70
     1
102
RTVSPost2010Prop29
280
     1
102
RTVSPost2010PropOp29
 70
     1
102
RTVSPost2010Prop30
280
     1
102
RTVSPost2010PropOp30
 70
     1
102
RTVSPost2010Prop31
280
     0
102
RTVSPost2010PropOp31
 70
     1
102
RTVSPost2010Prop32
280
     0
102
RTVSPost2010PropOp32
 70
     1
102
RTVSPost2010Prop33
280
     0
102
RTVSPost2010PropOp33
 70
     1
102
RTVSPost2010Prop34
280
     0
102
RTVSPost2010PropOp34
 70
     1
102
RTVSPost2010Prop35
280
     0
102
RTVSPost2010PropOp35
 70
     1
102
RTVSPost2010Prop36
280
     0
102
RTVSPost2010PropOp36
 70
     1
102
RTVSPost2010Prop37
 90
       50
102
RTVSPost2010PropOp37
 70
     1
102
RTVSPost2010Prop38
140
0.0
102
RTVSPost2010PropOp38
 70
     1
102
RTVSPost2010Prop39
140
1.0
102
RTVSPost2010PropOp39
 70
     1
102
RTVSPost2010Prop40
 90
        0
102
RTVSPost2010PropOp40
 70
     1
102
RTVSPost2010Prop41ColorIndex
 90
       18
102
RTVSPost2010Prop41ColorRGB
 90
        0
102
RTVSPost2010PropOp41
 70
     1
102
RTVSPost2010Prop42
 90
       50
102
RTVSPost2010PropOp42
 70
     1
102
RTVSPost2010Prop43
 90
        3
102
RTVSPost2010PropOp43
 70
     1
102
RTVSPost2010Prop44ColorIndex
 90
        5
102
RTVSPost2010Prop44ColorRGB
 90
      255
102
RTVSPost2010PropOp44
 70
     1
102
RTVSPost2010Prop45
280
     0
102
RTVSPost2010PropOp45
 70
     1
102
RTVSPost2010Prop46
 90
       50
102
RTVSPost2010PropOp46
 70
     1
102
RTVSPost2010Prop47
 90
       50
102
RTVSPost2010PropOp47
 70
     1
102
RTVSPost2010Prop48
 90
       50
102
RTVSPost2010PropOp48
 70
     1
102
RTVSPost2010Prop49
280
     0
102
RTVSPost2010PropOp49
 70
     1
102
RTVSPost2010Prop50
 90
       50
102
RTVSPost2010PropOp50
 70
     1
102
RTVSPost2010Prop51ColorIndex
 90
      256
102
RTVSPost2010Prop51ColorRGB
 90
-16777216
102
RTVSPost2010PropOp51
 70
     0
102
RTVSPost2010Prop52
140
1.0
102
RTVSPost2010PropOp52
 70
     0
102
RTVSPost2010Prop53
 90
        2
102
RTVSPost2010PropOp53
 70
     1
102
RTVSPost2010Prop54
  1
strokes_ogs.tif
102
RTVSPost2010PropOp54
 70
     1
102
RTVSPost2010Prop55
280
     0
102
RTVSPost2010PropOp55
 70
     1
102
RTVSPost2010Prop56
140
1.0
102
RTVSPost2010PropOp56
 70
     1
102
RTVSPost2010Prop57
140
1.0
102
RTVSPost2010PropOp57
 70
     1
  0
XRECORD
  5
104
102
{ACAD_REACTORS
330
103
102
}
330
103
100
AcDbXrecord
280
     1
102
RTVSPost2010Prop28
280
     0
102
RTVSPost2010PropOp28
 70
     1
102
RTVSPost2010Prop29
280
     1
102
RTVSPost2010PropOp29
 70
     1
102
RTVSPost2010Prop30
280
     1
102
RTVSPost2010PropOp30
 70
     1
102
RTVSPost2010Prop31
280
     0
102
RTVSPost2010PropOp31
 70
     1
102
RTVSPost2010Prop32
280
     0
102
RTVSPost2010PropOp32
 70
     1
102
RTVSPost2010Prop33
280
     0
102
RTVSPost2010PropOp33
 70
     1
102
RTVSPost2010Prop34
280
     0
102
RTVSPost2010PropOp34
 70
     1
102
RTVSPost2010Prop35
280
     0
102
RTVSPost2010PropOp35
 70
     1
102
RTVSPost2010Prop36
280
     0
102
RTVSPost2010PropOp36
 70
     1
102
RTVSPost2010Prop37
 90
       50
102
RTVSPost2010PropOp37
 70
     1
102
RTVSPost2010Prop38
140
0.0
102
RTVSPost2010PropOp38
 70
     1
102
RTVSPost2010Prop39
140
1.0
102
RTVSPost2010PropOp39
 70
     1
102
RTVSPost2010Prop40
 90
        0
102
RTVSPost2010PropOp40
 70
     1
102
RTVSPost2010Prop41ColorIndex
 90
       18
102
RTVSPost2010Prop41ColorRGB
 90
        0
102
RTVSPost2010PropOp41
 70
     1
102
RTVSPost2010Prop42
 90
       50
102
RTVSPost2010PropOp42
 70
     1
102
RTVSPost2010Prop43
 90
        3
102
RTVSPost2010PropOp43
 70
     1
102
RTVSPost2010Prop44ColorIndex
 90
        5
102
RTVSPost2010Prop44ColorRGB
 90
      255
102
RTVSPost2010PropOp44
 70
     1
102
RTVSPost2010Prop45
280
     0
102
RTVSPost2010PropOp45
 70
     1
102
RTVSPost2010Prop46
 90
       50
102
RTVSPost2010PropOp46
 70
     1
102
RTVSPost2010Prop47
 90
       50
102
RTVSPost2010PropOp47
 70
     1
102
RTVSPost2010Prop48
 90
       50
102
RTVSPost2010PropOp48
 70
     1
102
RTVSPost2010Prop49
280
     0
102
RTVSPost2010PropOp49
 70
     1
102
RTVSPost2010Prop50
 90
       50
102
RTVSPost2010PropOp50
 70
     1
102
RTVSPost2010Prop51ColorIndex
 90
      256
102
RTVSPost2010Prop51ColorRGB
 90
-16777216
102
RTVSPost2010PropOp51
 70
     0
102
RTVSPost2010Prop52
140
1.0
102
RTVSPost2010PropOp52
 70
     0
102
RTVSPost2010Prop53
 90
        2
102
RTVSPost2010PropOp53
 70
     1
102
RTVSPost2010Prop54
  1
strokes_ogs.tif
102
RTVSPost2010PropOp54
 70
     1
102
RTVSPost2010Prop55
280
     0
102
RTVSPost2010PropOp55
 70
     1
102
RTVSPost2010Prop56
140
1.0
102
RTVSPost2010PropOp56
 70
     1
102
RTVSPost2010Prop57
140
1.0
102
RTVSPost2010PropOp57
 70
     1
  0
XRECORD
  5
10C
102
{ACAD_REACTORS
330
10B
102
}
330
10B
100
AcDbXrecord
280
     1
102
RTVSPost2010Prop28
280
     0
102
RTVSPost2010PropOp28
 70
     1
102
RTVSPost2010Prop29
280
     1
102
RTVSPost2010PropOp29
 70
     1
102
RTVSPost2010Prop30
280
     1
102
RTVSPost2010PropOp30
 70
     1
102
RTVSPost2010Prop31
280
     0
102
RTVSPost2010PropOp31
 70
     1
102
RTVSPost2010Prop32
280
     0
102
RTVSPost2010PropOp32
 70
     1
102
RTVSPost2010Prop33
280
     0
102
RTVSPost2010PropOp33
 70
     1
102
RTVSPost2010Prop34
280
     0
102
RTVSPost2010PropOp34
 70
     1
102
RTVSPost2010Prop35
280
     0
102
RTVSPost2010PropOp35
 70
     1
102
RTVSPost2010Prop36
280
     0
102
RTVSPost2010PropOp36
 70
     1
102
RTVSPost2010Prop37
 90
       50
102
RTVSPost2010PropOp37
 70
     1
102
RTVSPost2010Prop38
140
0.0
102
RTVSPost2010PropOp38
 70
     1
102
RTVSPost2010Prop39
140
1.0
102
RTVSPost2010PropOp39
 70
     1
102
RTVSPost2010Prop40
 90
        0
102
RTVSPost2010PropOp40
 70
     1
102
RTVSPost2010Prop41ColorIndex
 90
       18
102
RTVSPost2010Prop41ColorRGB
 90
        0
102
RTVSPost2010PropOp41
 70
     1
102
RTVSPost2010Prop42
 90
       50
102
RTVSPost2010PropOp42
 70
     1
102
RTVSPost2010Prop43
 90
        3
102
RTVSPost2010PropOp43
 70
     1
102
RTVSPost2010Prop44ColorIndex
 90
        5
102
RTVSPost2010Prop44ColorRGB
 90
      255
102
RTVSPost2010PropOp44
 70
     1
102
RTVSPost2010Prop45
280
     0
102
RTVSPost2010PropOp45
 70
     1
102
RTVSPost2010Prop46
 90
       50
102
RTVSPost2010PropOp46
 70
     1
102
RTVSPost2010Prop47
 90
       50
102
RTVSPost2010PropOp47
 70
     1
102
RTVSPost2010Prop48
 90
       50
102
RTVSPost2010PropOp48
 70
     1
102
RTVSPost2010Prop49
280
     0
102
RTVSPost2010PropOp49
 70
     1
102
RTVSPost2010Prop50
 90
       50
102
RTVSPost2010PropOp50
 70
     1
102
RTVSPost2010Prop51ColorIndex
 90
      256
102
RTVSPost2010Prop51ColorRGB
 90
-16777216
102
RTVSPost2010PropOp51
 70
     0
102
RTVSPost2010Prop52
140
1.0
102
RTVSPost2010PropOp52
 70
     0
102
RTVSPost2010Prop53
 90
        2
102
RTVSPost2010PropOp53
 70
     1
102
RTVSPost2010Prop54
  1
strokes_ogs.tif
102
RTVSPost2010PropOp54
 70
     1
102
RTVSPost2010Prop55
280
     0
102
RTVSPost2010PropOp55
 70
     1
102
RTVSPost2010Prop56
140
1.0
102
RTVSPost2010PropOp56
 70
     1
102
RTVSPost2010Prop57
140
1.0
102
RTVSPost2010PropOp57
 70
     1
  0
XRECORD
  5
FE
102
{ACAD_REACTORS
330
FD
102
}
330
FD
100
AcDbXrecord
280
     1
102
RTVSPost2010Prop28
280
     0
102
RTVSPost2010PropOp28
 70
     1
102
RTVSPost2010Prop29
280
     1
102
RTVSPost2010PropOp29
 70
     1
102
RTVSPost2010Prop30
280
     1
102
RTVSPost2010PropOp30
 70
     1
102
RTVSPost2010Prop31
280
     0
102
RTVSPost2010PropOp31
 70
     1
102
RTVSPost2010Prop32
280
     0
102
RTVSPost2010PropOp32
 70
     1
102
RTVSPost2010Prop33
280
     0
102
RTVSPost2010PropOp33
 70
     1
102
RTVSPost2010Prop34
280
     0
102
RTVSPost2010PropOp34
 70
     1
102
RTVSPost2010Prop35
280
     0
102
RTVSPost2010PropOp35
 70
     1
102
RTVSPost2010Prop36
280
     0
102
RTVSPost2010PropOp36
 70
     1
102
RTVSPost2010Prop37
 90
       50
102
RTVSPost2010PropOp37
 70
     1
102
RTVSPost2010Prop38
140
0.0
102
RTVSPost2010PropOp38
 70
     1
102
RTVSPost2010Prop39
140
1.0
102
RTVSPost2010PropOp39
 70
     1
102
RTVSPost2010Prop40
 90
        0
102
RTVSPost2010PropOp40
 70
     1
102
RTVSPost2010Prop41ColorIndex
 90
       18
102
RTVSPost2010Prop41ColorRGB
 90
        0
102
RTVSPost2010PropOp41
 70
     1
102
RTVSPost2010Prop42
 90
       50
102
RTVSPost2010PropOp42
 70
     1
102
RTVSPost2010Prop43
 90
        3
102
RTVSPost2010PropOp43
 70
     1
102
RTVSPost2010Prop44ColorIndex
 90
        5
102
RTVSPost2010Prop44ColorRGB
 90
      255
102
RTVSPost2010PropOp44
 70
     1
102
RTVSPost2010Prop45
280
     0
102
RTVSPost2010PropOp45
 70
     1
102
RTVSPost2010Prop46
 90
       50
102
RTVSPost2010PropOp46
 70
     1
102
RTVSPost2010Prop47
 90
       50
102
RTVSPost2010PropOp47
 70
     1
102
RTVSPost2010Prop48
 90
       50
102
RTVSPost2010PropOp48
 70
     1
102
RTVSPost2010Prop49
280
     0
102
RTVSPost2010PropOp49
 70
     1
102
RTVSPost2010Prop50
 90
       50
102
RTVSPost2010PropOp50
 70
     1
102
RTVSPost2010Prop51ColorIndex
 90
      256
102
RTVSPost2010Prop51ColorRGB
 90
-16777216
102
RTVSPost2010PropOp51
 70
     0
102
RTVSPost2010Prop52
140
1.0
102
RTVSPost2010PropOp52
 70
     0
102
RTVSPost2010Prop53
 90
        2
102
RTVSPost2010PropOp53
 70
     1
102
RTVSPost2010Prop54
  1
strokes_ogs.tif
102
RTVSPost2010PropOp54
 70
     1
102
RTVSPost2010Prop55
280
     0
102
RTVSPost2010PropOp55
 70
     1
102
RTVSPost2010Prop56
140
1.0
102
RTVSPost2010PropOp56
 70
     1
102
RTVSPost2010Prop57
140
1.0
102
RTVSPost2010PropOp57
 70
     1
  0
XRECORD
  5
102
102
{ACAD_REACTORS
330
101
102
}
330
101
100
AcDbXrecord
280
     1
102
RTVSPost2010Prop28
280
     0
102
RTVSPost2010PropOp28
 70
     1
102
RTVSPost2010Prop29
280
     1
102
RTVSPost2010PropOp29
 70
     1
102
RTVSPost2010Prop30
280
     1
102
RTVSPost2010PropOp30
 70
     1
102
RTVSPost2010Prop31
280
     0
102
RTVSPost2010PropOp31
 70
     1
102
RTVSPost2010Prop32
280
     0
102
RTVSPost2010PropOp32
 70
     1
102
RTVSPost2010Prop33
280
     0
102
RTVSPost2010PropOp33
 70
     1
102
RTVSPost2010Prop34
280
     0
102
RTVSPost2010PropOp34
 70
     1
102
RTVSPost2010Prop35
280
     0
102
RTVSPost2010PropOp35
 70
     1
102
RTVSPost2010Prop36
280
     0
102
RTVSPost2010PropOp36
 70
     1
102
RTVSPost2010Prop37
 90
       50
102
RTVSPost2010PropOp37
 70
     1
102
RTVSPost2010Prop38
140
0.0
102
RTVSPost2010PropOp38
 70
     1
102
RTVSPost2010Prop39
140
1.0
102
RTVSPost2010PropOp39
 70
     1
102
RTVSPost2010Prop40
 90
        0
102
RTVSPost2010PropOp40
 70
     1
102
RTVSPost2010Prop41ColorIndex
 90
       18
102
RTVSPost2010Prop41ColorRGB
 90
        0
102
RTVSPost2010PropOp41
 70
     1
102
RTVSPost2010Prop42
 90
       50
102
RTVSPost2010PropOp42
 70
     1
102
RTVSPost2010Prop43
 90
        3
102
RTVSPost2010PropOp43
 70
     1
102
RTVSPost2010Prop44ColorIndex
 90
        5
102
RTVSPost2010Prop44ColorRGB
 90
      255
102
RTVSPost2010PropOp44
 70
     1
102
RTVSPost2010Prop45
280
     0
102
RTVSPost2010PropOp45
 70
     1
102
RTVSPost2010Prop46
 90
       50
102
RTVSPost2010PropOp46
 70
     1
102
RTVSPost2010Prop47
 90
       50
102
RTVSPost2010PropOp47
 70
     1
102
RTVSPost2010Prop48
 90
       50
102
RTVSPost2010PropOp48
 70
     1
102
RTVSPost2010Prop49
280
     0
102
RTVSPost2010PropOp49
 70
     1
102
RTVSPost2010Prop50
 90
       50
102
RTVSPost2010PropOp50
 70
     1
102
RTVSPost2010Prop51ColorIndex
 90
      256
102
RTVSPost2010Prop51ColorRGB
 90
-16777216
102
RTVSPost2010PropOp51
 70
     0
102
RTVSPost2010Prop52
140
1.0
102
RTVSPost2010PropOp52
 70
     0
102
RTVSPost2010Prop53
 90
        2
102
RTVSPost2010PropOp53
 70
     1
102
RTVSPost2010Prop54
  1
strokes_ogs.tif
102
RTVSPost2010PropOp54
 70
     1
102
RTVSPost2010Prop55
280
     0
102
RTVSPost2010PropOp55
 70
     1
102
RTVSPost2010Prop56
140
1.0
102
RTVSPost2010PropOp56
 70
     1
102
RTVSPost2010Prop57
140
1.0
102
RTVSPost2010PropOp57
 70
     1
  0
XRECORD
  5
11C
102
{ACAD_REACTORS
330
11B
102
}
330
11B
100
AcDbXrecord
280
     1
102
RTVSPost2010Prop28
280
     0
102
RTVSPost2010PropOp28
 70
     0
102
RTVSPost2010Prop29
280
     1
102
RTVSPost2010PropOp29
 70
     0
102
RTVSPost2010Prop30
280
     1
102
RTVSPost2010PropOp30
 70
     0
102
RTVSPost2010Prop31
280
     0
102
RTVSPost2010PropOp31
 70
     0
102
RTVSPost2010Prop32
280
     0
102
RTVSPost2010PropOp32
 70
     0
102
RTVSPost2010Prop33
280
     0
102
RTVSPost2010PropOp33
 70
     0
102
RTVSPost2010Prop34
280
     0
102
RTVSPost2010PropOp34
 70
     0
102
RTVSPost2010Prop35
280
     0
102
RTVSPost2010PropOp35
 70
     0
102
RTVSPost2010Prop36
280
     0
102
RTVSPost2010PropOp36
 70
     0
102
RTVSPost2010Prop37
 90
       50
102
RTVSPost2010PropOp37
 70
     0
102
RTVSPost2010Prop38
140
0.0
102
RTVSPost2010PropOp38
 70
     0
102
RTVSPost2010Prop39
140
1.0
102
RTVSPost2010PropOp39
 70
     0
102
RTVSPost2010Prop40
 90
        0
102
RTVSPost2010PropOp40
 70
     0
102
RTVSPost2010Prop41ColorIndex
 90
       18
102
RTVSPost2010Prop41ColorRGB
 90
        0
102
RTVSPost2010PropOp41
 70
     0
102
RTVSPost2010Prop42
 90
       50
102
RTVSPost2010PropOp42
 70
     0
102
RTVSPost2010Prop43
 90
        3
102
RTVSPost2010PropOp43
 70
     0
102
RTVSPost2010Prop44ColorIndex
 90
        5
102
RTVSPost2010Prop44ColorRGB
 90
      255
102
RTVSPost2010PropOp44
 70
     0
102
RTVSPost2010Prop45
280
     0
102
RTVSPost2010PropOp45
 70
     0
102
RTVSPost2010Prop46
 90
       50
102
RTVSPost2010PropOp46
 70
     0
102
RTVSPost2010Prop47
 90
       50
102
RTVSPost2010PropOp47
 70
     0
102
RTVSPost2010Prop48
 90
       50
102
RTVSPost2010PropOp48
 70
     0
102
RTVSPost2010Prop49
280
     0
102
RTVSPost2010PropOp49
 70
     0
102
RTVSPost2010Prop50
 90
       50
102
RTVSPost2010PropOp50
 70
     0
102
RTVSPost2010Prop51ColorIndex
 90
      256
102
RTVSPost2010Prop51ColorRGB
 90
-16777216
102
RTVSPost2010PropOp51
 70
     0
102
RTVSPost2010Prop52
140
1.0
102
RTVSPost2010PropOp52
 70
     0
102
RTVSPost2010Prop53
 90
        2
102
RTVSPost2010PropOp53
 70
     0
102
RTVSPost2010Prop54
  1
strokes_ogs.tif
102
RTVSPost2010PropOp54
 70
     0
102
RTVSPost2010Prop55
280
     0
102
RTVSPost2010PropOp55
 70
     0
102
RTVSPost2010Prop56
140
1.0
102
RTVSPost2010PropOp56
 70
     0
102
RTVSPost2010Prop57
140
1.0
102
RTVSPost2010PropOp57
 70
     0
  0
XRECORD
  5
10A
102
{ACAD_REACTORS
330
109
102
}
330
109
100
AcDbXrecord
280
     1
102
RTVSPost2010Prop28
280
     0
102
RTVSPost2010PropOp28
 70
     1
102
RTVSPost2010Prop29
280
     1
102
RTVSPost2010PropOp29
 70
     1
102
RTVSPost2010Prop30
280
     1
102
RTVSPost2010PropOp30
 70
     1
102
RTVSPost2010Prop31
280
     0
102
RTVSPost2010PropOp31
 70
     1
102
RTVSPost2010Prop32
280
     0
102
RTVSPost2010PropOp32
 70
     1
102
RTVSPost2010Prop33
280
     0
102
RTVSPost2010PropOp33
 70
     1
102
RTVSPost2010Prop34
280
     0
102
RTVSPost2010PropOp34
 70
     1
102
RTVSPost2010Prop35
280
     0
102
RTVSPost2010PropOp35
 70
     1
102
RTVSPost2010Prop36
280
     0
102
RTVSPost2010PropOp36
 70
     1
102
RTVSPost2010Prop37
 90
       50
102
RTVSPost2010PropOp37
 70
     1
102
RTVSPost2010Prop38
140
0.0
102
RTVSPost2010PropOp38
 70
     1
102
RTVSPost2010Prop39
140
1.0
102
RTVSPost2010PropOp39
 70
     1
102
RTVSPost2010Prop40
 90
        0
102
RTVSPost2010PropOp40
 70
     1
102
RTVSPost2010Prop41ColorIndex
 90
       18
102
RTVSPost2010Prop41ColorRGB
 90
        0
102
RTVSPost2010PropOp41
 70
     1
102
RTVSPost2010Prop42
 90
       50
102
RTVSPost2010PropOp42
 70
     1
102
RTVSPost2010Prop43
 90
        3
102
RTVSPost2010PropOp43
 70
     1
102
RTVSPost2010Prop44ColorIndex
 90
        5
102
RTVSPost2010Prop44ColorRGB
 90
      255
102
RTVSPost2010PropOp44
 70
     1
102
RTVSPost2010Prop45
280
     0
102
RTVSPost2010PropOp45
 70
     1
102
RTVSPost2010Prop46
 90
       50
102
RTVSPost2010PropOp46
 70
     1
102
RTVSPost2010Prop47
 90
       50
102
RTVSPost2010PropOp47
 70
     1
102
RTVSPost2010Prop48
 90
       50
102
RTVSPost2010PropOp48
 70
     1
102
RTVSPost2010Prop49
280
     0
102
RTVSPost2010PropOp49
 70
     1
102
RTVSPost2010Prop50
 90
       50
102
RTVSPost2010PropOp50
 70
     1
102
RTVSPost2010Prop51ColorIndex
 90
      256
102
RTVSPost2010Prop51ColorRGB
 90
-16777216
102
RTVSPost2010PropOp51
 70
     0
102
RTVSPost2010Prop52
140
1.0
102
RTVSPost2010PropOp52
 70
     0
102
RTVSPost2010Prop53
 90
        2
102
RTVSPost2010PropOp53
 70
     1
102
RTVSPost2010Prop54
  1
strokes_ogs.tif
102
RTVSPost2010PropOp54
 70
     1
102
RTVSPost2010Prop55
280
     0
102
RTVSPost2010PropOp55
 70
     1
102
RTVSPost2010Prop56
140
1.0
102
RTVSPost2010PropOp56
 70
     1
102
RTVSPost2010Prop57
140
1.0
102
RTVSPost2010PropOp57
 70
     1
  0
XRECORD
  5
EE
102
{ACAD_REACTORS
330
ED
102
}
330
ED
100
AcDbXrecord
280
     1
102
RTVSPost2010Prop28
280
     0
102
RTVSPost2010PropOp28
 70
     1
102
RTVSPost2010Prop29
280
     1
102
RTVSPost2010PropOp29
 70
     1
102
RTVSPost2010Prop30
280
     1
102
RTVSPost2010PropOp30
 70
     1
102
RTVSPost2010Prop31
280
     0
102
RTVSPost2010PropOp31
 70
     1
102
RTVSPost2010Prop32
280
     0
102
RTVSPost2010PropOp32
 70
     1
102
RTVSPost2010Prop33
280
     0
102
RTVSPost2010PropOp33
 70
     1
102
RTVSPost2010Prop34
280
     0
102
RTVSPost2010PropOp34
 70
     1
102
RTVSPost2010Prop35
280
     0
102
RTVSPost2010PropOp35
 70
     1
102
RTVSPost2010Prop36
280
     0
102
RTVSPost2010PropOp36
 70
     1
102
RTVSPost2010Prop37
 90
       50
102
RTVSPost2010PropOp37
 70
     1
102
RTVSPost2010Prop38
140
0.0
102
RTVSPost2010PropOp38
 70
     1
102
RTVSPost2010Prop39
140
1.0
102
RTVSPost2010PropOp39
 70
     1
102
RTVSPost2010Prop40
 90
        0
102
RTVSPost2010PropOp40
 70
     1
102
RTVSPost2010Prop41ColorIndex
 90
       18
102
RTVSPost2010Prop41ColorRGB
 90
        0
102
RTVSPost2010PropOp41
 70
     1
102
RTVSPost2010Prop42
 90
       50
102
RTVSPost2010PropOp42
 70
     1
102
RTVSPost2010Prop43
 90
        3
102
RTVSPost2010PropOp43
 70
     1
102
RTVSPost2010Prop44ColorIndex
 90
        5
102
RTVSPost2010Prop44ColorRGB
 90
      255
102
RTVSPost2010PropOp44
 70
     1
102
RTVSPost2010Prop45
280
     0
102
RTVSPost2010PropOp45
 70
     1
102
RTVSPost2010Prop46
 90
       50
102
RTVSPost2010PropOp46
 70
     1
102
RTVSPost2010Prop47
 90
       50
102
RTVSPost2010PropOp47
 70
     1
102
RTVSPost2010Prop48
 90
       50
102
RTVSPost2010PropOp48
 70
     1
102
RTVSPost2010Prop49
280
     0
102
RTVSPost2010PropOp49
 70
     1
102
RTVSPost2010Prop50
 90
       50
102
RTVSPost2010PropOp50
 70
     1
102
RTVSPost2010Prop51ColorIndex
 90
      256
102
RTVSPost2010Prop51ColorRGB
 90
-16777216
102
RTVSPost2010PropOp51
 70
     0
102
RTVSPost2010Prop52
140
1.0
102
RTVSPost2010PropOp52
 70
     0
102
RTVSPost2010Prop53
 90
        2
102
RTVSPost2010PropOp53
 70
     1
102
RTVSPost2010Prop54
  1
strokes_ogs.tif
102
RTVSPost2010PropOp54
 70
     1
102
RTVSPost2010Prop55
280
     0
102
RTVSPost2010PropOp55
 70
     1
102
RTVSPost2010Prop56
140
1.0
102
RTVSPost2010PropOp56
 70
     1
102
RTVSPost2010Prop57
140
1.0
102
RTVSPost2010PropOp57
 70
     1
  0
XRECORD
  5
F0
102
{ACAD_REACTORS
330
EF
102
}
330
EF
100
AcDbXrecord
280
     1
102
RTVSPost2010Prop28
280
     0
102
RTVSPost2010PropOp28
 70
     1
102
RTVSPost2010Prop29
280
     1
102
RTVSPost2010PropOp29
 70
     1
102
RTVSPost2010Prop30
280
     1
102
RTVSPost2010PropOp30
 70
     1
102
RTVSPost2010Prop31
280
     0
102
RTVSPost2010PropOp31
 70
     1
102
RTVSPost2010Prop32
280
     0
102
RTVSPost2010PropOp32
 70
     1
102
RTVSPost2010Prop33
280
     0
102
RTVSPost2010PropOp33
 70
     1
102
RTVSPost2010Prop34
280
     0
102
RTVSPost2010PropOp34
 70
     1
102
RTVSPost2010Prop35
280
     0
102
RTVSPost2010PropOp35
 70
     1
102
RTVSPost2010Prop36
280
     0
102
RTVSPost2010PropOp36
 70
     1
102
RTVSPost2010Prop37
 90
       50
102
RTVSPost2010PropOp37
 70
     1
102
RTVSPost2010Prop38
140
0.0
102
RTVSPost2010PropOp38
 70
     1
102
RTVSPost2010Prop39
140
1.0
102
RTVSPost2010PropOp39
 70
     1
102
RTVSPost2010Prop40
 90
        0
102
RTVSPost2010PropOp40
 70
     1
102
RTVSPost2010Prop41ColorIndex
 90
       18
102
RTVSPost2010Prop41ColorRGB
 90
        0
102
RTVSPost2010PropOp41
 70
     1
102
RTVSPost2010Prop42
 90
       50
102
RTVSPost2010PropOp42
 70
     1
102
RTVSPost2010Prop43
 90
        3
102
RTVSPost2010PropOp43
 70
     1
102
RTVSPost2010Prop44ColorIndex
 90
        5
102
RTVSPost2010Prop44ColorRGB
 90
      255
102
RTVSPost2010PropOp44
 70
     1
102
RTVSPost2010Prop45
280
     0
102
RTVSPost2010PropOp45
 70
     1
102
RTVSPost2010Prop46
 90
       50
102
RTVSPost2010PropOp46
 70
     1
102
RTVSPost2010Prop47
 90
       50
102
RTVSPost2010PropOp47
 70
     1
102
RTVSPost2010Prop48
 90
       50
102
RTVSPost2010PropOp48
 70
     1
102
RTVSPost2010Prop49
280
     0
102
RTVSPost2010PropOp49
 70
     1
102
RTVSPost2010Prop50
 90
       50
102
RTVSPost2010PropOp50
 70
     1
102
RTVSPost2010Prop51ColorIndex
 90
      256
102
RTVSPost2010Prop51ColorRGB
 90
-16777216
102
RTVSPost2010PropOp51
 70
     0
102
RTVSPost2010Prop52
140
1.0
102
RTVSPost2010PropOp52
 70
     0
102
RTVSPost2010Prop53
 90
        2
102
RTVSPost2010PropOp53
 70
     1
102
RTVSPost2010Prop54
  1
strokes_ogs.tif
102
RTVSPost2010PropOp54
 70
     1
102
RTVSPost2010Prop55
280
     0
102
RTVSPost2010PropOp55
 70
     1
102
RTVSPost2010Prop56
140
1.0
102
RTVSPost2010PropOp56
 70
     1
102
RTVSPost2010Prop57
140
1.0
102
RTVSPost2010PropOp57
 70
     1
  0
XRECORD
  5
F2
102
{ACAD_REACTORS
330
F1
102
}
330
F1
100
AcDbXrecord
280
     1
102
RTVSPost2010Prop28
280
     0
102
RTVSPost2010PropOp28
 70
     1
102
RTVSPost2010Prop29
280
     1
102
RTVSPost2010PropOp29
 70
     1
102
RTVSPost2010Prop30
280
     1
102
RTVSPost2010PropOp30
 70
     1
102
RTVSPost2010Prop31
280
     0
102
RTVSPost2010PropOp31
 70
     1
102
RTVSPost2010Prop32
280
     0
102
RTVSPost2010PropOp32
 70
     1
102
RTVSPost2010Prop33
280
     0
102
RTVSPost2010PropOp33
 70
     1
102
RTVSPost2010Prop34
280
     0
102
RTVSPost2010PropOp34
 70
     1
102
RTVSPost2010Prop35
280
     0
102
RTVSPost2010PropOp35
 70
     1
102
RTVSPost2010Prop36
280
     0
102
RTVSPost2010PropOp36
 70
     1
102
RTVSPost2010Prop37
 90
       50
102
RTVSPost2010PropOp37
 70
     1
102
RTVSPost2010Prop38
140
0.0
102
RTVSPost2010PropOp38
 70
     1
102
RTVSPost2010Prop39
140
1.0
102
RTVSPost2010PropOp39
 70
     1
102
RTVSPost2010Prop40
 90
        0
102
RTVSPost2010PropOp40
 70
     1
102
RTVSPost2010Prop41ColorIndex
 90
       18
102
RTVSPost2010Prop41ColorRGB
 90
        0
102
RTVSPost2010PropOp41
 70
     1
102
RTVSPost2010Prop42
 90
       50
102
RTVSPost2010PropOp42
 70
     1
102
RTVSPost2010Prop43
 90
        3
102
RTVSPost2010PropOp43
 70
     1
102
RTVSPost2010Prop44ColorIndex
 90
        5
102
RTVSPost2010Prop44ColorRGB
 90
      255
102
RTVSPost2010PropOp44
 70
     1
102
RTVSPost2010Prop45
280
     0
102
RTVSPost2010PropOp45
 70
     1
102
RTVSPost2010Prop46
 90
       50
102
RTVSPost2010PropOp46
 70
     1
102
RTVSPost2010Prop47
 90
       50
102
RTVSPost2010PropOp47
 70
     1
102
RTVSPost2010Prop48
 90
       50
102
RTVSPost2010PropOp48
 70
     1
102
RTVSPost2010Prop49
280
     0
102
RTVSPost2010PropOp49
 70
     1
102
RTVSPost2010Prop50
 90
       50
102
RTVSPost2010PropOp50
 70
     1
102
RTVSPost2010Prop51ColorIndex
 90
      256
102
RTVSPost2010Prop51ColorRGB
 90
-16777216
102
RTVSPost2010PropOp51
 70
     0
102
RTVSPost2010Prop52
140
1.0
102
RTVSPost2010PropOp52
 70
     0
102
RTVSPost2010Prop53
 90
        2
102
RTVSPost2010PropOp53
 70
     1
102
RTVSPost2010Prop54
  1
strokes_ogs.tif
102
RTVSPost2010PropOp54
 70
     1
102
RTVSPost2010Prop55
280
     0
102
RTVSPost2010PropOp55
 70
     1
102
RTVSPost2010Prop56
140
1.0
102
RTVSPost2010PropOp56
 70
     1
102
RTVSPost2010Prop57
140
1.0
102
RTVSPost2010PropOp57
 70
     1
  0
XRECORD
  5
F4
102
{ACAD_REACTORS
330
F3
102
}
330
F3
100
AcDbXrecord
280
     1
102
RTVSPost2010Prop28
280
     0
102
RTVSPost2010PropOp28
 70
     1
102
RTVSPost2010Prop29
280
     1
102
RTVSPost2010PropOp29
 70
     1
102
RTVSPost2010Prop30
280
     1
102
RTVSPost2010PropOp30
 70
     1
102
RTVSPost2010Prop31
280
     0
102
RTVSPost2010PropOp31
 70
     1
102
RTVSPost2010Prop32
280
     0
102
RTVSPost2010PropOp32
 70
     1
102
RTVSPost2010Prop33
280
     0
102
RTVSPost2010PropOp33
 70
     1
102
RTVSPost2010Prop34
280
     0
102
RTVSPost2010PropOp34
 70
     1
102
RTVSPost2010Prop35
280
     0
102
RTVSPost2010PropOp35
 70
     1
102
RTVSPost2010Prop36
280
     0
102
RTVSPost2010PropOp36
 70
     1
102
RTVSPost2010Prop37
 90
       50
102
RTVSPost2010PropOp37
 70
     1
102
RTVSPost2010Prop38
140
0.0
102
RTVSPost2010PropOp38
 70
     1
102
RTVSPost2010Prop39
140
1.0
102
RTVSPost2010PropOp39
 70
     1
102
RTVSPost2010Prop40
 90
        0
102
RTVSPost2010PropOp40
 70
     1
102
RTVSPost2010Prop41ColorIndex
 90
       18
102
RTVSPost2010Prop41ColorRGB
 90
        0
102
RTVSPost2010PropOp41
 70
     1
102
RTVSPost2010Prop42
 90
       50
102
RTVSPost2010PropOp42
 70
     1
102
RTVSPost2010Prop43
 90
        3
102
RTVSPost2010PropOp43
 70
     1
102
RTVSPost2010Prop44ColorIndex
 90
        5
102
RTVSPost2010Prop44ColorRGB
 90
      255
102
RTVSPost2010PropOp44
 70
     1
102
RTVSPost2010Prop45
280
     0
102
RTVSPost2010PropOp45
 70
     1
102
RTVSPost2010Prop46
 90
       50
102
RTVSPost2010PropOp46
 70
     1
102
RTVSPost2010Prop47
 90
       50
102
RTVSPost2010PropOp47
 70
     1
102
RTVSPost2010Prop48
 90
       50
102
RTVSPost2010PropOp48
 70
     1
102
RTVSPost2010Prop49
280
     0
102
RTVSPost2010PropOp49
 70
     1
102
RTVSPost2010Prop50
 90
       50
102
RTVSPost2010PropOp50
 70
     1
102
RTVSPost2010Prop51ColorIndex
 90
      256
102
RTVSPost2010Prop51ColorRGB
 90
-16777216
102
RTVSPost2010PropOp51
 70
     0
102
RTVSPost2010Prop52
140
1.0
102
RTVSPost2010PropOp52
 70
     0
102
RTVSPost2010Prop53
 90
        2
102
RTVSPost2010PropOp53
 70
     1
102
RTVSPost2010Prop54
  1
strokes_ogs.tif
102
RTVSPost2010PropOp54
 70
     1
102
RTVSPost2010Prop55
280
     0
102
RTVSPost2010PropOp55
 70
     1
102
RTVSPost2010Prop56
140
1.0
102
RTVSPost2010PropOp56
 70
     1
102
RTVSPost2010Prop57
140
1.0
102
RTVSPost2010PropOp57
 70
     1
  0
XRECORD
  5
FC
102
{ACAD_REACTORS
330
FB
102
}
330
FB
100
AcDbXrecord
280
     1
102
RTVSPost2010Prop28
280
     0
102
RTVSPost2010PropOp28
 70
     1
102
RTVSPost2010Prop29
280
     1
102
RTVSPost2010PropOp29
 70
     1
102
RTVSPost2010Prop30
280
     1
102
RTVSPost2010PropOp30
 70
     1
102
RTVSPost2010Prop31
280
     0
102
RTVSPost2010PropOp31
 70
     1
102
RTVSPost2010Prop32
280
     0
102
RTVSPost2010PropOp32
 70
     1
102
RTVSPost2010Prop33
280
     0
102
RTVSPost2010PropOp33
 70
     1
102
RTVSPost2010Prop34
280
     0
102
RTVSPost2010PropOp34
 70
     1
102
RTVSPost2010Prop35
280
     0
102
RTVSPost2010PropOp35
 70
     1
102
RTVSPost2010Prop36
280
     0
102
RTVSPost2010PropOp36
 70
     1
102
RTVSPost2010Prop37
 90
       50
102
RTVSPost2010PropOp37
 70
     1
102
RTVSPost2010Prop38
140
0.0
102
RTVSPost2010PropOp38
 70
     1
102
RTVSPost2010Prop39
140
1.0
102
RTVSPost2010PropOp39
 70
     1
102
RTVSPost2010Prop40
 90
        0
102
RTVSPost2010PropOp40
 70
     1
102
RTVSPost2010Prop41ColorIndex
 90
       18
102
RTVSPost2010Prop41ColorRGB
 90
        0
102
RTVSPost2010PropOp41
 70
     1
102
RTVSPost2010Prop42
 90
       50
102
RTVSPost2010PropOp42
 70
     1
102
RTVSPost2010Prop43
 90
        3
102
RTVSPost2010PropOp43
 70
     1
102
RTVSPost2010Prop44ColorIndex
 90
        5
102
RTVSPost2010Prop44ColorRGB
 90
      255
102
RTVSPost2010PropOp44
 70
     1
102
RTVSPost2010Prop45
280
     0
102
RTVSPost2010PropOp45
 70
     1
102
RTVSPost2010Prop46
 90
       50
102
RTVSPost2010PropOp46
 70
     1
102
RTVSPost2010Prop47
 90
       50
102
RTVSPost2010PropOp47
 70
     1
102
RTVSPost2010Prop48
 90
       50
102
RTVSPost2010PropOp48
 70
     1
102
RTVSPost2010Prop49
280
     0
102
RTVSPost2010PropOp49
 70
     1
102
RTVSPost2010Prop50
 90
       50
102
RTVSPost2010PropOp50
 70
     1
102
RTVSPost2010Prop51ColorIndex
 90
      256
102
RTVSPost2010Prop51ColorRGB
 90
-16777216
102
RTVSPost2010PropOp51
 70
     0
102
RTVSPost2010Prop52
140
1.0
102
RTVSPost2010PropOp52
 70
     0
102
RTVSPost2010Prop53
 90
        2
102
RTVSPost2010PropOp53
 70
     1
102
RTVSPost2010Prop54
  1
strokes_ogs.tif
102
RTVSPost2010PropOp54
 70
     1
102
RTVSPost2010Prop55
280
     0
102
RTVSPost2010PropOp55
 70
     1
102
RTVSPost2010Prop56
140
1.0
102
RTVSPost2010PropOp56
 70
     1
102
RTVSPost2010Prop57
140
1.0
102
RTVSPost2010PropOp57
 70
     1
  0
XRECORD
  5
118
102
{ACAD_REACTORS
330
117
102
}
330
117
100
AcDbXrecord
280
     1
102
RTVSPost2010Prop28
280
     0
102
RTVSPost2010PropOp28
 70
     0
102
RTVSPost2010Prop29
280
     1
102
RTVSPost2010PropOp29
 70
     0
102
RTVSPost2010Prop30
280
     1
102
RTVSPost2010PropOp30
 70
     0
102
RTVSPost2010Prop31
280
     0
102
RTVSPost2010PropOp31
 70
     0
102
RTVSPost2010Prop32
280
     0
102
RTVSPost2010PropOp32
 70
     0
102
RTVSPost2010Prop33
280
     0
102
RTVSPost2010PropOp33
 70
     0
102
RTVSPost2010Prop34
280
     0
102
RTVSPost2010PropOp34
 70
     0
102
RTVSPost2010Prop35
280
     0
102
RTVSPost2010PropOp35
 70
     0
102
RTVSPost2010Prop36
280
     0
102
RTVSPost2010PropOp36
 70
     0
102
RTVSPost2010Prop37
 90
       50
102
RTVSPost2010PropOp37
 70
     0
102
RTVSPost2010Prop38
140
0.0
102
RTVSPost2010PropOp38
 70
     0
102
RTVSPost2010Prop39
140
1.0
102
RTVSPost2010PropOp39
 70
     0
102
RTVSPost2010Prop40
 90
        0
102
RTVSPost2010PropOp40
 70
     0
102
RTVSPost2010Prop41ColorIndex
 90
       18
102
RTVSPost2010Prop41ColorRGB
 90
        0
102
RTVSPost2010PropOp41
 70
     0
102
RTVSPost2010Prop42
 90
       50
102
RTVSPost2010PropOp42
 70
     0
102
RTVSPost2010Prop43
 90
        3
102
RTVSPost2010PropOp43
 70
     0
102
RTVSPost2010Prop44ColorIndex
 90
        5
102
RTVSPost2010Prop44ColorRGB
 90
      255
102
RTVSPost2010PropOp44
 70
     0
102
RTVSPost2010Prop45
280
     0
102
RTVSPost2010PropOp45
 70
     0
102
RTVSPost2010Prop46
 90
       50
102
RTVSPost2010PropOp46
 70
     0
102
RTVSPost2010Prop47
 90
       50
102
RTVSPost2010PropOp47
 70
     0
102
RTVSPost2010Prop48
 90
       50
102
RTVSPost2010PropOp48
 70
     0
102
RTVSPost2010Prop49
280
     0
102
RTVSPost2010PropOp49
 70
     0
102
RTVSPost2010Prop50
 90
       50
102
RTVSPost2010PropOp50
 70
     0
102
RTVSPost2010Prop51ColorIndex
 90
      256
102
RTVSPost2010Prop51ColorRGB
 90
-16777216
102
RTVSPost2010PropOp51
 70
     0
102
RTVSPost2010Prop52
140
1.0
102
RTVSPost2010PropOp52
 70
     0
102
RTVSPost2010Prop53
 90
        2
102
RTVSPost2010PropOp53
 70
     0
102
RTVSPost2010Prop54
  1
strokes_ogs.tif
102
RTVSPost2010PropOp54
 70
     0
102
RTVSPost2010Prop55
280
     0
102
RTVSPost2010PropOp55
 70
     0
102
RTVSPost2010Prop56
140
1.0
102
RTVSPost2010PropOp56
 70
     0
102
RTVSPost2010Prop57
140
1.0
102
RTVSPost2010PropOp57
 70
     0
  0
XRECORD
  5
108
102
{ACAD_REACTORS
330
107
102
}
330
107
100
AcDbXrecord
280
     1
102
RTVSPost2010Prop28
280
     0
102
RTVSPost2010PropOp28
 70
     1
102
RTVSPost2010Prop29
280
     1
102
RTVSPost2010PropOp29
 70
     1
102
RTVSPost2010Prop30
280
     1
102
RTVSPost2010PropOp30
 70
     1
102
RTVSPost2010Prop31
280
     0
102
RTVSPost2010PropOp31
 70
     1
102
RTVSPost2010Prop32
280
     0
102
RTVSPost2010PropOp32
 70
     1
102
RTVSPost2010Prop33
280
     0
102
RTVSPost2010PropOp33
 70
     1
102
RTVSPost2010Prop34
280
     0
102
RTVSPost2010PropOp34
 70
     1
102
RTVSPost2010Prop35
280
     0
102
RTVSPost2010PropOp35
 70
     1
102
RTVSPost2010Prop36
280
     0
102
RTVSPost2010PropOp36
 70
     1
102
RTVSPost2010Prop37
 90
       50
102
RTVSPost2010PropOp37
 70
     1
102
RTVSPost2010Prop38
140
0.0
102
RTVSPost2010PropOp38
 70
     1
102
RTVSPost2010Prop39
140
1.0
102
RTVSPost2010PropOp39
 70
     1
102
RTVSPost2010Prop40
 90
        0
102
RTVSPost2010PropOp40
 70
     1
102
RTVSPost2010Prop41ColorIndex
 90
       18
102
RTVSPost2010Prop41ColorRGB
 90
        0
102
RTVSPost2010PropOp41
 70
     1
102
RTVSPost2010Prop42
 90
       50
102
RTVSPost2010PropOp42
 70
     1
102
RTVSPost2010Prop43
 90
        3
102
RTVSPost2010PropOp43
 70
     1
102
RTVSPost2010Prop44ColorIndex
 90
        5
102
RTVSPost2010Prop44ColorRGB
 90
      255
102
RTVSPost2010PropOp44
 70
     1
102
RTVSPost2010Prop45
280
     0
102
RTVSPost2010PropOp45
 70
     1
102
RTVSPost2010Prop46
 90
       50
102
RTVSPost2010PropOp46
 70
     1
102
RTVSPost2010Prop47
 90
       50
102
RTVSPost2010PropOp47
 70
     1
102
RTVSPost2010Prop48
 90
       50
102
RTVSPost2010PropOp48
 70
     1
102
RTVSPost2010Prop49
280
     0
102
RTVSPost2010PropOp49
 70
     1
102
RTVSPost2010Prop50
 90
       50
102
RTVSPost2010PropOp50
 70
     1
102
RTVSPost2010Prop51ColorIndex
 90
      256
102
RTVSPost2010Prop51ColorRGB
 90
-16777216
102
RTVSPost2010PropOp51
 70
     0
102
RTVSPost2010Prop52
140
1.0
102
RTVSPost2010PropOp52
 70
     0
102
RTVSPost2010Prop53
 90
        2
102
RTVSPost2010PropOp53
 70
     1
102
RTVSPost2010Prop54
  1
strokes_ogs.tif
102
RTVSPost2010PropOp54
 70
     1
102
RTVSPost2010Prop55
280
     0
102
RTVSPost2010PropOp55
 70
     1
102
RTVSPost2010Prop56
140
1.0
102
RTVSPost2010PropOp56
 70
     1
102
RTVSPost2010Prop57
140
1.0
102
RTVSPost2010PropOp57
 70
     1
  0
XRECORD
  5
11A
102
{ACAD_REACTORS
330
119
102
}
330
119
100
AcDbXrecord
280
     1
102
RTVSPost2010Prop28
280
     0
102
RTVSPost2010PropOp28
 70
     0
102
RTVSPost2010Prop29
280
     1
102
RTVSPost2010PropOp29
 70
     0
102
RTVSPost2010Prop30
280
     1
102
RTVSPost2010PropOp30
 70
     0
102
RTVSPost2010Prop31
280
     0
102
RTVSPost2010PropOp31
 70
     0
102
RTVSPost2010Prop32
280
     0
102
RTVSPost2010PropOp32
 70
     0
102
RTVSPost2010Prop33
280
     0
102
RTVSPost2010PropOp33
 70
     0
102
RTVSPost2010Prop34
280
     0
102
RTVSPost2010PropOp34
 70
     0
102
RTVSPost2010Prop35
280
     0
102
RTVSPost2010PropOp35
 70
     0
102
RTVSPost2010Prop36
280
     0
102
RTVSPost2010PropOp36
 70
     0
102
RTVSPost2010Prop37
 90
       50
102
RTVSPost2010PropOp37
 70
     0
102
RTVSPost2010Prop38
140
0.0
102
RTVSPost2010PropOp38
 70
     0
102
RTVSPost2010Prop39
140
1.0
102
RTVSPost2010PropOp39
 70
     0
102
RTVSPost2010Prop40
 90
        0
102
RTVSPost2010PropOp40
 70
     0
102
RTVSPost2010Prop41ColorIndex
 90
       18
102
RTVSPost2010Prop41ColorRGB
 90
        0
102
RTVSPost2010PropOp41
 70
     0
102
RTVSPost2010Prop42
 90
       50
102
RTVSPost2010PropOp42
 70
     0
102
RTVSPost2010Prop43
 90
        3
102
RTVSPost2010PropOp43
 70
     0
102
RTVSPost2010Prop44ColorIndex
 90
        5
102
RTVSPost2010Prop44ColorRGB
 90
      255
102
RTVSPost2010PropOp44
 70
     0
102
RTVSPost2010Prop45
280
     0
102
RTVSPost2010PropOp45
 70
     0
102
RTVSPost2010Prop46
 90
       50
102
RTVSPost2010PropOp46
 70
     0
102
RTVSPost2010Prop47
 90
       50
102
RTVSPost2010PropOp47
 70
     0
102
RTVSPost2010Prop48
 90
       50
102
RTVSPost2010PropOp48
 70
     0
102
RTVSPost2010Prop49
280
     0
102
RTVSPost2010PropOp49
 70
     0
102
RTVSPost2010Prop50
 90
       50
102
RTVSPost2010PropOp50
 70
     0
102
RTVSPost2010Prop51ColorIndex
 90
      256
102
RTVSPost2010Prop51ColorRGB
 90
-16777216
102
RTVSPost2010PropOp51
 70
     0
102
RTVSPost2010Prop52
140
1.0
102
RTVSPost2010PropOp52
 70
     0
102
RTVSPost2010Prop53
 90
        2
102
RTVSPost2010PropOp53
 70
     0
102
RTVSPost2010Prop54
  1
strokes_ogs.tif
102
RTVSPost2010PropOp54
 70
     0
102
RTVSPost2010Prop55
280
     0
102
RTVSPost2010PropOp55
 70
     0
102
RTVSPost2010Prop56
140
1.0
102
RTVSPost2010PropOp56
 70
     0
102
RTVSPost2010Prop57
140
1.0
102
RTVSPost2010PropOp57
 70
     0
  0
XRECORD
  5
100
102
{ACAD_REACTORS
330
FF
102
}
330
FF
100
AcDbXrecord
280
     1
102
RTVSPost2010Prop28
280
     0
102
RTVSPost2010PropOp28
 70
     1
102
RTVSPost2010Prop29
280
     1
102
RTVSPost2010PropOp29
 70
     1
102
RTVSPost2010Prop30
280
     1
102
RTVSPost2010PropOp30
 70
     1
102
RTVSPost2010Prop31
280
     0
102
RTVSPost2010PropOp31
 70
     1
102
RTVSPost2010Prop32
280
     0
102
RTVSPost2010PropOp32
 70
     1
102
RTVSPost2010Prop33
280
     0
102
RTVSPost2010PropOp33
 70
     1
102
RTVSPost2010Prop34
280
     0
102
RTVSPost2010PropOp34
 70
     1
102
RTVSPost2010Prop35
280
     0
102
RTVSPost2010PropOp35
 70
     1
102
RTVSPost2010Prop36
280
     0
102
RTVSPost2010PropOp36
 70
     1
102
RTVSPost2010Prop37
 90
       50
102
RTVSPost2010PropOp37
 70
     1
102
RTVSPost2010Prop38
140
0.0
102
RTVSPost2010PropOp38
 70
     1
102
RTVSPost2010Prop39
140
1.0
102
RTVSPost2010PropOp39
 70
     1
102
RTVSPost2010Prop40
 90
        0
102
RTVSPost2010PropOp40
 70
     1
102
RTVSPost2010Prop41ColorIndex
 90
       18
102
RTVSPost2010Prop41ColorRGB
 90
        0
102
RTVSPost2010PropOp41
 70
     1
102
RTVSPost2010Prop42
 90
       50
102
RTVSPost2010PropOp42
 70
     1
102
RTVSPost2010Prop43
 90
        3
102
RTVSPost2010PropOp43
 70
     1
102
RTVSPost2010Prop44ColorIndex
 90
        5
102
RTVSPost2010Prop44ColorRGB
 90
      255
102
RTVSPost2010PropOp44
 70
     1
102
RTVSPost2010Prop45
280
     0
102
RTVSPost2010PropOp45
 70
     1
102
RTVSPost2010Prop46
 90
       50
102
RTVSPost2010PropOp46
 70
     1
102
RTVSPost2010Prop47
 90
       50
102
RTVSPost2010PropOp47
 70
     1
102
RTVSPost2010Prop48
 90
       50
102
RTVSPost2010PropOp48
 70
     1
102
RTVSPost2010Prop49
280
     0
102
RTVSPost2010PropOp49
 70
     1
102
RTVSPost2010Prop50
 90
       50
102
RTVSPost2010PropOp50
 70
     1
102
RTVSPost2010Prop51ColorIndex
 90
      256
102
RTVSPost2010Prop51ColorRGB
 90
-16777216
102
RTVSPost2010PropOp51
 70
     0
102
RTVSPost2010Prop52
140
1.0
102
RTVSPost2010PropOp52
 70
     0
102
RTVSPost2010Prop53
 90
        2
102
RTVSPost2010PropOp53
 70
     1
102
RTVSPost2010Prop54
  1
strokes_ogs.tif
102
RTVSPost2010PropOp54
 70
     1
102
RTVSPost2010Prop55
280
     0
102
RTVSPost2010PropOp55
 70
     1
102
RTVSPost2010Prop56
140
1.0
102
RTVSPost2010PropOp56
 70
     1
102
RTVSPost2010Prop57
140
1.0
102
RTVSPost2010PropOp57
 70
     1
  0
XRECORD
  5
116
102
{ACAD_REACTORS
330
115
102
}
330
115
100
AcDbXrecord
280
     1
102
RTVSPost2010Prop28
280
     0
102
RTVSPost2010PropOp28
 70
     1
102
RTVSPost2010Prop29
280
     1
102
RTVSPost2010PropOp29
 70
     1
102
RTVSPost2010Prop30
280
     1
102
RTVSPost2010PropOp30
 70
     1
102
RTVSPost2010Prop31
280
     0
102
RTVSPost2010PropOp31
 70
     1
102
RTVSPost2010Prop32
280
     0
102
RTVSPost2010PropOp32
 70
     1
102
RTVSPost2010Prop33
280
     0
102
RTVSPost2010PropOp33
 70
     1
102
RTVSPost2010Prop34
280
     0
102
RTVSPost2010PropOp34
 70
     1
102
RTVSPost2010Prop35
280
     0
102
RTVSPost2010PropOp35
 70
     1
102
RTVSPost2010Prop36
280
     0
102
RTVSPost2010PropOp36
 70
     1
102
RTVSPost2010Prop37
 90
       50
102
RTVSPost2010PropOp37
 70
     1
102
RTVSPost2010Prop38
140
0.0
102
RTVSPost2010PropOp38
 70
     1
102
RTVSPost2010Prop39
140
1.0
102
RTVSPost2010PropOp39
 70
     1
102
RTVSPost2010Prop40
 90
        0
102
RTVSPost2010PropOp40
 70
     1
102
RTVSPost2010Prop41ColorIndex
 90
       18
102
RTVSPost2010Prop41ColorRGB
 90
        0
102
RTVSPost2010PropOp41
 70
     1
102
RTVSPost2010Prop42
 90
       50
102
RTVSPost2010PropOp42
 70
     1
102
RTVSPost2010Prop43
 90
        3
102
RTVSPost2010PropOp43
 70
     1
102
RTVSPost2010Prop44ColorIndex
 90
        5
102
RTVSPost2010Prop44ColorRGB
 90
      255
102
RTVSPost2010PropOp44
 70
     1
102
RTVSPost2010Prop45
280
     0
102
RTVSPost2010PropOp45
 70
     1
102
RTVSPost2010Prop46
 90
       50
102
RTVSPost2010PropOp46
 70
     1
102
RTVSPost2010Prop47
 90
       50
102
RTVSPost2010PropOp47
 70
     1
102
RTVSPost2010Prop48
 90
       50
102
RTVSPost2010PropOp48
 70
     1
102
RTVSPost2010Prop49
280
     0
102
RTVSPost2010PropOp49
 70
     1
102
RTVSPost2010Prop50
 90
       50
102
RTVSPost2010PropOp50
 70
     1
102
RTVSPost2010Prop51ColorIndex
 90
      256
102
RTVSPost2010Prop51ColorRGB
 90
-16777216
102
RTVSPost2010PropOp51
 70
     0
102
RTVSPost2010Prop52
140
1.0
102
RTVSPost2010PropOp52
 70
     0
102
RTVSPost2010Prop53
 90
        2
102
RTVSPost2010PropOp53
 70
     1
102
RTVSPost2010Prop54
  1
strokes_ogs.tif
102
RTVSPost2010PropOp54
 70
     1
102
RTVSPost2010Prop55
280
     0
102
RTVSPost2010PropOp55
 70
     1
102
RTVSPost2010Prop56
140
1.0
102
RTVSPost2010PropOp56
 70
     1
102
RTVSPost2010Prop57
140
1.0
102
RTVSPost2010PropOp57
 70
     1
  0
XRECORD
  5
114
102
{ACAD_REACTORS
330
113
102
}
330
113
100
AcDbXrecord
280
     1
102
RTVSPost2010Prop28
280
     0
102
RTVSPost2010PropOp28
 70
     1
102
RTVSPost2010Prop29
280
     1
102
RTVSPost2010PropOp29
 70
     1
102
RTVSPost2010Prop30
280
     1
102
RTVSPost2010PropOp30
 70
     1
102
RTVSPost2010Prop31
280
     0
102
RTVSPost2010PropOp31
 70
     1
102
RTVSPost2010Prop32
280
     0
102
RTVSPost2010PropOp32
 70
     1
102
RTVSPost2010Prop33
280
     0
102
RTVSPost2010PropOp33
 70
     1
102
RTVSPost2010Prop34
280
     0
102
RTVSPost2010PropOp34
 70
     1
102
RTVSPost2010Prop35
280
     0
102
RTVSPost2010PropOp35
 70
     1
102
RTVSPost2010Prop36
280
     0
102
RTVSPost2010PropOp36
 70
     1
102
RTVSPost2010Prop37
 90
       50
102
RTVSPost2010PropOp37
 70
     1
102
RTVSPost2010Prop38
140
0.0
102
RTVSPost2010PropOp38
 70
     1
102
RTVSPost2010Prop39
140
1.0
102
RTVSPost2010PropOp39
 70
     1
102
RTVSPost2010Prop40
 90
        0
102
RTVSPost2010PropOp40
 70
     1
102
RTVSPost2010Prop41ColorIndex
 90
       18
102
RTVSPost2010Prop41ColorRGB
 90
        0
102
RTVSPost2010PropOp41
 70
     1
102
RTVSPost2010Prop42
 90
       50
102
RTVSPost2010PropOp42
 70
     1
102
RTVSPost2010Prop43
 90
        3
102
RTVSPost2010PropOp43
 70
     1
102
RTVSPost2010Prop44ColorIndex
 90
        5
102
RTVSPost2010Prop44ColorRGB
 90
      255
102
RTVSPost2010PropOp44
 70
     1
102
RTVSPost2010Prop45
280
     0
102
RTVSPost2010PropOp45
 70
     1
102
RTVSPost2010Prop46
 90
       50
102
RTVSPost2010PropOp46
 70
     1
102
RTVSPost2010Prop47
 90
       50
102
RTVSPost2010PropOp47
 70
     1
102
RTVSPost2010Prop48
 90
       50
102
RTVSPost2010PropOp48
 70
     1
102
RTVSPost2010Prop49
280
     0
102
RTVSPost2010PropOp49
 70
     1
102
RTVSPost2010Prop50
 90
       50
102
RTVSPost2010PropOp50
 70
     1
102
RTVSPost2010Prop51ColorIndex
 90
      256
102
RTVSPost2010Prop51ColorRGB
 90
-16777216
102
RTVSPost2010PropOp51
 70
     0
102
RTVSPost2010Prop52
140
1.0
102
RTVSPost2010PropOp52
 70
     0
102
RTVSPost2010Prop53
 90
        2
102
RTVSPost2010PropOp53
 70
     1
102
RTVSPost2010Prop54
  1
strokes_ogs.tif
102
RTVSPost2010PropOp54
 70
     1
102
RTVSPost2010Prop55
280
     0
102
RTVSPost2010PropOp55
 70
     1
102
RTVSPost2010Prop56
140
1.0
102
RTVSPost2010PropOp56
 70
     1
102
RTVSPost2010Prop57
140
1.0
102
RTVSPost2010PropOp57
 70
     1
  0
XRECORD
  5
10E
102
{ACAD_REACTORS
330
10D
102
}
330
10D
100
AcDbXrecord
280
     1
102
RTVSPost2010Prop28
280
     0
102
RTVSPost2010PropOp28
 70
     1
102
RTVSPost2010Prop29
280
     1
102
RTVSPost2010PropOp29
 70
     1
102
RTVSPost2010Prop30
280
     1
102
RTVSPost2010PropOp30
 70
     1
102
RTVSPost2010Prop31
280
     0
102
RTVSPost2010PropOp31
 70
     1
102
RTVSPost2010Prop32
280
     0
102
RTVSPost2010PropOp32
 70
     1
102
RTVSPost2010Prop33
280
     0
102
RTVSPost2010PropOp33
 70
     1
102
RTVSPost2010Prop34
280
     0
102
RTVSPost2010PropOp34
 70
     1
102
RTVSPost2010Prop35
280
     0
102
RTVSPost2010PropOp35
 70
     1
102
RTVSPost2010Prop36
280
     0
102
RTVSPost2010PropOp36
 70
     1
102
RTVSPost2010Prop37
 90
       50
102
RTVSPost2010PropOp37
 70
     1
102
RTVSPost2010Prop38
140
0.0
102
RTVSPost2010PropOp38
 70
     1
102
RTVSPost2010Prop39
140
1.0
102
RTVSPost2010PropOp39
 70
     1
102
RTVSPost2010Prop40
 90
        0
102
RTVSPost2010PropOp40
 70
     1
102
RTVSPost2010Prop41ColorIndex
 90
       18
102
RTVSPost2010Prop41ColorRGB
 90
        0
102
RTVSPost2010PropOp41
 70
     1
102
RTVSPost2010Prop42
 90
       50
102
RTVSPost2010PropOp42
 70
     1
102
RTVSPost2010Prop43
 90
        3
102
RTVSPost2010PropOp43
 70
     1
102
RTVSPost2010Prop44ColorIndex
 90
        5
102
RTVSPost2010Prop44ColorRGB
 90
      255
102
RTVSPost2010PropOp44
 70
     1
102
RTVSPost2010Prop45
280
     0
102
RTVSPost2010PropOp45
 70
     1
102
RTVSPost2010Prop46
 90
       50
102
RTVSPost2010PropOp46
 70
     1
102
RTVSPost2010Prop47
 90
       50
102
RTVSPost2010PropOp47
 70
     1
102
RTVSPost2010Prop48
 90
       50
102
RTVSPost2010PropOp48
 70
     1
102
RTVSPost2010Prop49
280
     0
102
RTVSPost2010PropOp49
 70
     1
102
RTVSPost2010Prop50
 90
       50
102
RTVSPost2010PropOp50
 70
     1
102
RTVSPost2010Prop51ColorIndex
 90
      256
102
RTVSPost2010Prop51ColorRGB
 90
-16777216
102
RTVSPost2010PropOp51
 70
     0
102
RTVSPost2010Prop52
140
1.0
102
RTVSPost2010PropOp52
 70
     0
102
RTVSPost2010Prop53
 90
        2
102
RTVSPost2010PropOp53
 70
     1
102
RTVSPost2010Prop54
  1
strokes_ogs.tif
102
RTVSPost2010PropOp54
 70
     1
102
RTVSPost2010Prop55
280
     0
102
RTVSPost2010PropOp55
 70
     1
102
RTVSPost2010Prop56
140
1.0
102
RTVSPost2010PropOp56
 70
     1
102
RTVSPost2010Prop57
140
1.0
102
RTVSPost2010PropOp57
 70
     1
  0
XRECORD
  5
110
102
{ACAD_REACTORS
330
10F
102
}
330
10F
100
AcDbXrecord
280
     1
102
RTVSPost2010Prop28
280
     0
102
RTVSPost2010PropOp28
 70
     1
102
RTVSPost2010Prop29
280
     1
102
RTVSPost2010PropOp29
 70
     1
102
RTVSPost2010Prop30
280
     1
102
RTVSPost2010PropOp30
 70
     1
102
RTVSPost2010Prop31
280
     0
102
RTVSPost2010PropOp31
 70
     1
102
RTVSPost2010Prop32
280
     0
102
RTVSPost2010PropOp32
 70
     1
102
RTVSPost2010Prop33
280
     0
102
RTVSPost2010PropOp33
 70
     1
102
RTVSPost2010Prop34
280
     0
102
RTVSPost2010PropOp34
 70
     1
102
RTVSPost2010Prop35
280
     0
102
RTVSPost2010PropOp35
 70
     1
102
RTVSPost2010Prop36
280
     0
102
RTVSPost2010PropOp36
 70
     1
102
RTVSPost2010Prop37
 90
       50
102
RTVSPost2010PropOp37
 70
     1
102
RTVSPost2010Prop38
140
0.0
102
RTVSPost2010PropOp38
 70
     1
102
RTVSPost2010Prop39
140
1.0
102
RTVSPost2010PropOp39
 70
     1
102
RTVSPost2010Prop40
 90
        0
102
RTVSPost2010PropOp40
 70
     1
102
RTVSPost2010Prop41ColorIndex
 90
       18
102
RTVSPost2010Prop41ColorRGB
 90
        0
102
RTVSPost2010PropOp41
 70
     1
102
RTVSPost2010Prop42
 90
       50
102
RTVSPost2010PropOp42
 70
     1
102
RTVSPost2010Prop43
 90
        3
102
RTVSPost2010PropOp43
 70
     1
102
RTVSPost2010Prop44ColorIndex
 90
        5
102
RTVSPost2010Prop44ColorRGB
 90
      255
102
RTVSPost2010PropOp44
 70
     1
102
RTVSPost2010Prop45
280
     0
102
RTVSPost2010PropOp45
 70
     1
102
RTVSPost2010Prop46
 90
       50
102
RTVSPost2010PropOp46
 70
     1
102
RTVSPost2010Prop47
 90
       50
102
RTVSPost2010PropOp47
 70
     1
102
RTVSPost2010Prop48
 90
       50
102
RTVSPost2010PropOp48
 70
     1
102
RTVSPost2010Prop49
280
     0
102
RTVSPost2010PropOp49
 70
     1
102
RTVSPost2010Prop50
 90
       50
102
RTVSPost2010PropOp50
 70
     1
102
RTVSPost2010Prop51ColorIndex
 90
      256
102
RTVSPost2010Prop51ColorRGB
 90
-16777216
102
RTVSPost2010PropOp51
 70
     0
102
RTVSPost2010Prop52
140
1.0
102
RTVSPost2010PropOp52
 70
     0
102
RTVSPost2010Prop53
 90
        2
102
RTVSPost2010PropOp53
 70
     1
102
RTVSPost2010Prop54
  1
strokes_ogs.tif
102
RTVSPost2010PropOp54
 70
     1
102
RTVSPost2010Prop55
280
     0
102
RTVSPost2010PropOp55
 70
     1
102
RTVSPost2010Prop56
140
1.0
102
RTVSPost2010PropOp56
 70
     1
102
RTVSPost2010Prop57
140
1.0
102
RTVSPost2010PropOp57
 70
     1
  0
XRECORD
  5
106
102
{ACAD_REACTORS
330
105
102
}
330
105
100
AcDbXrecord
280
     1
102
RTVSPost2010Prop28
280
     0
102
RTVSPost2010PropOp28
 70
     1
102
RTVSPost2010Prop29
280
     1
102
RTVSPost2010PropOp29
 70
     1
102
RTVSPost2010Prop30
280
     1
102
RTVSPost2010PropOp30
 70
     1
102
RTVSPost2010Prop31
280
     0
102
RTVSPost2010PropOp31
 70
     1
102
RTVSPost2010Prop32
280
     0
102
RTVSPost2010PropOp32
 70
     1
102
RTVSPost2010Prop33
280
     0
102
RTVSPost2010PropOp33
 70
     1
102
RTVSPost2010Prop34
280
     0
102
RTVSPost2010PropOp34
 70
     1
102
RTVSPost2010Prop35
280
     0
102
RTVSPost2010PropOp35
 70
     1
102
RTVSPost2010Prop36
280
     0
102
RTVSPost2010PropOp36
 70
     1
102
RTVSPost2010Prop37
 90
       50
102
RTVSPost2010PropOp37
 70
     1
102
RTVSPost2010Prop38
140
0.0
102
RTVSPost2010PropOp38
 70
     1
102
RTVSPost2010Prop39
140
1.0
102
RTVSPost2010PropOp39
 70
     1
102
RTVSPost2010Prop40
 90
        0
102
RTVSPost2010PropOp40
 70
     1
102
RTVSPost2010Prop41ColorIndex
 90
       18
102
RTVSPost2010Prop41ColorRGB
 90
        0
102
RTVSPost2010PropOp41
 70
     1
102
RTVSPost2010Prop42
 90
       50
102
RTVSPost2010PropOp42
 70
     1
102
RTVSPost2010Prop43
 90
        3
102
RTVSPost2010PropOp43
 70
     1
102
RTVSPost2010Prop44ColorIndex
 90
        5
102
RTVSPost2010Prop44ColorRGB
 90
      255
102
RTVSPost2010PropOp44
 70
     1
102
RTVSPost2010Prop45
280
     0
102
RTVSPost2010PropOp45
 70
     1
102
RTVSPost2010Prop46
 90
       50
102
RTVSPost2010PropOp46
 70
     1
102
RTVSPost2010Prop47
 90
       50
102
RTVSPost2010PropOp47
 70
     1
102
RTVSPost2010Prop48
 90
       50
102
RTVSPost2010PropOp48
 70
     1
102
RTVSPost2010Prop49
280
     0
102
RTVSPost2010PropOp49
 70
     1
102
RTVSPost2010Prop50
 90
       50
102
RTVSPost2010PropOp50
 70
     1
102
RTVSPost2010Prop51ColorIndex
 90
      256
102
RTVSPost2010Prop51ColorRGB
 90
-16777216
102
RTVSPost2010PropOp51
 70
     0
102
RTVSPost2010Prop52
140
1.0
102
RTVSPost2010PropOp52
 70
     0
102
RTVSPost2010Prop53
 90
        2
102
RTVSPost2010PropOp53
 70
     1
102
RTVSPost2010Prop54
  1
strokes_ogs.tif
102
RTVSPost2010PropOp54
 70
     1
102
RTVSPost2010Prop55
280
     0
102
RTVSPost2010PropOp55
 70
     1
102
RTVSPost2010Prop56
140
1.0
102
RTVSPost2010PropOp56
 70
     1
102
RTVSPost2010Prop57
140
1.0
102
RTVSPost2010PropOp57
 70
     1
  0
XRECORD
  5
FA
102
{ACAD_REACTORS
330
F9
102
}
330
F9
100
AcDbXrecord
280
     1
102
RTVSPost2010Prop28
280
     0
102
RTVSPost2010PropOp28
 70
     1
102
RTVSPost2010Prop29
280
     1
102
RTVSPost2010PropOp29
 70
     1
102
RTVSPost2010Prop30
280
     1
102
RTVSPost2010PropOp30
 70
     1
102
RTVSPost2010Prop31
280
     0
102
RTVSPost2010PropOp31
 70
     1
102
RTVSPost2010Prop32
280
     0
102
RTVSPost2010PropOp32
 70
     1
102
RTVSPost2010Prop33
280
     0
102
RTVSPost2010PropOp33
 70
     1
102
RTVSPost2010Prop34
280
     0
102
RTVSPost2010PropOp34
 70
     1
102
RTVSPost2010Prop35
280
     0
102
RTVSPost2010PropOp35
 70
     1
102
RTVSPost2010Prop36
280
     0
102
RTVSPost2010PropOp36
 70
     1
102
RTVSPost2010Prop37
 90
       50
102
RTVSPost2010PropOp37
 70
     1
102
RTVSPost2010Prop38
140
0.0
102
RTVSPost2010PropOp38
 70
     1
102
RTVSPost2010Prop39
140
1.0
102
RTVSPost2010PropOp39
 70
     1
102
RTVSPost2010Prop40
 90
        0
102
RTVSPost2010PropOp40
 70
     1
102
RTVSPost2010Prop41ColorIndex
 90
       18
102
RTVSPost2010Prop41ColorRGB
 90
        0
102
RTVSPost2010PropOp41
 70
     1
102
RTVSPost2010Prop42
 90
       50
102
RTVSPost2010PropOp42
 70
     1
102
RTVSPost2010Prop43
 90
        3
102
RTVSPost2010PropOp43
 70
     1
102
RTVSPost2010Prop44ColorIndex
 90
        5
102
RTVSPost2010Prop44ColorRGB
 90
      255
102
RTVSPost2010PropOp44
 70
     1
102
RTVSPost2010Prop45
280
     0
102
RTVSPost2010PropOp45
 70
     1
102
RTVSPost2010Prop46
 90
       50
102
RTVSPost2010PropOp46
 70
     1
102
RTVSPost2010Prop47
 90
       50
102
RTVSPost2010PropOp47
 70
     1
102
RTVSPost2010Prop48
 90
       50
102
RTVSPost2010PropOp48
 70
     1
102
RTVSPost2010Prop49
280
     0
102
RTVSPost2010PropOp49
 70
     1
102
RTVSPost2010Prop50
 90
       50
102
RTVSPost2010PropOp50
 70
     1
102
RTVSPost2010Prop51ColorIndex
 90
      256
102
RTVSPost2010Prop51ColorRGB
 90
-16777216
102
RTVSPost2010PropOp51
 70
     0
102
RTVSPost2010Prop52
140
1.0
102
RTVSPost2010PropOp52
 70
     0
102
RTVSPost2010Prop53
 90
        2
102
RTVSPost2010PropOp53
 70
     1
102
RTVSPost2010Prop54
  1
strokes_ogs.tif
102
RTVSPost2010PropOp54
 70
     1
102
RTVSPost2010Prop55
280
     0
102
RTVSPost2010PropOp55
 70
     1
102
RTVSPost2010Prop56
140
1.0
102
RTVSPost2010PropOp56
 70
     1
102
RTVSPost2010Prop57
140
1.0
102
RTVSPost2010PropOp57
 70
     1
  0
XRECORD
  5
112
102
{ACAD_REACTORS
330
111
102
}
330
111
100
AcDbXrecord
280
     1
102
RTVSPost2010Prop28
280
     0
102
RTVSPost2010PropOp28
 70
     1
102
RTVSPost2010Prop29
280
     1
102
RTVSPost2010PropOp29
 70
     1
102
RTVSPost2010Prop30
280
     1
102
RTVSPost2010PropOp30
 70
     1
102
RTVSPost2010Prop31
280
     0
102
RTVSPost2010PropOp31
 70
     1
102
RTVSPost2010Prop32
280
     0
102
RTVSPost2010PropOp32
 70
     1
102
RTVSPost2010Prop33
280
     0
102
RTVSPost2010PropOp33
 70
     1
102
RTVSPost2010Prop34
280
     0
102
RTVSPost2010PropOp34
 70
     1
102
RTVSPost2010Prop35
280
     0
102
RTVSPost2010PropOp35
 70
     1
102
RTVSPost2010Prop36
280
     0
102
RTVSPost2010PropOp36
 70
     1
102
RTVSPost2010Prop37
 90
       50
102
RTVSPost2010PropOp37
 70
     1
102
RTVSPost2010Prop38
140
0.0
102
RTVSPost2010PropOp38
 70
     1
102
RTVSPost2010Prop39
140
1.0
102
RTVSPost2010PropOp39
 70
     1
102
RTVSPost2010Prop40
 90
        0
102
RTVSPost2010PropOp40
 70
     1
102
RTVSPost2010Prop41ColorIndex
 90
       18
102
RTVSPost2010Prop41ColorRGB
 90
        0
102
RTVSPost2010PropOp41
 70
     1
102
RTVSPost2010Prop42
 90
       50
102
RTVSPost2010PropOp42
 70
     1
102
RTVSPost2010Prop43
 90
        3
102
RTVSPost2010PropOp43
 70
     1
102
RTVSPost2010Prop44ColorIndex
 90
        5
102
RTVSPost2010Prop44ColorRGB
 90
      255
102
RTVSPost2010PropOp44
 70
     1
102
RTVSPost2010Prop45
280
     0
102
RTVSPost2010PropOp45
 70
     1
102
RTVSPost2010Prop46
 90
       50
102
RTVSPost2010PropOp46
 70
     1
102
RTVSPost2010Prop47
 90
       50
102
RTVSPost2010PropOp47
 70
     1
102
RTVSPost2010Prop48
 90
       50
102
RTVSPost2010PropOp48
 70
     1
102
RTVSPost2010Prop49
280
     0
102
RTVSPost2010PropOp49
 70
     1
102
RTVSPost2010Prop50
 90
       50
102
RTVSPost2010PropOp50
 70
     1
102
RTVSPost2010Prop51ColorIndex
 90
      256
102
RTVSPost2010Prop51ColorRGB
 90
-16777216
102
RTVSPost2010PropOp51
 70
     0
102
RTVSPost2010Prop52
140
1.0
102
RTVSPost2010PropOp52
 70
     0
102
RTVSPost2010Prop53
 90
        2
102
RTVSPost2010PropOp53
 70
     1
102
RTVSPost2010Prop54
  1
strokes_ogs.tif
102
RTVSPost2010PropOp54
 70
     1
102
RTVSPost2010Prop55
280
     0
102
RTVSPost2010PropOp55
 70
     1
102
RTVSPost2010Prop56
140
1.0
102
RTVSPost2010PropOp56
 70
     1
102
RTVSPost2010Prop57
140
1.0
102
RTVSPost2010PropOp57
 70
     1
  0
ENDSEC
  0
EOF
