  0
SECTION
  2
HEADER
  9
$ACADVER
  1
AC1024
  9
$ACADMAINTVER
 70
   226
  9
$DWGCODEPAGE
  3
ANSI_1252
  9
$INSBASE
 10
0.0
 20
0.0
 30
0.0
  9
$EXTMIN
 10
1.000000000000000E+20
 20
1.000000000000000E+20
 30
1.000000000000000E+20
  9
$EXTMAX
 10
-1.000000000000000E+20
 20
-1.000000000000000E+20
 30
-1.000000000000000E+20
  9
$LIMMIN
 10
0.0
 20
0.0
  9
$LIMMAX
 10
12.0
 20
9.0
  9
$ORTHOMODE
 70
     0
  9
$REGENMODE
 70
     1
  9
$FILLMODE
 70
     1
  9
$QTEXTMODE
 70
     0
  9
$MIRRTEXT
 70
     0
  9
$LTSCALE
 40
1.0
  9
$ATTMODE
 70
     1
  9
$TEXTSIZE
 40
0.2
  9
$TRACEWID
 40
0.05
  9
$TEXTSTYLE
  7
Standard
  9
$CLAYER
  8
0
  9
$CELTYPE
  6
ByLayer
  9
$CECOLOR
 62
   256
  9
$CELTSCALE
 40
1.0
  9
$DISPSILH
 70
     0
  9
$DIMSCALE
 40
1.0
  9
$DIMASZ
 40
0.18
  9
$DIMEXO
 40
0.0625
  9
$DIMDLI
 40
0.38
  9
$DIMRND
 40
0.0
  9
$DIMDLE
 40
0.0
  9
$DIMEXE
 40
0.18
  9
$DIMTP
 40
0.0
  9
$DIMTM
 40
0.0
  9
$DIMTXT
 40
0.18
  9
$DIMCEN
 40
0.09
  9
$DIMTSZ
 40
0.0
  9
$DIMTOL
 70
     0
  9
$DIMLIM
 70
     0
  9
$DIMTIH
 70
     1
  9
$DIMTOH
 70
     1
  9
$DIMSE1
 70
     0
  9
$DIMSE2
 70
     0
  9
$DIMTAD
 70
     0
  9
$DIMZIN
 70
     0
  9
$DIMBLK
  1

  9
$DIMASO
 70
     1
  9
$DIMSHO
 70
     1
  9
$DIMPOST
  1

  9
$DIMAPOST
  1

  9
$DIMALT
 70
     0
  9
$DIMALTD
 70
     2
  9
$DIMALTF
 40
25.4
  9
$DIMLFAC
 40
1.0
  9
$DIMTOFL
 70
     0
  9
$DIMTVP
 40
0.0
  9
$DIMTIX
 70
     0
  9
$DIMSOXD
 70
     0
  9
$DIMSAH
 70
     0
  9
$DIMBLK1
  1

  9
$DIMBLK2
  1

  9
$DIMSTYLE
  2
Standard
  9
$DIMCLRD
 70
     0
  9
$DIMCLRE
 70
     0
  9
$DIMCLRT
 70
     0
  9
$DIMTFAC
 40
1.0
  9
$DIMGAP
 40
0.09
  9
$DIMJUST
 70
     0
  9
$DIMSD1
 70
     0
  9
$DIMSD2
 70
     0
  9
$DIMTOLJ
 70
     1
  9
$DIMTZIN
 70
     0
  9
$DIMALTZ
 70
     0
  9
$DIMALTTZ
 70
     0
  9
$DIMUPT
 70
     0
  9
$DIMDEC
 70
     4
  9
$DIMTDEC
 70
     4
  9
$DIMALTU
 70
     2
  9
$DIMALTTD
 70
     2
  9
$DIMTXSTY
  7
Standard
  9
$DIMAUNIT
 70
     0
  9
$DIMADEC
 70
     0
  9
$DIMALTRND
 40
0.0
  9
$DIMAZIN
 70
     0
  9
$DIMDSEP
 70
    46
  9
$DIMATFIT
 70
     3
  9
$DIMFRAC
 70
     0
  9
$DIMLDRBLK
  1

  9
$DIMLUNIT
 70
     2
  9
$DIMLWD
 70
    -2
  9
$DIMLWE
 70
    -2
  9
$DIMTMOVE
 70
     0
  9
$DIMFXL
 40
1.0
  9
$DIMFXLON
 70
     0
  9
$DIMJOGANG
 40
0.7853981633974483
  9
$DIMTFILL
 70
     0
  9
$DIMTFILLCLR
 70
     0
  9
$DIMARCSYM
 70
     0
  9
$DIMLTYPE
  6

  9
$DIMLTEX1
  6

  9
$DIMLTEX2
  6

  9
$DIMTXTDIRECTION
 70
     0
  9
$LUNITS
 70
     2
  9
$LUPREC
 70
     4
  9
$SKETCHINC
 40
0.1
  9
$FILLETRAD
 40
0.0
  9
$AUNITS
 70
     0
  9
$AUPREC
 70
     0
  9
$MENU
  1
.
  9
$ELEVATION
 40
0.0
  9
$PELEVATION
 40
0.0
  9
$THICKNESS
 40
0.0
  9
$LIMCHECK
 70
     0
  9
$CHAMFERA
 40
0.0
  9
$CHAMFERB
 40
0.0
  9
$CHAMFERC
 40
0.0
  9
$CHAMFERD
 40
0.0
  9
$SKPOLY
 70
     0
  9
$TDCREATE
 40
2460846.331967593
  9
$TDUCREATE
 40
2460846.206967593
  9
$TDUPDATE
 40
2460846.331967593
  9
$TDUUPDATE
 40
2460846.206967593
  9
$TDINDWG
 40
0.0000000000
  9
$TDUSRTIMER
 40
0.0000000000
  9
$USRTIMER
 70
     1
  9
$ANGBASE
 50
0.0
  9
$ANGDIR
 70
     0
  9
$PDMODE
 70
     0
  9
$PDSIZE
 40
0.0
  9
$PLINEWID
 40
0.0
  9
$SPLFRAME
 70
     0
  9
$SPLINETYPE
 70
     6
  9
$SPLINESEGS
 70
     8
  9
$HANDSEED
  5
123
  9
$SURFTAB1
 70
     6
  9
$SURFTAB2
 70
     6
  9
$SURFTYPE
 70
     6
  9
$SURFU
 70
     6
  9
$SURFV
 70
     6
  9
$UCSBASE
  2

  9
$UCSNAME
  2

  9
$UCSORG
 10
0.0
 20
0.0
 30
0.0
  9
$UCSXDIR
 10
1.0
 20
0.0
 30
0.0
  9
$UCSYDIR
 10
0.0
 20
1.0
 30
0.0
  9
$UCSORTHOREF
  2

  9
$UCSORTHOVIEW
 70
     0
  9
$UCSORGTOP
 10
0.0
 20
0.0
 30
0.0
  9
$UCSORGBOTTOM
 10
0.0
 20
0.0
 30
0.0
  9
$UCSORGLEFT
 10
0.0
 20
0.0
 30
0.0
  9
$UCSORGRIGHT
 10
0.0
 20
0.0
 30
0.0
  9
$UCSORGFRONT
 10
0.0
 20
0.0
 30
0.0
  9
$UCSORGBACK
 10
0.0
 20
0.0
 30
0.0
  9
$PUCSBASE
  2

  9
$PUCSNAME
  2

  9
$PUCSORG
 10
0.0
 20
0.0
 30
0.0
  9
$PUCSXDIR
 10
1.0
 20
0.0
 30
0.0
  9
$PUCSYDIR
 10
0.0
 20
1.0
 30
0.0
  9
$PUCSORTHOREF
  2

  9
$PUCSORTHOVIEW
 70
     0
  9
$PUCSORGTOP
 10
0.0
 20
0.0
 30
0.0
  9
$PUCSORGBOTTOM
 10
0.0
 20
0.0
 30
0.0
  9
$PUCSORGLEFT
 10
0.0
 20
0.0
 30
0.0
  9
$PUCSORGRIGHT
 10
0.0
 20
0.0
 30
0.0
  9
$PUCSORGFRONT
 10
0.0
 20
0.0
 30
0.0
  9
$PUCSORGBACK
 10
0.0
 20
0.0
 30
0.0
  9
$USERI1
 70
     0
  9
$USERI2
 70
     0
  9
$USERI3
 70
     0
  9
$USERI4
 70
     0
  9
$USERI5
 70
     0
  9
$USERR1
 40
0.0
  9
$USERR2
 40
0.0
  9
$USERR3
 40
0.0
  9
$USERR4
 40
0.0
  9
$USERR5
 40
0.0
  9
$WORLDVIEW
 70
     1
  9
$SHADEDGE
 70
     3
  9
$SHADEDIF
 70
    70
  9
$TILEMODE
 70
     1
  9
$MAXACTVP
 70
    64
  9
$PINSBASE
 10
0.0
 20
0.0
 30
0.0
  9
$PLIMCHECK
 70
     0
  9
$PEXTMIN
 10
1.000000000000000E+20
 20
1.000000000000000E+20
 30
1.000000000000000E+20
  9
$PEXTMAX
 10
-1.000000000000000E+20
 20
-1.000000000000000E+20
 30
-1.000000000000000E+20
  9
$PLIMMIN
 10
0.0
 20
0.0
  9
$PLIMMAX
 10
12.0
 20
9.0
  9
$UNITMODE
 70
     0
  9
$VISRETAIN
 70
     1
  9
$PLINEGEN
 70
     0
  9
$PSLTSCALE
 70
     1
  9
$TREEDEPTH
 70
  3020
  9
$CMLSTYLE
  2
Standard
  9
$CMLJUST
 70
     0
  9
$CMLSCALE
 40
1.0
  9
$PROXYGRAPHICS
 70
     1
  9
$MEASUREMENT
 70
     0
  9
$CELWEIGHT
370
    -1
  9
$ENDCAPS
280
     0
  9
$JOINSTYLE
280
     0
  9
$LWDISPLAY
290
     1
  9
$INSUNITS
 70
     4
  9
$HYPERLINKBASE
  1

  9
$STYLESHEET
  1

  9
$XEDIT
290
     1
  9
$CEPSNTYPE
380
     0
  9
$PSTYLEMODE
290
     1
  9
$FINGERPRINTGUID
  2
{8FB6D4DC-1578-AF44-BD62-0AAE79AAD0C7}
  9
$VERSIONGUID
  2
{1E4A1A27-F22E-4D49-A18A-5A9DEB737A2A}
  9
$EXTNAMES
290
     1
  9
$PSVPSCALE
 40
0.0
  9
$OLESTARTUP
290
     0
  9
$SORTENTS
280
   127
  9
$INDEXCTL
280
     0
  9
$HIDETEXT
280
     1
  9
$XCLIPFRAME
280
     2
  9
$HALOGAP
280
     0
  9
$OBSCOLOR
 70
   257
  9
$OBSLTYPE
280
     0
  9
$INTERSECTIONDISPLAY
280
     0
  9
$INTERSECTIONCOLOR
 70
   257
  9
$DIMASSOC
280
     2
  9
$PROJECTNAME
  1

  9
$CAMERADISPLAY
290
     0
  9
$LENSLENGTH
 40
50.0
  9
$CAMERAHEIGHT
 40
0.0
  9
$STEPSPERSEC
 40
2.0
  9
$STEPSIZE
 40
6.0
  9
$3DDWFPREC
 40
2.0
  9
$PSOLWIDTH
 40
0.25
  9
$PSOLHEIGHT
 40
4.0
  9
$LOFTANG1
 40
1.570796326794896
  9
$LOFTANG2
 40
1.570796326794896
  9
$LOFTMAG1
 40
0.0
  9
$LOFTMAG2
 40
0.0
  9
$LOFTPARAM
 70
     7
  9
$LOFTNORMALS
280
     1
  9
$LATITUDE
 40
37.795
  9
$LONGITUDE
 40
-122.394
  9
$NORTHDIRECTION
 40
0.0
  9
$TIMEZONE
 70
 -8000
  9
$LIGHTGLYPHDISPLAY
280
     1
  9
$TILEMODELIGHTSYNCH
280
     1
  9
$CMATERIAL
347
11
  9
$SOLIDHIST
280
     0
  9
$SHOWHIST
280
     1
  9
$DWFFRAME
280
     2
  9
$DGNFRAME
280
     0
  9
$REALWORLDSCALE
290
     1
  9
$INTERFERECOLOR
 62
     1
  9
$INTERFEREOBJVS
345
33
  9
$INTERFEREVPVS
346
30
  9
$CSHADOW
280
     0
  9
$SHADOWPLANELOCATION
 40
0.0
  0
ENDSEC
  0
SECTION
  2
CLASSES
  0
CLASS
  1
ACDBDICTIONARYWDFLT
  2
AcDbDictionaryWithDefault
  3
ObjectDBX Classes
 90
        0
 91
        1
280
     0
281
     0
  0
CLASS
  1
MATERIAL
  2
AcDbMaterial
  3
ObjectDBX Classes
 90
     1153
 91
        3
280
     0
281
     0
  0
CLASS
  1
VISUALSTYLE
  2
AcDbVisualStyle
  3
ObjectDBX Classes
 90
     4095
 91
       24
280
     0
281
     0
  0
CLASS
  1
SCALE
  2
AcDbScale
  3
ObjectDBX Classes
 90
     1153
 91
       17
280
     0
281
     0
  0
CLASS
  1
TABLESTYLE
  2
AcDbTableStyle
  3
ObjectDBX Classes
 90
     4095
 91
        1
280
     0
281
     0
  0
CLASS
  1
MLEADERSTYLE
  2
AcDbMLeaderStyle
  3
ACDB_MLEADERSTYLE_CLASS
 90
     4095
 91
        1
280
     0
281
     0
  0
CLASS
  1
ACDBSECTIONVIEWSTYLE
  2
AcDbSectionViewStyle
  3
ObjectDBX Classes
 90
     1025
 91
        1
280
     0
281
     0
  0
CLASS
  1
ACDBDETAILVIEWSTYLE
  2
AcDbDetailViewStyle
  3
ObjectDBX Classes
 90
     1025
 91
        1
280
     0
281
     0
  0
CLASS
  1
DICTIONARYVAR
  2
AcDbDictionaryVar
  3
ObjectDBX Classes
 90
        0
 91
        5
280
     0
281
     0
  0
CLASS
  1
CELLSTYLEMAP
  2
AcDbCellStyleMap
  3
ObjectDBX Classes
 90
     1152
 91
        1
280
     0
281
     0
  0
ENDSEC
  0
SECTION
  2
TABLES
  0
TABLE
  2
VPORT
  5
8
330
0
100
AcDbSymbolTable
 70
     1
  0
VPORT
  5
57
330
8
100
AcDbSymbolTableRecord
100
AcDbViewportTableRecord
  2
*Active
 70
     0
 10
0.0
 20
0.0
 11
1.0
 21
1.0
 12
0.0
 22
0.0
 13
0.0
 23
0.0
 14
1.0
 24
1.0
 15
0.0
 25
0.0
 16
0.0
 26
0.0
 36
1.0
 17
320.5064219382221
 27
-199.9999999500001
 37
0.0
 40
611.9999998470009
 41
0.8333333333333341
 42
50.0
 43
0.0
 44
0.0
 50
0.0
 51
0.0
 71
     0
 72
   100
 73
     1
 74
     1
 75
     0
 76
     0
 77
     0
 78
     0
281
     0
 65
     1
110
0.0
120
0.0
130
0.0
111
1.0
121
0.0
131
0.0
112
0.0
122
1.0
132
0.0
 79
     0
146
0.0
 60
     3
 61
     5
292
     1
282
     1
141
0.0
142
0.0
 63
   250
421
  3355443
  0
ENDTAB
  0
TABLE
  2
LTYPE
  5
5
330
0
100
AcDbSymbolTable
 70
     1
  0
LTYPE
  5
5B
330
5
100
AcDbSymbolTableRecord
100
AcDbLinetypeTableRecord
  2
ByBlock
 70
     0
  3

 72
    65
 73
     0
 40
0.0
  0
LTYPE
  5
5C
330
5
100
AcDbSymbolTableRecord
100
AcDbLinetypeTableRecord
  2
ByLayer
 70
     0
  3

 72
    65
 73
     0
 40
0.0
  0
LTYPE
  5
5D
330
5
100
AcDbSymbolTableRecord
100
AcDbLinetypeTableRecord
  2
Continuous
 70
     0
  3
Solid line
 72
    65
 73
     0
 40
0.0
  0
ENDTAB
  0
TABLE
  2
LAYER
  5
2
330
0
100
AcDbSymbolTable
 70
     2
  0
LAYER
  5
54
330
2
100
AcDbSymbolTableRecord
100
AcDbLayerTableRecord
  2
0
 70
     0
 62
     7
  6
Continuous
370
    -3
390
F
347
21
  0
LAYER
  5
78
330
2
100
AcDbSymbolTableRecord
100
AcDbLayerTableRecord
  2
Layer 1
 70
     0
 62
     7
  6
Continuous
370
     0
390
F
347
21
  0
ENDTAB
  0
TABLE
  2
STYLE
  5
3
330
0
100
AcDbSymbolTable
 70
     2
  0
STYLE
  5
55
330
3
100
AcDbSymbolTableRecord
100
AcDbTextStyleTableRecord
  2
Standard
 70
     0
 40
0.0
 41
1.0
 50
0.0
 71
     0
 42
0.2
  3
txt
  4

  0
STYLE
  5
5A
330
3
100
AcDbSymbolTableRecord
100
AcDbTextStyleTableRecord
  2
Annotative
 70
     0
 40
0.0
 41
1.0
 50
0.0
 71
     0
 42
0.2
  3
txt
  4

1001
AcadAnnotative
1000
AnnotativeData
1002
{
1070
     1
1070
     1
1002
}
  0
ENDTAB
  0
TABLE
  2
VIEW
  5
6
330
0
100
AcDbSymbolTable
 70
     0
  0
ENDTAB
  0
TABLE
  2
UCS
  5
7
330
0
100
AcDbSymbolTable
 70
     0
  0
ENDTAB
  0
TABLE
  2
APPID
  5
9
330
0
100
AcDbSymbolTable
 70
     2
  0
APPID
  5
56
330
9
100
AcDbSymbolTableRecord
100
AcDbRegAppTableRecord
  2
ACAD
 70
     0
  0
APPID
  5
5E
330
9
100
AcDbSymbolTableRecord
100
AcDbRegAppTableRecord
  2
AcadAnnotative
 70
     0
  0
ENDTAB
  0
TABLE
  2
DIMSTYLE
  5
A
330
0
100
AcDbSymbolTable
 70
     2
100
AcDbDimStyleTable
 71
     0
  0
DIMSTYLE
105
58
330
A
100
AcDbSymbolTableRecord
100
AcDbDimStyleTableRecord
  2
Standard
 70
     0
340
55
  0
DIMSTYLE
105
59
330
A
100
AcDbSymbolTableRecord
100
AcDbDimStyleTableRecord
  2
Annotative
 70
     0
340
55
1001
AcadAnnotative
1000
AnnotativeData
1002
{
1070
     1
1070
     1
1002
}
  0
ENDTAB
  0
TABLE
  2
BLOCK_RECORD
  5
1
330
0
100
AcDbSymbolTable
 70
     1
  0
BLOCK_RECORD
  5
70
330
1
100
AcDbSymbolTableRecord
100
AcDbBlockTableRecord
  2
*Model_Space
340
73
 70
     0
280
     1
281
     0
  0
BLOCK_RECORD
  5
6C
330
1
100
AcDbSymbolTableRecord
100
AcDbBlockTableRecord
  2
*Paper_Space
340
6F
 70
     0
280
     1
281
     0
  0
BLOCK_RECORD
  5
74
330
1
100
AcDbSymbolTableRecord
100
AcDbBlockTableRecord
  2
*Paper_Space0
340
77
 70
     0
280
     1
281
     0
  0
ENDTAB
  0
ENDSEC
  0
SECTION
  2
BLOCKS
  0
BLOCK
  5
71
330
70
100
AcDbEntity
  8
0
100
AcDbBlockBegin
  2
*Model_Space
 70
     0
 10
0.0
 20
0.0
 30
0.0
  3
*Model_Space
  1

  0
ENDBLK
  5
72
330
70
100
AcDbEntity
  8
0
100
AcDbBlockEnd
  0
BLOCK
  5
6D
330
6C
100
AcDbEntity
 67
     1
  8
0
100
AcDbBlockBegin
  2
*Paper_Space
 70
     0
 10
0.0
 20
0.0
 30
0.0
  3
*Paper_Space
  1

  0
ENDBLK
  5
6E
330
6C
100
AcDbEntity
 67
     1
  8
0
100
AcDbBlockEnd
  0
BLOCK
  5
75
330
74
100
AcDbEntity
 67
     1
  8
0
100
AcDbBlockBegin
  2
*Paper_Space0
 70
     0
 10
0.0
 20
0.0
 30
0.0
  3
*Paper_Space0
  1

  0
ENDBLK
  5
76
330
74
100
AcDbEntity
 67
     1
  8
0
100
AcDbBlockEnd
  0
ENDSEC
  0
SECTION
  2
ENTITIES
  0
SPLINE
  5
79
330
70
100
AcDbEntity
  8
Layer 1
 62
    18
420
        0
370
    25
100
AcDbSpline
210
0.0
220
0.0
230
1.0
 70
     9
 71
     3
 72
    29
 73
    25
 74
     0
 42
0.0000000001
 43
0.0000000001
 40
0.0
 40
0.0
 40
0.0
 40
0.0
 40
1.0
 40
1.0
 40
1.0
 40
2.0
 40
2.0
 40
2.0
 40
3.0
 40
3.0
 40
3.0
 40
4.0
 40
4.0
 40
4.0
 40
5.0
 40
5.0
 40
5.0
 40
6.0
 40
6.0
 40
6.0
 40
7.0
 40
7.0
 40
7.0
 40
8.0
 40
8.0
 40
8.0
 40
8.0
 10
309.7373461653329
 20
32.05242414871874
 30
0.0
 10
309.7373461653329
 20
32.05242414871874
 30
0.0
 10
269.7373584816112
 20
32.02103462514712
 30
0.0
 10
269.7373584816112
 20
32.02103462514712
 30
0.0
 10
269.7373584816112
 20
32.02103462514712
 30
0.0
 10
269.7373584369079
 20
32.02103462511214
 30
0.0
 10
269.7373584369079
 20
32.02103462511214
 30
0.0
 10
268.0805046975633
 20
32.01973444081882
 30
0.0
 10
266.7363053529887
 20
33.36182577014755
 30
0.0
 10
266.7350051686954
 20
35.01867950949256
 30
0.0
 10
266.7337049844021
 20
36.6755332488379
 30
0.0
 10
268.0757963137305
 20
38.0197325934121
 30
0.0
 10
269.7326500530755
 20
38.02103277770509
 30
0.0
 10
269.7326500530755
 20
38.02103277770509
 30
0.0
 10
309.7326377367961
 20
38.0524223012764
 30
0.0
 10
309.7326377367961
 20
38.0524223012764
 30
0.0
 10
309.7326377367961
 20
38.0524223012764
 30
0.0
 10
309.7326377815001
 20
38.05242230131169
 30
0.0
 10
309.7326377815001
 20
38.05242230131169
 30
0.0
 10
311.3894915208448
 20
38.05372248560502
 30
0.0
 10
312.7336908654196
 20
36.71163115627629
 30
0.0
 10
312.7349910497126
 20
35.05477741693127
 30
0.0
 10
312.7362912340063
 20
33.39792367758594
 30
0.0
 10
311.3941999046775
 20
32.05372433301207
 30
0.0
 10
309.7373461653329
 20
32.05242414871874
 30
0.0
  0
SPLINE
  5
7A
330
70
100
AcDbEntity
  8
Layer 1
 62
    18
420
        0
370
    25
100
AcDbSpline
210
0.0
220
0.0
230
1.0
 70
     9
 71
     3
 72
    23
 73
    19
 74
     0
 42
0.0000000001
 43
0.0000000001
 40
0.0
 40
0.0
 40
0.0
 40
0.0
 40
1.0
 40
1.0
 40
1.0
 40
2.0
 40
2.0
 40
2.0
 40
3.0
 40
3.0
 40
3.0
 40
4.0
 40
4.0
 40
4.0
 40
5.0
 40
5.0
 40
5.0
 40
6.0
 40
6.0
 40
6.0
 40
6.0
 10
257.7963883976109
 20
20.51166054728271
 30
0.0
 10
257.7963883976109
 20
20.51166054728271
 30
0.0
 10
321.6963687223085
 20
20.56180531118774
 30
0.0
 10
321.6963687223085
 20
20.56180531118774
 30
0.0
 10
324.7339339110899
 20
20.56418900502398
 30
0.0
 10
327.1982993944746
 20
18.1036882529487
 30
0.0
 10
327.2006830883105
 20
15.06612306416731
 30
0.0
 10
327.203066782147
 20
12.02855787538592
 30
0.0
 10
324.742566030072
 20
9.564192392000959
 30
0.0
 10
321.7050008412907
 20
9.561808698164714
 30
0.0
 10
321.7050008412907
 20
9.561808698164714
 30
0.0
 10
257.8050205165931
 20
9.511663934259376
 30
0.0
 10
257.8050205165931
 20
9.511663934259376
 30
0.0
 10
254.7674553278117
 20
9.50928024042313
 30
0.0
 10
252.3030898444267
 20
11.96978099249841
 30
0.0
 10
252.3007061505901
 20
15.0073461812798
 30
0.0
 10
252.2983224567539
 20
18.04491137006151
 30
0.0
 10
254.7588232088295
 20
20.50927685344647
 30
0.0
 10
257.7963883976109
 20
20.51166054728271
 30
0.0
  0
SPLINE
  5
7B
330
70
100
AcDbEntity
  8
Layer 1
 62
    18
420
        0
370
    25
100
AcDbSpline
210
0.0
220
0.0
230
1.0
 70
     9
 71
     3
 72
    23
 73
    19
 74
     0
 42
0.0000000001
 43
0.0000000001
 40
0.0
 40
0.0
 40
0.0
 40
0.0
 40
1.0
 40
1.0
 40
1.0
 40
2.0
 40
2.0
 40
2.0
 40
3.0
 40
3.0
 40
3.0
 40
4.0
 40
4.0
 40
4.0
 40
5.0
 40
5.0
 40
5.0
 40
6.0
 40
6.0
 40
6.0
 40
6.0
 10
321.7155962042647
 20
-3.938187143993359
 30
0.0
 10
321.7155962042647
 20
-3.938187143993359
 30
0.0
 10
257.8156158795668
 20
-3.988331907899018
 30
0.0
 10
257.8156158795668
 20
-3.988331907899018
 30
0.0
 10
256.1587621402317
 20
-3.989632104536707
 30
0.0
 10
254.8145627856579
 20
-2.647540785222978
 30
0.0
 10
254.8132625890202
 20
-0.9906870458875864
 30
0.0
 10
254.8119623923819
 20
0.6661666934478055
 30
0.0
 10
256.154053711696
 20
2.010366048021274
 30
0.0
 10
257.810907451031
 20
2.011666244659604
 30
0.0
 10
257.810907451031
 20
2.011666244659604
 30
0.0
 10
321.7108877757286
 20
2.061811008564622
 30
0.0
 10
321.7108877757286
 20
2.061811008564622
 30
0.0
 10
323.3677414976159
 20
2.063111192844472
 30
0.0
 10
324.711940834937
 20
0.7210198907555493
 30
0.0
 10
324.7132410439065
 20
-0.935833831112474
 30
0.0
 10
324.7145412528889
 20
-2.59268757043824
 30
0.0
 10
323.3724499435895
 20
-3.936886935010984
 30
0.0
 10
321.7155962042647
 20
-3.938187143993359
 30
0.0
  0
LWPOLYLINE
  5
7C
330
70
100
AcDbEntity
  8
Layer 1
 62
    18
420
        0
370
    25
100
AcDbPolyline
 90
        4
 70
     1
 43
0.0
 10
321.7564018854877
 20
-55.93817113340876
 10
257.8564215607901
 20
-55.98831589724095
 10
257.8242472991647
 20
-14.98832852147069
 10
321.7242276238623
 20
-14.93818375756567
  0
SPLINE
  5
7D
330
70
100
AcDbEntity
  8
Layer 1
 62
    18
420
        0
370
    25
100
AcDbSpline
210
0.0
220
0.0
230
1.0
 70
     9
 71
     3
 72
    41
 73
    37
 74
     0
 42
0.0000000001
 43
0.0000000001
 40
0.0
 40
0.0
 40
0.0
 40
0.0
 40
1.0
 40
1.0
 40
1.0
 40
2.0
 40
2.0
 40
2.0
 40
3.0
 40
3.0
 40
3.0
 40
4.0
 40
4.0
 40
4.0
 40
5.0
 40
5.0
 40
5.0
 40
6.0
 40
6.0
 40
6.0
 40
7.0
 40
7.0
 40
7.0
 40
8.0
 40
8.0
 40
8.0
 40
9.0
 40
9.0
 40
9.0
 40
10.0
 40
10.0
 40
10.0
 40
11.0
 40
11.0
 40
11.0
 40
12.0
 40
12.0
 40
12.0
 40
12.0
 10
153.0713595036592
 20
-96.96659994146667
 30
0.0
 10
153.705276027075
 20
-90.85028712454269
 30
0.0
 10
153.700437022981
 20
-84.68458210155139
 30
0.0
 10
153.0569208067648
 20
-78.56927184674116
 30
0.0
 10
153.0469804317759
 20
-78.47480883931904
 30
0.0
 10
153.0437820705204
 20
-78.37975769566753
 30
0.0
 10
153.0473500084911
 20
-78.28484014910853
 30
0.0
 10
153.0888413260731
 20
-77.18105020072659
 30
0.0
 10
154.0172752338758
 20
-76.31988701020219
 30
0.0
 10
155.1210651822571
 20
-76.36137832778421
 30
0.0
 10
168.3439595365854
 20
-76.85842517063607
 30
0.0
 10
181.5073814876085
 20
-74.35002411427302
 30
0.0
 10
193.6208170157453
 20
-69.02492595786494
 30
0.0
 10
193.8740101866927
 20
-68.91362157318389
 30
0.0
 10
194.1475369968475
 20
-68.85604179702951
 30
0.0
 10
194.424115016122
 20
-68.855824731477
 30
0.0
 10
195.5286841756035
 20
-68.85495783715374
 30
0.0
 10
196.4248171568719
 20
-69.74968530502001
 30
0.0
 10
196.4256840511959
 20
-70.85425446450088
 30
0.0
 10
196.4256840511959
 20
-70.85425446450088
 30
0.0
 10
196.4521792032257
 20
-104.613534016861
 30
0.0
 10
196.4521792032257
 20
-104.613534016861
 30
0.0
 10
196.4523962687782
 20
-104.8901120361355
 30
0.0
 10
196.395245905062
 20
-105.1637288894587
 30
0.0
 10
196.2843390822959
 20
-105.4170964574843
 30
0.0
 10
195.8414106951257
 20
-106.4289700777662
 30
0.0
 10
194.6620606498595
 20
-106.8901913181741
 30
0.0
 10
193.6501870295779
 20
-106.4472629310037
 30
0.0
 10
181.528407880805
 20
-101.1411851952282
 30
0.0
 10
168.3610648327544
 20
-98.65344920135976
 30
0.0
 10
155.1389669575844
 20
-99.17125075517843
 30
0.0
 10
155.04405512837
 20
-99.17496767613181
 30
0.0
 10
154.9489990815029
 20
-99.17191851589514
 30
0.0
 10
154.8545205875353
 20
-99.16212642706216
 30
0.0
 10
153.7558363530548
 20
-99.04825486569846
 30
0.0
 10
152.9574879422955
 20
-98.06528417594682
 30
0.0
 10
153.0713595036592
 20
-96.96659994146667
 30
0.0
  0
SPLINE
  5
7E
330
70
100
AcDbEntity
  8
Layer 1
 62
    18
420
        0
370
    25
100
AcDbSpline
210
0.0
220
0.0
230
1.0
 70
     9
 71
     3
 72
    32
 73
    28
 74
     0
 42
0.0000000001
 43
0.0000000001
 40
0.0
 40
0.0
 40
0.0
 40
0.0
 40
1.0
 40
1.0
 40
1.0
 40
2.0
 40
2.0
 40
2.0
 40
3.0
 40
3.0
 40
3.0
 40
4.0
 40
4.0
 40
4.0
 40
5.0
 40
5.0
 40
5.0
 40
6.0
 40
6.0
 40
6.0
 40
7.0
 40
7.0
 40
7.0
 40
8.0
 40
8.0
 40
8.0
 40
9.0
 40
9.0
 40
9.0
 40
9.0
 10
236.419298776985
 20
-62.70264475353883
 30
0.0
 10
236.419298776985
 20
-62.70264475353883
 30
0.0
 10
236.4467494298897
 20
-97.67939311290135
 30
0.0
 10
236.4467494298897
 20
-97.67939311290135
 30
0.0
 10
233.4398595105359
 20
-99.64042404323526
 30
0.0
 10
232.5920232828384
 20
-103.6677196126318
 30
0.0
 10
234.5530542131733
 20
-106.6746095319866
 30
0.0
 10
235.0478729834766
 20
-107.433325546771
 30
0.0
 10
235.6958079244294
 20
-108.0802442532341
 30
0.0
 10
236.4552996971011
 20
-108.573871494966
 30
0.0
 10
236.4552996971011
 20
-108.573871494966
 30
0.0
 10
236.4585400526013
 20
-112.7026293547593
 30
0.0
 10
236.4585400526013
 20
-112.7026293547593
 30
0.0
 10
236.4628745242185
 20
-118.225475152165
 30
0.0
 10
231.9892371848863
 20
-122.7061400585089
 30
0.0
 10
226.4663913874799
 20
-122.7104745301261
 30
0.0
 10
220.9435455900745
 20
-122.7148090017437
 30
0.0
 10
216.4628806837303
 20
-118.2411716624115
 30
0.0
 10
216.4585462121131
 20
-112.7183258650054
 30
0.0
 10
216.4585462121131
 20
-112.7183258650054
 30
0.0
 10
216.4193049364968
 20
-62.71834126378527
 30
0.0
 10
216.4193049364968
 20
-62.71834126378527
 30
0.0
 10
216.4149704648796
 20
-57.19549546637956
 30
0.0
 10
220.8886078042118
 20
-52.71483056003471
 30
0.0
 10
226.4114536016175
 20
-52.71049608841778
 30
0.0
 10
231.9342993990236
 20
-52.70616161680054
 30
0.0
 10
236.4149643053678
 20
-57.17979895613311
 30
0.0
 10
236.419298776985
 20
-62.70264475353883
 30
0.0
  0
SPLINE
  5
7F
330
70
100
AcDbEntity
  8
Layer 1
 62
    18
420
        0
370
    25
100
AcDbSpline
210
0.0
220
0.0
230
1.0
 70
     9
 71
     3
 72
    41
 73
    37
 74
     0
 42
0.0000000001
 43
0.0000000001
 40
0.0
 40
0.0
 40
0.0
 40
0.0
 40
1.0
 40
1.0
 40
1.0
 40
2.0
 40
2.0
 40
2.0
 40
3.0
 40
3.0
 40
3.0
 40
4.0
 40
4.0
 40
4.0
 40
5.0
 40
5.0
 40
5.0
 40
6.0
 40
6.0
 40
6.0
 40
7.0
 40
7.0
 40
7.0
 40
8.0
 40
8.0
 40
8.0
 40
9.0
 40
9.0
 40
9.0
 40
10.0
 40
10.0
 40
10.0
 40
11.0
 40
11.0
 40
11.0
 40
12.0
 40
12.0
 40
12.0
 40
12.0
 10
426.8994192503117
 20
-78.35435320141463
 30
0.0
 10
426.2655027268962
 20
-84.47066601833794
 30
0.0
 10
426.2703417309896
 20
-90.63637104132928
 30
0.0
 10
426.9138579472084
 20
-96.75168129614014
 30
0.0
 10
426.9237983221976
 20
-96.84614430356194
 30
0.0
 10
426.9269966834512
 20
-96.94119544721376
 30
0.0
 10
426.9234287454808
 20
-97.03611299377277
 30
0.0
 10
426.8819374279011
 20
-98.1399029421547
 30
0.0
 10
425.953503520096
 20
-99.0010661326791
 30
0.0
 10
424.8497135717144
 20
-98.95957481509739
 30
0.0
 10
411.6268192173874
 20
-98.46252797224522
 30
0.0
 10
398.4633972663647
 20
-100.9709290286082
 30
0.0
 10
386.349961738227
 20
-106.2960271850166
 30
0.0
 10
386.0967685672795
 20
-106.4073315696974
 30
0.0
 10
385.8232417571261
 20
-106.4649113458518
 30
0.0
 10
385.5466637378526
 20
-106.4651284114043
 30
0.0
 10
384.4420945783713
 20
-106.4659953057278
 30
0.0
 10
383.5459615971016
 20
-105.5712678378609
 30
0.0
 10
383.5450947027783
 20
-104.46669867838
 30
0.0
 10
383.5450947027783
 20
-104.46669867838
 30
0.0
 10
383.5185995507472
 20
-70.7074191260203
 30
0.0
 10
383.5185995507472
 20
-70.7074191260203
 30
0.0
 10
383.5183824851947
 20
-70.43084110674546
 30
0.0
 10
383.5755328489116
 20
-70.15722425342258
 30
0.0
 10
383.6864396716789
 20
-69.90385668539666
 30
0.0
 10
384.1293680588478
 20
-68.89198306511506
 30
0.0
 10
385.3087181041147
 20
-68.43076182470747
 30
0.0
 10
386.3205917243973
 20
-68.87369021187757
 30
0.0
 10
398.4423708731679
 20
-74.17976794765337
 30
0.0
 10
411.6097139212184
 20
-76.66750394152152
 30
0.0
 10
424.8318117963894
 20
-76.14970238770287
 30
0.0
 10
424.9267236256025
 20
-76.14598546674915
 30
0.0
 10
425.0217796724697
 20
-76.14903462698582
 30
0.0
 10
425.1162581664392
 20
-76.15882671581944
 30
0.0
 10
426.2149424009174
 20
-76.27269827718283
 30
0.0
 10
427.0132908116765
 20
-77.25566896693448
 30
0.0
 10
426.8994192503117
 20
-78.35435320141463
 30
0.0
  0
SPLINE
  5
80
330
70
100
AcDbEntity
  8
Layer 1
 62
    18
420
        0
370
    25
100
AcDbSpline
210
0.0
220
0.0
230
1.0
 70
     9
 71
     3
 72
    32
 73
    28
 74
     0
 42
0.0000000001
 43
0.0000000001
 40
0.0
 40
0.0
 40
0.0
 40
0.0
 40
1.0
 40
1.0
 40
1.0
 40
2.0
 40
2.0
 40
2.0
 40
3.0
 40
3.0
 40
3.0
 40
4.0
 40
4.0
 40
4.0
 40
5.0
 40
5.0
 40
5.0
 40
6.0
 40
6.0
 40
6.0
 40
7.0
 40
7.0
 40
7.0
 40
8.0
 40
8.0
 40
8.0
 40
9.0
 40
9.0
 40
9.0
 40
9.0
 10
343.5396895674892
 20
-97.59534381540653
 30
0.0
 10
343.5396895674892
 20
-97.59534381540653
 30
0.0
 10
343.5122389145845
 20
-62.61859545604401
 30
0.0
 10
343.5122389145845
 20
-62.61859545604401
 30
0.0
 10
343.5079044429669
 20
-57.09574965863861
 30
0.0
 10
347.9815417822995
 20
-52.61508475229408
 30
0.0
 10
353.5043875797043
 20
-52.61075028067685
 30
0.0
 10
359.0272333771122
 20
-52.60641580905897
 30
0.0
 10
363.5078982834564
 20
-57.08005314839184
 30
0.0
 10
363.5122327550734
 20
-62.60289894579756
 30
0.0
 10
363.5122327550734
 20
-62.60289894579756
 30
0.0
 10
363.5514740306893
 20
-112.6028835470177
 30
0.0
 10
363.5514740306893
 20
-112.6028835470177
 30
0.0
 10
363.5558085023056
 20
-118.1257293444238
 30
0.0
 10
359.082171162973
 20
-122.6063942507676
 30
0.0
 10
353.5593253655682
 20
-122.6107287223849
 30
0.0
 10
348.0364795681615
 20
-122.6150631940021
 30
0.0
 10
343.555814661818
 20
-118.1414258546705
 30
0.0
 10
343.5514801902004
 20
-112.6185800572642
 30
0.0
 10
343.5514801902004
 20
-112.6185800572642
 30
0.0
 10
343.5482398346999
 20
-108.4898221974718
 30
0.0
 10
343.5482398346999
 20
-108.4898221974718
 30
0.0
 10
346.5551297540541
 20
-106.5287912671366
 30
0.0
 10
347.4029659817512
 20
-102.5014956977397
 30
0.0
 10
345.441935051417
 20
-99.49460577838621
 30
0.0
 10
344.9471162811137
 20
-98.73588976360149
 30
0.0
 10
344.2991813401603
 20
-98.08897105713812
 30
0.0
 10
343.5396895674892
 20
-97.59534381540653
 30
0.0
  0
SPLINE
  5
81
330
70
100
AcDbEntity
  8
Layer 1
 62
    18
420
        0
370
    25
100
AcDbSpline
210
0.0
220
0.0
230
1.0
 70
     9
 71
     3
 72
   173
 73
   169
 74
     0
 42
0.0000000001
 43
0.0000000001
 40
0.0
 40
0.0
 40
0.0
 40
0.0
 40
1.0
 40
1.0
 40
1.0
 40
2.0
 40
2.0
 40
2.0
 40
3.0
 40
3.0
 40
3.0
 40
4.0
 40
4.0
 40
4.0
 40
5.0
 40
5.0
 40
5.0
 40
6.0
 40
6.0
 40
6.0
 40
7.0
 40
7.0
 40
7.0
 40
8.0
 40
8.0
 40
8.0
 40
9.0
 40
9.0
 40
9.0
 40
10.0
 40
10.0
 40
10.0
 40
11.0
 40
11.0
 40
11.0
 40
12.0
 40
12.0
 40
12.0
 40
13.0
 40
13.0
 40
13.0
 40
14.0
 40
14.0
 40
14.0
 40
15.0
 40
15.0
 40
15.0
 40
16.0
 40
16.0
 40
16.0
 40
17.0
 40
17.0
 40
17.0
 40
18.0
 40
18.0
 40
18.0
 40
19.0
 40
19.0
 40
19.0
 40
20.0
 40
20.0
 40
20.0
 40
21.0
 40
21.0
 40
21.0
 40
22.0
 40
22.0
 40
22.0
 40
23.0
 40
23.0
 40
23.0
 40
24.0
 40
24.0
 40
24.0
 40
25.0
 40
25.0
 40
25.0
 40
26.0
 40
26.0
 40
26.0
 40
27.0
 40
27.0
 40
27.0
 40
28.0
 40
28.0
 40
28.0
 40
29.0
 40
29.0
 40
29.0
 40
30.0
 40
30.0
 40
30.0
 40
31.0
 40
31.0
 40
31.0
 40
32.0
 40
32.0
 40
32.0
 40
33.0
 40
33.0
 40
33.0
 40
34.0
 40
34.0
 40
34.0
 40
35.0
 40
35.0
 40
35.0
 40
36.0
 40
36.0
 40
36.0
 40
37.0
 40
37.0
 40
37.0
 40
38.0
 40
38.0
 40
38.0
 40
39.0
 40
39.0
 40
39.0
 40
40.0
 40
40.0
 40
40.0
 40
41.0
 40
41.0
 40
41.0
 40
42.0
 40
42.0
 40
42.0
 40
43.0
 40
43.0
 40
43.0
 40
44.0
 40
44.0
 40
44.0
 40
45.0
 40
45.0
 40
45.0
 40
46.0
 40
46.0
 40
46.0
 40
47.0
 40
47.0
 40
47.0
 40
48.0
 40
48.0
 40
48.0
 40
49.0
 40
49.0
 40
49.0
 40
50.0
 40
50.0
 40
50.0
 40
51.0
 40
51.0
 40
51.0
 40
52.0
 40
52.0
 40
52.0
 40
53.0
 40
53.0
 40
53.0
 40
54.0
 40
54.0
 40
54.0
 40
55.0
 40
55.0
 40
55.0
 40
56.0
 40
56.0
 40
56.0
 40
56.0
 10
85.63262086115363
 20
60.78680766780906
 30
0.0
 10
85.63262086115363
 20
60.78680766780906
 30
0.0
 10
88.95136167801847
 20
58.62869773544151
 30
0.0
 10
88.95136167801847
 20
58.62869773544151
 30
0.0
 10
88.95136167801847
 20
58.62869773544151
 30
0.0
 10
86.77074885769746
 20
55.27535198412722
 30
0.0
 10
86.77074885769746
 20
55.27535198412722
 30
0.0
 10
86.77074885769746
 20
55.27535198412722
 30
0.0
 10
83.6680003520632
 20
57.29300649141042
 30
0.0
 10
83.6680003520632
 20
57.29300649141042
 30
0.0
 10
82.9328378173281
 20
55.89039982489866
 30
0.0
 10
82.24689577887303
 20
54.46254032026224
 30
0.0
 10
81.61142901233281
 20
53.01203992314317
 30
0.0
 10
62.55716763665842
 20
18.11772174291963
 30
0.0
 10
69.4231790440988
 20
-25.23642608730626
 30
0.0
 10
98.32704514605747
 20
-52.53559900875602
 30
0.0
 10
98.98037916262969
 20
-53.15266103883098
 30
0.0
 10
99.61645707123969
 20
-53.78774130976416
 30
0.0
 10
100.2345438472468
 20
-54.44010594974298
 30
0.0
 10
118.6791735367274
 20
-73.90763813779796
 30
0.0
 10
117.8499472215199
 20
-104.6415177979848
 30
0.0
 10
98.38241503346429
 20
-123.0861474874657
 30
0.0
 10
69.52143469979282
 20
-150.4306557480763
 30
0.0
 10
62.72348261221299
 20
-193.7955274087549
 30
0.0
 10
81.83249240031924
 20
-228.6598940709111
 30
0.0
 10
82.47023516276028
 20
-230.109395220402
 30
0.0
 10
83.15841759664616
 20
-231.5361762767629
 30
0.0
 10
83.89578082804517
 20
-232.937627267129
 30
0.0
 10
83.89578082804517
 20
-232.937627267129
 30
0.0
 10
86.99535849890796
 20
-230.9151050145292
 30
0.0
 10
86.99535849890796
 20
-230.9151050145292
 30
0.0
 10
86.99535849890796
 20
-230.9151050145292
 30
0.0
 10
89.18123221390038
 20
-234.2650238347553
 30
0.0
 10
89.18123221390038
 20
-234.2650238347553
 30
0.0
 10
89.18123221390038
 20
-234.2650238347553
 30
0.0
 10
85.86588296382283
 20
-236.4283403718628
 30
0.0
 10
85.86588296382283
 20
-236.4283403718628
 30
0.0
 10
93.25590814579451
 20
-248.6651164503401
 30
0.0
 10
104.3143878363074
 20
-258.2617235758045
 30
0.0
 10
117.4700335467153
 20
-263.8545892926995
 30
0.0
 10
160.1342285205983
 20
-286.5496093623733
 30
0.0
 10
213.1183410152025
 20
-270.3613946042251
 30
0.0
 10
235.8133610848768
 20
-227.6971996303427
 30
0.0
 10
242.554273695563
 20
-215.0250094740305
 30
0.0
 10
246.074240566487
 20
-200.8891008549967
 30
0.0
 10
246.0629755367537
 20
-186.5355584601116
 30
0.0
 10
246.0629755367537
 20
-186.5355584601116
 30
0.0
 10
246.031184092298
 20
-146.0279116444056
 30
0.0
 10
246.031184092298
 20
-146.0279116444056
 30
0.0
 10
246.0301226079228
 20
-144.6754020333882
 30
0.0
 10
246.712609446438
 20
-143.4139575517554
 30
0.0
 10
247.8453091454034
 20
-142.6748535221296
 30
0.0
 10
247.8453091454034
 20
-142.6748535221296
 30
0.0
 10
254.208540306086
 20
-138.5227470135871
 30
0.0
 10
254.208540306086
 20
-138.5227470135871
 30
0.0
 10
255.3412400050511
 20
-137.783642983962
 30
0.0
 10
256.0237268435666
 20
-136.5221985023295
 30
0.0
 10
256.0226653591914
 20
-135.1696888913118
 30
0.0
 10
256.0226653591914
 20
-135.1696888913118
 30
0.0
 10
256.0090142006397
 20
-117.7758170904366
 30
0.0
 10
256.0090142006397
 20
-117.7758170904366
 30
0.0
 10
256.0090142006397
 20
-117.7758170904366
 30
0.0
 10
270.0090098889825
 20
-117.7648295332638
 30
0.0
 10
270.0090098889825
 20
-117.7648295332638
 30
0.0
 10
270.0090098889825
 20
-117.7648295332638
 30
0.0
 10
270.0057136218301
 20
-113.5648308267614
 30
0.0
 10
270.0057136218301
 20
-113.5648308267614
 30
0.0
 10
270.0057136218301
 20
-113.5648308267614
 30
0.0
 10
274.0057123899276
 20
-113.5616915247121
 30
0.0
 10
274.0057123899276
 20
-113.5616915247121
 30
0.0
 10
274.0057123899276
 20
-113.5616915247121
 30
0.0
 10
274.009008657079
 20
-117.7616902312145
 30
0.0
 10
274.009008657079
 20
-117.7616902312145
 30
0.0
 10
274.009008657079
 20
-117.7616902312145
 30
0.0
 10
306.0089988018602
 20
-117.7365758148203
 30
0.0
 10
306.0089988018602
 20
-117.7365758148203
 30
0.0
 10
306.0089988018602
 20
-117.7365758148203
 30
0.0
 10
306.0057025347085
 20
-113.5365771083176
 30
0.0
 10
306.0057025347085
 20
-113.5365771083176
 30
0.0
 10
306.0057025347085
 20
-113.5365771083176
 30
0.0
 10
310.0057013028069
 20
-113.5334378062682
 30
0.0
 10
310.0057013028069
 20
-113.5334378062682
 30
0.0
 10
310.0057013028069
 20
-113.5334378062682
 30
0.0
 10
310.0089975699579
 20
-117.7334365127712
 30
0.0
 10
310.0089975699579
 20
-117.7334365127712
 30
0.0
 10
310.0089975699579
 20
-117.7334365127712
 30
0.0
 10
324.0089932582998
 20
-117.7224489555985
 30
0.0
 10
324.0089932582998
 20
-117.7224489555985
 30
0.0
 10
324.0089932582998
 20
-117.7224489555985
 30
0.0
 10
324.0226444168512
 20
-135.1163207564737
 30
0.0
 10
324.0226444168512
 20
-135.1163207564737
 30
0.0
 10
324.0237059012271
 20
-136.4688303674915
 30
0.0
 10
324.7081719259986
 20
-137.7292020293126
 30
0.0
 10
325.8420303646289
 20
-138.466527205738
 30
0.0
 10
325.8420303646289
 20
-138.466527205738
 30
0.0
 10
332.2117710426616
 20
-142.6086405500562
 30
0.0
 10
332.2117710426616
 20
-142.6086405500562
 30
0.0
 10
333.3456294812913
 20
-143.3459657264825
 30
0.0
 10
334.0300955060641
 20
-144.6063373883037
 30
0.0
 10
334.0311569904393
 20
-145.9588469993212
 30
0.0
 10
334.0311569904393
 20
-145.9588469993212
 30
0.0
 10
334.062948434895
 20
-186.4664938150271
 30
0.0
 10
334.062948434895
 20
-186.4664938150271
 30
0.0
 10
334.1008750615471
 20
-234.7913945423282
 30
0.0
 10
373.306692992059
 20
-273.9357212614884
 30
0.0
 10
421.6315937193626
 20
-273.897794634837
 30
0.0
 10
435.9851361142502
 20
-273.8865296051031
 30
0.0
 10
450.1155022013246
 20
-270.3443786338194
 30
0.0
 10
462.7770958696084
 20
-263.5835834171401
 30
0.0
 10
475.9239465288517
 20
-257.9700748236994
 30
0.0
 10
486.9673492768288
 20
-248.3561215716843
 30
0.0
 10
494.3381578928167
 20
-236.10776081069
 30
0.0
 10
494.3381578928167
 20
-236.10776081069
 30
0.0
 10
491.0194170759551
 20
-233.9496508783234
 30
0.0
 10
491.0194170759551
 20
-233.9496508783234
 30
0.0
 10
491.0194170759551
 20
-233.9496508783234
 30
0.0
 10
493.2000298962726
 20
-230.5963051270085
 30
0.0
 10
493.2000298962726
 20
-230.5963051270085
 30
0.0
 10
493.2000298962726
 20
-230.5963051270085
 30
0.0
 10
496.3027784019088
 20
-232.6139596342917
 30
0.0
 10
496.3027784019088
 20
-232.6139596342917
 30
0.0
 10
497.0379409366429
 20
-231.2113529677806
 30
0.0
 10
497.7238829750988
 20
-229.7834934631445
 30
0.0
 10
498.3593497416381
 20
-228.3329930660261
 30
0.0
 10
517.4136111173145
 20
-193.4386748858031
 30
0.0
 10
510.5475997098747
 20
-150.0845270555757
 30
0.0
 10
481.6437336079151
 20
-122.7853541341249
 30
0.0
 10
480.9903995913432
 20
-122.1682921040503
 30
0.0
 10
480.354321682731
 20
-121.5332118331171
 30
0.0
 10
479.7362349067248
 20
-120.8808471931383
 30
0.0
 10
461.2916052172441
 20
-101.413315005083
 30
0.0
 10
462.1208315324543
 20
-70.67943534489618
 30
0.0
 10
481.5883637205067
 20
-52.23480565541557
 30
0.0
 10
510.4493440541794
 20
-24.89029739480528
 30
0.0
 10
517.2472961417573
 20
18.47457426587306
 30
0.0
 10
498.1382863536524
 20
53.33894092802918
 30
0.0
 10
497.5005435912138
 20
54.78844207752008
 30
0.0
 10
496.812361157326
 20
56.21522313388128
 30
0.0
 10
496.0749979259277
 20
57.61667412424868
 30
0.0
 10
496.0749979259277
 20
57.61667412424868
 30
0.0
 10
492.9754202550646
 20
55.594151871647
 30
0.0
 10
492.9754202550646
 20
55.594151871647
 30
0.0
 10
492.9754202550646
 20
55.594151871647
 30
0.0
 10
490.7895465400722
 20
58.94407069187397
 30
0.0
 10
490.7895465400722
 20
58.94407069187397
 30
0.0
 10
490.7895465400722
 20
58.94407069187397
 30
0.0
 10
494.1048957901498
 20
61.10738722898088
 30
0.0
 10
494.1048957901498
 20
61.10738722898088
 30
0.0
 10
486.7148706081774
 20
73.34416330745941
 30
0.0
 10
475.6563909176665
 20
82.94077043292352
 30
0.0
 10
462.5007452072557
 20
88.53363614981757
 30
0.0
 10
427.5739649621042
 20
107.1127744440725
 30
0.0
 10
384.525831723871
 20
99.945764118535
 30
0.0
 10
357.5026212906815
 20
71.05267747252615
 30
0.0
 10
344.9849798726059
 20
57.66887546312773
 30
0.0
 10
327.4837851370203
 20
50.06635600194625
 30
0.0
 10
309.1584666923873
 20
50.05197542213571
 30
0.0
 10
309.1584666923873
 20
50.05197542213571
 30
0.0
 10
270.575026304918
 20
50.02169751752295
 30
0.0
 10
270.575026304918
 20
50.02169751752295
 30
0.0
 10
252.2570570033974
 20
50.01316583306489
 30
0.0
 10
234.7527193750727
 20
57.58772848142982
 30
0.0
 10
222.219116449771
 20
70.94650349383151
 30
0.0
 10
195.1505872574427
 20
99.79713754950148
 30
0.0
 10
152.0912573486581
 20
106.8965685203467
 30
0.0
 10
117.1936828843623
 20
88.2626302742585
 30
0.0
 10
104.0468322251222
 20
82.64912168081814
 30
0.0
 10
93.00342947714289
 20
73.03516842880364
 30
0.0
 10
85.63262086115363
 20
60.78680766780906
 30
0.0
  0
SPLINE
  5
82
330
70
100
AcDbEntity
  8
Layer 1
 62
    18
420
        0
370
    25
100
AcDbSpline
210
0.0
220
0.0
230
1.0
 70
     9
 71
     3
 72
   137
 73
   133
 74
     0
 42
0.0000000001
 43
0.0000000001
 40
0.0
 40
0.0
 40
0.0
 40
0.0
 40
1.0
 40
1.0
 40
1.0
 40
2.0
 40
2.0
 40
2.0
 40
3.0
 40
3.0
 40
3.0
 40
4.0
 40
4.0
 40
4.0
 40
5.0
 40
5.0
 40
5.0
 40
6.0
 40
6.0
 40
6.0
 40
7.0
 40
7.0
 40
7.0
 40
8.0
 40
8.0
 40
8.0
 40
9.0
 40
9.0
 40
9.0
 40
10.0
 40
10.0
 40
10.0
 40
11.0
 40
11.0
 40
11.0
 40
12.0
 40
12.0
 40
12.0
 40
13.0
 40
13.0
 40
13.0
 40
14.0
 40
14.0
 40
14.0
 40
15.0
 40
15.0
 40
15.0
 40
16.0
 40
16.0
 40
16.0
 40
17.0
 40
17.0
 40
17.0
 40
18.0
 40
18.0
 40
18.0
 40
19.0
 40
19.0
 40
19.0
 40
20.0
 40
20.0
 40
20.0
 40
21.0
 40
21.0
 40
21.0
 40
22.0
 40
22.0
 40
22.0
 40
23.0
 40
23.0
 40
23.0
 40
24.0
 40
24.0
 40
24.0
 40
25.0
 40
25.0
 40
25.0
 40
26.0
 40
26.0
 40
26.0
 40
27.0
 40
27.0
 40
27.0
 40
28.0
 40
28.0
 40
28.0
 40
29.0
 40
29.0
 40
29.0
 40
30.0
 40
30.0
 40
30.0
 40
31.0
 40
31.0
 40
31.0
 40
32.0
 40
32.0
 40
32.0
 40
33.0
 40
33.0
 40
33.0
 40
34.0
 40
34.0
 40
34.0
 40
35.0
 40
35.0
 40
35.0
 40
36.0
 40
36.0
 40
36.0
 40
37.0
 40
37.0
 40
37.0
 40
38.0
 40
38.0
 40
38.0
 40
39.0
 40
39.0
 40
39.0
 40
40.0
 40
40.0
 40
40.0
 40
41.0
 40
41.0
 40
41.0
 40
42.0
 40
42.0
 40
42.0
 40
43.0
 40
43.0
 40
43.0
 40
44.0
 40
44.0
 40
44.0
 40
44.0
 10
311.2900917698728
 20
-93.64375794017544
 30
0.0
 10
310.4616649002624
 20
-93.64440811091755
 30
0.0
 10
309.7906192993614
 20
-94.31650784686922
 30
0.0
 10
309.7912694701045
 20
-95.14493471647996
 30
0.0
 10
309.7912694701045
 20
-95.14493471647996
 30
0.0
 10
309.7964493185533
 20
-101.7449326838757
 30
0.0
 10
309.7964493185533
 20
-101.7449326838757
 30
0.0
 10
309.7989199674322
 20
-104.8929547883074
 30
0.0
 10
307.2489466841417
 20
-107.4469337849023
 30
0.0
 10
304.1009245797097
 20
-107.4494044338003
 30
0.0
 10
304.1009245797097
 20
-107.4494044338003
 30
0.0
 10
275.9009332645514
 20
-107.4715365130072
 30
0.0
 10
275.9009332645514
 20
-107.4715365130072
 30
0.0
 10
275.0461594983331
 20
-107.4722073615467
 30
0.0
 10
274.2021790581864
 20
-107.2806263553918
 30
0.0
 10
273.4314672655348
 20
-106.9109752034654
 30
0.0
 10
273.4314672655348
 20
-106.9109752034654
 30
0.0
 10
262.8699975228947
 20
-106.9192641169194
 30
0.0
 10
262.8699975228947
 20
-106.9192641169194
 30
0.0
 10
262.3177129431534
 20
-106.9196975640813
 30
0.0
 10
261.8696464525192
 20
-106.4723338301482
 30
0.0
 10
261.8692130053576
 20
-105.9200492504076
 30
0.0
 10
261.8692130053576
 20
-105.9200492504076
 30
0.0
 10
261.8686619552697
 20
-105.21791876551
 30
0.0
 10
261.8686619552697
 20
-105.21791876551
 30
0.0
 10
261.8682285081088
 20
-104.6656341857695
 30
0.0
 10
261.4201620174742
 20
-104.2182704518357
 30
0.0
 10
260.8678774377333
 20
-104.2187038989976
 30
0.0
 10
260.8036704360683
 20
-104.2187542903061
 30
0.0
 10
260.7396175219869
 20
-104.2249883418912
 30
0.0
 10
260.6766057864966
 20
-104.2373197162116
 30
0.0
 10
260.5190764477706
 20
-104.2681481520121
 30
0.0
 10
260.3589441625677
 20
-104.2837332809745
 30
0.0
 10
260.198426658404
 20
-104.2838592592453
 30
0.0
 10
258.8177152090529
 20
-104.2849428771496
 30
0.0
 10
257.697548982467
 20
-103.1665335423168
 30
0.0
 10
257.6964653645626
 20
-101.7858220929658
 30
0.0
 10
257.6964653645626
 20
-101.7858220929658
 30
0.0
 10
257.6776295525126
 20
-77.78582948435354
 30
0.0
 10
257.6776295525126
 20
-77.78582948435354
 30
0.0
 10
257.6775035742419
 20
-77.62531198025103
 30
0.0
 10
257.6928373322655
 20
-77.46515542916883
 30
0.0
 10
257.7234184640547
 20
-77.3075778946896
 30
0.0
 10
257.9864659057113
 20
-75.95215496290103
 30
0.0
 10
259.298495376669
 20
-75.06660966042201
 30
0.0
 10
260.6539183084582
 20
-75.32965710207816
 30
0.0
 10
261.1960874811777
 20
-75.43487607873811
 30
0.0
 10
261.7208992695606
 20
-75.08065795774233
 30
0.0
 10
261.8261182462206
 20
-74.53848878502388
 30
0.0
 10
261.8383506989359
 20
-74.47545777123181
 30
0.0
 10
261.8444842021453
 20
-74.41139515079894
 30
0.0
 10
261.8444338108369
 20
-74.34718814915767
 30
0.0
 10
261.8444338108369
 20
-74.34718814915767
 30
0.0
 10
261.8405668711639
 20
-69.42005667682143
 30
0.0
 10
261.8405668711639
 20
-69.42005667682143
 30
0.0
 10
261.840133424002
 20
-68.86777209708018
 30
0.0
 10
262.2874971579354
 20
-68.41970560644596
 30
0.0
 10
262.839781737676
 20
-68.41927215928432
 30
0.0
 10
262.839781737676
 20
-68.41927215928432
 30
0.0
 10
273.4539650579118
 20
-68.41094187485667
 30
0.0
 10
273.4539650579118
 20
-68.41094187485667
 30
0.0
 10
274.2100263794224
 20
-68.05634342478204
 30
0.0
 10
275.0347683384755
 20
-67.87220410595707
 30
0.0
 10
275.8698541742639
 20
-67.87154870908096
 30
0.0
 10
275.8698541742639
 20
-67.87154870908096
 30
0.0
 10
304.0698454894215
 20
-67.84941662987343
 30
0.0
 10
304.0698454894215
 20
-67.84941662987343
 30
0.0
 10
307.2178675938632
 20
-67.84694598100461
 30
0.0
 10
309.771846590459
 20
-70.39691926431101
 30
0.0
 10
309.7743172393468
 20
-73.54494136875271
 30
0.0
 10
309.7743172393468
 20
-73.54494136875271
 30
0.0
 10
309.7794970872663
 20
-80.14493933612921
 30
0.0
 10
309.7794970872663
 20
-80.14493933612921
 30
0.0
 10
309.7801472580093
 20
-80.97336620572809
 30
0.0
 10
310.4522469939571
 20
-81.64441180662425
 30
0.0
 10
311.2806738635637
 20
-81.64376163588149
 30
0.0
 10
311.2806738635637
 20
-81.64376163588149
 30
0.0
 10
315.780672477681
 20
-81.64022992107652
 30
0.0
 10
315.780672477681
 20
-81.64022992107652
 30
0.0
 10
316.609099347292
 20
-81.63957975033376
 30
0.0
 10
317.2801449481924
 20
-80.96748001438243
 30
0.0
 10
317.2794947774493
 20
-80.13905314477169
 30
0.0
 10
317.2794947774493
 20
-80.13905314477169
 30
0.0
 10
317.2776111961959
 20
-77.73905388387125
 30
0.0
 10
317.2776111961959
 20
-77.73905388387125
 30
0.0
 10
317.2765275782834
 20
-76.35834243451957
 30
0.0
 10
318.3949369131111
 20
-75.2381762079279
 30
0.0
 10
319.7756483624624
 20
-75.23709259001646
 30
0.0
 10
321.1563598118266
 20
-75.23600897211207
 30
0.0
 10
322.2765260384132
 20
-76.35441830694489
 30
0.0
 10
322.2776096563172
 20
-77.73512975629656
 30
0.0
 10
322.2776096563172
 20
-77.73512975629656
 30
0.0
 10
322.2794932375713
 20
-80.13512901722522
 30
0.0
 10
322.2794932375713
 20
-80.13512901722522
 30
0.0
 10
322.2801434083138
 20
-80.96355588682378
 30
0.0
 10
322.9522431442616
 20
-81.63460148772026
 30
0.0
 10
323.7806700138688
 20
-81.63395131697814
 30
0.0
 10
323.7806700138688
 20
-81.63395131697814
 30
0.0
 10
328.2806686280638
 20
-81.63041960217222
 30
0.0
 10
328.2806686280638
 20
-81.63041960217222
 30
0.0
 10
329.1090954976735
 20
-81.62976943142977
 30
0.0
 10
329.7811952336252
 20
-82.30081503233011
 30
0.0
 10
329.7818454043689
 20
-83.12924190194086
 30
0.0
 10
329.7818454043689
 20
-83.12924190194086
 30
0.0
 10
329.7889088339795
 20
-92.12923913016004
 30
0.0
 10
329.7889088339795
 20
-92.12923913016004
 30
0.0
 10
329.7895590047219
 20
-92.95766599977078
 30
0.0
 10
329.1185134038223
 20
-93.62976573572309
 30
0.0
 10
328.2900865342112
 20
-93.63041590646552
 30
0.0
 10
328.2900865342112
 20
-93.63041590646552
 30
0.0
 10
323.790087920178
 20
-93.63394762127112
 30
0.0
 10
323.790087920178
 20
-93.63394762127112
 30
0.0
 10
322.9616610505669
 20
-93.63459779201356
 30
0.0
 10
322.2906154496672
 20
-94.30669752796523
 30
0.0
 10
322.2912656204096
 20
-95.13512439757565
 30
0.0
 10
322.2912656204096
 20
-95.13512439757565
 30
0.0
 10
322.2964454688585
 20
-101.735122364844
 30
0.0
 10
322.2964454688585
 20
-101.735122364844
 30
0.0
 10
322.2975290867702
 20
-103.1158338141957
 30
0.0
 10
321.1791197519425
 20
-104.236000040787
 30
0.0
 10
319.7984083025912
 20
-104.2370836586985
 30
0.0
 10
318.417696853227
 20
-104.2381672766029
 30
0.0
 10
317.2975306266405
 20
-103.11975794177
 30
0.0
 10
317.2964470087364
 20
-101.7390464924187
 30
0.0
 10
317.2964470087364
 20
-101.7390464924187
 30
0.0
 10
317.2912671602876
 20
-95.1390485251221
 30
0.0
 10
317.2912671602876
 20
-95.1390485251221
 30
0.0
 10
317.2906169895451
 20
-94.31062165552356
 30
0.0
 10
316.6185172535967
 20
-93.63957605462706
 30
0.0
 10
315.7900903839901
 20
-93.64022622536952
 30
0.0
 10
315.7900903839901
 20
-93.64022622536952
 30
0.0
 10
311.2900917698728
 20
-93.64375794017544
 30
0.0
 10
311.2900917698728
 20
-93.64375794017544
 30
0.0
  0
CIRCLE
  5
83
330
70
100
AcDbEntity
  8
Layer 1
 62
    18
420
        0
370
    25
100
AcDbCircle
 10
133.5431835920859
 20
-87.7832564435579
 30
0.0
 40
3.149999999999924
  0
CIRCLE
  5
84
330
70
100
AcDbEntity
  8
Layer 1
 62
    18
420
        0
370
    25
100
AcDbCircle
 10
446.4275951618866
 20
-87.53769669932339
 30
0.0
 40
3.150000000000003
  0
CIRCLE
  5
85
330
70
100
AcDbEntity
  8
Layer 1
 62
    18
420
        0
370
    25
100
AcDbCircle
 10
483.599817886349
 20
-226.7391587586195
 30
0.0
 40
1.000000000000753
  0
CIRCLE
  5
86
330
70
100
AcDbEntity
  8
Layer 1
 62
    18
420
        0
370
    25
100
AcDbCircle
 10
339.91114842716
 20
6.954599743115435
 30
0.0
 40
1.500000000000047
  0
CIRCLE
  5
87
330
70
100
AcDbEntity
  8
Layer 1
 62
    18
420
        0
370
    25
100
AcDbCircle
 10
339.9974792335155
 20
-103.04536637957
 30
0.0
 40
1.499999999999967
  0
CIRCLE
  5
88
330
70
100
AcDbEntity
  8
Layer 1
 62
    18
420
        0
370
    25
100
AcDbCircle
 10
239.9111792247185
 20
6.876117191883049
 30
0.0
 40
1.500000000000087
  0
CIRCLE
  5
89
330
70
100
AcDbEntity
  8
Layer 1
 62
    18
420
        0
370
    25
100
AcDbCircle
 10
239.997510031074
 20
-103.1238489308023
 30
0.0
 40
1.500000000000087
  0
CIRCLE
  5
8A
330
70
100
AcDbEntity
  8
Layer 1
 62
    18
420
        0
370
    25
100
AcDbCircle
 10
353.4890238354766
 20
-33.03475630960661
 30
0.0
 40
1.500000000000368
  0
CIRCLE
  5
8B
330
70
100
AcDbEntity
  8
Layer 1
 62
    18
420
        0
370
    25
100
AcDbCircle
 10
251.771212476815
 20
-125.7844355937622
 30
0.0
 40
1.499999999999887
  0
CIRCLE
  5
8C
330
70
100
AcDbEntity
  8
Layer 1
 62
    18
420
        0
370
    25
100
AcDbCircle
 10
226.3960898573883
 20
-33.13450211734795
 30
0.0
 40
1.499999999999927
  0
CIRCLE
  5
8D
330
70
100
AcDbEntity
  8
Layer 1
 62
    18
420
        0
370
    25
100
AcDbCircle
 10
328.2593604939441
 20
-125.72440572532
 30
0.0
 40
1.500000000000127
  0
CIRCLE
  5
8E
330
70
100
AcDbEntity
  8
Layer 1
 62
    18
420
        0
370
    25
100
AcDbCircle
 10
328.1995662771584
 20
-49.53651754911935
 30
0.0
 40
1.499999999999927
  0
CIRCLE
  5
8F
330
70
100
AcDbEntity
  8
Layer 1
 62
    18
420
        0
370
    25
100
AcDbCircle
 10
226.4817549184974
 20
-142.2861968332747
 30
0.0
 40
1.500000000000168
  0
CIRCLE
  5
90
330
70
100
AcDbEntity
  8
Layer 1
 62
    18
420
        0
370
    25
100
AcDbCircle
 10
251.7114182600293
 20
-49.59654741756105
 30
0.0
 40
1.500000000000208
  0
CIRCLE
  5
91
330
70
100
AcDbEntity
  8
Layer 1
 62
    18
420
        0
370
    25
100
AcDbCircle
 10
353.5746888965846
 20
-142.1864510255334
 30
0.0
 40
1.500000000000047
  0
CIRCLE
  5
92
330
70
100
AcDbEntity
  8
Layer 1
 62
    18
420
        0
370
    25
100
AcDbCircle
 10
327.7387807047746
 20
-69.66805728201986
 30
0.0
 40
1.375000000000063
  0
CIRCLE
  5
93
330
70
100
AcDbEntity
  8
Layer 1
 62
    18
420
        0
370
    25
100
AcDbCircle
 10
252.163243400408
 20
-18.04635499357935
 30
0.0
 40
1.375000000000063
  0
CIRCLE
  5
94
330
70
100
AcDbEntity
  8
Layer 1
 62
    18
420
        0
370
    25
100
AcDbCircle
 10
327.6982201374724
 20
-17.98707319850603
 30
0.0
 40
1.374999999999903
  0
CIRCLE
  5
95
330
70
100
AcDbEntity
  8
Layer 1
 62
    18
420
        0
370
    25
100
AcDbCircle
 10
252.2038039677104
 20
-69.72733907709318
 30
0.0
 40
1.374999999999943
  0
CIRCLE
  5
96
330
70
100
AcDbEntity
  8
Layer 1
 62
    18
420
        0
370
    25
100
AcDbCircle
 10
421.5629214870388
 20
-186.3978215826993
 30
0.0
 40
67.49999999999957
  0
CIRCLE
  5
97
330
70
100
AcDbEntity
  8
Layer 1
 62
    18
420
        0
370
    25
100
AcDbCircle
 10
158.5630024846182
 20
-186.6042306924409
 30
0.0
 40
67.49999999999999
  0
CIRCLE
  5
98
330
70
100
AcDbEntity
  8
Layer 1
 62
    18
420
        0
370
    25
100
AcDbCircle
 10
421.4077762693547
 20
11.28327754955895
 30
0.0
 40
67.49999999999946
  0
CIRCLE
  5
99
330
70
100
AcDbEntity
  8
Layer 1
 62
    18
420
        0
370
    25
100
AcDbCircle
 10
158.407857266934
 20
11.07686843981815
 30
0.0
 40
67.50000000000004
  0
CIRCLE
  5
9A
330
70
100
AcDbEntity
  8
Layer 1
 62
    18
420
        0
370
    25
100
AcDbCircle
 10
483.3812744435452
 20
51.72194127690771
 30
0.0
 40
0.9999999999989086
  0
CIRCLE
  5
9B
330
70
100
AcDbEntity
  8
Layer 1
 62
    18
420
        0
370
    25
100
AcDbCircle
 10
97.24974895858066
 20
-227.0428944197892
 30
0.0
 40
0.9999999999999516
  0
CIRCLE
  5
9C
330
70
100
AcDbEntity
  8
Layer 1
 62
    18
420
        0
370
    25
100
AcDbCircle
 10
97.03120551577734
 20
51.41820561573809
 30
0.0
 40
1.000000000000112
  0
SPLINE
  5
9D
330
70
100
AcDbEntity
  8
Layer 1
 62
    18
420
        0
370
    25
100
AcDbSpline
210
0.0
220
0.0
230
1.0
 70
     9
 71
     3
 72
    47
 73
    43
 74
     0
 42
0.0000000001
 43
0.0000000001
 40
0.0
 40
0.0
 40
0.0
 40
0.0
 40
1.0
 40
1.0
 40
1.0
 40
2.0
 40
2.0
 40
2.0
 40
3.0
 40
3.0
 40
3.0
 40
4.0
 40
4.0
 40
4.0
 40
5.0
 40
5.0
 40
5.0
 40
6.0
 40
6.0
 40
6.0
 40
7.0
 40
7.0
 40
7.0
 40
8.0
 40
8.0
 40
8.0
 40
9.0
 40
9.0
 40
9.0
 40
10.0
 40
10.0
 40
10.0
 40
11.0
 40
11.0
 40
11.0
 40
12.0
 40
12.0
 40
12.0
 40
13.0
 40
13.0
 40
13.0
 40
14.0
 40
14.0
 40
14.0
 40
14.0
 10
147.2299540117308
 20
10.48819161926862
 30
0.0
 10
147.2299442180023
 20
10.48819013962358
 30
0.0
 10
147.2299344214969
 20
10.48818865956399
 30
0.0
 10
147.2299246277674
 20
10.48818717992922
 30
0.0
 10
132.2577645064703
 20
8.226196455780188
 30
0.0
 10
118.2867248216217
 20
18.5298245626232
 30
0.0
 10
116.0247340974733
 20
33.50198468392031
 30
0.0
 10
113.7627433733237
 20
48.47414480521708
 30
0.0
 10
124.0663714801673
 20
62.44518449006599
 30
0.0
 10
139.0385316014641
 20
64.70717521421502
 30
0.0
 10
139.0385316014641
 20
64.70717521421502
 30
0.0
 10
145.2233954953471
 20
65.64158311761985
 30
0.0
 10
145.2233954953471
 20
65.64158311761985
 30
0.0
 10
146.5340058782886
 20
65.83958985165917
 30
0.0
 10
147.4359493434301
 20
67.06256566286072
 30
0.0
 10
147.237942609391
 20
68.3731760458022
 30
0.0
 10
147.0399358753514
 20
69.683786428744
 30
0.0
 10
145.8169600641499
 20
70.58572989388577
 30
0.0
 10
144.5063496812084
 20
70.38772315984644
 30
0.0
 10
144.5063496812084
 20
70.38772315984644
 30
0.0
 10
138.3214857873257
 20
69.45331525644128
 30
0.0
 10
138.3214857873257
 20
69.45331525644128
 30
0.0
 10
120.7281048998645
 20
66.79531106607679
 30
0.0
 10
108.620589860999
 20
50.37831976010722
 30
0.0
 10
111.2785940513632
 20
32.78493887264546
 30
0.0
 10
113.9365982417277
 20
15.19155798518434
 30
0.0
 10
130.3535895476982
 20
3.084042946318783
 30
0.0
 10
147.9469704351593
 20
5.742047136683607
 30
0.0
 10
147.9469819500309
 20
5.742048876347671
 30
0.0
 10
147.9469934583782
 20
5.742050615032502
 30
0.0
 10
147.9470049732478
 20
5.742052354709398
 30
0.0
 10
147.9470049732478
 20
5.742052354709398
 30
0.0
 10
154.1318987685808
 20
6.676478556094316
 30
0.0
 10
154.1318987685808
 20
6.676478556094316
 30
0.0
 10
155.4425089368487
 20
6.874486711056485
 30
0.0
 10
156.3444510760772
 20
8.097463500116884
 30
0.0
 10
156.1464429211144
 20
9.408073668385009
 30
0.0
 10
155.9484347661526
 20
10.71868383665314
 30
0.0
 10
154.7254579770918
 20
11.62062597588137
 30
0.0
 10
153.4148478088237
 20
11.4226178209192
 30
0.0
 10
153.4148478088237
 20
11.4226178209192
 30
0.0
 10
147.2299540117308
 20
10.48819161926862
 30
0.0
 10
147.2299540117308
 20
10.48819161926862
 30
0.0
  0
CIRCLE
  5
9E
330
70
100
AcDbEntity
  8
Layer 1
 62
    18
420
        0
370
    25
100
AcDbCircle
 10
153.7733732887019
 20
9.049548188506761
 30
0.0
 40
1.000000000000035
  0
CIRCLE
  5
9F
330
70
100
AcDbEntity
  8
Layer 1
 62
    18
420
        0
370
    25
100
AcDbCircle
 10
144.8648725882777
 20
68.01465313873315
 30
0.0
 40
1.000000000000035
  0
SPLINE
  5
A0
330
70
100
AcDbEntity
  8
Layer 1
 62
    18
420
        0
370
    25
100
AcDbSpline
210
0.0
220
0.0
230
1.0
 70
     9
 71
     3
 72
    41
 73
    37
 74
     0
 42
0.0000000001
 43
0.0000000001
 40
0.0
 40
0.0
 40
0.0
 40
0.0
 40
1.0
 40
1.0
 40
1.0
 40
2.0
 40
2.0
 40
2.0
 40
3.0
 40
3.0
 40
3.0
 40
4.0
 40
4.0
 40
4.0
 40
5.0
 40
5.0
 40
5.0
 40
6.0
 40
6.0
 40
6.0
 40
7.0
 40
7.0
 40
7.0
 40
8.0
 40
8.0
 40
8.0
 40
9.0
 40
9.0
 40
9.0
 40
10.0
 40
10.0
 40
10.0
 40
11.0
 40
11.0
 40
11.0
 40
12.0
 40
12.0
 40
12.0
 40
12.0
 10
317.4825685775148
 20
-254.7879295915357
 30
0.0
 10
317.4825685775148
 20
-254.7879295915357
 30
0.0
 10
311.7280801928393
 20
-254.8651846554884
 30
0.0
 10
311.7280801928393
 20
-254.8651846554884
 30
0.0
 10
310.6236102210744
 20
-254.8800123678047
 30
0.0
 10
309.7162401682242
 20
-253.996682786582
 30
0.0
 10
309.7014124559066
 20
-252.8922128148185
 30
0.0
 10
309.7014124559066
 20
-252.8922128148185
 30
0.0
 10
309.5134768189852
 20
-238.8934742932097
 30
0.0
 10
309.5134768189852
 20
-238.8934742932097
 30
0.0
 10
309.4986491066677
 20
-237.7890043214448
 30
0.0
 10
310.3819786878891
 20
-236.8816342685932
 30
0.0
 10
311.4864486596539
 20
-236.866806556277
 30
0.0
 10
311.4864486596539
 20
-236.866806556277
 30
0.0
 10
318.8563265505674
 20
-236.7678645913752
 30
0.0
 10
318.8563265505674
 20
-236.7678645913752
 30
0.0
 10
319.9607965223329
 20
-236.7530368790577
 30
0.0
 10
320.8681665751839
 20
-237.6363664602803
 30
0.0
 10
320.8829942875007
 20
-238.7408364320452
 30
0.0
 10
320.8829942875007
 20
-238.7408364320452
 30
0.0
 10
320.9162263920344
 20
-241.2161920883934
 30
0.0
 10
320.9162263920344
 20
-241.2161920883934
 30
0.0
 10
320.9249266907548
 20
-241.8642501620911
 30
0.0
 10
320.6190547365226
 20
-242.4763462824701
 30
0.0
 10
320.0955639644655
 20
-242.8584619372838
 30
0.0
 10
317.4190453234707
 20
-244.8121538220622
 30
0.0
 10
316.8330784611097
 20
-248.5656810822627
 30
0.0
 10
318.7867703458894
 20
-251.2421997232582
 30
0.0
 10
318.8551884276787
 20
-251.3359311210891
 30
0.0
 10
318.9263113919371
 20
-251.4276578859266
 30
0.0
 10
319.0000494840789
 20
-251.5172642619404
 30
0.0
 10
319.2887925430996
 20
-251.8681442259699
 30
0.0
 10
319.4494404174969
 20
-252.3068918585855
 30
0.0
 10
319.4555404181848
 20
-252.761261854603
 30
0.0
 10
319.4703681305023
 20
-253.8657318263679
 30
0.0
 10
318.5870385492797
 20
-254.7731018792182
 30
0.0
 10
317.4825685775148
 20
-254.7879295915357
 30
0.0
  0
SPLINE
  5
A1
330
70
100
AcDbEntity
  8
Layer 1
 62
    18
420
        0
370
    25
100
AcDbSpline
210
0.0
220
0.0
230
1.0
 70
     9
 71
     3
 72
    32
 73
    28
 74
     0
 42
0.0000000001
 43
0.0000000001
 40
0.0
 40
0.0
 40
0.0
 40
0.0
 40
1.0
 40
1.0
 40
1.0
 40
2.0
 40
2.0
 40
2.0
 40
3.0
 40
3.0
 40
3.0
 40
4.0
 40
4.0
 40
4.0
 40
5.0
 40
5.0
 40
5.0
 40
6.0
 40
6.0
 40
6.0
 40
7.0
 40
7.0
 40
7.0
 40
8.0
 40
8.0
 40
8.0
 40
9.0
 40
9.0
 40
9.0
 40
9.0
 10
317.94076039218
 20
-203.4711854575402
 30
0.0
 10
317.94076039218
 20
-203.4711854575402
 30
0.0
 10
311.0393501894794
 20
-203.5638381576457
 30
0.0
 10
311.0393501894794
 20
-203.5638381576457
 30
0.0
 10
309.9348802177145
 20
-203.5786658699632
 30
0.0
 10
309.0275101648642
 20
-202.6953362887419
 30
0.0
 10
309.0126824525466
 20
-201.590866316977
 30
0.0
 10
309.0126824525466
 20
-201.590866316977
 30
0.0
 10
308.6368111787026
 20
-173.5933892737582
 30
0.0
 10
308.6368111787026
 20
-173.5933892737582
 30
0.0
 10
308.6219834663851
 20
-172.4889193019933
 30
0.0
 10
309.5053130476071
 20
-171.581549249143
 30
0.0
 10
310.609783019372
 20
-171.5667215368255
 30
0.0
 10
310.609783019372
 20
-171.5667215368255
 30
0.0
 10
312.7565216138789
 20
-171.5379011767308
 30
0.0
 10
312.7565216138789
 20
-171.5379011767308
 30
0.0
 10
313.7317898610837
 20
-171.524808021307
 30
0.0
 10
314.5742701140783
 20
-172.2171170138023
 30
0.0
 10
314.7504654779196
 20
-173.1764265459573
 30
0.0
 10
314.7504654779196
 20
-173.1764265459573
 30
0.0
 10
319.8810083599566
 20
-201.1100712491641
 30
0.0
 10
319.8810083599566
 20
-201.1100712491641
 30
0.0
 10
319.9012793027883
 20
-201.2204379935577
 30
0.0
 10
319.9122258901209
 20
-201.3323149562795
 30
0.0
 10
319.9137322328493
 20
-201.4445177206062
 30
0.0
 10
319.9285599451662
 20
-202.5489876923724
 30
0.0
 10
319.0452303639449
 20
-203.4563577452227
 30
0.0
 10
317.94076039218
 20
-203.4711854575402
 30
0.0
  0
SPLINE
  5
A2
330
70
100
AcDbEntity
  8
Layer 1
 62
    18
420
        0
370
    25
100
AcDbSpline
210
0.0
220
0.0
230
1.0
 70
     9
 71
     3
 72
    35
 73
    31
 74
     0
 42
0.0000000001
 43
0.0000000001
 40
0.0
 40
0.0
 40
0.0
 40
0.0
 40
1.0
 40
1.0
 40
1.0
 40
2.0
 40
2.0
 40
2.0
 40
3.0
 40
3.0
 40
3.0
 40
4.0
 40
4.0
 40
4.0
 40
5.0
 40
5.0
 40
5.0
 40
6.0
 40
6.0
 40
6.0
 40
7.0
 40
7.0
 40
7.0
 40
8.0
 40
8.0
 40
8.0
 40
9.0
 40
9.0
 40
9.0
 40
10.0
 40
10.0
 40
10.0
 40
10.0
 10
319.7530505622613
 20
-224.1022073133596
 30
0.0
 10
318.6047568336602
 20
-224.847921193898
 30
0.0
 10
317.7758937331849
 20
-225.9951257073822
 30
0.0
 10
317.428524967484
 20
-227.319513346779
 30
0.0
 10
317.2004016511587
 20
-228.1892625304434
 30
0.0
 10
316.4198969324843
 20
-228.7998531969389
 30
0.0
 10
315.5208095090121
 20
-228.8119236108064
 30
0.0
 10
315.5208095090121
 20
-228.8119236108064
 30
0.0
 10
311.3790568671273
 20
-228.8675274010716
 30
0.0
 10
311.3790568671273
 20
-228.8675274010716
 30
0.0
 10
310.2745868953623
 20
-228.8823551133891
 30
0.0
 10
309.3672168425121
 20
-227.9990255321664
 30
0.0
 10
309.3523891301945
 20
-226.8945555604016
 30
0.0
 10
309.3523891301945
 20
-226.8945555604016
 30
0.0
 10
309.1334982191387
 20
-210.5900553665815
 30
0.0
 10
309.1334982191387
 20
-210.5900553665815
 30
0.0
 10
309.1186705068212
 20
-209.4855853948179
 30
0.0
 10
310.0020000880439
 20
-208.5782153419663
 30
0.0
 10
311.1064700598087
 20
-208.5633876296488
 30
0.0
 10
311.1064700598087
 20
-208.5633876296488
 30
0.0
 10
318.4763479507222
 20
-208.464445664747
 30
0.0
 10
318.4763479507222
 20
-208.464445664747
 30
0.0
 10
319.580817922487
 20
-208.4496179524294
 30
0.0
 10
320.488187975338
 20
-209.3329475336521
 30
0.0
 10
320.5030156876549
 20
-210.437417505417
 30
0.0
 10
320.5030156876549
 20
-210.437417505417
 30
0.0
 10
320.6635889789244
 20
-222.3980203737565
 30
0.0
 10
320.6635889789244
 20
-222.3980203737565
 30
0.0
 10
320.672808304556
 20
-223.0847391407793
 30
0.0
 10
320.3290325435157
 20
-223.7281586290702
 30
0.0
 10
319.7530505622613
 20
-224.1022073133596
 30
0.0
  0
SPLINE
  5
A3
330
70
100
AcDbEntity
  8
Layer 1
 62
    18
420
        0
370
    25
100
AcDbSpline
210
0.0
220
0.0
230
1.0
 70
     9
 71
     3
 72
    29
 73
    25
 74
     0
 42
0.0000000001
 43
0.0000000001
 40
0.0
 40
0.0
 40
0.0
 40
0.0
 40
1.0
 40
1.0
 40
1.0
 40
2.0
 40
2.0
 40
2.0
 40
3.0
 40
3.0
 40
3.0
 40
4.0
 40
4.0
 40
4.0
 40
5.0
 40
5.0
 40
5.0
 40
6.0
 40
6.0
 40
6.0
 40
7.0
 40
7.0
 40
7.0
 40
8.0
 40
8.0
 40
8.0
 40
8.0
 10
312.3088209303005
 20
-166.5434610720779
 30
0.0
 10
312.3088209303005
 20
-166.5434610720779
 30
0.0
 10
310.5426631490426
 20
-166.5671720648225
 30
0.0
 10
310.5426631490426
 20
-166.5671720648225
 30
0.0
 10
309.4381931772777
 20
-166.58199977714
 30
0.0
 10
308.5308231244269
 20
-165.6986701959186
 30
0.0
 10
308.5159954121093
 20
-164.5942002241538
 30
0.0
 10
308.5159954121093
 20
-164.5942002241538
 30
0.0
 10
308.3280597751879
 20
-150.5954617025437
 30
0.0
 10
308.3280597751879
 20
-150.5954617025437
 30
0.0
 10
308.3132320628704
 20
-149.4909917307792
 30
0.0
 10
309.1965616440917
 20
-148.5836216779289
 30
0.0
 10
310.3010316158572
 20
-148.5687939656113
 30
0.0
 10
310.3010316158572
 20
-148.5687939656113
 30
0.0
 10
312.0671893971145
 20
-148.5450829728661
 30
0.0
 10
312.0671893971145
 20
-148.5450829728661
 30
0.0
 10
313.1716593688794
 20
-148.5302552605492
 30
0.0
 10
314.079029421731
 20
-149.4135848417706
 30
0.0
 10
314.0938571340478
 20
-150.5180548135364
 30
0.0
 10
314.0938571340478
 20
-150.5180548135364
 30
0.0
 10
314.2817927709699
 20
-164.5167933351439
 30
0.0
 10
314.2817927709699
 20
-164.5167933351439
 30
0.0
 10
314.2966204832874
 20
-165.62126330691
 30
0.0
 10
313.4132909020647
 20
-166.5286333597603
 30
0.0
 10
312.3088209303005
 20
-166.5434610720779
 30
0.0
  0
SPLINE
  5
A4
330
70
100
AcDbEntity
  8
Layer 1
 62
    18
420
        0
370
    25
100
AcDbSpline
210
0.0
220
0.0
230
1.0
 70
     9
 71
     3
 72
    32
 73
    28
 74
     0
 42
0.0000000001
 43
0.0000000001
 40
0.0
 40
0.0
 40
0.0
 40
0.0
 40
1.0
 40
1.0
 40
1.0
 40
2.0
 40
2.0
 40
2.0
 40
3.0
 40
3.0
 40
3.0
 40
4.0
 40
4.0
 40
4.0
 40
5.0
 40
5.0
 40
5.0
 40
6.0
 40
6.0
 40
6.0
 40
7.0
 40
7.0
 40
7.0
 40
8.0
 40
8.0
 40
8.0
 40
9.0
 40
9.0
 40
9.0
 40
9.0
 10
308.2072440085952
 20
-141.5962726529383
 30
0.0
 10
308.2072440085952
 20
-141.5962726529383
 30
0.0
 10
308.0568389663046
 20
-130.3930708874914
 30
0.0
 10
308.0568389663046
 20
-130.3930708874914
 30
0.0
 10
308.048861919767
 20
-129.7988856096165
 30
0.0
 10
308.3055212524874
 20
-129.2319226155312
 30
0.0
 10
308.7572551727126
 20
-128.8458445884009
 30
0.0
 10
309.5969369499207
 20
-128.1282038059699
 30
0.0
 10
310.8593963236336
 20
-128.22713757976
 30
0.0
 10
311.5770371060642
 20
-129.0668193569674
 30
0.0
 10
311.952409027523
 20
-129.5060265060601
 30
0.0
 10
312.3946404369211
 20
-129.883345340233
 30
0.0
 10
312.8874632974338
 20
-130.1848957131214
 30
0.0
 10
313.4732792260275
 20
-130.5433470469909
 30
0.0
 10
313.8342040246878
 20
-131.1773058007787
 30
0.0
 10
313.8434233503188
 20
-131.8640245678022
 30
0.0
 10
313.8434233503188
 20
-131.8640245678022
 30
0.0
 10
313.9730413674552
 20
-141.5188657639298
 30
0.0
 10
313.9730413674552
 20
-141.5188657639298
 30
0.0
 10
313.9878690797727
 20
-142.6233357356946
 30
0.0
 10
313.10453949855
 20
-143.5307057885455
 30
0.0
 10
312.0000695267852
 20
-143.5455335008634
 30
0.0
 10
312.0000695267852
 20
-143.5455335008634
 30
0.0
 10
310.2339117455279
 20
-143.5692444936076
 30
0.0
 10
310.2339117455279
 20
-143.5692444936076
 30
0.0
 10
309.1294417737624
 20
-143.5840722059252
 30
0.0
 10
308.2220717209121
 20
-142.7007426247032
 30
0.0
 10
308.2072440085952
 20
-141.5962726529383
 30
0.0
  0
SPLINE
  5
A5
330
70
100
AcDbEntity
  8
Layer 1
 62
    18
420
        0
370
    25
100
AcDbSpline
210
0.0
220
0.0
230
1.0
 70
     9
 71
     3
 72
    32
 73
    28
 74
     0
 42
0.0000000001
 43
0.0000000001
 40
0.0
 40
0.0
 40
0.0
 40
0.0
 40
1.0
 40
1.0
 40
1.0
 40
2.0
 40
2.0
 40
2.0
 40
3.0
 40
3.0
 40
3.0
 40
4.0
 40
4.0
 40
4.0
 40
5.0
 40
5.0
 40
5.0
 40
6.0
 40
6.0
 40
6.0
 40
7.0
 40
7.0
 40
7.0
 40
8.0
 40
8.0
 40
8.0
 40
9.0
 40
9.0
 40
9.0
 40
9.0
 10
300.0575598110992
 20
-130.5004626800188
 30
0.0
 10
300.0575598110992
 20
-130.5004626800188
 30
0.0
 10
300.2079648533895
 20
-141.703664445465
 30
0.0
 10
300.2079648533895
 20
-141.703664445465
 30
0.0
 10
300.2227925657067
 20
-142.8081344172299
 30
0.0
 10
299.339462984485
 20
-143.7155044700808
 30
0.0
 10
298.2349930127205
 20
-143.7303321823983
 30
0.0
 10
298.2349930127205
 20
-143.7303321823983
 30
0.0
 10
296.4688352314626
 20
-143.7540431751435
 30
0.0
 10
296.4688352314626
 20
-143.7540431751435
 30
0.0
 10
295.3643652596977
 20
-143.7688708874605
 30
0.0
 10
294.4569952068468
 20
-142.8855413062387
 30
0.0
 10
294.4421674945299
 20
-141.7810713344735
 30
0.0
 10
294.4421674945299
 20
-141.7810713344735
 30
0.0
 10
294.3125494773938
 20
-132.1262301383461
 30
0.0
 10
294.3125494773938
 20
-132.1262301383461
 30
0.0
 10
294.3033301517619
 20
-131.4395113713225
 30
0.0
 10
294.6471059128019
 20
-130.7960918830324
 30
0.0
 10
295.2230878940559
 20
-130.4220431987429
 30
0.0
 10
295.7076378588993
 20
-130.1073714160815
 30
0.0
 10
296.1395805616761
 20
-129.718316633823
 30
0.0
 10
296.5030264485317
 20
-129.269190719896
 30
0.0
 10
296.8768382947162
 20
-128.8072551384907
 30
0.0
 10
297.436706796291
 20
-128.5354678858863
 30
0.0
 10
298.0308920741668
 20
-128.5274908393494
 30
0.0
 10
299.1353620459314
 20
-128.5126631270319
 30
0.0
 10
300.0427320987817
 20
-129.3959927082546
 30
0.0
 10
300.0575598110992
 20
-130.5004626800188
 30
0.0
  0
SPLINE
  5
A6
330
70
100
AcDbEntity
  8
Layer 1
 62
    18
420
        0
370
    25
100
AcDbSpline
210
0.0
220
0.0
230
1.0
 70
     9
 71
     3
 72
    32
 73
    28
 74
     0
 42
0.0000000001
 43
0.0000000001
 40
0.0
 40
0.0
 40
0.0
 40
0.0
 40
1.0
 40
1.0
 40
1.0
 40
2.0
 40
2.0
 40
2.0
 40
3.0
 40
3.0
 40
3.0
 40
4.0
 40
4.0
 40
4.0
 40
5.0
 40
5.0
 40
5.0
 40
6.0
 40
6.0
 40
6.0
 40
7.0
 40
7.0
 40
7.0
 40
8.0
 40
8.0
 40
8.0
 40
9.0
 40
9.0
 40
9.0
 40
9.0
 10
299.040431456672
 20
-203.7249258464364
 30
0.0
 10
299.040431456672
 20
-203.7249258464364
 30
0.0
 10
292.139021253971
 20
-203.8175785465419
 30
0.0
 10
292.139021253971
 20
-203.8175785465419
 30
0.0
 10
292.0268184896433
 20
-203.819084889271
 30
0.0
 10
291.9146879811402
 20
-203.8111456434001
 30
0.0
 10
291.8038168294181
 20
-203.793844859976
 30
0.0
 10
290.712454610801
 20
-203.6235442805375
 30
0.0
 10
289.9657866241652
 20
-202.6007644999374
 30
0.0
 10
290.1360872036032
 20
-201.5094022813191
 30
0.0
 10
290.1360872036032
 20
-201.5094022813191
 30
0.0
 10
294.5148875379528
 20
-173.4480928980907
 30
0.0
 10
294.5148875379528
 20
-173.4480928980907
 30
0.0
 10
294.6652662280513
 20
-172.4843990492531
 30
0.0
 10
295.4888574448525
 20
-171.7697227411347
 30
0.0
 10
296.464125692057
 20
-171.7566295857109
 30
0.0
 10
296.464125692057
 20
-171.7566295857109
 30
0.0
 10
298.6108642865639
 20
-171.7278092256162
 30
0.0
 10
298.6108642865639
 20
-171.7278092256162
 30
0.0
 10
299.7153342583291
 20
-171.7129815132986
 30
0.0
 10
300.6227043111797
 20
-172.59631109452
 30
0.0
 10
300.6375320234972
 20
-173.7007810662849
 30
0.0
 10
300.6375320234972
 20
-173.7007810662849
 30
0.0
 10
301.0134032973413
 20
-201.6982581095037
 30
0.0
 10
301.0134032973413
 20
-201.6982581095037
 30
0.0
 10
301.0282310096588
 20
-202.8027280812686
 30
0.0
 10
300.1449014284365
 20
-203.7100981341189
 30
0.0
 10
299.040431456672
 20
-203.7249258464364
 30
0.0
  0
SPLINE
  5
A7
330
70
100
AcDbEntity
  8
Layer 1
 62
    18
420
        0
370
    25
100
AcDbSpline
210
0.0
220
0.0
230
1.0
 70
     9
 71
     3
 72
    35
 73
    31
 74
     0
 42
0.0000000001
 43
0.0000000001
 40
0.0
 40
0.0
 40
0.0
 40
0.0
 40
1.0
 40
1.0
 40
1.0
 40
2.0
 40
2.0
 40
2.0
 40
3.0
 40
3.0
 40
3.0
 40
4.0
 40
4.0
 40
4.0
 40
5.0
 40
5.0
 40
5.0
 40
6.0
 40
6.0
 40
6.0
 40
7.0
 40
7.0
 40
7.0
 40
8.0
 40
8.0
 40
8.0
 40
9.0
 40
9.0
 40
9.0
 40
10.0
 40
10.0
 40
10.0
 40
10.0
 10
293.2912930433696
 20
-227.6435601205788
 30
0.0
 10
292.9084955847553
 20
-226.3289750969113
 30
0.0
 10
292.0491338996319
 20
-225.2044353113852
 30
0.0
 10
290.8812349395723
 20
-224.4898167432924
 30
0.0
 10
290.295419010978
 20
-224.1313654094241
 30
0.0
 10
289.9344942123189
 20
-223.4974066556351
 30
0.0
 10
289.925274886687
 20
-222.8106878886122
 30
0.0
 10
289.925274886687
 20
-222.8106878886122
 30
0.0
 10
289.7647015954175
 20
-210.8500850202727
 30
0.0
 10
289.7647015954175
 20
-210.8500850202727
 30
0.0
 10
289.7498738831003
 20
-209.7456150485091
 30
0.0
 10
290.633203464322
 20
-208.8382449956575
 30
0.0
 10
291.7376734360875
 20
-208.82341728334
 30
0.0
 10
291.7376734360875
 20
-208.82341728334
 30
0.0
 10
299.1075513270013
 20
-208.7244753184382
 30
0.0
 10
299.1075513270013
 20
-208.7244753184382
 30
0.0
 10
300.2120212987658
 20
-208.7096476061219
 30
0.0
 10
301.1193913516164
 20
-209.5929771873446
 30
0.0
 10
301.134219063934
 20
-210.6974471591081
 30
0.0
 10
301.134219063934
 20
-210.6974471591081
 30
0.0
 10
301.3531099749891
 20
-227.0019473529283
 30
0.0
 10
301.3531099749891
 20
-227.0019473529283
 30
0.0
 10
301.3679376873067
 20
-228.1064173246932
 30
0.0
 10
300.484608106084
 20
-229.0137873775435
 30
0.0
 10
299.3801381343201
 20
-229.028615089861
 30
0.0
 10
299.3801381343201
 20
-229.028615089861
 30
0.0
 10
295.2383854924343
 20
-229.0842188801262
 30
0.0
 10
295.2383854924343
 20
-229.0842188801262
 30
0.0
 10
294.3392980689617
 20
-229.0962892939937
 30
0.0
 10
293.542683019563
 20
-228.506871750181
 30
0.0
 10
293.2912930433696
 20
-227.6435601205788
 30
0.0
  0
SPLINE
  5
A8
330
70
100
AcDbEntity
  8
Layer 1
 62
    18
420
        0
370
    25
100
AcDbSpline
210
0.0
220
0.0
230
1.0
 70
     9
 71
     3
 72
    29
 73
    25
 74
     0
 42
0.0000000001
 43
0.0000000001
 40
0.0
 40
0.0
 40
0.0
 40
0.0
 40
1.0
 40
1.0
 40
1.0
 40
2.0
 40
2.0
 40
2.0
 40
3.0
 40
3.0
 40
3.0
 40
4.0
 40
4.0
 40
4.0
 40
5.0
 40
5.0
 40
5.0
 40
6.0
 40
6.0
 40
6.0
 40
7.0
 40
7.0
 40
7.0
 40
8.0
 40
8.0
 40
8.0
 40
8.0
 10
298.5437444162349
 20
-166.7282597536132
 30
0.0
 10
298.5437444162349
 20
-166.7282597536132
 30
0.0
 10
296.7775866349773
 20
-166.7519707463577
 30
0.0
 10
296.7775866349773
 20
-166.7519707463577
 30
0.0
 10
295.6731166632124
 20
-166.7667984586753
 30
0.0
 10
294.7657466103618
 20
-165.8834688774539
 30
0.0
 10
294.7509188980443
 20
-164.7789989056877
 30
0.0
 10
294.7509188980443
 20
-164.7789989056877
 30
0.0
 10
294.5629832611223
 20
-150.780260384079
 30
0.0
 10
294.5629832611223
 20
-150.780260384079
 30
0.0
 10
294.5481555488047
 20
-149.6757904123144
 30
0.0
 10
295.4314851300271
 20
-148.7684203594635
 30
0.0
 10
296.535955101792
 20
-148.7535926471469
 30
0.0
 10
296.535955101792
 20
-148.7535926471469
 30
0.0
 10
298.3021128830499
 20
-148.729881654402
 30
0.0
 10
298.3021128830499
 20
-148.729881654402
 30
0.0
 10
299.4065828548141
 20
-148.7150539420845
 30
0.0
 10
300.313952907665
 20
-149.5983835233059
 30
0.0
 10
300.3287806199825
 20
-150.7028534950704
 30
0.0
 10
300.3287806199825
 20
-150.7028534950704
 30
0.0
 10
300.5167162569039
 20
-164.7015920166805
 30
0.0
 10
300.5167162569039
 20
-164.7015920166805
 30
0.0
 10
300.5315439692221
 20
-165.8060619884453
 30
0.0
 10
299.6482143879998
 20
-166.7134320412956
 30
0.0
 10
298.5437444162349
 20
-166.7282597536132
 30
0.0
  0
SPLINE
  5
A9
330
70
100
AcDbEntity
  8
Layer 1
 62
    18
420
        0
370
    25
100
AcDbSpline
210
0.0
220
0.0
230
1.0
 70
     9
 71
     3
 72
    41
 73
    37
 74
     0
 42
0.0000000001
 43
0.0000000001
 40
0.0
 40
0.0
 40
0.0
 40
0.0
 40
1.0
 40
1.0
 40
1.0
 40
2.0
 40
2.0
 40
2.0
 40
3.0
 40
3.0
 40
3.0
 40
4.0
 40
4.0
 40
4.0
 40
5.0
 40
5.0
 40
5.0
 40
6.0
 40
6.0
 40
6.0
 40
7.0
 40
7.0
 40
7.0
 40
8.0
 40
8.0
 40
8.0
 40
9.0
 40
9.0
 40
9.0
 40
10.0
 40
10.0
 40
10.0
 40
11.0
 40
11.0
 40
11.0
 40
12.0
 40
12.0
 40
12.0
 40
12.0
 10
299.7291614600322
 20
-255.0262723442778
 30
0.0
 10
299.7291614600322
 20
-255.0262723442778
 30
0.0
 10
293.9746730753567
 20
-255.1035274082305
 30
0.0
 10
293.9746730753567
 20
-255.1035274082305
 30
0.0
 10
293.5203030793379
 20
-255.1096274089171
 30
0.0
 10
293.0774008969048
 20
-254.9608158452902
 30
0.0
 10
292.7188959320175
 20
-254.6815964092894
 30
0.0
 10
291.8474520164482
 20
-254.0028775561535
 30
0.0
 10
291.6912174842304
 20
-252.7462223397907
 30
0.0
 10
292.3699363373649
 20
-251.8747784242211
 30
0.0
 10
294.4060928967699
 20
-249.2604466775148
 30
0.0
 10
293.9373893001143
 20
-245.4904810284235
 30
0.0
 10
291.3230575534093
 20
-243.4543244690174
 30
0.0
 10
291.2315039339947
 20
-243.3830184831026
 30
0.0
 10
291.13790089445
 20
-243.3143836055235
 30
0.0
 10
291.0423665583948
 20
-243.2485064509887
 30
0.0
 10
290.5088063587513
 20
-242.8805818997039
 30
0.0
 10
290.1866125985165
 20
-242.2769176769467
 30
0.0
 10
290.1779122997965
 20
-241.6288596032491
 30
0.0
 10
290.1779122997965
 20
-241.6288596032491
 30
0.0
 10
290.1446801952637
 20
-239.1535039469009
 30
0.0
 10
290.1446801952637
 20
-239.1535039469009
 30
0.0
 10
290.1298524829461
 20
-238.049033975136
 30
0.0
 10
291.0131820641682
 20
-237.1416639222857
 30
0.0
 10
292.1176520359327
 20
-237.1268362099681
 30
0.0
 10
292.1176520359327
 20
-237.1268362099681
 30
0.0
 10
299.4875299268465
 20
-237.0278942450664
 30
0.0
 10
299.4875299268465
 20
-237.0278942450664
 30
0.0
 10
300.5919998986113
 20
-237.0130665327488
 30
0.0
 10
301.4993699514623
 20
-237.8963961139715
 30
0.0
 10
301.5141976637798
 20
-239.0008660857364
 30
0.0
 10
301.5141976637798
 20
-239.0008660857364
 30
0.0
 10
301.7021333007012
 20
-252.9996046073451
 30
0.0
 10
301.7021333007012
 20
-252.9996046073451
 30
0.0
 10
301.7169610130188
 20
-254.10407457911
 30
0.0
 10
300.8336314317967
 20
-255.0114446319603
 30
0.0
 10
299.7291614600322
 20
-255.0262723442778
 30
0.0
  0
LWPOLYLINE
  5
AA
330
70
100
AcDbEntity
  8
Layer 1
 62
    18
420
        0
370
    25
100
AcDbPolyline
 90
        8
 70
     1
 43
0.0
 10
287.1608947783421
 20
-120.8769313705218
 10
287.8320934816349
 20
-170.8724260905538
 10
282.6713645161521
 20
-203.9446835779302
 10
283.4674863120394
 20
-263.245309230977
 10
328.2045389258865
 20
-262.6447060791987
 10
327.4084171299985
 20
-203.3440804261519
 10
321.3617058761696
 20
-170.4222848830872
 10
320.6905071728761
 20
-120.4267901630553
  0
CIRCLE
  5
AB
330
70
100
AcDbEntity
  8
Layer 1
 62
    18
420
        0
370
    25
100
AcDbCircle
 10
287.6362699677851
 20
-248.1879908385972
 30
0.0
 40
0.9999999999997182
  0
CIRCLE
  5
AC
330
70
100
AcDbEntity
  8
Layer 1
 62
    18
420
        0
370
    25
100
AcDbCircle
 10
323.6330261662073
 20
-247.7047277722271
 30
0.0
 40
1.000000000000043
  0
CIRCLE
  5
AD
330
70
100
AcDbEntity
  8
Layer 1
 62
    18
420
        0
370
    25
100
AcDbCircle
 10
288.0106206658035
 20
-229.1812529510258
 30
0.0
 40
1.499999999999662
  0
CIRCLE
  5
AE
330
70
100
AcDbEntity
  8
Layer 1
 62
    18
420
        0
370
    25
100
AcDbCircle
 10
315.7580775712023
 20
-125.4934595053885
 30
0.0
 40
1.49999999999974
  0
CIRCLE
  5
AF
330
70
100
AcDbEntity
  8
Layer 1
 62
    18
420
        0
370
    25
100
AcDbCircle
 10
322.7485743356434
 20
-228.7148895399068
 30
0.0
 40
1.499999999999737
  0
CIRCLE
  5
B0
330
70
100
AcDbEntity
  8
Layer 1
 62
    18
420
        0
370
    25
100
AcDbCircle
 10
292.2275641206745
 20
-125.8093609721957
 30
0.0
 40
1.500000000000061
  0
SPLINE
  5
B1
330
70
100
AcDbEntity
  8
Layer 1
 62
    18
420
        0
370
    25
100
AcDbSpline
210
0.0
220
0.0
230
1.0
 70
     9
 71
     3
 72
    47
 73
    43
 74
     0
 42
0.0000000001
 43
0.0000000001
 40
0.0
 40
0.0
 40
0.0
 40
0.0
 40
1.0
 40
1.0
 40
1.0
 40
2.0
 40
2.0
 40
2.0
 40
3.0
 40
3.0
 40
3.0
 40
4.0
 40
4.0
 40
4.0
 40
5.0
 40
5.0
 40
5.0
 40
6.0
 40
6.0
 40
6.0
 40
7.0
 40
7.0
 40
7.0
 40
8.0
 40
8.0
 40
8.0
 40
9.0
 40
9.0
 40
9.0
 40
10.0
 40
10.0
 40
10.0
 40
11.0
 40
11.0
 40
11.0
 40
12.0
 40
12.0
 40
12.0
 40
13.0
 40
13.0
 40
13.0
 40
14.0
 40
14.0
 40
14.0
 40
14.0
 10
137.6847595509855
 20
47.90857118384113
 30
0.0
 10
137.6847694535468
 20
47.90857096997344
 30
0.0
 10
137.6847793589155
 20
47.90857075603964
 30
0.0
 10
137.6847892614758
 20
47.90857054216135
 30
0.0
 10
152.823325303295
 20
47.58160380921673
 30
0.0
 10
164.8304746235556
 20
35.04433667316577
 30
0.0
 10
164.5035078906103
 20
19.90580063134728
 30
0.0
 10
164.1765411576663
 20
4.767264589528473
 30
0.0
 10
151.6392740216147
 20
-7.239884730732109
 30
0.0
 10
136.5007379797965
 20
-6.912917997787172
 30
0.0
 10
136.5007379797965
 20
-6.912917997787172
 30
0.0
 10
130.2471456984494
 20
-6.777850997817732
 30
0.0
 10
130.2471456984494
 20
-6.777850997817732
 30
0.0
 10
128.9219713510036
 20
-6.749229476699191
 30
0.0
 10
127.8245029596397
 20
-7.800293213611197
 30
0.0
 10
127.7958814385212
 20
-9.125467561056954
 30
0.0
 10
127.7672599174023
 20
-10.45064190850239
 30
0.0
 10
128.8183236543146
 20
-11.5481102998676
 30
0.0
 10
130.1434980017601
 20
-11.57673182098582
 30
0.0
 10
130.1434980017601
 20
-11.57673182098582
 30
0.0
 10
136.3970902831069
 20
-11.71179882095526
 30
0.0
 10
136.3970902831069
 20
-11.71179882095526
 30
0.0
 10
154.1859750197755
 20
-12.09600859802035
 30
0.0
 10
168.9181789400508
 20
2.013268194503954
 30
0.0
 10
169.3023887171162
 20
19.80215293117321
 30
0.0
 10
169.6865984941816
 20
37.59103766784214
 30
0.0
 10
155.577321701656
 20
52.32324158811741
 30
0.0
 10
137.7884369649871
 20
52.70745136518185
 30
0.0
 10
137.7884253221585
 20
52.70745161664766
 30
0.0
 10
137.788413685925
 20
52.70745186796428
 30
0.0
 10
137.7884020430961
 20
52.70745211941694
 30
0.0
 10
137.7884020430961
 20
52.70745211941694
 30
0.0
 10
131.5347771756869
 20
52.84250619416561
 30
0.0
 10
131.5347771756869
 20
52.84250619416561
 30
0.0
 10
130.2096027972121
 20
52.87112627857101
 30
0.0
 10
129.1121355453789
 20
51.82006135181777
 30
0.0
 10
129.0835154609735
 20
50.49488697334265
 30
0.0
 10
129.0548953765681
 20
49.16971259486722
 30
0.0
 10
130.105960303321
 20
48.07224534303468
 30
0.0
 10
131.4311346817968
 20
48.04362525862863
 30
0.0
 10
131.4311346817968
 20
48.04362525862863
 30
0.0
 10
137.6847595509855
 20
47.90857118384113
 30
0.0
 10
137.6847595509855
 20
47.90857118384113
 30
0.0
  0
CIRCLE
  5
B2
330
70
100
AcDbEntity
  8
Layer 1
 62
    18
420
        0
370
    25
100
AcDbCircle
 10
131.4829559287422
 20
50.44306572639712
 30
0.0
 40
1.000000000000083
  0
CIRCLE
  5
B3
330
70
100
AcDbEntity
  8
Layer 1
 62
    18
420
        0
370
    25
100
AcDbCircle
 10
130.1953218501048
 20
-9.177291409401698
 30
0.0
 40
0.9999999999999994
  0
CIRCLE
  5
B4
330
70
100
AcDbEntity
  8
Layer 1
 62
    18
420
        0
370
    25
100
AcDbCircle
 10
203.028527137615
 20
-21.72621547265844
 30
0.0
 40
3.000000000000105
  0
CIRCLE
  5
B5
330
70
100
AcDbEntity
  8
Layer 1
 62
    18
420
        0
370
    25
100
AcDbCircle
 10
203.028527137615
 20
-21.72621547265844
 30
0.0
 40
1.374999999999968
  0
CIRCLE
  5
B6
330
70
100
AcDbEntity
  8
Layer 1
 62
    18
420
        0
370
    25
100
AcDbCircle
 10
394.5771509429396
 20
-82.13485460163154
 30
0.0
 40
3.000000000000186
  0
CIRCLE
  5
B7
330
70
100
AcDbEntity
  8
Layer 1
 62
    18
420
        0
370
    25
100
AcDbCircle
 10
394.5771509429396
 20
-82.13485460163154
 30
0.0
 40
1.375000000000048
  0
CIRCLE
  5
B8
330
70
100
AcDbEntity
  8
Layer 1
 62
    18
420
        0
370
    25
100
AcDbCircle
 10
193.4521798192456
 20
-31.53475629950991
 30
0.0
 40
3.000000000000186
  0
CIRCLE
  5
B9
330
70
100
AcDbEntity
  8
Layer 1
 62
    18
420
        0
370
    25
100
AcDbCircle
 10
193.4521798192457
 20
-31.53475629950991
 30
0.0
 40
1.375000000000088
  0
CIRCLE
  5
BA
330
70
100
AcDbEntity
  8
Layer 1
 62
    18
420
        0
370
    25
100
AcDbCircle
 10
211.51835893943
 20
-10.17745508627491
 30
0.0
 40
3.000000000000105
  0
CIRCLE
  5
BB
330
70
100
AcDbEntity
  8
Layer 1
 62
    18
420
        0
370
    25
100
AcDbCircle
 10
211.5183589394301
 20
-10.17745508627491
 30
0.0
 40
1.375000000000008
  0
CIRCLE
  5
BC
330
70
100
AcDbEntity
  8
Layer 1
 62
    18
420
        0
370
    25
100
AcDbCircle
 10
186.3763251451273
 20
-38.46324982740341
 30
0.0
 40
3.000000000000105
  0
CIRCLE
  5
BD
330
70
100
AcDbEntity
  8
Layer 1
 62
    18
420
        0
370
    25
100
AcDbCircle
 10
186.3763251451273
 20
-38.46324982740341
 30
0.0
 40
1.374999999999968
  0
CIRCLE
  5
BE
330
70
100
AcDbEntity
  8
Layer 1
 62
    18
420
        0
370
    25
100
AcDbCircle
 10
192.0771798192456
 20
-20.35121547265847
 30
0.0
 40
3.000000000000146
  0
CIRCLE
  5
BF
330
70
100
AcDbEntity
  8
Layer 1
 62
    18
420
        0
370
    25
100
AcDbCircle
 10
192.0771798192456
 20
-20.35121547265847
 30
0.0
 40
1.375000000000008
  0
CIRCLE
  5
C0
330
70
100
AcDbEntity
  8
Layer 1
 62
    18
420
        0
370
    25
100
AcDbCircle
 10
170.1250504060749
 20
-23.3317904648994
 30
0.0
 40
3.000000000000105
  0
CIRCLE
  5
C1
330
70
100
AcDbEntity
  8
Layer 1
 62
    18
420
        0
370
    25
100
AcDbCircle
 10
170.1250504060749
 20
-23.3317904648994
 30
0.0
 40
1.374999999999968
  0
CIRCLE
  5
C2
330
70
100
AcDbEntity
  8
Layer 1
 62
    18
420
        0
370
    25
100
AcDbCircle
 10
160.5487030877054
 20
-33.14033129175087
 30
0.0
 40
3.000000000000266
  0
CIRCLE
  5
C3
330
70
100
AcDbEntity
  8
Layer 1
 62
    18
420
        0
370
    25
100
AcDbCircle
 10
160.5487030877057
 20
-33.14033129175087
 30
0.0
 40
1.374999999999968
  0
CIRCLE
  5
C4
330
70
100
AcDbEntity
  8
Layer 1
 62
    18
420
        0
370
    25
100
AcDbCircle
 10
159.1737030877054
 20
-21.95679046489944
 30
0.0
 40
3.000000000000266
  0
CIRCLE
  5
C5
330
70
100
AcDbEntity
  8
Layer 1
 62
    18
420
        0
370
    25
100
AcDbCircle
 10
159.1737030877057
 20
-21.95679046489944
 30
0.0
 40
1.374999999999968
  0
CIRCLE
  5
C6
330
70
100
AcDbEntity
  8
Layer 1
 62
    18
420
        0
370
    25
100
AcDbCircle
 10
160.7127721399808
 20
-45.84471383948057
 30
0.0
 40
2.999999999999954
  0
CIRCLE
  5
C7
330
70
100
AcDbEntity
  8
Layer 1
 62
    18
420
        0
370
    25
100
AcDbCircle
 10
160.7127721399809
 20
-45.84471383948057
 30
0.0
 40
1.374999999999894
  0
CIRCLE
  5
C8
330
70
100
AcDbEntity
  8
Layer 1
 62
    18
420
        0
370
    25
100
AcDbCircle
 10
168.4147541578191
 20
-34.50481198316143
 30
0.0
 40
3.000000000000368
  0
CIRCLE
  5
C9
330
70
100
AcDbEntity
  8
Layer 1
 62
    18
420
        0
370
    25
100
AcDbCircle
 10
168.4147541578188
 20
-34.50481198316152
 30
0.0
 40
1.374999999999977
  0
CIRCLE
  5
CA
330
70
100
AcDbEntity
  8
Layer 1
 62
    18
420
        0
370
    25
100
AcDbCircle
 10
171.7352426809813
 20
-45.27219636347394
 30
0.0
 40
3.00000000000008
  0
CIRCLE
  5
CB
330
70
100
AcDbEntity
  8
Layer 1
 62
    18
420
        0
370
    25
100
AcDbCircle
 10
171.7352426809811
 20
-45.27219636347402
 30
0.0
 40
1.375000000000041
  0
CIRCLE
  5
CC
330
70
100
AcDbEntity
  8
Layer 1
 62
    18
420
        0
370
    25
100
AcDbCircle
 10
188.0466479040287
 20
11.55303282521996
 30
0.0
 40
2.999999999999984
  0
CIRCLE
  5
CD
330
70
100
AcDbEntity
  8
Layer 1
 62
    18
420
        0
370
    25
100
AcDbCircle
 10
188.0466479040286
 20
11.55303282521996
 30
0.0
 40
1.374999999999968
  0
CIRCLE
  5
CE
330
70
100
AcDbEntity
  8
Layer 1
 62
    18
420
        0
370
    25
100
AcDbCircle
 10
178.4703005856592
 20
1.744491998368491
 30
0.0
 40
3.000000000000345
  0
CIRCLE
  5
CF
330
70
100
AcDbEntity
  8
Layer 1
 62
    18
420
        0
370
    25
100
AcDbCircle
 10
178.4703005856596
 20
1.744491998368491
 30
0.0
 40
1.375000000000048
  0
CIRCLE
  5
D0
330
70
100
AcDbEntity
  8
Layer 1
 62
    18
420
        0
370
    25
100
AcDbCircle
 10
177.0953005856592
 20
12.92803282521993
 30
0.0
 40
3.000000000000306
  0
CIRCLE
  5
D1
330
70
100
AcDbEntity
  8
Layer 1
 62
    18
420
        0
370
    25
100
AcDbCircle
 10
177.0953005856595
 20
12.92803282521993
 30
0.0
 40
1.375000000000008
  0
CIRCLE
  5
D2
330
70
100
AcDbEntity
  8
Layer 1
 62
    18
420
        0
370
    25
100
AcDbCircle
 10
178.6343696379344
 20
-10.95989054936112
 30
0.0
 40
2.999999999999876
  0
CIRCLE
  5
D3
330
70
100
AcDbEntity
  8
Layer 1
 62
    18
420
        0
370
    25
100
AcDbCircle
 10
178.6343696379345
 20
-10.9598905493612
 30
0.0
 40
1.374999999999912
  0
CIRCLE
  5
D4
330
70
100
AcDbEntity
  8
Layer 1
 62
    18
420
        0
370
    25
100
AcDbCircle
 10
186.3363516557728
 20
0.380011306958009
 30
0.0
 40
3.000000000000353
  0
CIRCLE
  5
D5
330
70
100
AcDbEntity
  8
Layer 1
 62
    18
420
        0
370
    25
100
AcDbCircle
 10
186.3363516557726
 20
0.3800113069579288
 30
0.0
 40
1.374999999999786
  0
CIRCLE
  5
D6
330
70
100
AcDbEntity
  8
Layer 1
 62
    18
420
        0
370
    25
100
AcDbCircle
 10
189.6568401789351
 20
-10.38737307335466
 30
0.0
 40
3.00000000000027
  0
CIRCLE
  5
D7
330
70
100
AcDbEntity
  8
Layer 1
 62
    18
420
        0
370
    25
100
AcDbCircle
 10
189.6568401789346
 20
-10.38737307335466
 30
0.0
 40
1.374999999999948
  0
CIRCLE
  5
D8
330
70
100
AcDbEntity
  8
Layer 1
 62
    18
420
        0
370
    25
100
AcDbCircle
 10
210.6988498965165
 20
23.49724927534059
 30
0.0
 40
3.000000000000105
  0
CIRCLE
  5
D9
330
70
100
AcDbEntity
  8
Layer 1
 62
    18
420
        0
370
    25
100
AcDbCircle
 10
210.6988498965165
 20
23.49724927534059
 30
0.0
 40
1.374999999999968
  0
CIRCLE
  5
DA
330
70
100
AcDbEntity
  8
Layer 1
 62
    18
420
        0
370
    25
100
AcDbCircle
 10
201.122502578147
 20
13.68870844848911
 30
0.0
 40
3.000000000000266
  0
CIRCLE
  5
DB
330
70
100
AcDbEntity
  8
Layer 1
 62
    18
420
        0
370
    25
100
AcDbCircle
 10
201.1225025781473
 20
13.68870844848911
 30
0.0
 40
1.374999999999968
  0
CIRCLE
  5
DC
330
70
100
AcDbEntity
  8
Layer 1
 62
    18
420
        0
370
    25
100
AcDbCircle
 10
199.747502578147
 20
24.87224927534056
 30
0.0
 40
3.000000000000266
  0
CIRCLE
  5
DD
330
70
100
AcDbEntity
  8
Layer 1
 62
    18
420
        0
370
    25
100
AcDbCircle
 10
199.7475025781473
 20
24.87224927534056
 30
0.0
 40
1.374999999999968
  0
CIRCLE
  5
DE
330
70
100
AcDbEntity
  8
Layer 1
 62
    18
420
        0
370
    25
100
AcDbCircle
 10
201.2865716304225
 20
0.9843259007595003
 30
0.0
 40
3.000000000000051
  0
CIRCLE
  5
DF
330
70
100
AcDbEntity
  8
Layer 1
 62
    18
420
        0
370
    25
100
AcDbCircle
 10
201.2865716304224
 20
0.98432590075942
 30
0.0
 40
1.375000000000023
  0
CIRCLE
  5
E0
330
70
100
AcDbEntity
  8
Layer 1
 62
    18
420
        0
370
    25
100
AcDbCircle
 10
208.9885536482606
 20
12.32422775707863
 30
0.0
 40
3.000000000000373
  0
CIRCLE
  5
E1
330
70
100
AcDbEntity
  8
Layer 1
 62
    18
420
        0
370
    25
100
AcDbCircle
 10
208.9885536482605
 20
12.32422775707855
 30
0.0
 40
1.374999999999786
  0
CIRCLE
  5
E2
330
70
100
AcDbEntity
  8
Layer 1
 62
    18
420
        0
370
    25
100
AcDbCircle
 10
212.3090421714229
 20
1.556843376765965
 30
0.0
 40
3.000000000000317
  0
CIRCLE
  5
E3
330
70
100
AcDbEntity
  8
Layer 1
 62
    18
420
        0
370
    25
100
AcDbCircle
 10
212.3090421714228
 20
1.556843376765965
 30
0.0
 40
1.375000000000135
  0
ENDSEC
  0
SECTION
  2
OBJECTS
  0
DICTIONARY
  5
C
330
0
100
AcDbDictionary
281
     1
  3
ACAD_COLOR
350
63
  3
ACAD_DETAILVIEWSTYLE
350
6A
  3
ACAD_GROUP
350
D
  3
ACAD_LAYOUT
350
62
  3
ACAD_MATERIAL
350
10
  3
ACAD_MLEADERSTYLE
350
66
  3
ACAD_MLINESTYLE
350
5F
  3
ACAD_PLOTSETTINGS
350
61
  3
ACAD_PLOTSTYLENAME
350
E
  3
ACAD_SCALELIST
350
42
  3
ACAD_SECTIONVIEWSTYLE
350
68
  3
ACAD_TABLESTYLE
350
64
  3
ACAD_VISUALSTYLE
350
29
  3
ACDB_RECOMPOSE_DATA
350
EC
  3
AcDbVariableDictionary
350
E4
  0
DICTIONARY
  5
63
102
{ACAD_REACTORS
330
C
102
}
330
C
100
AcDbDictionary
281
     1
  0
DICTIONARY
  5
6A
102
{ACAD_REACTORS
330
C
102
}
330
C
100
AcDbDictionary
281
     1
  3
Imperial24
350
6B
  0
DICTIONARY
  5
D
102
{ACAD_REACTORS
330
C
102
}
330
C
100
AcDbDictionary
281
     1
  0
DICTIONARY
  5
62
102
{ACAD_REACTORS
330
C
102
}
330
C
100
AcDbDictionary
281
     1
  3
Layout1
350
6F
  3
Layout2
350
77
  3
Model
350
73
  0
DICTIONARY
  5
10
102
{ACAD_REACTORS
330
C
102
}
330
C
100
AcDbDictionary
281
     1
  3
ByBlock
350
19
  3
ByLayer
350
11
  3
Global
350
21
  0
DICTIONARY
  5
66
102
{ACAD_REACTORS
330
C
102
}
330
C
100
AcDbDictionary
281
     1
  3
Standard
350
67
  0
DICTIONARY
  5
5F
102
{ACAD_REACTORS
330
C
102
}
330
C
100
AcDbDictionary
281
     1
  3
Standard
350
60
  0
DICTIONARY
  5
61
102
{ACAD_REACTORS
330
C
102
}
330
C
100
AcDbDictionary
281
     1
  0
ACDBDICTIONARYWDFLT
  5
E
102
{ACAD_REACTORS
330
C
102
}
330
C
100
AcDbDictionary
281
     1
  3
Normal
350
F
100
AcDbDictionaryWithDefault
340
F
  0
DICTIONARY
  5
42
102
{ACAD_REACTORS
330
C
102
}
330
C
100
AcDbDictionary
281
     1
  3
A0
350
43
  3
A1
350
44
  3
A2
350
45
  3
A3
350
46
  3
A4
350
47
  3
A5
350
48
  3
A6
350
49
  3
A7
350
4A
  3
A8
350
4B
  3
A9
350
4C
  3
B0
350
4D
  3
B1
350
4E
  3
B2
350
4F
  3
B3
350
50
  3
B4
350
51
  3
B5
350
52
  3
B6
350
53
  0
DICTIONARY
  5
68
102
{ACAD_REACTORS
330
C
102
}
330
C
100
AcDbDictionary
281
     1
  3
Imperial24
350
69
  0
DICTIONARY
  5
64
102
{ACAD_REACTORS
330
C
102
}
330
C
100
AcDbDictionary
281
     1
  3
Standard
350
65
  0
DICTIONARY
  5
29
102
{ACAD_REACTORS
330
C
102
}
330
C
100
AcDbDictionary
281
     1
  3
2dWireframe
350
2F
  3
Basic
350
2E
  3
Brighten
350
35
  3
ColorChange
350
39
  3
Conceptual
350
32
  3
Dim
350
34
  3
EdgeColorOff
350
41
  3
Facepattern
350
38
  3
Flat
350
2A
  3
FlatWithEdges
350
2B
  3
Gouraud
350
2C
  3
GouraudWithEdges
350
2D
  3
Hidden
350
31
  3
JitterOff
350
3F
  3
Linepattern
350
37
  3
OverhangOff
350
40
  3
Realistic
350
33
  3
Shaded
350
3E
  3
Shaded with edges
350
3D
  3
Shades of Gray
350
3A
  3
Sketchy
350
3B
  3
Thicken
350
36
  3
Wireframe
350
30
  3
X-Ray
350
3C
  0
XRECORD
  5
EC
102
{ACAD_REACTORS
330
C
102
}
330
C
100
AcDbXrecord
280
     1
 90
        1
330
65
  0
DICTIONARY
  5
E4
102
{ACAD_REACTORS
330
C
102
}
330
C
100
AcDbDictionary
281
     1
  3
CANNOSCALE
350
E9
  3
CMLEADERSTYLE
350
E6
  3
CTABLESTYLE
350
E5
  3
CVIEWDETAILSTYLE
350
E7
  3
CVIEWSECTIONSTYLE
350
E8
  0
ACDBDETAILVIEWSTYLE
  5
6B
102
{ACAD_XDICTIONARY
360
121
102
}
102
{ACAD_REACTORS
330
6A
102
}
330
6A
100
AcDbModelDocViewStyle
 70
     0
  3
Imperial24
290
     0
100
AcDbDetailViewStyle
 70
     0
 71
     0
 90
        3
 71
     1
340
55
 62
   256
 40
0.24
340
0
 62
   256
 40
0.24
300

 40
0.36
280
     3
 71
     2
340
5D
 90
       25
 62
   256
 71
     3
340
55
 62
   256
 40
0.24
 90
        1
 40
0.75
 90
        1
300
%<\AcVar ViewType \f "%tc1">% %<\AcVar ViewDetailId>%\PSCALE %<\AcVar ViewScale \f "%sn">%
 71
     4
340
5D
 90
       25
 62
   256
340
5D
 90
       25
 62
   256
280
     0
  0
LAYOUT
  5
6F
102
{ACAD_REACTORS
330
62
102
}
330
62
100
AcDbPlotSettings
  1

  2

  4

  6

 40
0.0
 41
0.0
 42
0.0
 43
0.0
 44
0.0
 45
0.0
 46
0.0
 47
0.0
 48
0.0
 49
0.0
140
0.0
141
0.0
142
1.0
143
1.0
 70
   688
 72
     0
 73
     0
 74
     5
  7

 75
    16
147
1.0
 76
     0
 77
     2
 78
   300
148
0.0
149
0.0
100
AcDbLayout
  1
Layout1
 70
     1
 71
     1
 10
0.0
 20
0.0
 11
12.0
 21
9.0
 12
0.0
 22
0.0
 32
0.0
 14
0.0
 24
0.0
 34
0.0
 15
0.0
 25
0.0
 35
0.0
146
0.0
 13
0.0
 23
0.0
 33
0.0
 16
1.0
 26
0.0
 36
0.0
 17
0.0
 27
1.0
 37
0.0
 76
     0
330
6C
  0
LAYOUT
  5
77
102
{ACAD_REACTORS
330
62
102
}
330
62
100
AcDbPlotSettings
  1

  2

  4

  6

 40
0.0
 41
0.0
 42
0.0
 43
0.0
 44
0.0
 45
0.0
 46
0.0
 47
0.0
 48
0.0
 49
0.0
140
0.0
141
0.0
142
1.0
143
1.0
 70
   688
 72
     0
 73
     0
 74
     5
  7

 75
    16
147
1.0
 76
     0
 77
     2
 78
   300
148
0.0
149
0.0
100
AcDbLayout
  1
Layout2
 70
     1
 71
     2
 10
0.0
 20
0.0
 11
12.0
 21
9.0
 12
0.0
 22
0.0
 32
0.0
 14
0.0
 24
0.0
 34
0.0
 15
0.0
 25
0.0
 35
0.0
146
0.0
 13
0.0
 23
0.0
 33
0.0
 16
1.0
 26
0.0
 36
0.0
 17
0.0
 27
1.0
 37
0.0
 76
     0
330
74
  0
LAYOUT
  5
73
102
{ACAD_REACTORS
330
62
102
}
330
62
100
AcDbPlotSettings
  1

  2

  4

  6

 40
0.0
 41
0.0
 42
0.0
 43
0.0
 44
0.0
 45
0.0
 46
0.0
 47
0.0
 48
0.0
 49
0.0
140
0.0
141
0.0
142
1.0
143
1.0
 70
  1712
 72
     0
 73
     0
 74
     0
  7

 75
     0
147
1.0
 76
     0
 77
     2
 78
   300
148
0.0
149
0.0
100
AcDbLayout
  1
Model
 70
     1
 71
     0
 10
0.0
 20
0.0
 11
12.0
 21
9.0
 12
0.0
 22
0.0
 32
0.0
 14
0.0
 24
0.0
 34
0.0
 15
0.0
 25
0.0
 35
0.0
146
0.0
 13
0.0
 23
0.0
 33
0.0
 16
1.0
 26
0.0
 36
0.0
 17
0.0
 27
1.0
 37
0.0
 76
     0
330
70
  0
MATERIAL
  5
19
102
{ACAD_XDICTIONARY
360
1A
102
}
102
{ACAD_REACTORS
330
10
102
}
330
10
100
AcDbMaterial
  1
ByBlock
 72
     0
 43
0.0208333333333333
 43
0.0
 43
0.0
 43
0.0
 43
0.0
 43
0.0208333333333333
 43
0.0
 43
0.0
 43
0.0
 43
0.0
 43
1.0
 43
0.0
 43
0.0
 43
0.0
 43
0.0
 43
1.0
 77
     0
 47
0.0208333333333333
 47
0.0
 47
0.0
 47
0.0
 47
0.0
 47
0.0208333333333333
 47
0.0
 47
0.0
 47
0.0
 47
0.0
 47
1.0
 47
0.0
 47
0.0
 47
0.0
 47
0.0
 47
1.0
171
     0
 49
0.0208333333333333
 49
0.0
 49
0.0
 49
0.0
 49
0.0
 49
0.0208333333333333
 49
0.0
 49
0.0
 49
0.0
 49
0.0
 49
1.0
 49
0.0
 49
0.0
 49
0.0
 49
0.0
 49
1.0
175
     0
142
0.0208333333333333
142
0.0
142
0.0
142
0.0
142
0.0
142
0.0208333333333333
142
0.0
142
0.0
142
0.0
142
0.0
142
1.0
142
0.0
142
0.0
142
0.0
142
0.0
142
1.0
179
     0
144
0.0208333333333333
144
0.0
144
0.0
144
0.0
144
0.0
144
0.0208333333333333
144
0.0
144
0.0
144
0.0
144
0.0
144
1.0
144
0.0
144
0.0
144
0.0
144
0.0
144
1.0
147
0.0208333333333333
147
0.0
147
0.0
147
0.0
147
0.0
147
0.0208333333333333
147
0.0
147
0.0
147
0.0
147
0.0
147
1.0
147
0.0
147
0.0
147
0.0
147
0.0
147
1.0
  0
MATERIAL
  5
11
102
{ACAD_XDICTIONARY
360
12
102
}
102
{ACAD_REACTORS
330
10
102
}
330
10
100
AcDbMaterial
  1
ByLayer
 72
     0
 43
0.0208333333333333
 43
0.0
 43
0.0
 43
0.0
 43
0.0
 43
0.0208333333333333
 43
0.0
 43
0.0
 43
0.0
 43
0.0
 43
1.0
 43
0.0
 43
0.0
 43
0.0
 43
0.0
 43
1.0
 77
     0
 47
0.0208333333333333
 47
0.0
 47
0.0
 47
0.0
 47
0.0
 47
0.0208333333333333
 47
0.0
 47
0.0
 47
0.0
 47
0.0
 47
1.0
 47
0.0
 47
0.0
 47
0.0
 47
0.0
 47
1.0
171
     0
 49
0.0208333333333333
 49
0.0
 49
0.0
 49
0.0
 49
0.0
 49
0.0208333333333333
 49
0.0
 49
0.0
 49
0.0
 49
0.0
 49
1.0
 49
0.0
 49
0.0
 49
0.0
 49
0.0
 49
1.0
175
     0
142
0.0208333333333333
142
0.0
142
0.0
142
0.0
142
0.0
142
0.0208333333333333
142
0.0
142
0.0
142
0.0
142
0.0
142
1.0
142
0.0
142
0.0
142
0.0
142
0.0
142
1.0
179
     0
144
0.0208333333333333
144
0.0
144
0.0
144
0.0
144
0.0
144
0.0208333333333333
144
0.0
144
0.0
144
0.0
144
0.0
144
1.0
144
0.0
144
0.0
144
0.0
144
0.0
144
1.0
147
0.0208333333333333
147
0.0
147
0.0
147
0.0
147
0.0
147
0.0208333333333333
147
0.0
147
0.0
147
0.0
147
0.0
147
1.0
147
0.0
147
0.0
147
0.0
147
0.0
147
1.0
  0
MATERIAL
  5
21
102
{ACAD_XDICTIONARY
360
22
102
}
102
{ACAD_REACTORS
330
10
102
}
330
10
100
AcDbMaterial
  1
Global
 72
     0
 43
0.0208333333333333
 43
0.0
 43
0.0
 43
0.0
 43
0.0
 43
0.0208333333333333
 43
0.0
 43
0.0
 43
0.0
 43
0.0
 43
1.0
 43
0.0
 43
0.0
 43
0.0
 43
0.0
 43
1.0
 77
     0
 47
0.0208333333333333
 47
0.0
 47
0.0
 47
0.0
 47
0.0
 47
0.0208333333333333
 47
0.0
 47
0.0
 47
0.0
 47
0.0
 47
1.0
 47
0.0
 47
0.0
 47
0.0
 47
0.0
 47
1.0
171
     0
 49
0.0208333333333333
 49
0.0
 49
0.0
 49
0.0
 49
0.0
 49
0.0208333333333333
 49
0.0
 49
0.0
 49
0.0
 49
0.0
 49
1.0
 49
0.0
 49
0.0
 49
0.0
 49
0.0
 49
1.0
175
     0
142
0.0208333333333333
142
0.0
142
0.0
142
0.0
142
0.0
142
0.0208333333333333
142
0.0
142
0.0
142
0.0
142
0.0
142
1.0
142
0.0
142
0.0
142
0.0
142
0.0
142
1.0
179
     0
144
0.0208333333333333
144
0.0
144
0.0
144
0.0
144
0.0
144
0.0208333333333333
144
0.0
144
0.0
144
0.0
144
0.0
144
1.0
144
0.0
144
0.0
144
0.0
144
0.0
144
1.0
147
0.0208333333333333
147
0.0
147
0.0
147
0.0
147
0.0
147
0.0208333333333333
147
0.0
147
0.0
147
0.0
147
0.0
147
1.0
147
0.0
147
0.0
147
0.0
147
0.0
147
1.0
  0
MLEADERSTYLE
  5
67
102
{ACAD_XDICTIONARY
360
11D
102
}
102
{ACAD_REACTORS
330
66
102
}
330
66
100
AcDbMLeaderStyle
179
     2
170
     2
171
     1
172
     0
 90
        2
 40
0.0
 41
0.0
173
     1
 91
-1056964608
340
5B
 92
       -2
290
     1
 42
0.09
291
     1
 43
0.36
  3
Standard
 44
0.18
300

342
55
174
     1
178
     6
175
     1
176
     0
 93
-1056964608
 45
0.18
292
     0
297
     0
 46
0.18
 94
-1056964608
 47
1.0
 49
1.0
140
1.0
293
     1
141
0.0
294
     1
177
     0
142
1.0
295
     0
296
     0
143
0.125
271
     0
272
     9
273
     9
  0
MLINESTYLE
  5
60
102
{ACAD_REACTORS
330
5F
102
}
330
5F
100
AcDbMlineStyle
  2
STANDARD
 70
     0
  3

 62
   256
 51
90.0
 52
90.0
 71
     2
 49
0.5
 62
   256
  6
BYLAYER
 49
-0.5
 62
   256
  6
BYLAYER
  0
ACDBPLACEHOLDER
  5
F
102
{ACAD_REACTORS
330
E
102
}
330
E
  0
SCALE
  5
43
102
{ACAD_REACTORS
330
42
102
}
330
42
100
AcDbScale
 70
     0
300
1:1
140
1.0
141
1.0
290
     1
  0
SCALE
  5
44
102
{ACAD_REACTORS
330
42
102
}
330
42
100
AcDbScale
 70
     0
300
1/128" = 1'-0"
140
0.0078125
141
12.0
290
     0
  0
SCALE
  5
45
102
{ACAD_REACTORS
330
42
102
}
330
42
100
AcDbScale
 70
     0
300
1/64" = 1'-0"
140
0.015625
141
12.0
290
     0
  0
SCALE
  5
46
102
{ACAD_REACTORS
330
42
102
}
330
42
100
AcDbScale
 70
     0
300
1/32" = 1'-0"
140
0.03125
141
12.0
290
     0
  0
SCALE
  5
47
102
{ACAD_REACTORS
330
42
102
}
330
42
100
AcDbScale
 70
     0
300
1/16" = 1'-0"
140
0.0625
141
12.0
290
     0
  0
SCALE
  5
48
102
{ACAD_REACTORS
330
42
102
}
330
42
100
AcDbScale
 70
     0
300
3/32" = 1'-0"
140
0.09375
141
12.0
290
     0
  0
SCALE
  5
49
102
{ACAD_REACTORS
330
42
102
}
330
42
100
AcDbScale
 70
     0
300
1/8" = 1'-0"
140
0.125
141
12.0
290
     0
  0
SCALE
  5
4A
102
{ACAD_REACTORS
330
42
102
}
330
42
100
AcDbScale
 70
     0
300
3/16" = 1'-0"
140
0.1875
141
12.0
290
     0
  0
SCALE
  5
4B
102
{ACAD_REACTORS
330
42
102
}
330
42
100
AcDbScale
 70
     0
300
1/4" = 1'-0"
140
0.25
141
12.0
290
     0
  0
SCALE
  5
4C
102
{ACAD_REACTORS
330
42
102
}
330
42
100
AcDbScale
 70
     0
300
3/8" = 1'-0"
140
0.375
141
12.0
290
     0
  0
SCALE
  5
4D
102
{ACAD_REACTORS
330
42
102
}
330
42
100
AcDbScale
 70
     0
300
1/2" = 1'-0"
140
0.5
141
12.0
290
     0
  0
SCALE
  5
4E
102
{ACAD_REACTORS
330
42
102
}
330
42
100
AcDbScale
 70
     0
300
3/4" = 1'-0"
140
0.75
141
12.0
290
     0
  0
SCALE
  5
4F
102
{ACAD_REACTORS
330
42
102
}
330
42
100
AcDbScale
 70
     0
300
1" = 1'-0"
140
1.0
141
12.0
290
     0
  0
SCALE
  5
50
102
{ACAD_REACTORS
330
42
102
}
330
42
100
AcDbScale
 70
     0
300
1-1/2" = 1'-0"
140
1.5
141
12.0
290
     0
  0
SCALE
  5
51
102
{ACAD_REACTORS
330
42
102
}
330
42
100
AcDbScale
 70
     0
300
3" = 1'-0"
140
3.0
141
12.0
290
     0
  0
SCALE
  5
52
102
{ACAD_REACTORS
330
42
102
}
330
42
100
AcDbScale
 70
     0
300
6" = 1'-0"
140
6.0
141
12.0
290
     0
  0
SCALE
  5
53
102
{ACAD_REACTORS
330
42
102
}
330
42
100
AcDbScale
 70
     0
300
1'-0" = 1'-0"
140
12.0
141
12.0
290
     0
  0
ACDBSECTIONVIEWSTYLE
  5
69
102
{ACAD_XDICTIONARY
360
11F
102
}
102
{ACAD_REACTORS
330
68
102
}
330
68
100
AcDbModelDocViewStyle
 70
     0
  3
Imperial24
290
     0
100
AcDbSectionViewStyle
 70
     0
 71
     0
 90
       78
 71
     1
340
55
 62
   256
 40
0.24
340
0
340
0
 62
   256
 40
0.24
300
I, O, Q, S, X, Z
 40
0.48
 90
        3
 40
0.18
 90
        1
 71
     2
340
5D
 90
       25
 62
   256
340
5D
 90
       50
 62
   256
 40
0.24
 40
0.0
 40
0.24
 71
     3
340
55
 62
   256
 40
0.24
 90
        1
 40
0.75
 90
        1
300
%<\AcVar ViewType \f "%tc1">% %<\AcVar ViewSectionStartId>%-%<\AcVar ViewSectionEndId>%\PSCALE %<\AcVar ViewScale \f "%sn">%
 71
     4
 62
   256
 62
   257
300
ANSI31
 40
1.0
 90
        0
290
     0
290
     0
 90
        6
 40
0.0
 40
1.570796326794896
 40
0.2617993877991494
 40
1.308996938995747
 40
-0.2617993877991494
 40
1.832595714594046
  0
TABLESTYLE
  5
65
102
{ACAD_XDICTIONARY
360
EA
102
}
102
{ACAD_REACTORS
330
64
102
}
330
64
100
AcDbTableStyle
280
     0
  3
Standard
 70
     0
 71
     0
 40
0.06
 41
0.06
280
     0
281
     0
  7
Standard
140
0.18
170
     2
 62
     0
 63
     7
283
     0
 90
      512
 91
        0
  1

274
    -2
284
     1
 64
     0
275
    -2
285
     1
 65
     0
276
    -2
286
     1
 66
     0
277
    -2
287
     1
 67
     0
278
    -2
288
     1
 68
     0
279
    -2
289
     1
 69
     0
  7
Standard
140
0.25
170
     5
 62
     0
 63
     7
283
     0
 90
      512
 91
        0
  1

274
    -2
284
     1
 64
     0
275
    -2
285
     1
 65
     0
276
    -2
286
     1
 66
     0
277
    -2
287
     1
 67
     0
278
    -2
288
     1
 68
     0
279
    -2
289
     1
 69
     0
  7
Standard
140
0.18
170
     5
 62
     0
 63
     7
283
     0
 90
      512
 91
        0
  1

274
    -2
284
     1
 64
     0
275
    -2
285
     1
 65
     0
276
    -2
286
     1
 66
     0
277
    -2
287
     1
 67
     0
278
    -2
288
     1
 68
     0
279
    -2
289
     1
 69
     0
  0
VISUALSTYLE
  5
2F
102
{ACAD_XDICTIONARY
360
F7
102
}
102
{ACAD_REACTORS
330
29
102
}
330
29
100
AcDbVisualStyle
  2
2dWireframe
 70
     4
177
     2
291
     0
 71
     0
176
     1
 72
     2
176
     1
 73
     0
176
     1
 90
        0
176
     1
 40
0.6
176
     1
 41
30.0
176
     1
 63
     7
421
 16777215
176
     1
 74
     1
176
     1
 91
        4
176
     1
 64
     7
176
     1
 65
   257
176
     1
 75
     1
176
     1
175
     1
176
     1
 42
1.0
176
     1
 92
        0
176
     1
 66
   257
176
     1
 43
1.0
176
     1
 76
     1
176
     1
 77
     6
176
     1
 78
     2
176
     1
 67
     7
176
     1
 79
     5
176
     1
170
     0
176
     1
171
     0
176
     1
290
     0
176
     1
 93
        1
176
     1
 44
0.0
176
     1
173
     0
176
     1
1001
ACAD
1000
AcDbSavedByObjectVersion
1070
     0
  0
VISUALSTYLE
  5
2E
102
{ACAD_XDICTIONARY
360
F5
102
}
102
{ACAD_REACTORS
330
29
102
}
330
29
100
AcDbVisualStyle
  2
Basic
 70
     7
177
     2
291
     1
 71
     1
176
     1
 72
     0
176
     1
 73
     1
176
     1
 90
        0
176
     1
 40
0.6
176
     1
 41
30.0
176
     1
 63
     7
421
 16777215
176
     1
 74
     0
176
     1
 91
        4
176
     1
 64
     7
176
     1
 65
   257
176
     1
 75
     1
176
     1
175
     1
176
     1
 42
1.0
176
     1
 92
        8
176
     1
 66
     7
176
     1
 43
1.0
176
     1
 76
     1
176
     1
 77
     6
176
     1
 78
     2
176
     1
 67
     7
176
     1
 79
     5
176
     1
170
     0
176
     1
171
     0
176
     1
290
     0
176
     1
 93
        1
176
     1
 44
0.0
176
     1
173
     0
176
     1
1001
ACAD
1000
AcDbSavedByObjectVersion
1070
     0
  0
VISUALSTYLE
  5
35
102
{ACAD_XDICTIONARY
360
103
102
}
102
{ACAD_REACTORS
330
29
102
}
330
29
100
AcDbVisualStyle
  2
Brighten
 70
    12
177
     2
291
     1
 71
     2
176
     1
 72
     2
176
     1
 73
     0
176
     1
 90
        0
176
     1
 40
0.6
176
     1
 41
30.0
176
     1
 63
     7
421
 16777215
176
     1
 74
     1
176
     1
 91
        4
176
     1
 64
     7
176
     1
 65
   257
176
     1
 75
     1
176
     1
175
     1
176
     1
 42
1.0
176
     1
 92
        8
176
     1
 66
     7
176
     1
 43
1.0
176
     1
 76
     1
176
     1
 77
     6
176
     1
 78
     2
176
     1
 67
     7
176
     1
 79
     5
176
     1
170
     0
176
     1
171
     0
176
     1
290
     0
176
     1
 93
        1
176
     1
 44
50.0
176
     1
173
     0
176
     1
1001
ACAD
1000
AcDbSavedByObjectVersion
1070
     0
  0
VISUALSTYLE
  5
39
102
{ACAD_XDICTIONARY
360
10B
102
}
102
{ACAD_REACTORS
330
29
102
}
330
29
100
AcDbVisualStyle
  2
ColorChange
 70
    16
177
     2
291
     1
 71
     2
176
     1
 72
     2
176
     1
 73
     3
176
     1
 90
        0
176
     1
 40
0.6
176
     1
 41
30.0
176
     1
 63
     8
421
  8421504
176
     1
 74
     1
176
     1
 91
        4
176
     1
 64
     7
176
     1
 65
   257
176
     1
 75
     1
176
     1
175
     1
176
     1
 42
1.0
176
     1
 92
        8
176
     1
 66
     8
424
  8421504
176
     1
 43
1.0
176
     1
 76
     1
176
     1
 77
     6
176
     1
 78
     2
176
     1
 67
     7
176
     1
 79
     5
176
     1
170
     0
176
     1
171
     0
176
     1
290
     0
176
     1
 93
        1
176
     1
 44
0.0
176
     1
173
     0
176
     1
1001
ACAD
1000
AcDbSavedByObjectVersion
1070
     0
  0
VISUALSTYLE
  5
32
102
{ACAD_XDICTIONARY
360
FD
102
}
102
{ACAD_REACTORS
330
29
102
}
330
29
100
AcDbVisualStyle
  2
Conceptual
 70
     9
177
     2
291
     0
 71
     3
176
     1
 72
     2
176
     1
 73
     0
176
     1
 90
        0
176
     1
 40
0.6
176
     1
 41
30.0
176
     1
 63
     7
421
 16777215
176
     1
 74
     2
176
     1
 91
        2
176
     1
 64
     7
176
     1
 65
   257
176
     1
 75
     1
176
     1
175
     1
176
     1
 42
179.0
176
     1
 92
        8
176
     1
 66
     7
176
     1
 43
1.0
176
     1
 76
     1
176
     1
 77
     6
176
     1
 78
     2
176
     1
 67
     7
176
     1
 79
     3
176
     1
170
     0
176
     1
171
     0
176
     1
290
     0
176
     1
 93
        1
176
     1
 44
0.0
176
     1
173
     0
176
     1
1001
ACAD
1000
AcDbSavedByObjectVersion
1070
     0
  0
VISUALSTYLE
  5
34
102
{ACAD_XDICTIONARY
360
101
102
}
102
{ACAD_REACTORS
330
29
102
}
330
29
100
AcDbVisualStyle
  2
Dim
 70
    11
177
     2
291
     1
 71
     2
176
     1
 72
     2
176
     1
 73
     0
176
     1
 90
        0
176
     1
 40
0.6
176
     1
 41
30.0
176
     1
 63
     7
421
 16777215
176
     1
 74
     1
176
     1
 91
        4
176
     1
 64
     7
176
     1
 65
   257
176
     1
 75
     1
176
     1
175
     1
176
     1
 42
1.0
176
     1
 92
        8
176
     1
 66
     7
176
     1
 43
1.0
176
     1
 76
     1
176
     1
 77
     6
176
     1
 78
     2
176
     1
 67
     7
176
     1
 79
     5
176
     1
170
     0
176
     1
171
     0
176
     1
290
     0
176
     1
 93
        1
176
     1
 44
-50.0
176
     1
173
     0
176
     1
1001
ACAD
1000
AcDbSavedByObjectVersion
1070
     0
  0
VISUALSTYLE
  5
41
102
{ACAD_XDICTIONARY
360
11B
102
}
102
{ACAD_REACTORS
330
29
102
}
330
29
100
AcDbVisualStyle
  2
EdgeColorOff
 70
    22
177
     2
291
     1
 71
     2
176
     0
 72
     2
176
     0
 73
     0
176
     0
 90
        0
176
     0
 40
0.6
176
     0
 41
30.0
176
     0
 63
     7
421
 16777215
176
     0
 74
     1
176
     0
 91
        4
176
     0
 64
     7
176
     0
 65
   257
176
     0
 75
     1
176
     0
175
     1
176
     0
 42
1.0
176
     0
 92
        8
176
     2
 66
     7
176
     0
 43
1.0
176
     0
 76
     1
176
     0
 77
     6
176
     0
 78
     2
176
     0
 67
     7
176
     0
 79
     5
176
     0
170
     0
176
     0
171
     0
176
     0
290
     0
176
     0
 93
        1
176
     0
 44
0.0
176
     0
173
     0
176
     0
1001
ACAD
1000
AcDbSavedByObjectVersion
1070
     0
  0
VISUALSTYLE
  5
38
102
{ACAD_XDICTIONARY
360
109
102
}
102
{ACAD_REACTORS
330
29
102
}
330
29
100
AcDbVisualStyle
  2
Facepattern
 70
    15
177
     2
291
     1
 71
     2
176
     1
 72
     2
176
     1
 73
     0
176
     1
 90
        0
176
     1
 40
0.6
176
     1
 41
30.0
176
     1
 63
     7
421
 16777215
176
     1
 74
     1
176
     1
 91
        4
176
     1
 64
     7
176
     1
 65
   257
176
     1
 75
     1
176
     1
175
     1
176
     1
 42
1.0
176
     1
 92
        8
176
     1
 66
     7
176
     1
 43
1.0
176
     1
 76
     1
176
     1
 77
     6
176
     1
 78
     2
176
     1
 67
     7
176
     1
 79
     5
176
     1
170
     0
176
     1
171
     0
176
     1
290
     0
176
     1
 93
        1
176
     1
 44
0.0
176
     1
173
     0
176
     1
1001
ACAD
1000
AcDbSavedByObjectVersion
1070
     0
  0
VISUALSTYLE
  5
2A
102
{ACAD_XDICTIONARY
360
ED
102
}
102
{ACAD_REACTORS
330
29
102
}
330
29
100
AcDbVisualStyle
  2
Flat
 70
     0
177
     2
291
     1
 71
     2
176
     1
 72
     1
176
     1
 73
     1
176
     1
 90
        2
176
     1
 40
0.6
176
     1
 41
30.0
176
     1
 63
     7
421
 16777215
176
     1
 74
     0
176
     1
 91
        0
176
     1
 64
     7
176
     1
 65
   257
176
     1
 75
     1
176
     1
175
     1
176
     1
 42
1.0
176
     1
 92
        8
176
     1
 66
     7
176
     1
 43
1.0
176
     1
 76
     1
176
     1
 77
     6
176
     1
 78
     2
176
     1
 67
     7
176
     1
 79
     5
176
     1
170
     0
176
     1
171
     0
176
     1
290
     0
176
     1
 93
       13
176
     1
 44
0.0
176
     1
173
     0
176
     1
1001
ACAD
1000
AcDbSavedByObjectVersion
1070
     0
  0
VISUALSTYLE
  5
2B
102
{ACAD_XDICTIONARY
360
EF
102
}
102
{ACAD_REACTORS
330
29
102
}
330
29
100
AcDbVisualStyle
  2
FlatWithEdges
 70
     1
177
     2
291
     1
 71
     2
176
     1
 72
     1
176
     1
 73
     1
176
     1
 90
        2
176
     1
 40
0.6
176
     1
 41
30.0
176
     1
 63
     7
421
 16777215
176
     1
 74
     1
176
     1
 91
        0
176
     1
 64
     7
176
     1
 65
   257
176
     1
 75
     1
176
     1
175
     1
176
     1
 42
1.0
176
     1
 92
        0
176
     1
 66
   257
176
     1
 43
1.0
176
     1
 76
     1
176
     1
 77
     6
176
     1
 78
     2
176
     1
 67
     7
176
     1
 79
     5
176
     1
170
     0
176
     1
171
     0
176
     1
290
     0
176
     1
 93
       13
176
     1
 44
0.0
176
     1
173
     0
176
     1
1001
ACAD
1000
AcDbSavedByObjectVersion
1070
     0
  0
VISUALSTYLE
  5
2C
102
{ACAD_XDICTIONARY
360
F1
102
}
102
{ACAD_REACTORS
330
29
102
}
330
29
100
AcDbVisualStyle
  2
Gouraud
 70
     2
177
     2
291
     1
 71
     2
176
     1
 72
     2
176
     1
 73
     1
176
     1
 90
        2
176
     1
 40
0.6
176
     1
 41
30.0
176
     1
 63
     7
421
 16777215
176
     1
 74
     0
176
     1
 91
        0
176
     1
 64
     7
176
     1
 65
   257
176
     1
 75
     1
176
     1
175
     1
176
     1
 42
1.0
176
     1
 92
        0
176
     1
 66
     7
176
     1
 43
1.0
176
     1
 76
     1
176
     1
 77
     6
176
     1
 78
     2
176
     1
 67
     7
176
     1
 79
     5
176
     1
170
     0
176
     1
171
     0
176
     1
290
     0
176
     1
 93
       13
176
     1
 44
0.0
176
     1
173
     0
176
     1
1001
ACAD
1000
AcDbSavedByObjectVersion
1070
     0
  0
VISUALSTYLE
  5
2D
102
{ACAD_XDICTIONARY
360
F3
102
}
102
{ACAD_REACTORS
330
29
102
}
330
29
100
AcDbVisualStyle
  2
GouraudWithEdges
 70
     3
177
     2
291
     1
 71
     2
176
     1
 72
     2
176
     1
 73
     1
176
     1
 90
        2
176
     1
 40
0.6
176
     1
 41
30.0
176
     1
 63
     7
421
 16777215
176
     1
 74
     1
176
     1
 91
        0
176
     1
 64
     7
176
     1
 65
   257
176
     1
 75
     1
176
     1
175
     1
176
     1
 42
1.0
176
     1
 92
        0
176
     1
 66
   257
176
     1
 43
1.0
176
     1
 76
     1
176
     1
 77
     6
176
     1
 78
     2
176
     1
 67
     7
176
     1
 79
     5
176
     1
170
     0
176
     1
171
     0
176
     1
290
     0
176
     1
 93
       13
176
     1
 44
0.0
176
     1
173
     0
176
     1
1001
ACAD
1000
AcDbSavedByObjectVersion
1070
     0
  0
VISUALSTYLE
  5
31
102
{ACAD_XDICTIONARY
360
FB
102
}
102
{ACAD_REACTORS
330
29
102
}
330
29
100
AcDbVisualStyle
  2
Hidden
 70
     6
177
     2
291
     0
 71
     1
176
     1
 72
     2
176
     1
 73
     2
176
     1
 90
        0
176
     1
 40
0.6
176
     1
 41
30.0
176
     1
 63
     7
421
 16777215
176
     1
 74
     2
176
     1
 91
        2
176
     1
 64
     7
176
     1
 65
   257
176
     1
 75
     2
176
     1
175
     1
176
     1
 42
40.0
176
     1
 92
        0
176
     1
 66
   257
176
     1
 43
1.0
176
     1
 76
     1
176
     1
 77
     6
176
     1
 78
     2
176
     1
 67
     7
176
     1
 79
     3
176
     1
170
     0
176
     1
171
     0
176
     1
290
     0
176
     1
 93
        1
176
     1
 44
0.0
176
     1
173
     0
176
     1
1001
ACAD
1000
AcDbSavedByObjectVersion
1070
     0
  0
VISUALSTYLE
  5
3F
102
{ACAD_XDICTIONARY
360
117
102
}
102
{ACAD_REACTORS
330
29
102
}
330
29
100
AcDbVisualStyle
  2
JitterOff
 70
    20
177
     2
291
     1
 71
     2
176
     0
 72
     2
176
     0
 73
     0
176
     0
 90
        0
176
     0
 40
0.6
176
     0
 41
30.0
176
     0
 63
     7
421
 16777215
176
     0
 74
     1
176
     0
 91
        4
176
     0
 64
     7
176
     0
 65
   257
176
     0
 75
     1
176
     0
175
     1
176
     0
 42
1.0
176
     0
 92
       10
176
     2
 66
     7
176
     0
 43
1.0
176
     0
 76
     1
176
     0
 77
     6
176
     0
 78
     2
176
     0
 67
     7
176
     0
 79
     5
176
     0
170
     0
176
     0
171
     0
176
     0
290
     0
176
     0
 93
        1
176
     0
 44
0.0
176
     0
173
     0
176
     0
1001
ACAD
1000
AcDbSavedByObjectVersion
1070
     0
  0
VISUALSTYLE
  5
37
102
{ACAD_XDICTIONARY
360
107
102
}
102
{ACAD_REACTORS
330
29
102
}
330
29
100
AcDbVisualStyle
  2
Linepattern
 70
    14
177
     2
291
     1
 71
     2
176
     1
 72
     2
176
     1
 73
     0
176
     1
 90
        0
176
     1
 40
0.6
176
     1
 41
30.0
176
     1
 63
     7
421
 16777215
176
     1
 74
     1
176
     1
 91
        4
176
     1
 64
     7
176
     1
 65
   257
176
     1
 75
     7
176
     1
175
     7
176
     1
 42
1.0
176
     1
 92
        8
176
     1
 66
     7
176
     1
 43
1.0
176
     1
 76
     1
176
     1
 77
     6
176
     1
 78
     2
176
     1
 67
     7
176
     1
 79
     5
176
     1
170
     0
176
     1
171
     0
176
     1
290
     0
176
     1
 93
        1
176
     1
 44
0.0
176
     1
173
     0
176
     1
1001
ACAD
1000
AcDbSavedByObjectVersion
1070
     0
  0
VISUALSTYLE
  5
40
102
{ACAD_XDICTIONARY
360
119
102
}
102
{ACAD_REACTORS
330
29
102
}
330
29
100
AcDbVisualStyle
  2
OverhangOff
 70
    21
177
     2
291
     1
 71
     2
176
     0
 72
     2
176
     0
 73
     0
176
     0
 90
        0
176
     0
 40
0.6
176
     0
 41
30.0
176
     0
 63
     7
421
 16777215
176
     0
 74
     1
176
     0
 91
        4
176
     0
 64
     7
176
     0
 65
   257
176
     0
 75
     1
176
     0
175
     1
176
     0
 42
1.0
176
     0
 92
        9
176
     2
 66
     7
176
     0
 43
1.0
176
     0
 76
     1
176
     0
 77
     6
176
     0
 78
     2
176
     0
 67
     7
176
     0
 79
     5
176
     0
170
     0
176
     0
171
     0
176
     0
290
     0
176
     0
 93
        1
176
     0
 44
0.0
176
     0
173
     0
176
     0
1001
ACAD
1000
AcDbSavedByObjectVersion
1070
     0
  0
VISUALSTYLE
  5
33
102
{ACAD_XDICTIONARY
360
FF
102
}
102
{ACAD_REACTORS
330
29
102
}
330
29
100
AcDbVisualStyle
  2
Realistic
 70
     8
177
     2
291
     0
 71
     2
176
     1
 72
     3
176
     1
 73
     0
176
     1
 90
        2
176
     1
 40
0.6
176
     1
 41
30.0
176
     1
 63
     7
421
 16777215
176
     1
 74
     0
176
     1
 91
        0
176
     1
 64
     7
176
     1
 65
   257
176
     1
 75
     1
176
     1
175
     1
176
     1
 42
1.0
176
     1
 92
        8
176
     1
 66
   257
176
     1
 43
1.0
176
     1
 76
     1
176
     1
 77
     6
176
     1
 78
     2
176
     1
 67
     7
176
     1
 79
     3
176
     1
170
     0
176
     1
171
     0
176
     1
290
     0
176
     1
 93
       13
176
     1
 44
0.0
176
     1
173
     0
176
     1
1001
ACAD
1000
AcDbSavedByObjectVersion
1070
     0
  0
VISUALSTYLE
  5
3E
102
{ACAD_XDICTIONARY
360
115
102
}
102
{ACAD_REACTORS
330
29
102
}
330
29
100
AcDbVisualStyle
  2
Shaded
 70
    27
177
     2
291
     0
 71
     2
176
     1
 72
     2
176
     1
 73
     1
176
     1
 90
        2
176
     1
 40
0.6
176
     1
 41
30.0
176
     1
 63
     7
421
 16777215
176
     1
 74
     0
176
     1
 91
        4
176
     1
 64
     7
176
     1
 65
   257
176
     1
 75
     1
176
     1
175
     1
176
     1
 42
1.0
176
     1
 92
        8
176
     1
 66
   257
176
     1
 43
1.0
176
     1
 76
     1
176
     1
 77
     6
176
     1
 78
     2
176
     1
 67
     8
425
  7895160
176
     1
 79
     3
176
     1
170
     0
176
     1
171
     0
176
     1
290
     0
176
     1
 93
        5
176
     1
 44
0.0
176
     1
173
     0
176
     1
1001
ACAD
1000
AcDbSavedByObjectVersion
1070
     0
  0
VISUALSTYLE
  5
3D
102
{ACAD_XDICTIONARY
360
113
102
}
102
{ACAD_REACTORS
330
29
102
}
330
29
100
AcDbVisualStyle
  2
Shaded with edges
 70
    26
177
     2
291
     0
 71
     2
176
     1
 72
     2
176
     1
 73
     1
176
     1
 90
        2
176
     1
 40
0.6
176
     1
 41
30.0
176
     1
 63
     7
421
 16777215
176
     1
 74
     1
176
     1
 91
        2
176
     1
 64
     7
176
     1
 65
   257
176
     1
 75
     2
176
     1
175
     1
176
     1
 42
1.0
176
     1
 92
        8
176
     1
 66
   257
176
     1
 43
1.0
176
     1
 76
     1
176
     1
 77
     6
176
     1
 78
     2
176
     1
 67
     7
176
     1
 79
     3
176
     1
170
     0
176
     1
171
     0
176
     1
290
     0
176
     1
 93
        5
176
     1
 44
0.0
176
     1
173
     0
176
     1
1001
ACAD
1000
AcDbSavedByObjectVersion
1070
     0
  0
VISUALSTYLE
  5
3A
102
{ACAD_XDICTIONARY
360
10D
102
}
102
{ACAD_REACTORS
330
29
102
}
330
29
100
AcDbVisualStyle
  2
Shades of Gray
 70
    23
177
     2
291
     0
 71
     2
176
     1
 72
     2
176
     1
 73
     3
176
     1
 90
        0
176
     1
 40
0.6
176
     1
 41
30.0
176
     1
 63
     7
421
 16777215
176
     1
 74
     2
176
     1
 91
        2
176
     1
 64
     7
176
     1
 65
     7
176
     1
 75
     1
176
     1
175
     1
176
     1
 42
40.0
176
     1
 92
        8
176
     1
 66
     7
176
     1
 43
1.0
176
     1
 76
     1
176
     1
 77
     6
176
     1
 78
     2
176
     1
 67
     7
176
     1
 79
     3
176
     1
170
     0
176
     1
171
     0
176
     1
290
     0
176
     1
 93
        1
176
     1
 44
0.0
176
     1
173
     0
176
     1
1001
ACAD
1000
AcDbSavedByObjectVersion
1070
     0
  0
VISUALSTYLE
  5
3B
102
{ACAD_XDICTIONARY
360
10F
102
}
102
{ACAD_REACTORS
330
29
102
}
330
29
100
AcDbVisualStyle
  2
Sketchy
 70
    24
177
     2
291
     0
 71
     1
176
     1
 72
     2
176
     1
 73
     2
176
     1
 90
        0
176
     1
 40
0.6
176
     1
 41
30.0
176
     1
 63
     7
421
 16777215
176
     1
 74
     2
176
     1
 91
        2
176
     1
 64
     7
176
     1
 65
     7
176
     1
 75
     1
176
     1
175
     1
176
     1
 42
40.0
176
     1
 92
       11
176
     1
 66
     7
176
     1
 43
1.0
176
     1
 76
     1
176
     1
 77
     6
176
     1
 78
     2
176
     1
 67
     7
176
     1
 79
     6
176
     1
170
     0
176
     1
171
     0
176
     1
290
     0
176
     1
 93
        1
176
     1
 44
0.0
176
     1
173
     0
176
     1
1001
ACAD
1000
AcDbSavedByObjectVersion
1070
     0
  0
VISUALSTYLE
  5
36
102
{ACAD_XDICTIONARY
360
105
102
}
102
{ACAD_REACTORS
330
29
102
}
330
29
100
AcDbVisualStyle
  2
Thicken
 70
    13
177
     2
291
     1
 71
     2
176
     1
 72
     2
176
     1
 73
     0
176
     1
 90
        0
176
     1
 40
0.6
176
     1
 41
30.0
176
     1
 63
     7
421
 16777215
176
     1
 74
     1
176
     1
 91
        4
176
     1
 64
     7
176
     1
 65
   257
176
     1
 75
     1
176
     1
175
     1
176
     1
 42
1.0
176
     1
 92
       12
176
     1
 66
     7
176
     1
 43
1.0
176
     1
 76
     1
176
     1
 77
     6
176
     1
 78
     2
176
     1
 67
     7
176
     1
 79
     5
176
     1
170
     0
176
     1
171
     0
176
     1
290
     0
176
     1
 93
        1
176
     1
 44
0.0
176
     1
173
     0
176
     1
1001
ACAD
1000
AcDbSavedByObjectVersion
1070
     0
  0
VISUALSTYLE
  5
30
102
{ACAD_XDICTIONARY
360
F9
102
}
102
{ACAD_REACTORS
330
29
102
}
330
29
100
AcDbVisualStyle
  2
Wireframe
 70
     5
177
     2
291
     0
 71
     0
176
     1
 72
     2
176
     1
 73
     0
176
     1
 90
        0
176
     1
 40
0.6
176
     1
 41
30.0
176
     1
 63
     7
421
 16777215
176
     1
 74
     1
176
     1
 91
        4
176
     1
 64
     7
176
     1
 65
   257
176
     1
 75
     1
176
     1
175
     1
176
     1
 42
1.0
176
     1
 92
        0
176
     1
 66
   257
176
     1
 43
1.0
176
     1
 76
     1
176
     1
 77
     6
176
     1
 78
     2
176
     1
 67
     7
176
     1
 79
     3
176
     1
170
     0
176
     1
171
     0
176
     1
290
     0
176
     1
 93
        1
176
     1
 44
0.0
176
     1
173
     0
176
     1
1001
ACAD
1000
AcDbSavedByObjectVersion
1070
     0
  0
VISUALSTYLE
  5
3C
102
{ACAD_XDICTIONARY
360
111
102
}
102
{ACAD_REACTORS
330
29
102
}
330
29
100
AcDbVisualStyle
  2
X-Ray
 70
    25
177
     2
291
     0
 71
     2
176
     1
 72
     2
176
     1
 73
     1
176
     1
 90
        1
176
     1
 40
0.5
176
     1
 41
30.0
176
     1
 63
     7
421
 16777215
176
     1
 74
     1
176
     1
 91
        0
176
     1
 64
     7
176
     1
 65
   257
176
     1
 75
     1
176
     1
175
     1
176
     1
 42
1.0
176
     1
 92
        8
176
     1
 66
     7
176
     1
 43
1.0
176
     1
 76
     1
176
     1
 77
     6
176
     1
 78
     2
176
     1
 67
     7
176
     1
 79
     3
176
     1
170
     0
176
     1
171
     0
176
     1
290
     0
176
     1
 93
       13
176
     1
 44
0.0
176
     1
173
     0
176
     1
1001
ACAD
1000
AcDbSavedByObjectVersion
1070
     0
  0
DICTIONARYVAR
  5
E9
102
{ACAD_REACTORS
330
E4
102
}
330
E4
100
DictionaryVariables
280
     0
  1
1:1
  0
DICTIONARYVAR
  5
E6
102
{ACAD_REACTORS
330
E4
102
}
330
E4
100
DictionaryVariables
280
     0
  1
STANDARD
  0
DICTIONARYVAR
  5
E5
102
{ACAD_REACTORS
330
E4
102
}
330
E4
100
DictionaryVariables
280
     0
  1
STANDARD
  0
DICTIONARYVAR
  5
E7
102
{ACAD_REACTORS
330
E4
102
}
330
E4
100
DictionaryVariables
280
     0
  1
Imperial24
  0
DICTIONARYVAR
  5
E8
102
{ACAD_REACTORS
330
E4
102
}
330
E4
100
DictionaryVariables
280
     0
  1
Imperial24
  0
DICTIONARY
  5
121
330
6B
100
AcDbDictionary
280
     1
281
     1
  3
ACAD_XREC_ROUNDTRIP
360
122
  0
DICTIONARY
  5
1A
330
19
100
AcDbDictionary
280
     1
281
     1
  3
BUMPTILE
360
1C
  3
DIFFUSETILE
360
1B
  3
OPACITYTILE
360
1F
  3
REFLECTIONTILE
360
1E
  3
REFRACTIONTILE
360
20
  3
SPECULARTILE
360
1D
  0
DICTIONARY
  5
12
330
11
100
AcDbDictionary
280
     1
281
     1
  3
BUMPTILE
360
14
  3
DIFFUSETILE
360
13
  3
OPACITYTILE
360
17
  3
REFLECTIONTILE
360
16
  3
REFRACTIONTILE
360
18
  3
SPECULARTILE
360
15
  0
DICTIONARY
  5
22
330
21
100
AcDbDictionary
280
     1
281
     1
  3
BUMPTILE
360
24
  3
DIFFUSETILE
360
23
  3
OPACITYTILE
360
27
  3
REFLECTIONTILE
360
26
  3
REFRACTIONTILE
360
28
  3
SPECULARTILE
360
25
  0
DICTIONARY
  5
11D
330
67
100
AcDbDictionary
280
     1
281
     1
  3
ACAD_XREC_ROUNDTRIP
360
11E
  0
DICTIONARY
  5
11F
330
69
100
AcDbDictionary
280
     1
281
     1
  3
ACAD_XREC_ROUNDTRIP
360
120
  0
DICTIONARY
  5
EA
330
65
100
AcDbDictionary
280
     1
281
     1
  3
ACAD_ROUNDTRIP_2008_TABLESTYLE_CELLSTYLEMAP
360
EB
  0
DICTIONARY
  5
F7
330
2F
100
AcDbDictionary
280
     1
281
     1
  3
ACAD_XREC_ROUNDTRIP
360
F8
  0
DICTIONARY
  5
F5
330
2E
100
AcDbDictionary
280
     1
281
     1
  3
ACAD_XREC_ROUNDTRIP
360
F6
  0
DICTIONARY
  5
103
330
35
100
AcDbDictionary
280
     1
281
     1
  3
ACAD_XREC_ROUNDTRIP
360
104
  0
DICTIONARY
  5
10B
330
39
100
AcDbDictionary
280
     1
281
     1
  3
ACAD_XREC_ROUNDTRIP
360
10C
  0
DICTIONARY
  5
FD
330
32
100
AcDbDictionary
280
     1
281
     1
  3
ACAD_XREC_ROUNDTRIP
360
FE
  0
DICTIONARY
  5
101
330
34
100
AcDbDictionary
280
     1
281
     1
  3
ACAD_XREC_ROUNDTRIP
360
102
  0
DICTIONARY
  5
11B
330
41
100
AcDbDictionary
280
     1
281
     1
  3
ACAD_XREC_ROUNDTRIP
360
11C
  0
DICTIONARY
  5
109
330
38
100
AcDbDictionary
280
     1
281
     1
  3
ACAD_XREC_ROUNDTRIP
360
10A
  0
DICTIONARY
  5
ED
330
2A
100
AcDbDictionary
280
     1
281
     1
  3
ACAD_XREC_ROUNDTRIP
360
EE
  0
DICTIONARY
  5
EF
330
2B
100
AcDbDictionary
280
     1
281
     1
  3
ACAD_XREC_ROUNDTRIP
360
F0
  0
DICTIONARY
  5
F1
330
2C
100
AcDbDictionary
280
     1
281
     1
  3
ACAD_XREC_ROUNDTRIP
360
F2
  0
DICTIONARY
  5
F3
330
2D
100
AcDbDictionary
280
     1
281
     1
  3
ACAD_XREC_ROUNDTRIP
360
F4
  0
DICTIONARY
  5
FB
330
31
100
AcDbDictionary
280
     1
281
     1
  3
ACAD_XREC_ROUNDTRIP
360
FC
  0
DICTIONARY
  5
117
330
3F
100
AcDbDictionary
280
     1
281
     1
  3
ACAD_XREC_ROUNDTRIP
360
118
  0
DICTIONARY
  5
107
330
37
100
AcDbDictionary
280
     1
281
     1
  3
ACAD_XREC_ROUNDTRIP
360
108
  0
DICTIONARY
  5
119
330
40
100
AcDbDictionary
280
     1
281
     1
  3
ACAD_XREC_ROUNDTRIP
360
11A
  0
DICTIONARY
  5
FF
330
33
100
AcDbDictionary
280
     1
281
     1
  3
ACAD_XREC_ROUNDTRIP
360
100
  0
DICTIONARY
  5
115
330
3E
100
AcDbDictionary
280
     1
281
     1
  3
ACAD_XREC_ROUNDTRIP
360
116
  0
DICTIONARY
  5
113
330
3D
100
AcDbDictionary
280
     1
281
     1
  3
ACAD_XREC_ROUNDTRIP
360
114
  0
DICTIONARY
  5
10D
330
3A
100
AcDbDictionary
280
     1
281
     1
  3
ACAD_XREC_ROUNDTRIP
360
10E
  0
DICTIONARY
  5
10F
330
3B
100
AcDbDictionary
280
     1
281
     1
  3
ACAD_XREC_ROUNDTRIP
360
110
  0
DICTIONARY
  5
105
330
36
100
AcDbDictionary
280
     1
281
     1
  3
ACAD_XREC_ROUNDTRIP
360
106
  0
DICTIONARY
  5
F9
330
30
100
AcDbDictionary
280
     1
281
     1
  3
ACAD_XREC_ROUNDTRIP
360
FA
  0
DICTIONARY
  5
111
330
3C
100
AcDbDictionary
280
     1
281
     1
  3
ACAD_XREC_ROUNDTRIP
360
112
  0
XRECORD
  5
122
102
{ACAD_REACTORS
330
121
102
}
330
121
100
AcDbXrecord
280
     1
102
DISPLAYNAME
  1
Imperial24
102
FLAGS
 90
        0
  0
XRECORD
  5
1C
102
{ACAD_REACTORS
330
1A
102
}
330
1A
100
AcDbXrecord
280
     1
270
     1
271
     1
  0
XRECORD
  5
1B
102
{ACAD_REACTORS
330
1A
102
}
330
1A
100
AcDbXrecord
280
     1
270
     1
271
     1
  0
XRECORD
  5
1F
102
{ACAD_REACTORS
330
1A
102
}
330
1A
100
AcDbXrecord
280
     1
270
     1
271
     1
  0
XRECORD
  5
1E
102
{ACAD_REACTORS
330
1A
102
}
330
1A
100
AcDbXrecord
280
     1
270
     1
271
     1
  0
XRECORD
  5
20
102
{ACAD_REACTORS
330
1A
102
}
330
1A
100
AcDbXrecord
280
     1
270
     1
271
     1
  0
XRECORD
  5
1D
102
{ACAD_REACTORS
330
1A
102
}
330
1A
100
AcDbXrecord
280
     1
270
     1
271
     1
  0
XRECORD
  5
14
102
{ACAD_REACTORS
330
12
102
}
330
12
100
AcDbXrecord
280
     1
270
     1
271
     1
  0
XRECORD
  5
13
102
{ACAD_REACTORS
330
12
102
}
330
12
100
AcDbXrecord
280
     1
270
     1
271
     1
  0
XRECORD
  5
17
102
{ACAD_REACTORS
330
12
102
}
330
12
100
AcDbXrecord
280
     1
270
     1
271
     1
  0
XRECORD
  5
16
102
{ACAD_REACTORS
330
12
102
}
330
12
100
AcDbXrecord
280
     1
270
     1
271
     1
  0
XRECORD
  5
18
102
{ACAD_REACTORS
330
12
102
}
330
12
100
AcDbXrecord
280
     1
270
     1
271
     1
  0
XRECORD
  5
15
102
{ACAD_REACTORS
330
12
102
}
330
12
100
AcDbXrecord
280
     1
270
     1
271
     1
  0
XRECORD
  5
24
102
{ACAD_REACTORS
330
22
102
}
330
22
100
AcDbXrecord
280
     1
270
     1
271
     1
  0
XRECORD
  5
23
102
{ACAD_REACTORS
330
22
102
}
330
22
100
AcDbXrecord
280
     1
270
     1
271
     1
  0
XRECORD
  5
27
102
{ACAD_REACTORS
330
22
102
}
330
22
100
AcDbXrecord
280
     1
270
     1
271
     1
  0
XRECORD
  5
26
102
{ACAD_REACTORS
330
22
102
}
330
22
100
AcDbXrecord
280
     1
270
     1
271
     1
  0
XRECORD
  5
28
102
{ACAD_REACTORS
330
22
102
}
330
22
100
AcDbXrecord
280
     1
270
     1
271
     1
  0
XRECORD
  5
25
102
{ACAD_REACTORS
330
22
102
}
330
22
100
AcDbXrecord
280
     1
270
     1
271
     1
  0
XRECORD
  5
11E
102
{ACAD_REACTORS
330
11D
102
}
330
11D
100
AcDbXrecord
280
     1
102
ACAD_ROUNDTRIP_2012_MLEADER_STYLE
298
     1
  0
XRECORD
  5
120
102
{ACAD_REACTORS
330
11F
102
}
330
11F
100
AcDbXrecord
280
     1
102
DISPLAYNAME
  1
Imperial24
102
FLAGS
 90
        0
  0
CELLSTYLEMAP
  5
EB
102
{ACAD_REACTORS
330
EA
102
}
330
EA
100
AcDbCellStyleMap
 90
        3
300
CELLSTYLE
  1
TABLEFORMAT_BEGIN
 90
        5
170
     1
 91
        0
 92
    32768
 62
   257
 93
        1
300
CONTENTFORMAT
  1
CONTENTFORMAT_BEGIN
 90
        0
 91
        0
 92
      512
 93
        0
300

 40
0.0
140
1.0
 94
        5
 62
     0
340
55
144
0.25
309
CONTENTFORMAT_END
171
     0
 94
        0
309
TABLEFORMAT_END
  1
CELLSTYLE_BEGIN
 90
        1
 91
        1
300
_TITLE
309
CELLSTYLE_END
300
CELLSTYLE
  1
TABLEFORMAT_BEGIN
 90
        5
170
     1
 91
        0
 92
        0
 62
   257
 93
        1
300
CONTENTFORMAT
  1
CONTENTFORMAT_BEGIN
 90
        0
 91
        0
 92
      512
 93
        0
300

 40
0.0
140
1.0
 94
        5
 62
     0
340
55
144
0.18
309
CONTENTFORMAT_END
171
     0
 94
        0
309
TABLEFORMAT_END
  1
CELLSTYLE_BEGIN
 90
        2
 91
        1
300
_HEADER
309
CELLSTYLE_END
300
CELLSTYLE
  1
TABLEFORMAT_BEGIN
 90
        5
170
     1
 91
        0
 92
        0
 62
   257
 93
        1
300
CONTENTFORMAT
  1
CONTENTFORMAT_BEGIN
 90
        0
 91
        0
 92
      512
 93
        0
300

 40
0.0
140
1.0
 94
        2
 62
     0
340
55
144
0.18
309
CONTENTFORMAT_END
171
     0
 94
        0
309
TABLEFORMAT_END
  1
CELLSTYLE_BEGIN
 90
        3
 91
        2
300
_DATA
309
CELLSTYLE_END
  0
XRECORD
  5
F8
102
{ACAD_REACTORS
330
F7
102
}
330
F7
100
AcDbXrecord
280
     1
102
RTVSPost2010Prop28
280
     1
102
RTVSPost2010PropOp28
 70
     1
102
RTVSPost2010Prop29
280
     1
102
RTVSPost2010PropOp29
 70
     1
102
RTVSPost2010Prop30
280
     0
102
RTVSPost2010PropOp30
 70
     1
102
RTVSPost2010Prop31
280
     0
102
RTVSPost2010PropOp31
 70
     1
102
RTVSPost2010Prop32
280
     0
102
RTVSPost2010PropOp32
 70
     1
102
RTVSPost2010Prop33
280
     0
102
RTVSPost2010PropOp33
 70
     1
102
RTVSPost2010Prop34
280
     0
102
RTVSPost2010PropOp34
 70
     1
102
RTVSPost2010Prop35
280
     0
102
RTVSPost2010PropOp35
 70
     1
102
RTVSPost2010Prop36
280
     0
102
RTVSPost2010PropOp36
 70
     1
102
RTVSPost2010Prop37
 90
       50
102
RTVSPost2010PropOp37
 70
     1
102
RTVSPost2010Prop38
140
0.0
102
RTVSPost2010PropOp38
 70
     1
102
RTVSPost2010Prop39
140
1.0
102
RTVSPost2010PropOp39
 70
     1
102
RTVSPost2010Prop40
 90
        0
102
RTVSPost2010PropOp40
 70
     1
102
RTVSPost2010Prop41ColorIndex
 90
       18
102
RTVSPost2010Prop41ColorRGB
 90
        0
102
RTVSPost2010PropOp41
 70
     1
102
RTVSPost2010Prop42
 90
       50
102
RTVSPost2010PropOp42
 70
     1
102
RTVSPost2010Prop43
 90
        3
102
RTVSPost2010PropOp43
 70
     1
102
RTVSPost2010Prop44ColorIndex
 90
        5
102
RTVSPost2010Prop44ColorRGB
 90
      255
102
RTVSPost2010PropOp44
 70
     1
102
RTVSPost2010Prop45
280
     0
102
RTVSPost2010PropOp45
 70
     1
102
RTVSPost2010Prop46
 90
       50
102
RTVSPost2010PropOp46
 70
     1
102
RTVSPost2010Prop47
 90
       50
102
RTVSPost2010PropOp47
 70
     1
102
RTVSPost2010Prop48
 90
       50
102
RTVSPost2010PropOp48
 70
     1
102
RTVSPost2010Prop49
280
     0
102
RTVSPost2010PropOp49
 70
     1
102
RTVSPost2010Prop50
 90
       50
102
RTVSPost2010PropOp50
 70
     1
102
RTVSPost2010Prop51ColorIndex
 90
      256
102
RTVSPost2010Prop51ColorRGB
 90
-16777216
102
RTVSPost2010PropOp51
 70
     0
102
RTVSPost2010Prop52
140
1.0
102
RTVSPost2010PropOp52
 70
     0
102
RTVSPost2010Prop53
 90
        2
102
RTVSPost2010PropOp53
 70
     1
102
RTVSPost2010Prop54
  1
strokes_ogs.tif
102
RTVSPost2010PropOp54
 70
     1
102
RTVSPost2010Prop55
280
     0
102
RTVSPost2010PropOp55
 70
     1
102
RTVSPost2010Prop56
140
1.0
102
RTVSPost2010PropOp56
 70
     1
102
RTVSPost2010Prop57
140
1.0
102
RTVSPost2010PropOp57
 70
     1
  0
XRECORD
  5
F6
102
{ACAD_REACTORS
330
F5
102
}
330
F5
100
AcDbXrecord
280
     1
102
RTVSPost2010Prop28
280
     0
102
RTVSPost2010PropOp28
 70
     1
102
RTVSPost2010Prop29
280
     1
102
RTVSPost2010PropOp29
 70
     1
102
RTVSPost2010Prop30
280
     1
102
RTVSPost2010PropOp30
 70
     1
102
RTVSPost2010Prop31
280
     0
102
RTVSPost2010PropOp31
 70
     1
102
RTVSPost2010Prop32
280
     0
102
RTVSPost2010PropOp32
 70
     1
102
RTVSPost2010Prop33
280
     0
102
RTVSPost2010PropOp33
 70
     1
102
RTVSPost2010Prop34
280
     0
102
RTVSPost2010PropOp34
 70
     1
102
RTVSPost2010Prop35
280
     0
102
RTVSPost2010PropOp35
 70
     1
102
RTVSPost2010Prop36
280
     0
102
RTVSPost2010PropOp36
 70
     1
102
RTVSPost2010Prop37
 90
       50
102
RTVSPost2010PropOp37
 70
     1
102
RTVSPost2010Prop38
140
0.0
102
RTVSPost2010PropOp38
 70
     1
102
RTVSPost2010Prop39
140
1.0
102
RTVSPost2010PropOp39
 70
     1
102
RTVSPost2010Prop40
 90
        0
102
RTVSPost2010PropOp40
 70
     1
102
RTVSPost2010Prop41ColorIndex
 90
       18
102
RTVSPost2010Prop41ColorRGB
 90
        0
102
RTVSPost2010PropOp41
 70
     1
102
RTVSPost2010Prop42
 90
       50
102
RTVSPost2010PropOp42
 70
     1
102
RTVSPost2010Prop43
 90
        3
102
RTVSPost2010PropOp43
 70
     1
102
RTVSPost2010Prop44ColorIndex
 90
        5
102
RTVSPost2010Prop44ColorRGB
 90
      255
102
RTVSPost2010PropOp44
 70
     1
102
RTVSPost2010Prop45
280
     0
102
RTVSPost2010PropOp45
 70
     1
102
RTVSPost2010Prop46
 90
       50
102
RTVSPost2010PropOp46
 70
     1
102
RTVSPost2010Prop47
 90
       50
102
RTVSPost2010PropOp47
 70
     1
102
RTVSPost2010Prop48
 90
       50
102
RTVSPost2010PropOp48
 70
     1
102
RTVSPost2010Prop49
280
     0
102
RTVSPost2010PropOp49
 70
     1
102
RTVSPost2010Prop50
 90
       50
102
RTVSPost2010PropOp50
 70
     1
102
RTVSPost2010Prop51ColorIndex
 90
      256
102
RTVSPost2010Prop51ColorRGB
 90
-16777216
102
RTVSPost2010PropOp51
 70
     0
102
RTVSPost2010Prop52
140
1.0
102
RTVSPost2010PropOp52
 70
     0
102
RTVSPost2010Prop53
 90
        2
102
RTVSPost2010PropOp53
 70
     1
102
RTVSPost2010Prop54
  1
strokes_ogs.tif
102
RTVSPost2010PropOp54
 70
     1
102
RTVSPost2010Prop55
280
     0
102
RTVSPost2010PropOp55
 70
     1
102
RTVSPost2010Prop56
140
1.0
102
RTVSPost2010PropOp56
 70
     1
102
RTVSPost2010Prop57
140
1.0
102
RTVSPost2010PropOp57
 70
     1
  0
XRECORD
  5
104
102
{ACAD_REACTORS
330
103
102
}
330
103
100
AcDbXrecord
280
     1
102
RTVSPost2010Prop28
280
     0
102
RTVSPost2010PropOp28
 70
     1
102
RTVSPost2010Prop29
280
     1
102
RTVSPost2010PropOp29
 70
     1
102
RTVSPost2010Prop30
280
     1
102
RTVSPost2010PropOp30
 70
     1
102
RTVSPost2010Prop31
280
     0
102
RTVSPost2010PropOp31
 70
     1
102
RTVSPost2010Prop32
280
     0
102
RTVSPost2010PropOp32
 70
     1
102
RTVSPost2010Prop33
280
     0
102
RTVSPost2010PropOp33
 70
     1
102
RTVSPost2010Prop34
280
     0
102
RTVSPost2010PropOp34
 70
     1
102
RTVSPost2010Prop35
280
     0
102
RTVSPost2010PropOp35
 70
     1
102
RTVSPost2010Prop36
280
     0
102
RTVSPost2010PropOp36
 70
     1
102
RTVSPost2010Prop37
 90
       50
102
RTVSPost2010PropOp37
 70
     1
102
RTVSPost2010Prop38
140
0.0
102
RTVSPost2010PropOp38
 70
     1
102
RTVSPost2010Prop39
140
1.0
102
RTVSPost2010PropOp39
 70
     1
102
RTVSPost2010Prop40
 90
        0
102
RTVSPost2010PropOp40
 70
     1
102
RTVSPost2010Prop41ColorIndex
 90
       18
102
RTVSPost2010Prop41ColorRGB
 90
        0
102
RTVSPost2010PropOp41
 70
     1
102
RTVSPost2010Prop42
 90
       50
102
RTVSPost2010PropOp42
 70
     1
102
RTVSPost2010Prop43
 90
        3
102
RTVSPost2010PropOp43
 70
     1
102
RTVSPost2010Prop44ColorIndex
 90
        5
102
RTVSPost2010Prop44ColorRGB
 90
      255
102
RTVSPost2010PropOp44
 70
     1
102
RTVSPost2010Prop45
280
     0
102
RTVSPost2010PropOp45
 70
     1
102
RTVSPost2010Prop46
 90
       50
102
RTVSPost2010PropOp46
 70
     1
102
RTVSPost2010Prop47
 90
       50
102
RTVSPost2010PropOp47
 70
     1
102
RTVSPost2010Prop48
 90
       50
102
RTVSPost2010PropOp48
 70
     1
102
RTVSPost2010Prop49
280
     0
102
RTVSPost2010PropOp49
 70
     1
102
RTVSPost2010Prop50
 90
       50
102
RTVSPost2010PropOp50
 70
     1
102
RTVSPost2010Prop51ColorIndex
 90
      256
102
RTVSPost2010Prop51ColorRGB
 90
-16777216
102
RTVSPost2010PropOp51
 70
     0
102
RTVSPost2010Prop52
140
1.0
102
RTVSPost2010PropOp52
 70
     0
102
RTVSPost2010Prop53
 90
        2
102
RTVSPost2010PropOp53
 70
     1
102
RTVSPost2010Prop54
  1
strokes_ogs.tif
102
RTVSPost2010PropOp54
 70
     1
102
RTVSPost2010Prop55
280
     0
102
RTVSPost2010PropOp55
 70
     1
102
RTVSPost2010Prop56
140
1.0
102
RTVSPost2010PropOp56
 70
     1
102
RTVSPost2010Prop57
140
1.0
102
RTVSPost2010PropOp57
 70
     1
  0
XRECORD
  5
10C
102
{ACAD_REACTORS
330
10B
102
}
330
10B
100
AcDbXrecord
280
     1
102
RTVSPost2010Prop28
280
     0
102
RTVSPost2010PropOp28
 70
     1
102
RTVSPost2010Prop29
280
     1
102
RTVSPost2010PropOp29
 70
     1
102
RTVSPost2010Prop30
280
     1
102
RTVSPost2010PropOp30
 70
     1
102
RTVSPost2010Prop31
280
     0
102
RTVSPost2010PropOp31
 70
     1
102
RTVSPost2010Prop32
280
     0
102
RTVSPost2010PropOp32
 70
     1
102
RTVSPost2010Prop33
280
     0
102
RTVSPost2010PropOp33
 70
     1
102
RTVSPost2010Prop34
280
     0
102
RTVSPost2010PropOp34
 70
     1
102
RTVSPost2010Prop35
280
     0
102
RTVSPost2010PropOp35
 70
     1
102
RTVSPost2010Prop36
280
     0
102
RTVSPost2010PropOp36
 70
     1
102
RTVSPost2010Prop37
 90
       50
102
RTVSPost2010PropOp37
 70
     1
102
RTVSPost2010Prop38
140
0.0
102
RTVSPost2010PropOp38
 70
     1
102
RTVSPost2010Prop39
140
1.0
102
RTVSPost2010PropOp39
 70
     1
102
RTVSPost2010Prop40
 90
        0
102
RTVSPost2010PropOp40
 70
     1
102
RTVSPost2010Prop41ColorIndex
 90
       18
102
RTVSPost2010Prop41ColorRGB
 90
        0
102
RTVSPost2010PropOp41
 70
     1
102
RTVSPost2010Prop42
 90
       50
102
RTVSPost2010PropOp42
 70
     1
102
RTVSPost2010Prop43
 90
        3
102
RTVSPost2010PropOp43
 70
     1
102
RTVSPost2010Prop44ColorIndex
 90
        5
102
RTVSPost2010Prop44ColorRGB
 90
      255
102
RTVSPost2010PropOp44
 70
     1
102
RTVSPost2010Prop45
280
     0
102
RTVSPost2010PropOp45
 70
     1
102
RTVSPost2010Prop46
 90
       50
102
RTVSPost2010PropOp46
 70
     1
102
RTVSPost2010Prop47
 90
       50
102
RTVSPost2010PropOp47
 70
     1
102
RTVSPost2010Prop48
 90
       50
102
RTVSPost2010PropOp48
 70
     1
102
RTVSPost2010Prop49
280
     0
102
RTVSPost2010PropOp49
 70
     1
102
RTVSPost2010Prop50
 90
       50
102
RTVSPost2010PropOp50
 70
     1
102
RTVSPost2010Prop51ColorIndex
 90
      256
102
RTVSPost2010Prop51ColorRGB
 90
-16777216
102
RTVSPost2010PropOp51
 70
     0
102
RTVSPost2010Prop52
140
1.0
102
RTVSPost2010PropOp52
 70
     0
102
RTVSPost2010Prop53
 90
        2
102
RTVSPost2010PropOp53
 70
     1
102
RTVSPost2010Prop54
  1
strokes_ogs.tif
102
RTVSPost2010PropOp54
 70
     1
102
RTVSPost2010Prop55
280
     0
102
RTVSPost2010PropOp55
 70
     1
102
RTVSPost2010Prop56
140
1.0
102
RTVSPost2010PropOp56
 70
     1
102
RTVSPost2010Prop57
140
1.0
102
RTVSPost2010PropOp57
 70
     1
  0
XRECORD
  5
FE
102
{ACAD_REACTORS
330
FD
102
}
330
FD
100
AcDbXrecord
280
     1
102
RTVSPost2010Prop28
280
     0
102
RTVSPost2010PropOp28
 70
     1
102
RTVSPost2010Prop29
280
     1
102
RTVSPost2010PropOp29
 70
     1
102
RTVSPost2010Prop30
280
     1
102
RTVSPost2010PropOp30
 70
     1
102
RTVSPost2010Prop31
280
     0
102
RTVSPost2010PropOp31
 70
     1
102
RTVSPost2010Prop32
280
     0
102
RTVSPost2010PropOp32
 70
     1
102
RTVSPost2010Prop33
280
     0
102
RTVSPost2010PropOp33
 70
     1
102
RTVSPost2010Prop34
280
     0
102
RTVSPost2010PropOp34
 70
     1
102
RTVSPost2010Prop35
280
     0
102
RTVSPost2010PropOp35
 70
     1
102
RTVSPost2010Prop36
280
     0
102
RTVSPost2010PropOp36
 70
     1
102
RTVSPost2010Prop37
 90
       50
102
RTVSPost2010PropOp37
 70
     1
102
RTVSPost2010Prop38
140
0.0
102
RTVSPost2010PropOp38
 70
     1
102
RTVSPost2010Prop39
140
1.0
102
RTVSPost2010PropOp39
 70
     1
102
RTVSPost2010Prop40
 90
        0
102
RTVSPost2010PropOp40
 70
     1
102
RTVSPost2010Prop41ColorIndex
 90
       18
102
RTVSPost2010Prop41ColorRGB
 90
        0
102
RTVSPost2010PropOp41
 70
     1
102
RTVSPost2010Prop42
 90
       50
102
RTVSPost2010PropOp42
 70
     1
102
RTVSPost2010Prop43
 90
        3
102
RTVSPost2010PropOp43
 70
     1
102
RTVSPost2010Prop44ColorIndex
 90
        5
102
RTVSPost2010Prop44ColorRGB
 90
      255
102
RTVSPost2010PropOp44
 70
     1
102
RTVSPost2010Prop45
280
     0
102
RTVSPost2010PropOp45
 70
     1
102
RTVSPost2010Prop46
 90
       50
102
RTVSPost2010PropOp46
 70
     1
102
RTVSPost2010Prop47
 90
       50
102
RTVSPost2010PropOp47
 70
     1
102
RTVSPost2010Prop48
 90
       50
102
RTVSPost2010PropOp48
 70
     1
102
RTVSPost2010Prop49
280
     0
102
RTVSPost2010PropOp49
 70
     1
102
RTVSPost2010Prop50
 90
       50
102
RTVSPost2010PropOp50
 70
     1
102
RTVSPost2010Prop51ColorIndex
 90
      256
102
RTVSPost2010Prop51ColorRGB
 90
-16777216
102
RTVSPost2010PropOp51
 70
     0
102
RTVSPost2010Prop52
140
1.0
102
RTVSPost2010PropOp52
 70
     0
102
RTVSPost2010Prop53
 90
        2
102
RTVSPost2010PropOp53
 70
     1
102
RTVSPost2010Prop54
  1
strokes_ogs.tif
102
RTVSPost2010PropOp54
 70
     1
102
RTVSPost2010Prop55
280
     0
102
RTVSPost2010PropOp55
 70
     1
102
RTVSPost2010Prop56
140
1.0
102
RTVSPost2010PropOp56
 70
     1
102
RTVSPost2010Prop57
140
1.0
102
RTVSPost2010PropOp57
 70
     1
  0
XRECORD
  5
102
102
{ACAD_REACTORS
330
101
102
}
330
101
100
AcDbXrecord
280
     1
102
RTVSPost2010Prop28
280
     0
102
RTVSPost2010PropOp28
 70
     1
102
RTVSPost2010Prop29
280
     1
102
RTVSPost2010PropOp29
 70
     1
102
RTVSPost2010Prop30
280
     1
102
RTVSPost2010PropOp30
 70
     1
102
RTVSPost2010Prop31
280
     0
102
RTVSPost2010PropOp31
 70
     1
102
RTVSPost2010Prop32
280
     0
102
RTVSPost2010PropOp32
 70
     1
102
RTVSPost2010Prop33
280
     0
102
RTVSPost2010PropOp33
 70
     1
102
RTVSPost2010Prop34
280
     0
102
RTVSPost2010PropOp34
 70
     1
102
RTVSPost2010Prop35
280
     0
102
RTVSPost2010PropOp35
 70
     1
102
RTVSPost2010Prop36
280
     0
102
RTVSPost2010PropOp36
 70
     1
102
RTVSPost2010Prop37
 90
       50
102
RTVSPost2010PropOp37
 70
     1
102
RTVSPost2010Prop38
140
0.0
102
RTVSPost2010PropOp38
 70
     1
102
RTVSPost2010Prop39
140
1.0
102
RTVSPost2010PropOp39
 70
     1
102
RTVSPost2010Prop40
 90
        0
102
RTVSPost2010PropOp40
 70
     1
102
RTVSPost2010Prop41ColorIndex
 90
       18
102
RTVSPost2010Prop41ColorRGB
 90
        0
102
RTVSPost2010PropOp41
 70
     1
102
RTVSPost2010Prop42
 90
       50
102
RTVSPost2010PropOp42
 70
     1
102
RTVSPost2010Prop43
 90
        3
102
RTVSPost2010PropOp43
 70
     1
102
RTVSPost2010Prop44ColorIndex
 90
        5
102
RTVSPost2010Prop44ColorRGB
 90
      255
102
RTVSPost2010PropOp44
 70
     1
102
RTVSPost2010Prop45
280
     0
102
RTVSPost2010PropOp45
 70
     1
102
RTVSPost2010Prop46
 90
       50
102
RTVSPost2010PropOp46
 70
     1
102
RTVSPost2010Prop47
 90
       50
102
RTVSPost2010PropOp47
 70
     1
102
RTVSPost2010Prop48
 90
       50
102
RTVSPost2010PropOp48
 70
     1
102
RTVSPost2010Prop49
280
     0
102
RTVSPost2010PropOp49
 70
     1
102
RTVSPost2010Prop50
 90
       50
102
RTVSPost2010PropOp50
 70
     1
102
RTVSPost2010Prop51ColorIndex
 90
      256
102
RTVSPost2010Prop51ColorRGB
 90
-16777216
102
RTVSPost2010PropOp51
 70
     0
102
RTVSPost2010Prop52
140
1.0
102
RTVSPost2010PropOp52
 70
     0
102
RTVSPost2010Prop53
 90
        2
102
RTVSPost2010PropOp53
 70
     1
102
RTVSPost2010Prop54
  1
strokes_ogs.tif
102
RTVSPost2010PropOp54
 70
     1
102
RTVSPost2010Prop55
280
     0
102
RTVSPost2010PropOp55
 70
     1
102
RTVSPost2010Prop56
140
1.0
102
RTVSPost2010PropOp56
 70
     1
102
RTVSPost2010Prop57
140
1.0
102
RTVSPost2010PropOp57
 70
     1
  0
XRECORD
  5
11C
102
{ACAD_REACTORS
330
11B
102
}
330
11B
100
AcDbXrecord
280
     1
102
RTVSPost2010Prop28
280
     0
102
RTVSPost2010PropOp28
 70
     0
102
RTVSPost2010Prop29
280
     1
102
RTVSPost2010PropOp29
 70
     0
102
RTVSPost2010Prop30
280
     1
102
RTVSPost2010PropOp30
 70
     0
102
RTVSPost2010Prop31
280
     0
102
RTVSPost2010PropOp31
 70
     0
102
RTVSPost2010Prop32
280
     0
102
RTVSPost2010PropOp32
 70
     0
102
RTVSPost2010Prop33
280
     0
102
RTVSPost2010PropOp33
 70
     0
102
RTVSPost2010Prop34
280
     0
102
RTVSPost2010PropOp34
 70
     0
102
RTVSPost2010Prop35
280
     0
102
RTVSPost2010PropOp35
 70
     0
102
RTVSPost2010Prop36
280
     0
102
RTVSPost2010PropOp36
 70
     0
102
RTVSPost2010Prop37
 90
       50
102
RTVSPost2010PropOp37
 70
     0
102
RTVSPost2010Prop38
140
0.0
102
RTVSPost2010PropOp38
 70
     0
102
RTVSPost2010Prop39
140
1.0
102
RTVSPost2010PropOp39
 70
     0
102
RTVSPost2010Prop40
 90
        0
102
RTVSPost2010PropOp40
 70
     0
102
RTVSPost2010Prop41ColorIndex
 90
       18
102
RTVSPost2010Prop41ColorRGB
 90
        0
102
RTVSPost2010PropOp41
 70
     0
102
RTVSPost2010Prop42
 90
       50
102
RTVSPost2010PropOp42
 70
     0
102
RTVSPost2010Prop43
 90
        3
102
RTVSPost2010PropOp43
 70
     0
102
RTVSPost2010Prop44ColorIndex
 90
        5
102
RTVSPost2010Prop44ColorRGB
 90
      255
102
RTVSPost2010PropOp44
 70
     0
102
RTVSPost2010Prop45
280
     0
102
RTVSPost2010PropOp45
 70
     0
102
RTVSPost2010Prop46
 90
       50
102
RTVSPost2010PropOp46
 70
     0
102
RTVSPost2010Prop47
 90
       50
102
RTVSPost2010PropOp47
 70
     0
102
RTVSPost2010Prop48
 90
       50
102
RTVSPost2010PropOp48
 70
     0
102
RTVSPost2010Prop49
280
     0
102
RTVSPost2010PropOp49
 70
     0
102
RTVSPost2010Prop50
 90
       50
102
RTVSPost2010PropOp50
 70
     0
102
RTVSPost2010Prop51ColorIndex
 90
      256
102
RTVSPost2010Prop51ColorRGB
 90
-16777216
102
RTVSPost2010PropOp51
 70
     0
102
RTVSPost2010Prop52
140
1.0
102
RTVSPost2010PropOp52
 70
     0
102
RTVSPost2010Prop53
 90
        2
102
RTVSPost2010PropOp53
 70
     0
102
RTVSPost2010Prop54
  1
strokes_ogs.tif
102
RTVSPost2010PropOp54
 70
     0
102
RTVSPost2010Prop55
280
     0
102
RTVSPost2010PropOp55
 70
     0
102
RTVSPost2010Prop56
140
1.0
102
RTVSPost2010PropOp56
 70
     0
102
RTVSPost2010Prop57
140
1.0
102
RTVSPost2010PropOp57
 70
     0
  0
XRECORD
  5
10A
102
{ACAD_REACTORS
330
109
102
}
330
109
100
AcDbXrecord
280
     1
102
RTVSPost2010Prop28
280
     0
102
RTVSPost2010PropOp28
 70
     1
102
RTVSPost2010Prop29
280
     1
102
RTVSPost2010PropOp29
 70
     1
102
RTVSPost2010Prop30
280
     1
102
RTVSPost2010PropOp30
 70
     1
102
RTVSPost2010Prop31
280
     0
102
RTVSPost2010PropOp31
 70
     1
102
RTVSPost2010Prop32
280
     0
102
RTVSPost2010PropOp32
 70
     1
102
RTVSPost2010Prop33
280
     0
102
RTVSPost2010PropOp33
 70
     1
102
RTVSPost2010Prop34
280
     0
102
RTVSPost2010PropOp34
 70
     1
102
RTVSPost2010Prop35
280
     0
102
RTVSPost2010PropOp35
 70
     1
102
RTVSPost2010Prop36
280
     0
102
RTVSPost2010PropOp36
 70
     1
102
RTVSPost2010Prop37
 90
       50
102
RTVSPost2010PropOp37
 70
     1
102
RTVSPost2010Prop38
140
0.0
102
RTVSPost2010PropOp38
 70
     1
102
RTVSPost2010Prop39
140
1.0
102
RTVSPost2010PropOp39
 70
     1
102
RTVSPost2010Prop40
 90
        0
102
RTVSPost2010PropOp40
 70
     1
102
RTVSPost2010Prop41ColorIndex
 90
       18
102
RTVSPost2010Prop41ColorRGB
 90
        0
102
RTVSPost2010PropOp41
 70
     1
102
RTVSPost2010Prop42
 90
       50
102
RTVSPost2010PropOp42
 70
     1
102
RTVSPost2010Prop43
 90
        3
102
RTVSPost2010PropOp43
 70
     1
102
RTVSPost2010Prop44ColorIndex
 90
        5
102
RTVSPost2010Prop44ColorRGB
 90
      255
102
RTVSPost2010PropOp44
 70
     1
102
RTVSPost2010Prop45
280
     0
102
RTVSPost2010PropOp45
 70
     1
102
RTVSPost2010Prop46
 90
       50
102
RTVSPost2010PropOp46
 70
     1
102
RTVSPost2010Prop47
 90
       50
102
RTVSPost2010PropOp47
 70
     1
102
RTVSPost2010Prop48
 90
       50
102
RTVSPost2010PropOp48
 70
     1
102
RTVSPost2010Prop49
280
     0
102
RTVSPost2010PropOp49
 70
     1
102
RTVSPost2010Prop50
 90
       50
102
RTVSPost2010PropOp50
 70
     1
102
RTVSPost2010Prop51ColorIndex
 90
      256
102
RTVSPost2010Prop51ColorRGB
 90
-16777216
102
RTVSPost2010PropOp51
 70
     0
102
RTVSPost2010Prop52
140
1.0
102
RTVSPost2010PropOp52
 70
     0
102
RTVSPost2010Prop53
 90
        2
102
RTVSPost2010PropOp53
 70
     1
102
RTVSPost2010Prop54
  1
strokes_ogs.tif
102
RTVSPost2010PropOp54
 70
     1
102
RTVSPost2010Prop55
280
     0
102
RTVSPost2010PropOp55
 70
     1
102
RTVSPost2010Prop56
140
1.0
102
RTVSPost2010PropOp56
 70
     1
102
RTVSPost2010Prop57
140
1.0
102
RTVSPost2010PropOp57
 70
     1
  0
XRECORD
  5
EE
102
{ACAD_REACTORS
330
ED
102
}
330
ED
100
AcDbXrecord
280
     1
102
RTVSPost2010Prop28
280
     0
102
RTVSPost2010PropOp28
 70
     1
102
RTVSPost2010Prop29
280
     1
102
RTVSPost2010PropOp29
 70
     1
102
RTVSPost2010Prop30
280
     1
102
RTVSPost2010PropOp30
 70
     1
102
RTVSPost2010Prop31
280
     0
102
RTVSPost2010PropOp31
 70
     1
102
RTVSPost2010Prop32
280
     0
102
RTVSPost2010PropOp32
 70
     1
102
RTVSPost2010Prop33
280
     0
102
RTVSPost2010PropOp33
 70
     1
102
RTVSPost2010Prop34
280
     0
102
RTVSPost2010PropOp34
 70
     1
102
RTVSPost2010Prop35
280
     0
102
RTVSPost2010PropOp35
 70
     1
102
RTVSPost2010Prop36
280
     0
102
RTVSPost2010PropOp36
 70
     1
102
RTVSPost2010Prop37
 90
       50
102
RTVSPost2010PropOp37
 70
     1
102
RTVSPost2010Prop38
140
0.0
102
RTVSPost2010PropOp38
 70
     1
102
RTVSPost2010Prop39
140
1.0
102
RTVSPost2010PropOp39
 70
     1
102
RTVSPost2010Prop40
 90
        0
102
RTVSPost2010PropOp40
 70
     1
102
RTVSPost2010Prop41ColorIndex
 90
       18
102
RTVSPost2010Prop41ColorRGB
 90
        0
102
RTVSPost2010PropOp41
 70
     1
102
RTVSPost2010Prop42
 90
       50
102
RTVSPost2010PropOp42
 70
     1
102
RTVSPost2010Prop43
 90
        3
102
RTVSPost2010PropOp43
 70
     1
102
RTVSPost2010Prop44ColorIndex
 90
        5
102
RTVSPost2010Prop44ColorRGB
 90
      255
102
RTVSPost2010PropOp44
 70
     1
102
RTVSPost2010Prop45
280
     0
102
RTVSPost2010PropOp45
 70
     1
102
RTVSPost2010Prop46
 90
       50
102
RTVSPost2010PropOp46
 70
     1
102
RTVSPost2010Prop47
 90
       50
102
RTVSPost2010PropOp47
 70
     1
102
RTVSPost2010Prop48
 90
       50
102
RTVSPost2010PropOp48
 70
     1
102
RTVSPost2010Prop49
280
     0
102
RTVSPost2010PropOp49
 70
     1
102
RTVSPost2010Prop50
 90
       50
102
RTVSPost2010PropOp50
 70
     1
102
RTVSPost2010Prop51ColorIndex
 90
      256
102
RTVSPost2010Prop51ColorRGB
 90
-16777216
102
RTVSPost2010PropOp51
 70
     0
102
RTVSPost2010Prop52
140
1.0
102
RTVSPost2010PropOp52
 70
     0
102
RTVSPost2010Prop53
 90
        2
102
RTVSPost2010PropOp53
 70
     1
102
RTVSPost2010Prop54
  1
strokes_ogs.tif
102
RTVSPost2010PropOp54
 70
     1
102
RTVSPost2010Prop55
280
     0
102
RTVSPost2010PropOp55
 70
     1
102
RTVSPost2010Prop56
140
1.0
102
RTVSPost2010PropOp56
 70
     1
102
RTVSPost2010Prop57
140
1.0
102
RTVSPost2010PropOp57
 70
     1
  0
XRECORD
  5
F0
102
{ACAD_REACTORS
330
EF
102
}
330
EF
100
AcDbXrecord
280
     1
102
RTVSPost2010Prop28
280
     0
102
RTVSPost2010PropOp28
 70
     1
102
RTVSPost2010Prop29
280
     1
102
RTVSPost2010PropOp29
 70
     1
102
RTVSPost2010Prop30
280
     1
102
RTVSPost2010PropOp30
 70
     1
102
RTVSPost2010Prop31
280
     0
102
RTVSPost2010PropOp31
 70
     1
102
RTVSPost2010Prop32
280
     0
102
RTVSPost2010PropOp32
 70
     1
102
RTVSPost2010Prop33
280
     0
102
RTVSPost2010PropOp33
 70
     1
102
RTVSPost2010Prop34
280
     0
102
RTVSPost2010PropOp34
 70
     1
102
RTVSPost2010Prop35
280
     0
102
RTVSPost2010PropOp35
 70
     1
102
RTVSPost2010Prop36
280
     0
102
RTVSPost2010PropOp36
 70
     1
102
RTVSPost2010Prop37
 90
       50
102
RTVSPost2010PropOp37
 70
     1
102
RTVSPost2010Prop38
140
0.0
102
RTVSPost2010PropOp38
 70
     1
102
RTVSPost2010Prop39
140
1.0
102
RTVSPost2010PropOp39
 70
     1
102
RTVSPost2010Prop40
 90
        0
102
RTVSPost2010PropOp40
 70
     1
102
RTVSPost2010Prop41ColorIndex
 90
       18
102
RTVSPost2010Prop41ColorRGB
 90
        0
102
RTVSPost2010PropOp41
 70
     1
102
RTVSPost2010Prop42
 90
       50
102
RTVSPost2010PropOp42
 70
     1
102
RTVSPost2010Prop43
 90
        3
102
RTVSPost2010PropOp43
 70
     1
102
RTVSPost2010Prop44ColorIndex
 90
        5
102
RTVSPost2010Prop44ColorRGB
 90
      255
102
RTVSPost2010PropOp44
 70
     1
102
RTVSPost2010Prop45
280
     0
102
RTVSPost2010PropOp45
 70
     1
102
RTVSPost2010Prop46
 90
       50
102
RTVSPost2010PropOp46
 70
     1
102
RTVSPost2010Prop47
 90
       50
102
RTVSPost2010PropOp47
 70
     1
102
RTVSPost2010Prop48
 90
       50
102
RTVSPost2010PropOp48
 70
     1
102
RTVSPost2010Prop49
280
     0
102
RTVSPost2010PropOp49
 70
     1
102
RTVSPost2010Prop50
 90
       50
102
RTVSPost2010PropOp50
 70
     1
102
RTVSPost2010Prop51ColorIndex
 90
      256
102
RTVSPost2010Prop51ColorRGB
 90
-16777216
102
RTVSPost2010PropOp51
 70
     0
102
RTVSPost2010Prop52
140
1.0
102
RTVSPost2010PropOp52
 70
     0
102
RTVSPost2010Prop53
 90
        2
102
RTVSPost2010PropOp53
 70
     1
102
RTVSPost2010Prop54
  1
strokes_ogs.tif
102
RTVSPost2010PropOp54
 70
     1
102
RTVSPost2010Prop55
280
     0
102
RTVSPost2010PropOp55
 70
     1
102
RTVSPost2010Prop56
140
1.0
102
RTVSPost2010PropOp56
 70
     1
102
RTVSPost2010Prop57
140
1.0
102
RTVSPost2010PropOp57
 70
     1
  0
XRECORD
  5
F2
102
{ACAD_REACTORS
330
F1
102
}
330
F1
100
AcDbXrecord
280
     1
102
RTVSPost2010Prop28
280
     0
102
RTVSPost2010PropOp28
 70
     1
102
RTVSPost2010Prop29
280
     1
102
RTVSPost2010PropOp29
 70
     1
102
RTVSPost2010Prop30
280
     1
102
RTVSPost2010PropOp30
 70
     1
102
RTVSPost2010Prop31
280
     0
102
RTVSPost2010PropOp31
 70
     1
102
RTVSPost2010Prop32
280
     0
102
RTVSPost2010PropOp32
 70
     1
102
RTVSPost2010Prop33
280
     0
102
RTVSPost2010PropOp33
 70
     1
102
RTVSPost2010Prop34
280
     0
102
RTVSPost2010PropOp34
 70
     1
102
RTVSPost2010Prop35
280
     0
102
RTVSPost2010PropOp35
 70
     1
102
RTVSPost2010Prop36
280
     0
102
RTVSPost2010PropOp36
 70
     1
102
RTVSPost2010Prop37
 90
       50
102
RTVSPost2010PropOp37
 70
     1
102
RTVSPost2010Prop38
140
0.0
102
RTVSPost2010PropOp38
 70
     1
102
RTVSPost2010Prop39
140
1.0
102
RTVSPost2010PropOp39
 70
     1
102
RTVSPost2010Prop40
 90
        0
102
RTVSPost2010PropOp40
 70
     1
102
RTVSPost2010Prop41ColorIndex
 90
       18
102
RTVSPost2010Prop41ColorRGB
 90
        0
102
RTVSPost2010PropOp41
 70
     1
102
RTVSPost2010Prop42
 90
       50
102
RTVSPost2010PropOp42
 70
     1
102
RTVSPost2010Prop43
 90
        3
102
RTVSPost2010PropOp43
 70
     1
102
RTVSPost2010Prop44ColorIndex
 90
        5
102
RTVSPost2010Prop44ColorRGB
 90
      255
102
RTVSPost2010PropOp44
 70
     1
102
RTVSPost2010Prop45
280
     0
102
RTVSPost2010PropOp45
 70
     1
102
RTVSPost2010Prop46
 90
       50
102
RTVSPost2010PropOp46
 70
     1
102
RTVSPost2010Prop47
 90
       50
102
RTVSPost2010PropOp47
 70
     1
102
RTVSPost2010Prop48
 90
       50
102
RTVSPost2010PropOp48
 70
     1
102
RTVSPost2010Prop49
280
     0
102
RTVSPost2010PropOp49
 70
     1
102
RTVSPost2010Prop50
 90
       50
102
RTVSPost2010PropOp50
 70
     1
102
RTVSPost2010Prop51ColorIndex
 90
      256
102
RTVSPost2010Prop51ColorRGB
 90
-16777216
102
RTVSPost2010PropOp51
 70
     0
102
RTVSPost2010Prop52
140
1.0
102
RTVSPost2010PropOp52
 70
     0
102
RTVSPost2010Prop53
 90
        2
102
RTVSPost2010PropOp53
 70
     1
102
RTVSPost2010Prop54
  1
strokes_ogs.tif
102
RTVSPost2010PropOp54
 70
     1
102
RTVSPost2010Prop55
280
     0
102
RTVSPost2010PropOp55
 70
     1
102
RTVSPost2010Prop56
140
1.0
102
RTVSPost2010PropOp56
 70
     1
102
RTVSPost2010Prop57
140
1.0
102
RTVSPost2010PropOp57
 70
     1
  0
XRECORD
  5
F4
102
{ACAD_REACTORS
330
F3
102
}
330
F3
100
AcDbXrecord
280
     1
102
RTVSPost2010Prop28
280
     0
102
RTVSPost2010PropOp28
 70
     1
102
RTVSPost2010Prop29
280
     1
102
RTVSPost2010PropOp29
 70
     1
102
RTVSPost2010Prop30
280
     1
102
RTVSPost2010PropOp30
 70
     1
102
RTVSPost2010Prop31
280
     0
102
RTVSPost2010PropOp31
 70
     1
102
RTVSPost2010Prop32
280
     0
102
RTVSPost2010PropOp32
 70
     1
102
RTVSPost2010Prop33
280
     0
102
RTVSPost2010PropOp33
 70
     1
102
RTVSPost2010Prop34
280
     0
102
RTVSPost2010PropOp34
 70
     1
102
RTVSPost2010Prop35
280
     0
102
RTVSPost2010PropOp35
 70
     1
102
RTVSPost2010Prop36
280
     0
102
RTVSPost2010PropOp36
 70
     1
102
RTVSPost2010Prop37
 90
       50
102
RTVSPost2010PropOp37
 70
     1
102
RTVSPost2010Prop38
140
0.0
102
RTVSPost2010PropOp38
 70
     1
102
RTVSPost2010Prop39
140
1.0
102
RTVSPost2010PropOp39
 70
     1
102
RTVSPost2010Prop40
 90
        0
102
RTVSPost2010PropOp40
 70
     1
102
RTVSPost2010Prop41ColorIndex
 90
       18
102
RTVSPost2010Prop41ColorRGB
 90
        0
102
RTVSPost2010PropOp41
 70
     1
102
RTVSPost2010Prop42
 90
       50
102
RTVSPost2010PropOp42
 70
     1
102
RTVSPost2010Prop43
 90
        3
102
RTVSPost2010PropOp43
 70
     1
102
RTVSPost2010Prop44ColorIndex
 90
        5
102
RTVSPost2010Prop44ColorRGB
 90
      255
102
RTVSPost2010PropOp44
 70
     1
102
RTVSPost2010Prop45
280
     0
102
RTVSPost2010PropOp45
 70
     1
102
RTVSPost2010Prop46
 90
       50
102
RTVSPost2010PropOp46
 70
     1
102
RTVSPost2010Prop47
 90
       50
102
RTVSPost2010PropOp47
 70
     1
102
RTVSPost2010Prop48
 90
       50
102
RTVSPost2010PropOp48
 70
     1
102
RTVSPost2010Prop49
280
     0
102
RTVSPost2010PropOp49
 70
     1
102
RTVSPost2010Prop50
 90
       50
102
RTVSPost2010PropOp50
 70
     1
102
RTVSPost2010Prop51ColorIndex
 90
      256
102
RTVSPost2010Prop51ColorRGB
 90
-16777216
102
RTVSPost2010PropOp51
 70
     0
102
RTVSPost2010Prop52
140
1.0
102
RTVSPost2010PropOp52
 70
     0
102
RTVSPost2010Prop53
 90
        2
102
RTVSPost2010PropOp53
 70
     1
102
RTVSPost2010Prop54
  1
strokes_ogs.tif
102
RTVSPost2010PropOp54
 70
     1
102
RTVSPost2010Prop55
280
     0
102
RTVSPost2010PropOp55
 70
     1
102
RTVSPost2010Prop56
140
1.0
102
RTVSPost2010PropOp56
 70
     1
102
RTVSPost2010Prop57
140
1.0
102
RTVSPost2010PropOp57
 70
     1
  0
XRECORD
  5
FC
102
{ACAD_REACTORS
330
FB
102
}
330
FB
100
AcDbXrecord
280
     1
102
RTVSPost2010Prop28
280
     0
102
RTVSPost2010PropOp28
 70
     1
102
RTVSPost2010Prop29
280
     1
102
RTVSPost2010PropOp29
 70
     1
102
RTVSPost2010Prop30
280
     1
102
RTVSPost2010PropOp30
 70
     1
102
RTVSPost2010Prop31
280
     0
102
RTVSPost2010PropOp31
 70
     1
102
RTVSPost2010Prop32
280
     0
102
RTVSPost2010PropOp32
 70
     1
102
RTVSPost2010Prop33
280
     0
102
RTVSPost2010PropOp33
 70
     1
102
RTVSPost2010Prop34
280
     0
102
RTVSPost2010PropOp34
 70
     1
102
RTVSPost2010Prop35
280
     0
102
RTVSPost2010PropOp35
 70
     1
102
RTVSPost2010Prop36
280
     0
102
RTVSPost2010PropOp36
 70
     1
102
RTVSPost2010Prop37
 90
       50
102
RTVSPost2010PropOp37
 70
     1
102
RTVSPost2010Prop38
140
0.0
102
RTVSPost2010PropOp38
 70
     1
102
RTVSPost2010Prop39
140
1.0
102
RTVSPost2010PropOp39
 70
     1
102
RTVSPost2010Prop40
 90
        0
102
RTVSPost2010PropOp40
 70
     1
102
RTVSPost2010Prop41ColorIndex
 90
       18
102
RTVSPost2010Prop41ColorRGB
 90
        0
102
RTVSPost2010PropOp41
 70
     1
102
RTVSPost2010Prop42
 90
       50
102
RTVSPost2010PropOp42
 70
     1
102
RTVSPost2010Prop43
 90
        3
102
RTVSPost2010PropOp43
 70
     1
102
RTVSPost2010Prop44ColorIndex
 90
        5
102
RTVSPost2010Prop44ColorRGB
 90
      255
102
RTVSPost2010PropOp44
 70
     1
102
RTVSPost2010Prop45
280
     0
102
RTVSPost2010PropOp45
 70
     1
102
RTVSPost2010Prop46
 90
       50
102
RTVSPost2010PropOp46
 70
     1
102
RTVSPost2010Prop47
 90
       50
102
RTVSPost2010PropOp47
 70
     1
102
RTVSPost2010Prop48
 90
       50
102
RTVSPost2010PropOp48
 70
     1
102
RTVSPost2010Prop49
280
     0
102
RTVSPost2010PropOp49
 70
     1
102
RTVSPost2010Prop50
 90
       50
102
RTVSPost2010PropOp50
 70
     1
102
RTVSPost2010Prop51ColorIndex
 90
      256
102
RTVSPost2010Prop51ColorRGB
 90
-16777216
102
RTVSPost2010PropOp51
 70
     0
102
RTVSPost2010Prop52
140
1.0
102
RTVSPost2010PropOp52
 70
     0
102
RTVSPost2010Prop53
 90
        2
102
RTVSPost2010PropOp53
 70
     1
102
RTVSPost2010Prop54
  1
strokes_ogs.tif
102
RTVSPost2010PropOp54
 70
     1
102
RTVSPost2010Prop55
280
     0
102
RTVSPost2010PropOp55
 70
     1
102
RTVSPost2010Prop56
140
1.0
102
RTVSPost2010PropOp56
 70
     1
102
RTVSPost2010Prop57
140
1.0
102
RTVSPost2010PropOp57
 70
     1
  0
XRECORD
  5
118
102
{ACAD_REACTORS
330
117
102
}
330
117
100
AcDbXrecord
280
     1
102
RTVSPost2010Prop28
280
     0
102
RTVSPost2010PropOp28
 70
     0
102
RTVSPost2010Prop29
280
     1
102
RTVSPost2010PropOp29
 70
     0
102
RTVSPost2010Prop30
280
     1
102
RTVSPost2010PropOp30
 70
     0
102
RTVSPost2010Prop31
280
     0
102
RTVSPost2010PropOp31
 70
     0
102
RTVSPost2010Prop32
280
     0
102
RTVSPost2010PropOp32
 70
     0
102
RTVSPost2010Prop33
280
     0
102
RTVSPost2010PropOp33
 70
     0
102
RTVSPost2010Prop34
280
     0
102
RTVSPost2010PropOp34
 70
     0
102
RTVSPost2010Prop35
280
     0
102
RTVSPost2010PropOp35
 70
     0
102
RTVSPost2010Prop36
280
     0
102
RTVSPost2010PropOp36
 70
     0
102
RTVSPost2010Prop37
 90
       50
102
RTVSPost2010PropOp37
 70
     0
102
RTVSPost2010Prop38
140
0.0
102
RTVSPost2010PropOp38
 70
     0
102
RTVSPost2010Prop39
140
1.0
102
RTVSPost2010PropOp39
 70
     0
102
RTVSPost2010Prop40
 90
        0
102
RTVSPost2010PropOp40
 70
     0
102
RTVSPost2010Prop41ColorIndex
 90
       18
102
RTVSPost2010Prop41ColorRGB
 90
        0
102
RTVSPost2010PropOp41
 70
     0
102
RTVSPost2010Prop42
 90
       50
102
RTVSPost2010PropOp42
 70
     0
102
RTVSPost2010Prop43
 90
        3
102
RTVSPost2010PropOp43
 70
     0
102
RTVSPost2010Prop44ColorIndex
 90
        5
102
RTVSPost2010Prop44ColorRGB
 90
      255
102
RTVSPost2010PropOp44
 70
     0
102
RTVSPost2010Prop45
280
     0
102
RTVSPost2010PropOp45
 70
     0
102
RTVSPost2010Prop46
 90
       50
102
RTVSPost2010PropOp46
 70
     0
102
RTVSPost2010Prop47
 90
       50
102
RTVSPost2010PropOp47
 70
     0
102
RTVSPost2010Prop48
 90
       50
102
RTVSPost2010PropOp48
 70
     0
102
RTVSPost2010Prop49
280
     0
102
RTVSPost2010PropOp49
 70
     0
102
RTVSPost2010Prop50
 90
       50
102
RTVSPost2010PropOp50
 70
     0
102
RTVSPost2010Prop51ColorIndex
 90
      256
102
RTVSPost2010Prop51ColorRGB
 90
-16777216
102
RTVSPost2010PropOp51
 70
     0
102
RTVSPost2010Prop52
140
1.0
102
RTVSPost2010PropOp52
 70
     0
102
RTVSPost2010Prop53
 90
        2
102
RTVSPost2010PropOp53
 70
     0
102
RTVSPost2010Prop54
  1
strokes_ogs.tif
102
RTVSPost2010PropOp54
 70
     0
102
RTVSPost2010Prop55
280
     0
102
RTVSPost2010PropOp55
 70
     0
102
RTVSPost2010Prop56
140
1.0
102
RTVSPost2010PropOp56
 70
     0
102
RTVSPost2010Prop57
140
1.0
102
RTVSPost2010PropOp57
 70
     0
  0
XRECORD
  5
108
102
{ACAD_REACTORS
330
107
102
}
330
107
100
AcDbXrecord
280
     1
102
RTVSPost2010Prop28
280
     0
102
RTVSPost2010PropOp28
 70
     1
102
RTVSPost2010Prop29
280
     1
102
RTVSPost2010PropOp29
 70
     1
102
RTVSPost2010Prop30
280
     1
102
RTVSPost2010PropOp30
 70
     1
102
RTVSPost2010Prop31
280
     0
102
RTVSPost2010PropOp31
 70
     1
102
RTVSPost2010Prop32
280
     0
102
RTVSPost2010PropOp32
 70
     1
102
RTVSPost2010Prop33
280
     0
102
RTVSPost2010PropOp33
 70
     1
102
RTVSPost2010Prop34
280
     0
102
RTVSPost2010PropOp34
 70
     1
102
RTVSPost2010Prop35
280
     0
102
RTVSPost2010PropOp35
 70
     1
102
RTVSPost2010Prop36
280
     0
102
RTVSPost2010PropOp36
 70
     1
102
RTVSPost2010Prop37
 90
       50
102
RTVSPost2010PropOp37
 70
     1
102
RTVSPost2010Prop38
140
0.0
102
RTVSPost2010PropOp38
 70
     1
102
RTVSPost2010Prop39
140
1.0
102
RTVSPost2010PropOp39
 70
     1
102
RTVSPost2010Prop40
 90
        0
102
RTVSPost2010PropOp40
 70
     1
102
RTVSPost2010Prop41ColorIndex
 90
       18
102
RTVSPost2010Prop41ColorRGB
 90
        0
102
RTVSPost2010PropOp41
 70
     1
102
RTVSPost2010Prop42
 90
       50
102
RTVSPost2010PropOp42
 70
     1
102
RTVSPost2010Prop43
 90
        3
102
RTVSPost2010PropOp43
 70
     1
102
RTVSPost2010Prop44ColorIndex
 90
        5
102
RTVSPost2010Prop44ColorRGB
 90
      255
102
RTVSPost2010PropOp44
 70
     1
102
RTVSPost2010Prop45
280
     0
102
RTVSPost2010PropOp45
 70
     1
102
RTVSPost2010Prop46
 90
       50
102
RTVSPost2010PropOp46
 70
     1
102
RTVSPost2010Prop47
 90
       50
102
RTVSPost2010PropOp47
 70
     1
102
RTVSPost2010Prop48
 90
       50
102
RTVSPost2010PropOp48
 70
     1
102
RTVSPost2010Prop49
280
     0
102
RTVSPost2010PropOp49
 70
     1
102
RTVSPost2010Prop50
 90
       50
102
RTVSPost2010PropOp50
 70
     1
102
RTVSPost2010Prop51ColorIndex
 90
      256
102
RTVSPost2010Prop51ColorRGB
 90
-16777216
102
RTVSPost2010PropOp51
 70
     0
102
RTVSPost2010Prop52
140
1.0
102
RTVSPost2010PropOp52
 70
     0
102
RTVSPost2010Prop53
 90
        2
102
RTVSPost2010PropOp53
 70
     1
102
RTVSPost2010Prop54
  1
strokes_ogs.tif
102
RTVSPost2010PropOp54
 70
     1
102
RTVSPost2010Prop55
280
     0
102
RTVSPost2010PropOp55
 70
     1
102
RTVSPost2010Prop56
140
1.0
102
RTVSPost2010PropOp56
 70
     1
102
RTVSPost2010Prop57
140
1.0
102
RTVSPost2010PropOp57
 70
     1
  0
XRECORD
  5
11A
102
{ACAD_REACTORS
330
119
102
}
330
119
100
AcDbXrecord
280
     1
102
RTVSPost2010Prop28
280
     0
102
RTVSPost2010PropOp28
 70
     0
102
RTVSPost2010Prop29
280
     1
102
RTVSPost2010PropOp29
 70
     0
102
RTVSPost2010Prop30
280
     1
102
RTVSPost2010PropOp30
 70
     0
102
RTVSPost2010Prop31
280
     0
102
RTVSPost2010PropOp31
 70
     0
102
RTVSPost2010Prop32
280
     0
102
RTVSPost2010PropOp32
 70
     0
102
RTVSPost2010Prop33
280
     0
102
RTVSPost2010PropOp33
 70
     0
102
RTVSPost2010Prop34
280
     0
102
RTVSPost2010PropOp34
 70
     0
102
RTVSPost2010Prop35
280
     0
102
RTVSPost2010PropOp35
 70
     0
102
RTVSPost2010Prop36
280
     0
102
RTVSPost2010PropOp36
 70
     0
102
RTVSPost2010Prop37
 90
       50
102
RTVSPost2010PropOp37
 70
     0
102
RTVSPost2010Prop38
140
0.0
102
RTVSPost2010PropOp38
 70
     0
102
RTVSPost2010Prop39
140
1.0
102
RTVSPost2010PropOp39
 70
     0
102
RTVSPost2010Prop40
 90
        0
102
RTVSPost2010PropOp40
 70
     0
102
RTVSPost2010Prop41ColorIndex
 90
       18
102
RTVSPost2010Prop41ColorRGB
 90
        0
102
RTVSPost2010PropOp41
 70
     0
102
RTVSPost2010Prop42
 90
       50
102
RTVSPost2010PropOp42
 70
     0
102
RTVSPost2010Prop43
 90
        3
102
RTVSPost2010PropOp43
 70
     0
102
RTVSPost2010Prop44ColorIndex
 90
        5
102
RTVSPost2010Prop44ColorRGB
 90
      255
102
RTVSPost2010PropOp44
 70
     0
102
RTVSPost2010Prop45
280
     0
102
RTVSPost2010PropOp45
 70
     0
102
RTVSPost2010Prop46
 90
       50
102
RTVSPost2010PropOp46
 70
     0
102
RTVSPost2010Prop47
 90
       50
102
RTVSPost2010PropOp47
 70
     0
102
RTVSPost2010Prop48
 90
       50
102
RTVSPost2010PropOp48
 70
     0
102
RTVSPost2010Prop49
280
     0
102
RTVSPost2010PropOp49
 70
     0
102
RTVSPost2010Prop50
 90
       50
102
RTVSPost2010PropOp50
 70
     0
102
RTVSPost2010Prop51ColorIndex
 90
      256
102
RTVSPost2010Prop51ColorRGB
 90
-16777216
102
RTVSPost2010PropOp51
 70
     0
102
RTVSPost2010Prop52
140
1.0
102
RTVSPost2010PropOp52
 70
     0
102
RTVSPost2010Prop53
 90
        2
102
RTVSPost2010PropOp53
 70
     0
102
RTVSPost2010Prop54
  1
strokes_ogs.tif
102
RTVSPost2010PropOp54
 70
     0
102
RTVSPost2010Prop55
280
     0
102
RTVSPost2010PropOp55
 70
     0
102
RTVSPost2010Prop56
140
1.0
102
RTVSPost2010PropOp56
 70
     0
102
RTVSPost2010Prop57
140
1.0
102
RTVSPost2010PropOp57
 70
     0
  0
XRECORD
  5
100
102
{ACAD_REACTORS
330
FF
102
}
330
FF
100
AcDbXrecord
280
     1
102
RTVSPost2010Prop28
280
     0
102
RTVSPost2010PropOp28
 70
     1
102
RTVSPost2010Prop29
280
     1
102
RTVSPost2010PropOp29
 70
     1
102
RTVSPost2010Prop30
280
     1
102
RTVSPost2010PropOp30
 70
     1
102
RTVSPost2010Prop31
280
     0
102
RTVSPost2010PropOp31
 70
     1
102
RTVSPost2010Prop32
280
     0
102
RTVSPost2010PropOp32
 70
     1
102
RTVSPost2010Prop33
280
     0
102
RTVSPost2010PropOp33
 70
     1
102
RTVSPost2010Prop34
280
     0
102
RTVSPost2010PropOp34
 70
     1
102
RTVSPost2010Prop35
280
     0
102
RTVSPost2010PropOp35
 70
     1
102
RTVSPost2010Prop36
280
     0
102
RTVSPost2010PropOp36
 70
     1
102
RTVSPost2010Prop37
 90
       50
102
RTVSPost2010PropOp37
 70
     1
102
RTVSPost2010Prop38
140
0.0
102
RTVSPost2010PropOp38
 70
     1
102
RTVSPost2010Prop39
140
1.0
102
RTVSPost2010PropOp39
 70
     1
102
RTVSPost2010Prop40
 90
        0
102
RTVSPost2010PropOp40
 70
     1
102
RTVSPost2010Prop41ColorIndex
 90
       18
102
RTVSPost2010Prop41ColorRGB
 90
        0
102
RTVSPost2010PropOp41
 70
     1
102
RTVSPost2010Prop42
 90
       50
102
RTVSPost2010PropOp42
 70
     1
102
RTVSPost2010Prop43
 90
        3
102
RTVSPost2010PropOp43
 70
     1
102
RTVSPost2010Prop44ColorIndex
 90
        5
102
RTVSPost2010Prop44ColorRGB
 90
      255
102
RTVSPost2010PropOp44
 70
     1
102
RTVSPost2010Prop45
280
     0
102
RTVSPost2010PropOp45
 70
     1
102
RTVSPost2010Prop46
 90
       50
102
RTVSPost2010PropOp46
 70
     1
102
RTVSPost2010Prop47
 90
       50
102
RTVSPost2010PropOp47
 70
     1
102
RTVSPost2010Prop48
 90
       50
102
RTVSPost2010PropOp48
 70
     1
102
RTVSPost2010Prop49
280
     0
102
RTVSPost2010PropOp49
 70
     1
102
RTVSPost2010Prop50
 90
       50
102
RTVSPost2010PropOp50
 70
     1
102
RTVSPost2010Prop51ColorIndex
 90
      256
102
RTVSPost2010Prop51ColorRGB
 90
-16777216
102
RTVSPost2010PropOp51
 70
     0
102
RTVSPost2010Prop52
140
1.0
102
RTVSPost2010PropOp52
 70
     0
102
RTVSPost2010Prop53
 90
        2
102
RTVSPost2010PropOp53
 70
     1
102
RTVSPost2010Prop54
  1
strokes_ogs.tif
102
RTVSPost2010PropOp54
 70
     1
102
RTVSPost2010Prop55
280
     0
102
RTVSPost2010PropOp55
 70
     1
102
RTVSPost2010Prop56
140
1.0
102
RTVSPost2010PropOp56
 70
     1
102
RTVSPost2010Prop57
140
1.0
102
RTVSPost2010PropOp57
 70
     1
  0
XRECORD
  5
116
102
{ACAD_REACTORS
330
115
102
}
330
115
100
AcDbXrecord
280
     1
102
RTVSPost2010Prop28
280
     0
102
RTVSPost2010PropOp28
 70
     1
102
RTVSPost2010Prop29
280
     1
102
RTVSPost2010PropOp29
 70
     1
102
RTVSPost2010Prop30
280
     1
102
RTVSPost2010PropOp30
 70
     1
102
RTVSPost2010Prop31
280
     0
102
RTVSPost2010PropOp31
 70
     1
102
RTVSPost2010Prop32
280
     0
102
RTVSPost2010PropOp32
 70
     1
102
RTVSPost2010Prop33
280
     0
102
RTVSPost2010PropOp33
 70
     1
102
RTVSPost2010Prop34
280
     0
102
RTVSPost2010PropOp34
 70
     1
102
RTVSPost2010Prop35
280
     0
102
RTVSPost2010PropOp35
 70
     1
102
RTVSPost2010Prop36
280
     0
102
RTVSPost2010PropOp36
 70
     1
102
RTVSPost2010Prop37
 90
       50
102
RTVSPost2010PropOp37
 70
     1
102
RTVSPost2010Prop38
140
0.0
102
RTVSPost2010PropOp38
 70
     1
102
RTVSPost2010Prop39
140
1.0
102
RTVSPost2010PropOp39
 70
     1
102
RTVSPost2010Prop40
 90
        0
102
RTVSPost2010PropOp40
 70
     1
102
RTVSPost2010Prop41ColorIndex
 90
       18
102
RTVSPost2010Prop41ColorRGB
 90
        0
102
RTVSPost2010PropOp41
 70
     1
102
RTVSPost2010Prop42
 90
       50
102
RTVSPost2010PropOp42
 70
     1
102
RTVSPost2010Prop43
 90
        3
102
RTVSPost2010PropOp43
 70
     1
102
RTVSPost2010Prop44ColorIndex
 90
        5
102
RTVSPost2010Prop44ColorRGB
 90
      255
102
RTVSPost2010PropOp44
 70
     1
102
RTVSPost2010Prop45
280
     0
102
RTVSPost2010PropOp45
 70
     1
102
RTVSPost2010Prop46
 90
       50
102
RTVSPost2010PropOp46
 70
     1
102
RTVSPost2010Prop47
 90
       50
102
RTVSPost2010PropOp47
 70
     1
102
RTVSPost2010Prop48
 90
       50
102
RTVSPost2010PropOp48
 70
     1
102
RTVSPost2010Prop49
280
     0
102
RTVSPost2010PropOp49
 70
     1
102
RTVSPost2010Prop50
 90
       50
102
RTVSPost2010PropOp50
 70
     1
102
RTVSPost2010Prop51ColorIndex
 90
      256
102
RTVSPost2010Prop51ColorRGB
 90
-16777216
102
RTVSPost2010PropOp51
 70
     0
102
RTVSPost2010Prop52
140
1.0
102
RTVSPost2010PropOp52
 70
     0
102
RTVSPost2010Prop53
 90
        2
102
RTVSPost2010PropOp53
 70
     1
102
RTVSPost2010Prop54
  1
strokes_ogs.tif
102
RTVSPost2010PropOp54
 70
     1
102
RTVSPost2010Prop55
280
     0
102
RTVSPost2010PropOp55
 70
     1
102
RTVSPost2010Prop56
140
1.0
102
RTVSPost2010PropOp56
 70
     1
102
RTVSPost2010Prop57
140
1.0
102
RTVSPost2010PropOp57
 70
     1
  0
XRECORD
  5
114
102
{ACAD_REACTORS
330
113
102
}
330
113
100
AcDbXrecord
280
     1
102
RTVSPost2010Prop28
280
     0
102
RTVSPost2010PropOp28
 70
     1
102
RTVSPost2010Prop29
280
     1
102
RTVSPost2010PropOp29
 70
     1
102
RTVSPost2010Prop30
280
     1
102
RTVSPost2010PropOp30
 70
     1
102
RTVSPost2010Prop31
280
     0
102
RTVSPost2010PropOp31
 70
     1
102
RTVSPost2010Prop32
280
     0
102
RTVSPost2010PropOp32
 70
     1
102
RTVSPost2010Prop33
280
     0
102
RTVSPost2010PropOp33
 70
     1
102
RTVSPost2010Prop34
280
     0
102
RTVSPost2010PropOp34
 70
     1
102
RTVSPost2010Prop35
280
     0
102
RTVSPost2010PropOp35
 70
     1
102
RTVSPost2010Prop36
280
     0
102
RTVSPost2010PropOp36
 70
     1
102
RTVSPost2010Prop37
 90
       50
102
RTVSPost2010PropOp37
 70
     1
102
RTVSPost2010Prop38
140
0.0
102
RTVSPost2010PropOp38
 70
     1
102
RTVSPost2010Prop39
140
1.0
102
RTVSPost2010PropOp39
 70
     1
102
RTVSPost2010Prop40
 90
        0
102
RTVSPost2010PropOp40
 70
     1
102
RTVSPost2010Prop41ColorIndex
 90
       18
102
RTVSPost2010Prop41ColorRGB
 90
        0
102
RTVSPost2010PropOp41
 70
     1
102
RTVSPost2010Prop42
 90
       50
102
RTVSPost2010PropOp42
 70
     1
102
RTVSPost2010Prop43
 90
        3
102
RTVSPost2010PropOp43
 70
     1
102
RTVSPost2010Prop44ColorIndex
 90
        5
102
RTVSPost2010Prop44ColorRGB
 90
      255
102
RTVSPost2010PropOp44
 70
     1
102
RTVSPost2010Prop45
280
     0
102
RTVSPost2010PropOp45
 70
     1
102
RTVSPost2010Prop46
 90
       50
102
RTVSPost2010PropOp46
 70
     1
102
RTVSPost2010Prop47
 90
       50
102
RTVSPost2010PropOp47
 70
     1
102
RTVSPost2010Prop48
 90
       50
102
RTVSPost2010PropOp48
 70
     1
102
RTVSPost2010Prop49
280
     0
102
RTVSPost2010PropOp49
 70
     1
102
RTVSPost2010Prop50
 90
       50
102
RTVSPost2010PropOp50
 70
     1
102
RTVSPost2010Prop51ColorIndex
 90
      256
102
RTVSPost2010Prop51ColorRGB
 90
-16777216
102
RTVSPost2010PropOp51
 70
     0
102
RTVSPost2010Prop52
140
1.0
102
RTVSPost2010PropOp52
 70
     0
102
RTVSPost2010Prop53
 90
        2
102
RTVSPost2010PropOp53
 70
     1
102
RTVSPost2010Prop54
  1
strokes_ogs.tif
102
RTVSPost2010PropOp54
 70
     1
102
RTVSPost2010Prop55
280
     0
102
RTVSPost2010PropOp55
 70
     1
102
RTVSPost2010Prop56
140
1.0
102
RTVSPost2010PropOp56
 70
     1
102
RTVSPost2010Prop57
140
1.0
102
RTVSPost2010PropOp57
 70
     1
  0
XRECORD
  5
10E
102
{ACAD_REACTORS
330
10D
102
}
330
10D
100
AcDbXrecord
280
     1
102
RTVSPost2010Prop28
280
     0
102
RTVSPost2010PropOp28
 70
     1
102
RTVSPost2010Prop29
280
     1
102
RTVSPost2010PropOp29
 70
     1
102
RTVSPost2010Prop30
280
     1
102
RTVSPost2010PropOp30
 70
     1
102
RTVSPost2010Prop31
280
     0
102
RTVSPost2010PropOp31
 70
     1
102
RTVSPost2010Prop32
280
     0
102
RTVSPost2010PropOp32
 70
     1
102
RTVSPost2010Prop33
280
     0
102
RTVSPost2010PropOp33
 70
     1
102
RTVSPost2010Prop34
280
     0
102
RTVSPost2010PropOp34
 70
     1
102
RTVSPost2010Prop35
280
     0
102
RTVSPost2010PropOp35
 70
     1
102
RTVSPost2010Prop36
280
     0
102
RTVSPost2010PropOp36
 70
     1
102
RTVSPost2010Prop37
 90
       50
102
RTVSPost2010PropOp37
 70
     1
102
RTVSPost2010Prop38
140
0.0
102
RTVSPost2010PropOp38
 70
     1
102
RTVSPost2010Prop39
140
1.0
102
RTVSPost2010PropOp39
 70
     1
102
RTVSPost2010Prop40
 90
        0
102
RTVSPost2010PropOp40
 70
     1
102
RTVSPost2010Prop41ColorIndex
 90
       18
102
RTVSPost2010Prop41ColorRGB
 90
        0
102
RTVSPost2010PropOp41
 70
     1
102
RTVSPost2010Prop42
 90
       50
102
RTVSPost2010PropOp42
 70
     1
102
RTVSPost2010Prop43
 90
        3
102
RTVSPost2010PropOp43
 70
     1
102
RTVSPost2010Prop44ColorIndex
 90
        5
102
RTVSPost2010Prop44ColorRGB
 90
      255
102
RTVSPost2010PropOp44
 70
     1
102
RTVSPost2010Prop45
280
     0
102
RTVSPost2010PropOp45
 70
     1
102
RTVSPost2010Prop46
 90
       50
102
RTVSPost2010PropOp46
 70
     1
102
RTVSPost2010Prop47
 90
       50
102
RTVSPost2010PropOp47
 70
     1
102
RTVSPost2010Prop48
 90
       50
102
RTVSPost2010PropOp48
 70
     1
102
RTVSPost2010Prop49
280
     0
102
RTVSPost2010PropOp49
 70
     1
102
RTVSPost2010Prop50
 90
       50
102
RTVSPost2010PropOp50
 70
     1
102
RTVSPost2010Prop51ColorIndex
 90
      256
102
RTVSPost2010Prop51ColorRGB
 90
-16777216
102
RTVSPost2010PropOp51
 70
     0
102
RTVSPost2010Prop52
140
1.0
102
RTVSPost2010PropOp52
 70
     0
102
RTVSPost2010Prop53
 90
        2
102
RTVSPost2010PropOp53
 70
     1
102
RTVSPost2010Prop54
  1
strokes_ogs.tif
102
RTVSPost2010PropOp54
 70
     1
102
RTVSPost2010Prop55
280
     0
102
RTVSPost2010PropOp55
 70
     1
102
RTVSPost2010Prop56
140
1.0
102
RTVSPost2010PropOp56
 70
     1
102
RTVSPost2010Prop57
140
1.0
102
RTVSPost2010PropOp57
 70
     1
  0
XRECORD
  5
110
102
{ACAD_REACTORS
330
10F
102
}
330
10F
100
AcDbXrecord
280
     1
102
RTVSPost2010Prop28
280
     0
102
RTVSPost2010PropOp28
 70
     1
102
RTVSPost2010Prop29
280
     1
102
RTVSPost2010PropOp29
 70
     1
102
RTVSPost2010Prop30
280
     1
102
RTVSPost2010PropOp30
 70
     1
102
RTVSPost2010Prop31
280
     0
102
RTVSPost2010PropOp31
 70
     1
102
RTVSPost2010Prop32
280
     0
102
RTVSPost2010PropOp32
 70
     1
102
RTVSPost2010Prop33
280
     0
102
RTVSPost2010PropOp33
 70
     1
102
RTVSPost2010Prop34
280
     0
102
RTVSPost2010PropOp34
 70
     1
102
RTVSPost2010Prop35
280
     0
102
RTVSPost2010PropOp35
 70
     1
102
RTVSPost2010Prop36
280
     0
102
RTVSPost2010PropOp36
 70
     1
102
RTVSPost2010Prop37
 90
       50
102
RTVSPost2010PropOp37
 70
     1
102
RTVSPost2010Prop38
140
0.0
102
RTVSPost2010PropOp38
 70
     1
102
RTVSPost2010Prop39
140
1.0
102
RTVSPost2010PropOp39
 70
     1
102
RTVSPost2010Prop40
 90
        0
102
RTVSPost2010PropOp40
 70
     1
102
RTVSPost2010Prop41ColorIndex
 90
       18
102
RTVSPost2010Prop41ColorRGB
 90
        0
102
RTVSPost2010PropOp41
 70
     1
102
RTVSPost2010Prop42
 90
       50
102
RTVSPost2010PropOp42
 70
     1
102
RTVSPost2010Prop43
 90
        3
102
RTVSPost2010PropOp43
 70
     1
102
RTVSPost2010Prop44ColorIndex
 90
        5
102
RTVSPost2010Prop44ColorRGB
 90
      255
102
RTVSPost2010PropOp44
 70
     1
102
RTVSPost2010Prop45
280
     0
102
RTVSPost2010PropOp45
 70
     1
102
RTVSPost2010Prop46
 90
       50
102
RTVSPost2010PropOp46
 70
     1
102
RTVSPost2010Prop47
 90
       50
102
RTVSPost2010PropOp47
 70
     1
102
RTVSPost2010Prop48
 90
       50
102
RTVSPost2010PropOp48
 70
     1
102
RTVSPost2010Prop49
280
     0
102
RTVSPost2010PropOp49
 70
     1
102
RTVSPost2010Prop50
 90
       50
102
RTVSPost2010PropOp50
 70
     1
102
RTVSPost2010Prop51ColorIndex
 90
      256
102
RTVSPost2010Prop51ColorRGB
 90
-16777216
102
RTVSPost2010PropOp51
 70
     0
102
RTVSPost2010Prop52
140
1.0
102
RTVSPost2010PropOp52
 70
     0
102
RTVSPost2010Prop53
 90
        2
102
RTVSPost2010PropOp53
 70
     1
102
RTVSPost2010Prop54
  1
strokes_ogs.tif
102
RTVSPost2010PropOp54
 70
     1
102
RTVSPost2010Prop55
280
     0
102
RTVSPost2010PropOp55
 70
     1
102
RTVSPost2010Prop56
140
1.0
102
RTVSPost2010PropOp56
 70
     1
102
RTVSPost2010Prop57
140
1.0
102
RTVSPost2010PropOp57
 70
     1
  0
XRECORD
  5
106
102
{ACAD_REACTORS
330
105
102
}
330
105
100
AcDbXrecord
280
     1
102
RTVSPost2010Prop28
280
     0
102
RTVSPost2010PropOp28
 70
     1
102
RTVSPost2010Prop29
280
     1
102
RTVSPost2010PropOp29
 70
     1
102
RTVSPost2010Prop30
280
     1
102
RTVSPost2010PropOp30
 70
     1
102
RTVSPost2010Prop31
280
     0
102
RTVSPost2010PropOp31
 70
     1
102
RTVSPost2010Prop32
280
     0
102
RTVSPost2010PropOp32
 70
     1
102
RTVSPost2010Prop33
280
     0
102
RTVSPost2010PropOp33
 70
     1
102
RTVSPost2010Prop34
280
     0
102
RTVSPost2010PropOp34
 70
     1
102
RTVSPost2010Prop35
280
     0
102
RTVSPost2010PropOp35
 70
     1
102
RTVSPost2010Prop36
280
     0
102
RTVSPost2010PropOp36
 70
     1
102
RTVSPost2010Prop37
 90
       50
102
RTVSPost2010PropOp37
 70
     1
102
RTVSPost2010Prop38
140
0.0
102
RTVSPost2010PropOp38
 70
     1
102
RTVSPost2010Prop39
140
1.0
102
RTVSPost2010PropOp39
 70
     1
102
RTVSPost2010Prop40
 90
        0
102
RTVSPost2010PropOp40
 70
     1
102
RTVSPost2010Prop41ColorIndex
 90
       18
102
RTVSPost2010Prop41ColorRGB
 90
        0
102
RTVSPost2010PropOp41
 70
     1
102
RTVSPost2010Prop42
 90
       50
102
RTVSPost2010PropOp42
 70
     1
102
RTVSPost2010Prop43
 90
        3
102
RTVSPost2010PropOp43
 70
     1
102
RTVSPost2010Prop44ColorIndex
 90
        5
102
RTVSPost2010Prop44ColorRGB
 90
      255
102
RTVSPost2010PropOp44
 70
     1
102
RTVSPost2010Prop45
280
     0
102
RTVSPost2010PropOp45
 70
     1
102
RTVSPost2010Prop46
 90
       50
102
RTVSPost2010PropOp46
 70
     1
102
RTVSPost2010Prop47
 90
       50
102
RTVSPost2010PropOp47
 70
     1
102
RTVSPost2010Prop48
 90
       50
102
RTVSPost2010PropOp48
 70
     1
102
RTVSPost2010Prop49
280
     0
102
RTVSPost2010PropOp49
 70
     1
102
RTVSPost2010Prop50
 90
       50
102
RTVSPost2010PropOp50
 70
     1
102
RTVSPost2010Prop51ColorIndex
 90
      256
102
RTVSPost2010Prop51ColorRGB
 90
-16777216
102
RTVSPost2010PropOp51
 70
     0
102
RTVSPost2010Prop52
140
1.0
102
RTVSPost2010PropOp52
 70
     0
102
RTVSPost2010Prop53
 90
        2
102
RTVSPost2010PropOp53
 70
     1
102
RTVSPost2010Prop54
  1
strokes_ogs.tif
102
RTVSPost2010PropOp54
 70
     1
102
RTVSPost2010Prop55
280
     0
102
RTVSPost2010PropOp55
 70
     1
102
RTVSPost2010Prop56
140
1.0
102
RTVSPost2010PropOp56
 70
     1
102
RTVSPost2010Prop57
140
1.0
102
RTVSPost2010PropOp57
 70
     1
  0
XRECORD
  5
FA
102
{ACAD_REACTORS
330
F9
102
}
330
F9
100
AcDbXrecord
280
     1
102
RTVSPost2010Prop28
280
     0
102
RTVSPost2010PropOp28
 70
     1
102
RTVSPost2010Prop29
280
     1
102
RTVSPost2010PropOp29
 70
     1
102
RTVSPost2010Prop30
280
     1
102
RTVSPost2010PropOp30
 70
     1
102
RTVSPost2010Prop31
280
     0
102
RTVSPost2010PropOp31
 70
     1
102
RTVSPost2010Prop32
280
     0
102
RTVSPost2010PropOp32
 70
     1
102
RTVSPost2010Prop33
280
     0
102
RTVSPost2010PropOp33
 70
     1
102
RTVSPost2010Prop34
280
     0
102
RTVSPost2010PropOp34
 70
     1
102
RTVSPost2010Prop35
280
     0
102
RTVSPost2010PropOp35
 70
     1
102
RTVSPost2010Prop36
280
     0
102
RTVSPost2010PropOp36
 70
     1
102
RTVSPost2010Prop37
 90
       50
102
RTVSPost2010PropOp37
 70
     1
102
RTVSPost2010Prop38
140
0.0
102
RTVSPost2010PropOp38
 70
     1
102
RTVSPost2010Prop39
140
1.0
102
RTVSPost2010PropOp39
 70
     1
102
RTVSPost2010Prop40
 90
        0
102
RTVSPost2010PropOp40
 70
     1
102
RTVSPost2010Prop41ColorIndex
 90
       18
102
RTVSPost2010Prop41ColorRGB
 90
        0
102
RTVSPost2010PropOp41
 70
     1
102
RTVSPost2010Prop42
 90
       50
102
RTVSPost2010PropOp42
 70
     1
102
RTVSPost2010Prop43
 90
        3
102
RTVSPost2010PropOp43
 70
     1
102
RTVSPost2010Prop44ColorIndex
 90
        5
102
RTVSPost2010Prop44ColorRGB
 90
      255
102
RTVSPost2010PropOp44
 70
     1
102
RTVSPost2010Prop45
280
     0
102
RTVSPost2010PropOp45
 70
     1
102
RTVSPost2010Prop46
 90
       50
102
RTVSPost2010PropOp46
 70
     1
102
RTVSPost2010Prop47
 90
       50
102
RTVSPost2010PropOp47
 70
     1
102
RTVSPost2010Prop48
 90
       50
102
RTVSPost2010PropOp48
 70
     1
102
RTVSPost2010Prop49
280
     0
102
RTVSPost2010PropOp49
 70
     1
102
RTVSPost2010Prop50
 90
       50
102
RTVSPost2010PropOp50
 70
     1
102
RTVSPost2010Prop51ColorIndex
 90
      256
102
RTVSPost2010Prop51ColorRGB
 90
-16777216
102
RTVSPost2010PropOp51
 70
     0
102
RTVSPost2010Prop52
140
1.0
102
RTVSPost2010PropOp52
 70
     0
102
RTVSPost2010Prop53
 90
        2
102
RTVSPost2010PropOp53
 70
     1
102
RTVSPost2010Prop54
  1
strokes_ogs.tif
102
RTVSPost2010PropOp54
 70
     1
102
RTVSPost2010Prop55
280
     0
102
RTVSPost2010PropOp55
 70
     1
102
RTVSPost2010Prop56
140
1.0
102
RTVSPost2010PropOp56
 70
     1
102
RTVSPost2010Prop57
140
1.0
102
RTVSPost2010PropOp57
 70
     1
  0
XRECORD
  5
112
102
{ACAD_REACTORS
330
111
102
}
330
111
100
AcDbXrecord
280
     1
102
RTVSPost2010Prop28
280
     0
102
RTVSPost2010PropOp28
 70
     1
102
RTVSPost2010Prop29
280
     1
102
RTVSPost2010PropOp29
 70
     1
102
RTVSPost2010Prop30
280
     1
102
RTVSPost2010PropOp30
 70
     1
102
RTVSPost2010Prop31
280
     0
102
RTVSPost2010PropOp31
 70
     1
102
RTVSPost2010Prop32
280
     0
102
RTVSPost2010PropOp32
 70
     1
102
RTVSPost2010Prop33
280
     0
102
RTVSPost2010PropOp33
 70
     1
102
RTVSPost2010Prop34
280
     0
102
RTVSPost2010PropOp34
 70
     1
102
RTVSPost2010Prop35
280
     0
102
RTVSPost2010PropOp35
 70
     1
102
RTVSPost2010Prop36
280
     0
102
RTVSPost2010PropOp36
 70
     1
102
RTVSPost2010Prop37
 90
       50
102
RTVSPost2010PropOp37
 70
     1
102
RTVSPost2010Prop38
140
0.0
102
RTVSPost2010PropOp38
 70
     1
102
RTVSPost2010Prop39
140
1.0
102
RTVSPost2010PropOp39
 70
     1
102
RTVSPost2010Prop40
 90
        0
102
RTVSPost2010PropOp40
 70
     1
102
RTVSPost2010Prop41ColorIndex
 90
       18
102
RTVSPost2010Prop41ColorRGB
 90
        0
102
RTVSPost2010PropOp41
 70
     1
102
RTVSPost2010Prop42
 90
       50
102
RTVSPost2010PropOp42
 70
     1
102
RTVSPost2010Prop43
 90
        3
102
RTVSPost2010PropOp43
 70
     1
102
RTVSPost2010Prop44ColorIndex
 90
        5
102
RTVSPost2010Prop44ColorRGB
 90
      255
102
RTVSPost2010PropOp44
 70
     1
102
RTVSPost2010Prop45
280
     0
102
RTVSPost2010PropOp45
 70
     1
102
RTVSPost2010Prop46
 90
       50
102
RTVSPost2010PropOp46
 70
     1
102
RTVSPost2010Prop47
 90
       50
102
RTVSPost2010PropOp47
 70
     1
102
RTVSPost2010Prop48
 90
       50
102
RTVSPost2010PropOp48
 70
     1
102
RTVSPost2010Prop49
280
     0
102
RTVSPost2010PropOp49
 70
     1
102
RTVSPost2010Prop50
 90
       50
102
RTVSPost2010PropOp50
 70
     1
102
RTVSPost2010Prop51ColorIndex
 90
      256
102
RTVSPost2010Prop51ColorRGB
 90
-16777216
102
RTVSPost2010PropOp51
 70
     0
102
RTVSPost2010Prop52
140
1.0
102
RTVSPost2010PropOp52
 70
     0
102
RTVSPost2010Prop53
 90
        2
102
RTVSPost2010PropOp53
 70
     1
102
RTVSPost2010Prop54
  1
strokes_ogs.tif
102
RTVSPost2010PropOp54
 70
     1
102
RTVSPost2010Prop55
280
     0
102
RTVSPost2010PropOp55
 70
     1
102
RTVSPost2010Prop56
140
1.0
102
RTVSPost2010PropOp56
 70
     1
102
RTVSPost2010Prop57
140
1.0
102
RTVSPost2010PropOp57
 70
     1
  0
ENDSEC
  0
EOF
